<svg id="Layer_1" data-name="Layer 1" xmlns="http://www.w3.org/2000/svg" viewBox="0 0 100 100"><defs><style>.cls-1{fill:#fff;}</style></defs><title>recursos index</title><g id="Grupo_127" data-name="Grupo 127"><g id="Grupo_126" data-name="Grupo 126"><g id="Grupo_129" data-name="Grupo 129"><path id="Trazado_403" data-name="Trazado 403" class="cls-1" d="M50,0a50,50,0,1,0,50,50A50,50,0,0,0,50,0Zm0,94.28A44.29,44.29,0,1,1,94.29,50,44.29,44.29,0,0,1,50,94.28h0Z"/><path id="Trazado_404" data-name="Trazado 404" class="cls-1" d="M52.86,48.82V18.52a2.81,2.81,0,0,0-2.81-2.81h-.11a2.81,2.81,0,0,0-2.81,2.81h0V50.06a2.85,2.85,0,0,0,1.08,2.19l.06.07,15.4,15.39a2.42,2.42,0,0,0,3.44,0h0l.59-.59a2.44,2.44,0,0,0,0-3.45h0Z"/></g></g></g></svg>