<svg id="Layer_1" data-name="Layer 1" xmlns="http://www.w3.org/2000/svg" viewBox="0 0 100 100"><defs><style>.cls-1{fill:#fff;}</style></defs><title>recursos index</title><path id="Trazado_398" data-name="Trazado 398" class="cls-1" d="M90.41,33.8l9.15-13.23L90.41,7.69H53.08V2.81a2.82,2.82,0,1,0-5.63,0V7.69H19.28V33.8H47.45v7.7H8.71L-.44,54.38,8.71,67.61H47.44V97.19a2.82,2.82,0,0,0,5.64,0h0V67.61H79.84V41.5H53.08V33.8ZM12.46,62.67,6.6,54.38l5.86-7.51h35v15.8Zm61.75-15.8v15.8H53.08V46.87Zm12.46-33.8,5.85,7.5-5.85,8.3H53.08V13.07ZM24.91,28.87V13.07H47.45v15.8Z"/></svg>