<svg id="Layer_1" data-name="Layer 1" xmlns="http://www.w3.org/2000/svg" viewBox="0 0 100 100"><defs><style>.cls-1{fill:#fff;}</style></defs><title>recursos index</title><g id="Grupo_125" data-name="Grupo 125"><path id="Trazado_400" data-name="Trazado 400" class="cls-1" d="M1.13,28.94,48,55a2.16,2.16,0,0,0,2.08,0L98.85,28.89a2.16,2.16,0,0,0,0-3.81L52-1a2.19,2.19,0,0,0-2.08,0L1.15,25.13a2.17,2.17,0,0,0,0,3.81ZM10.81,26,49.48,5.54a1.67,1.67,0,0,1,1.55,0L88.23,26a1.58,1.58,0,0,1,.64,2.15,1.65,1.65,0,0,1-.66.65L49.53,49.22a1.65,1.65,0,0,1-1.54,0L10.79,28.8a1.58,1.58,0,0,1,0-2.81Z"/><path id="Trazado_401" data-name="Trazado 401" class="cls-1" d="M98.88,71.06l-9.63-5.35L83,69.05l5.26,2.89a1.58,1.58,0,0,1,.64,2.14,1.53,1.53,0,0,1-.66.65L49.53,95.2a1.64,1.64,0,0,1-1.55,0L10.78,74.77a1.58,1.58,0,0,1-.65-2.14A1.61,1.61,0,0,1,10.8,72l4.45-2.36L10.4,66.16l-9.25,5A2.17,2.17,0,0,0,.25,74a2.23,2.23,0,0,0,.87.88L48,101a2.19,2.19,0,0,0,2.08,0L98.84,74.87a2.17,2.17,0,0,0,.9-2.93A2.14,2.14,0,0,0,98.88,71.06Z"/><path id="Trazado_402" data-name="Trazado 402" class="cls-1" d="M98.88,48.81l-9.63-5.34L83,46.81l5.26,2.88a1.59,1.59,0,0,1,0,2.8L49.53,73a1.67,1.67,0,0,1-1.55,0L10.78,52.53a1.59,1.59,0,0,1-.65-2.14,1.64,1.64,0,0,1,.67-.66l4.45-2.35L10.4,43.91l-9.25,5a2.16,2.16,0,0,0,0,3.81L48,78.72a2.16,2.16,0,0,0,2.08,0L98.84,52.62a2.17,2.17,0,0,0,.9-2.93A2.21,2.21,0,0,0,98.88,48.81Z"/></g></svg>