<svg id="Layer_1" data-name="Layer 1" xmlns="http://www.w3.org/2000/svg" viewBox="0 0 100 100"><defs><style>.cls-1{fill:#fff;}</style></defs><title>recursos index</title><path id="Trazado_399" data-name="Trazado 399" class="cls-1" d="M92.75,21.75A7.24,7.24,0,0,0,85.5,29a7,7,0,0,0,.15,1.45L66,50a7.18,7.18,0,0,0-10.16-.17,5.89,5.89,0,0,0-.71.79L39,40.9a7.22,7.22,0,1,0-12.85,5.53L8.67,63.92a7.24,7.24,0,1,0,5.68,8.53A7.62,7.62,0,0,0,14.49,71,7.16,7.16,0,0,0,13,66.69L30.56,49.15a7.15,7.15,0,0,0,7.32-3.06l15.8,9.53a7.23,7.23,0,1,0,14.44-.55L88.43,34.76a7.23,7.23,0,1,0,4.33-13Z"/></svg>