<svg id="Layer_1" data-name="Layer 1" xmlns="http://www.w3.org/2000/svg" viewBox="0 0 100 100"><defs><style>.cls-1{fill:#fff;}</style></defs><title>recursos index</title><g id="Grupo_123" data-name="Grupo 123"><path id="Trazado_397" data-name="Trazado 397" class="cls-1" d="M87.73,0h-75A12.51,12.51,0,0,0,.23,12.5v75A12.52,12.52,0,0,0,12.73,100H50.22V65.62H37.73V50h12.5V37.5A18.75,18.75,0,0,1,69,18.76h12.5V34.38H75.23c-3.45,0-6.25-.33-6.25,3.12V50H84.61L78.36,65.63H69V100H87.73a12.5,12.5,0,0,0,12.5-12.5v-75A12.5,12.5,0,0,0,87.73,0Z"/></g></svg>