<svg id="Layer_1" data-name="Layer 1" xmlns="http://www.w3.org/2000/svg" viewBox="0 0 100 100"><defs><style>.cls-1{fill:#fff;}</style></defs><title>recursos index</title><path id="Trazado_395" data-name="Trazado 395" class="cls-1" d="M86.23,95.72l-.08.08c-5.64,5.2-15.14,5.57-26.78,1A101.49,101.49,0,0,1,26.09,73.91,111,111,0,0,1,6.89,48.68q-1.15-2.13-2.11-4.22c-.64-1.39-1.24-2.8-1.77-4.18-.24-.65-.42-1.26-.65-1.92A38.86,38.86,0,0,1,0,26a19.32,19.32,0,0,1,1.87-8.56,14.7,14.7,0,0,1,2.72-4l9-9L18.05,0h0l20.11,20.1,6.7,6.71L31.78,39.9c1.32,2,2.84,3.92,4.36,5.86a106.42,106.42,0,0,0,8.35,9.53l.12.12A100.79,100.79,0,0,0,60.16,68.19L65,63.35h0l8.17-8.17,5.37,5.36L100,82Z"/></svg>