<svg xmlns="http://www.w3.org/2000/svg" width="19" height="19" viewBox="0 0 19 19">
  <path id="Trazado_405" data-name="Trazado 405" d="M1998.644,1471.687l-.016.016c-1.071.989-2.877,1.06-5.088.2a19.3,19.3,0,0,1-6.324-4.359,21.141,21.141,0,0,1-3.648-4.794c-.144-.27-.279-.538-.4-.8s-.235-.53-.335-.792c-.047-.125-.083-.244-.125-.367a7.4,7.4,0,0,1-.446-2.347,3.672,3.672,0,0,1,.354-1.626,2.774,2.774,0,0,1,.517-.758l1.705-1.7.852-.852h0l3.821,3.82,1.273,1.274-2.484,2.483c.252.377.541.745.829,1.112a19.868,19.868,0,0,0,1.587,1.811l.023.023a19.144,19.144,0,0,0,2.955,2.429l.921-.92h0l1.554-1.553,1.019,1.019,4.075,4.075Z" transform="translate(-1982.26 -1453.5)" fill="#3b5998"/>
</svg>
