<svg xmlns="http://www.w3.org/2000/svg" width="86" height="86" viewBox="0 0 86 86">
  <g id="Grupo_298" data-name="Grupo 298" transform="translate(-2730 -1954)">
    <rect id="Rectángulo_92" data-name="Rectángulo 92" width="86" height="86" transform="translate(2730 1954)" fill="none"/>
    <path id="Trazado_556" data-name="Trazado 556" d="M1442.865-1557.141c-6.833-18.676-29.833-19.234-37.361-16.868s-17.978,9.619-18.4,26.345c0,0-4.741,7.111-8.639,8.924,0,0-1.117,1.117.417,2.654s3.9,3.621,3.9,5.155.835,9.762,0,13.1-1.676,8.221,5.16,9.2,12.124,1.953,14.078,15.054c0,0,23.7,1.534,29.689-4.459,0,0-1.113-11.987,2.65-17.982S1449.7-1538.46,1442.865-1557.141Zm-37.367-.693h4.818v-3.391h6.885v3.391h4.82v3.6H1405.5Zm-1.007,6.766h18.535v2.649h-18.532Zm0,5.705h18.535v2.645h-18.532Zm0,5.88h18.535v2.649h-18.532Zm18.369,9.869-.647.43-.049.775-.766.133-.36.688-.752-.193-.608.482-.609-.482-.752.193-.36-.688-.766-.133-.048-.775-.647-.43.27-.73-.416-.655.543-.555-.113-.768.722-.286.209-.748.776.032.495-.6.7.346.7-.346.5.6.776-.032.21.748.722.286-.113.768.543.555-.416.655Zm6.423,6.264h-31.047V-1558h4.723v2.663H1400.9v29.322h25.719v-29.322h-2.8V-1558h5.462Z" transform="translate(1361.927 3530.998)" fill="#0071bc"/>
  </g>
</svg>
