<svg xmlns="http://www.w3.org/2000/svg" width="86" height="86" viewBox="0 0 86 86">
  <g id="Grupo_290" data-name="Grupo 290" transform="translate(-2034 -1954)">
    <rect id="Rectángulo_92" data-name="Rectángulo 92" width="86" height="86" transform="translate(2034 1954)" fill="none"/>
    <g id="Grupo_201" data-name="Grupo 201" transform="translate(2036 1956)">
      <path id="Trazado_558" data-name="Trazado 558" d="M-1376.779-716.546v-4.393c4.42-2.234,7.514-7.385,7.514-13.382,0-8.055-5.56-14.579-12.423-14.579s-12.423,6.524-12.423,14.579c0,6,3.094,11.149,7.515,13.382v3.846c-8.082.738-18.281,4.222-19.326,6.237v18.1h48.47v-18.1C-1357.451-713.336-1368.831-715.461-1376.779-716.546Z" transform="translate(1405.922 774.094)" fill="#0071bc"/>
      <path id="Trazado_559" data-name="Trazado 559" d="M-1328.55-787c-12.925,0-23.445,8.457-23.445,18.846a16.557,16.557,0,0,0,4.863,11.483l-2.425,4.166a2.116,2.116,0,0,0,.161,2.377,2.125,2.125,0,0,0,1.671.813,2.275,2.275,0,0,0,.6-.082l7.446-2.179a28.162,28.162,0,0,0,11.128,2.261c12.929,0,23.446-8.45,23.446-18.84S-1315.616-787-1328.55-787Zm0,33.439a23.754,23.754,0,0,1-10.062-2.193,2.08,2.08,0,0,0-.906-.205,2.214,2.214,0,0,0-.595.082l-3.087.909.587-1a2.121,2.121,0,0,0-.431-2.664,12.761,12.761,0,0,1-4.7-9.516c0-8.047,8.615-14.6,19.2-14.6s19.2,6.551,19.2,14.6S-1317.964-753.561-1328.55-753.561Z" transform="translate(1387.654 787)" fill="#0071bc"/>
    </g>
  </g>
</svg>
