<svg xmlns="http://www.w3.org/2000/svg" width="86" height="86" viewBox="0 0 86 86">
  <g id="Grupo_299" data-name="Grupo 299" transform="translate(-2904 -1954)">
    <rect id="Rectángulo_92" data-name="Rectángulo 92" width="86" height="86" transform="translate(2904 1954)" fill="none"/>
    <path id="Trazado_557" data-name="Trazado 557" d="M1440.482-769.8c-6.582-17.989-28.736-18.527-35.987-16.248s-17.317,9.266-17.723,25.377c0,0-4.567,6.849-8.322,8.6,0,0-1.076,1.076.4,2.556s3.757,3.488,3.757,4.966.8,9.4,0,12.622-1.615,7.918,4.97,8.86,11.678,1.881,13.56,14.5c0,0,22.825,1.477,28.6-4.3,0,0-1.072-11.546,2.552-17.321S1447.064-751.8,1440.482-769.8Zm-35.8,33.309h-8.4v-11.2h8.4Zm10.805,0h-8.4V-754.1h8.4Zm-19.752-17-1.312-2.01,21.7-14.159-1.8-2.755,8.964-.489-4.058,8.009-1.8-2.755Zm30.557,17h-8.4V-761.7h8.4Z" transform="translate(1536.927 2745)" fill="#0071bc"/>
  </g>
</svg>
