<svg xmlns="http://www.w3.org/2000/svg" width="86" height="86" viewBox="0 0 86 86">
  <g id="Grupo_292" data-name="Grupo 292" transform="translate(-2208 -1954)">
    <rect id="Rectángulo_92" data-name="Rectángulo 92" width="86" height="86" transform="translate(2208 1954)" fill="none"/>
    <g id="Grupo_202" data-name="Grupo 202" transform="translate(2224 1956)">
      <path id="Trazado_560" data-name="Trazado 560" d="M47.819,23.679,45.438,24.8l-8.281,3.9a5.169,5.169,0,0,1-4.084.14l-13-5.071-2.8-1.091a35.705,35.705,0,0,0-.982,5.995c-2.432.421-3.812,2.3-3.154,6.143.556,3.255,2.089,5.966,4.862,6.207,2.723,7.042,7.845,11.67,14.433,11.67,6.292,0,11.743-4.452,14.435-11.67,2.826-.264,4.307-2.992,4.858-6.207.66-3.847-.726-5.722-3.155-6.143A38.858,38.858,0,0,0,47.819,23.679ZM44.444,32.3C44,41.574,39,48.121,32.426,48.121c-6.194,0-10.819-5.664-11.755-13.563a22.9,22.9,0,0,1-.085-5.029,28.3,28.3,0,0,0,11.866,2.386,28.2,28.2,0,0,0,11.889-2.409A15.812,15.812,0,0,1,44.444,32.3Z" transform="translate(-5.575 -7.719)" fill="#0071bc"/>
      <path id="Trazado_561" data-name="Trazado 561" d="M47.12,61.316l-.011-.01L33.794,94.192,20.476,61.306a21.166,21.166,0,0,0-3.562,2.731l15.2,37.934c.594.019,1.188.033,1.792.033.528,0,1.048-.01,1.562-.024L50.679,64.035a20.992,20.992,0,0,0-3.559-2.719Z" transform="translate(-6.917 -20.862)" fill="#0071bc"/>
      <path id="Trazado_562" data-name="Trazado 562" d="M71.557,93.185c-.629-12.191-4.063-20.051-8.22-24.928L48.932,104.2c5.781-.511,10.285-2.149,12.779-4.894l5.261-.269C69.662,98.855,71.715,96.236,71.557,93.185Z" transform="translate(-17.812 -23.227)" fill="#0071bc"/>
      <path id="Trazado_563" data-name="Trazado 563" d="M1.769,93.186C1.61,96.24,3.663,98.86,6.351,99.038c.1.007,5.263.268,5.263.268,2.556,2.9,7.271,4.393,12.774,4.882L9.993,68.268C5.86,73.122,2.4,80.964,1.769,93.186Z" transform="translate(-1.76 -23.231)" fill="#0071bc"/>
      <path id="Trazado_564" data-name="Trazado 564" d="M9.772,21.265c1.013,0,1.833.01,1.833-1a15.042,15.042,0,0,0-.987-4.327,1.816,1.816,0,0,0,.387-2.961V9.519h18.9a.8.8,0,0,1,.8.8v.026a.83.83,0,0,1-.829.831H14.39a.33.33,0,0,0-.122.635l17.425,6.94a4.121,4.121,0,0,0,3.258-.112l16.783-7.908A1.487,1.487,0,0,0,51.631,8L31.371.271A4.129,4.129,0,0,0,28.285.33l-15.753,6.7H9.761A1.246,1.246,0,0,0,8.518,8.273v4.718a1.819,1.819,0,0,0,.407,2.945,15.042,15.042,0,0,0-.984,4.327C7.94,21.274,8.762,21.265,9.772,21.265Z" transform="translate(-3.863 -0.001)" fill="#0071bc"/>
    </g>
  </g>
</svg>
