<svg xmlns="http://www.w3.org/2000/svg" width="86" height="86" viewBox="0 0 86 86">
  <g id="Grupo_293" data-name="Grupo 293" transform="translate(-2382 -1954)">
    <rect id="Rectángulo_92" data-name="Rectángulo 92" width="86" height="86" transform="translate(2382 1954)" fill="none"/>
    <g id="Grupo_288" data-name="Grupo 288" transform="translate(2387 1956)">
      <path id="Trazado_1111" data-name="Trazado 1111" d="M677.452,353.715l.06-4.166,3.382-.053a3.506,3.506,0,0,0,2.449-5.964,3.492,3.492,0,0,0,.738-4.7,3.507,3.507,0,0,0-1.241-6.731,3.473,3.473,0,0,0,.437-1.741,3.518,3.518,0,0,0-3.565-3.455l-1.609.025.174-5a13.682,13.682,0,0,0,4.713-8.646c.36-5.082-5.16-7.889-5.4-8.007a.861.861,0,0,0-1.244.736l-.294,7.241c-.04.538-1.481.776-2.3.758a1.908,1.908,0,0,1-1.8-1.731l.024-6.1a.861.861,0,0,0-1.1-.83c-3.34.984-4.951,6.123-5.018,6.342-.008.026-.014.052-.02.078a9.492,9.492,0,0,0,2.891,8.721,11.516,11.516,0,0,0,1.831,1.523.861.861,0,1,0,.924-1.453c-.05-.033-5-3.248-3.967-8.4a10.846,10.846,0,0,1,2.735-4.536l-.018,4.717a.889.889,0,0,0,.006.108,3.6,3.6,0,0,0,3.495,3.287c1.433.038,3.9-.415,4.04-2.382l.235-5.787c1.38,1,3.447,2.95,3.26,5.6a12.277,12.277,0,0,1-4.4,7.7.86.86,0,0,0-.3.625l-.181,5.181a5.152,5.152,0,0,0-2.533-2.951,6.516,6.516,0,0,0-3.75-.214,13.109,13.109,0,0,0-2.95.742,14.365,14.365,0,0,0-2.882,1.749l-.434.311a38.741,38.741,0,0,1-6.537,3.749.861.861,0,1,0,.708,1.57c.076-.034.15-.074.226-.109a40.478,40.478,0,0,0,6.6-3.806l.443-.318a12.886,12.886,0,0,1,2.532-1.553,11.434,11.434,0,0,1,2.563-.633,5.033,5.033,0,0,1,2.767.082,3.305,3.305,0,0,1,1.507,1.688,6.535,6.535,0,0,1,.256.641,9.189,9.189,0,0,1,.29,1.073,12.885,12.885,0,0,1,.189,3.574c0,.03,0,.059-.006.089-.042.547-.109,1.094-.19,1.637q-.042.278-.087.554c-.1.589-.21,1.172-.325,1.743-.051.253-.1.5-.153.752,0,.02-.01.05-.018.084a2.16,2.16,0,0,1-.264-.117,10.45,10.45,0,0,1-1.356-.792,2.628,2.628,0,0,1-.907-1.029,3.914,3.914,0,0,1-.214-1.581c0-.027,0-.054,0-.08.01-.712.049-1.435.1-2.156.032-.477.067-.953.1-1.424a.861.861,0,0,0-1.7-.241c-.1.47-.2.943-.3,1.416a16.647,16.647,0,0,1-1.375,4.1,6.432,6.432,0,0,1-3.861,3.408.861.861,0,0,0-.4,1.44.861.861,0,0,0,.827.228,8.14,8.14,0,0,0,4.956-4.276q.1-.19.192-.383c.03.083.062.165.1.247a6.116,6.116,0,0,0,3.051,2.657c.087.045.171.081.254.117a3.5,3.5,0,0,0,.233,4.646,3.5,3.5,0,0,0,1.746,6.227l-.059,4.118c-.036.684-1.576.748-1.619.749-1.7.071-1.949-.888-1.984-1.217l-.054-12.859a.861.861,0,1,0-1.722.008l.033,7.887a14.758,14.758,0,0,1-9.64-1.577l-2.008-2.024a.861.861,0,0,0-.631-.255l-1.9.042.4-17.5-8.84-.208a1.076,1.076,0,1,0-.051,2.152l6.688.158-.41,17.876-6.012-.089a1.077,1.077,0,0,0-.032,2.153l8.147.12.068-2.941,1.611-.036,1.812,1.826a.851.851,0,0,0,.12.1c.172.12,4.148,2.818,10.687,1.944l.014,3.3a3.018,3.018,0,0,0,.864,1.894,3.658,3.658,0,0,0,2.883.96C675.332,356.12,677.352,355.609,677.452,353.715Zm6.495-19.388a1.75,1.75,0,0,1,.546,1.253,1.791,1.791,0,0,1-1.76,1.816l-.623.01a3.48,3.48,0,0,0-1-.13l-4.618.072c-.058,0-.115.007-.172.011.215-1.055.446-2.2.61-3.385l2.89-.045a3.5,3.5,0,0,0,.656-.073l2.2-.034A1.772,1.772,0,0,1,683.947,334.326Zm-4.209-5.7a1.777,1.777,0,0,1,1.27.506l.026.026a1.779,1.779,0,0,1-.8,2.974l-3.124.049a14.84,14.84,0,0,0-.17-3.51Zm-4.432,13.508a1.824,1.824,0,0,1-.545-1.253h0a1.774,1.774,0,0,1,1.2-1.708,3.493,3.493,0,0,0,.549.039l5.329-.083a1.793,1.793,0,0,1,.568.371l.026.026a1.78,1.78,0,0,1-.939,3.008,3.518,3.518,0,0,0-.71-.061l-4.619.072c-.047,0-.093.007-.14.01A1.787,1.787,0,0,1,675.306,342.138Zm-.873,3.948h0a1.787,1.787,0,0,1,1.461-1.781,3.54,3.54,0,0,0,.708.061l4.619-.073c.047,0,.093-.007.14-.009a1.785,1.785,0,0,1,.72.42,1.816,1.816,0,0,1,.545,1.254,1.795,1.795,0,0,1-1.759,1.815l-4.618.072A1.791,1.791,0,0,1,674.433,346.086Z" transform="translate(-628.759 -280.734)" fill="#0071bc"/>
      <path id="Trazado_1112" data-name="Trazado 1112" d="M647.6,245.907v-22.82h-9.423v14.878L625.5,227.282l-38.943,30.631,3.522,4.48,6.162-4.848v46.9h58.39V259.283l3.616,3.045,3.671-4.356Zm-7-20.165h4.766v18.17l-4.766-4.064Zm8.331,73.005h-47V253.061l23.436-18.431,23.56,19.85Z" transform="translate(-586.554 -223.087)" fill="#0071bc"/>
    </g>
  </g>
</svg>
