<svg xmlns="http://www.w3.org/2000/svg" width="86" height="86" viewBox="0 0 86 86">
  <g id="Grupo_296" data-name="Grupo 296" transform="translate(-2556 -1954)">
    <rect id="Rectángulo_92" data-name="Rectángulo 92" width="86" height="86" transform="translate(2556 1954)" fill="none"/>
    <g id="Grupo_205" data-name="Grupo 205" transform="translate(2570.762 3531)">
      <path id="Trazado_568" data-name="Trazado 568" d="M51.5-1524.446v-10.437l-18.263,9.913-18.263-9.914v10.437l18.263,9.915Z" transform="translate(-5.295 -13.503)" fill="#0071bc"/>
      <path id="Trazado_569" data-name="Trazado 569" d="M27.938-1575l-28.7,15.656,28.7,15.656,23.484-12.784v18h5.218v-20.875Z" fill="#0071bc"/>
      <path id="Trazado_570" data-name="Trazado 570" d="M50.764-1506.668a54.1,54.1,0,0,0-1.038-6.961L28.592-1505.1,7.176-1515.02a49.7,49.7,0,0,0-1.372,8.35c-3.387.586-5.311,3.2-4.394,8.558.775,4.534,2.91,8.311,6.772,8.647,3.793,9.809,10.928,16.253,20.1,16.253,8.765,0,16.359-6.2,20.107-16.253,3.936-.364,6-4.167,6.767-8.647C56.074-1503.47,54.151-1506.084,50.764-1506.668Zm-5.738,5.042c-.616,12.92-7.58,22.039-16.74,22.039-8.624,0-15.072-7.888-16.373-18.892a31.9,31.9,0,0,1-.117-7,39.457,39.457,0,0,0,16.527,3.322,39.272,39.272,0,0,0,16.559-3.355,22.073,22.073,0,0,1,.145,3.89Z" transform="translate(-0.654 -20.189)" fill="#0071bc"/>
    </g>
  </g>
</svg>
