<svg xmlns="http://www.w3.org/2000/svg" width="86" height="86" viewBox="0 0 86 86">
  <g id="Grupo_294" data-name="Grupo 294" transform="translate(-2382 -1848)">
    <rect id="Rectángulo_92" data-name="Rectángulo 92" width="86" height="86" transform="translate(2382 1848)" fill="none"/>
    <g id="Grupo_168" data-name="Grupo 168" transform="translate(2392 1849)">
      <path id="Trazado_426" data-name="Trazado 426" d="M595.764,85.693h46.611S628.819,74.751,629.058,62.86c.239-6.658,13.317-14.982,13.08-33.532,0-9.275-9.039-24.733-24.26-26.636S591.244,4.121,586.25,13.633s-5.47,17.6-4.994,19.266c.475,1.426,1.9,4.519,1.9,4.519s-7.611,11.891-7.135,13.795,5.708,2.852,5.708,2.852a5.97,5.97,0,0,1-.475,3.8c-.95,2.376,1.9,5.7,2.616,6.658s-1.189,4.278-.475,6.182,3.8,4.045,7.372,3.566,8.323-1.426,9.988-1.665C604.564,81.411,595.764,85.693,595.764,85.693Zm22.829-42.81c-.475.239-.714.475-.95.475v-.475a2.7,2.7,0,0,0-.475-2.14c-1.189-1.426-3.33-1.189-4.521.475a2.739,2.739,0,0,0-.232,2.379,2.411,2.411,0,0,0,1.663,1.426c.238,0,.238,0,.475.239-.24.24-.475.24-.714.475l-3.091,1.9-1.9-3.091c-.714-1.19-1.189-1.665-1.9-1.665a1.238,1.238,0,0,0-.95.475,1.8,1.8,0,0,0-.475.95c-.238.475-.238.475-.714.714a1.353,1.353,0,0,1-1.663-.945l0-.006c0-.238-.238-.951.238-1.426a.873.873,0,0,1,.714-.238h1.426a1.243,1.243,0,0,0,.951-.476c.237-.475,0-1.189-.475-2.376l-1.9-3.091,3.091-1.9c1.189-.714,1.665-1.188,1.665-1.9a1.236,1.236,0,0,0-.476-.95,1.785,1.785,0,0,0-.95-.475c-.475-.238-.475-.238-.714-.714s0-.714.238-.95c.475-.714,1.665-.951,2.14-.238a1.427,1.427,0,0,1,.238.95v.95c0,1.189,1.189,1.426,3.093.475l3.09-1.9,1.9,3.091c.24.476.475.714.475.951h-.475a3.533,3.533,0,0,0-2.14.475,2.271,2.271,0,0,0-.714,2.851,2.642,2.642,0,0,0,3.3,1.762,2.67,2.67,0,0,0,.27-.1,2.418,2.418,0,0,0,1.426-1.664c0-.239,0-.239.24-.475.24.238.24.475.475.714l1.9,3.091ZM630.01,26.712h-.475a3.537,3.537,0,0,0-2.142.476,2.269,2.269,0,0,0-.714,2.851,2.645,2.645,0,0,0,3.565,1.665,2.411,2.411,0,0,0,1.426-1.665c0-.239,0-.239.24-.475.24.24.24.475.475.714l1.9,3.091-3.091,1.9c-1.189.714-1.663,1.189-1.663,1.9a1.246,1.246,0,0,0,.475.95,1.8,1.8,0,0,0,.951.475c.475.238.475.238.714.714s0,.714-.238.951a1.358,1.358,0,0,1-2.143.24,1.426,1.426,0,0,1-.239-.95V38.6c0-.714-.475-.95-1.19-.95a4.758,4.758,0,0,0-1.9.714l-3.09,1.9-1.9-3.091c-.714-1.181-1.187-1.656-1.9-1.656a1.236,1.236,0,0,0-.95.475,1.794,1.794,0,0,0-.475.951c-.24.476-.24.476-.714.714a1.35,1.35,0,0,1-1.661-.943l0-.008c0-.24-.24-.951.238-1.426a.877.877,0,0,1,.716-.238h1.426a1.237,1.237,0,0,0,.951-.475c.239-.475.239-1.189-.475-2.377l-1.9-3.089,3.089-1.9c.475-.239.716-.475.951-.475V27.2a2.708,2.708,0,0,0,.475,2.142c1.189,1.426,3.327,1.189,4.519-.475a2.74,2.74,0,0,0,.239-2.377,2.414,2.414,0,0,0-1.663-1.426c-.24,0-.24,0-.475-.238.24-.238.475-.238.714-.475l3.091-1.9,1.9,3.091C629.774,26.237,630.01,26.474,630.01,26.712Zm-17.6-11.889c.476-.239.714-.475.951-.475v.475a2.7,2.7,0,0,0,.475,2.14c1.188,1.426,3.33.95,4.518-.475a2.738,2.738,0,0,0,.239-2.377,2.411,2.411,0,0,0-1.663-1.426c-.24,0-.24,0-.475-.239.24-.238.475-.238.716-.475l3.089-1.9,1.9,3.091c.713,1.189,1.187,1.665,1.9,1.665a1.237,1.237,0,0,0,.951-.475,1.787,1.787,0,0,0,.475-.951c.239-.475.239-.475.714-.714a1.348,1.348,0,0,1,1.659.938l0,.013c0,.238.24.951-.237,1.426a.883.883,0,0,1-.716.237h-1.426c-.475,0-.714.239-.95.714s0,1.189.475,2.376l1.9,3.091-3.089,1.9c-1.19.714-1.665,1.188-1.665,1.9a1.241,1.241,0,0,0,.475.95,1.8,1.8,0,0,0,.951.475c.475.238.475.238.714.714s0,.714-.24.951a1.355,1.355,0,0,1-2.141.24,1.439,1.439,0,0,1-.237-.95v-.951c0-.714-.475-.95-1.189-.95a4.776,4.776,0,0,0-1.9.714l-3.091,1.9-1.665-3.565c-.24-.475-.475-.714-.475-.95h.475a3.538,3.538,0,0,0,2.141-.475,2.269,2.269,0,0,0,.71-2.855,2.643,2.643,0,0,0-3.3-1.763,2.738,2.738,0,0,0-.268.1,2.419,2.419,0,0,0-1.426,1.665c0,.239,0,.239-.238.475-.238-.24-.238-.475-.475-.714l-1.9-3.091ZM601.471,31.946c-.238-.475-.475-.714-.475-.95h.475a2.427,2.427,0,0,0,2.14-.475,2.27,2.27,0,0,0,.714-2.852,2.648,2.648,0,0,0-3.306-1.76,2.557,2.557,0,0,0-.262.1,2.415,2.415,0,0,0-1.426,1.665c0,.239,0,.239-.238.475-.237-.238-.237-.475-.475-.714l-1.9-3.091,3.091-1.9c1.189-.714,1.665-1.189,1.665-1.9a1.235,1.235,0,0,0-.475-.95,1.8,1.8,0,0,0-.951-.475c-.475-.237-.475-.237-.713-.714s0-.714.238-.95c.475-.714,1.665-.951,2.14-.238a1.428,1.428,0,0,1,.237.95v.95c.238,1.19,1.189,1.426,3.091.475l3.091-1.9,1.9,3.091c.714,1.189,1.188,1.665,1.9,1.665a1.236,1.236,0,0,0,.95-.475,1.8,1.8,0,0,0,.475-.95c.238-.476.238-.476.714-.714a1.348,1.348,0,0,1,1.659.939l0,.012c0,.238.24.95-.239,1.426a.873.873,0,0,1-.714.238h-1.426a1.232,1.232,0,0,0-.95.475c-.239.475-.239,1.188.475,2.377l1.9,3.091-3.33,1.665c-.471.238-.71.475-.951.475v-.475a2.7,2.7,0,0,0-.475-2.142c-1.191-1.426-3.332-1.188-4.518.475a2.727,2.727,0,0,0-.238,2.377,2.413,2.413,0,0,0,1.665,1.426c.238,0,.238,0,.476.239-.238.239-.476.239-.714.475l-3.091,1.9Z" transform="translate(-576 -2.179)" fill="#0071bc"/>
    </g>
  </g>
</svg>
