<svg xmlns="http://www.w3.org/2000/svg" width="86" height="86" viewBox="0 0 86 86">
  <g id="Grupo_295" data-name="Grupo 295" transform="translate(-2556 -1848)">
    <rect id="Rectángulo_92" data-name="Rectángulo 92" width="86" height="86" transform="translate(2556 1848)" fill="none"/>
    <g id="Grupo_200" data-name="Grupo 200" transform="translate(2564.999 1849)">
      <path id="Trazado_550" data-name="Trazado 550" d="M-1319.8-1521.449l.315-.327a1.3,1.3,0,0,0-.036-1.843,1.276,1.276,0,0,0-.929-.361,1.293,1.293,0,0,0-.913.4l-1.112,1.156a2.524,2.524,0,0,1-.3.377l-1.46,1.519c.53.694,1,1.4,1.438,2.053.028-.031.054-.067.083-.095l2.333-2.427A2.574,2.574,0,0,1-1319.8-1521.449Z" transform="translate(1371.279 1558.418)" fill="#0071bc"/>
      <path id="Trazado_551" data-name="Trazado 551" d="M-1316.467-1516.828a1.3,1.3,0,0,0-.172-1.669,1.29,1.29,0,0,0-.9-.361h-.027a1.319,1.319,0,0,0-.483.1l-2.693,2.8a2.6,2.6,0,0,1-.3.265,1.286,1.286,0,0,0-.131.585,1.3,1.3,0,0,0,.4.914h0a1.332,1.332,0,0,0,.929.362,1.31,1.31,0,0,0,.587-.157c.022-.026.043-.053.068-.078l2.333-2.43a2.557,2.557,0,0,1,.4-.333Z" transform="translate(1370.284 1556.753)" fill="#0071bc"/>
      <path id="Trazado_552" data-name="Trazado 552" d="M-1362.14-1552.53a5.068,5.068,0,0,0-5.068,5.07,5.069,5.069,0,0,0,5.068,5.067,5.068,5.068,0,0,0,5.071-5.067,5.07,5.07,0,0,0-5.071-5.071Z" transform="translate(1385.244 1567.696)" fill="#0071bc"/>
      <path id="Trazado_553" data-name="Trazado 553" d="M-1324.638-1524.4a1.3,1.3,0,0,0-.4-.914,1.292,1.292,0,0,0-.9-.361h-.026a1.291,1.291,0,0,0-.914.4l-1.413,1.47a10.806,10.806,0,0,1,1.9,1.714l1.579-1.642A1.3,1.3,0,0,0-1324.638-1524.4Z" transform="translate(1372.595 1558.969)" fill="#0071bc"/>
      <path id="Trazado_554" data-name="Trazado 554" d="M-1328-1556.828c-6.953-19-30.356-19.571-38.015-17.163s-18.293,9.788-18.721,26.806c0,0-4.825,7.236-8.791,9.08,0,0-1.137,1.137.424,2.7s3.969,3.684,3.969,5.246.85,9.933,0,13.333-1.706,8.365,5.25,9.36,12.336,1.987,14.324,15.318c0,0,24.111,1.561,30.209-4.537,0,0-1.132-12.2,2.7-18.3S-1321.048-1537.82-1328-1556.828Zm-40.068,8.751a7.253,7.253,0,0,1-1.769.473l.087,1.282a8.35,8.35,0,0,1-1.073.076,8.55,8.55,0,0,1-1.038-.068l.083-1.287a7.2,7.2,0,0,1-1.771-.465l-.569,1.16a8.553,8.553,0,0,1-1.823-1.061l.714-1.071a7.243,7.243,0,0,1-1.3-1.291l-1.067.719a8.446,8.446,0,0,1-1.07-1.822l1.157-.572a7.273,7.273,0,0,1-.472-1.772l-1.287.088a8.421,8.421,0,0,1-.075-1.072,8.624,8.624,0,0,1,.068-1.041l1.288.082a7.146,7.146,0,0,1,.465-1.771l-1.161-.568a8.585,8.585,0,0,1,1.062-1.827l1.072.713a7.265,7.265,0,0,1,1.291-1.3l-.717-1.067a8.471,8.471,0,0,1,1.823-1.069l.571,1.157a7.205,7.205,0,0,1,1.771-.473l-.09-1.286a8.7,8.7,0,0,1,1.074-.074,8.648,8.648,0,0,1,1.042.068l-.084,1.289a7.143,7.143,0,0,1,1.771.465l.568-1.161a8.464,8.464,0,0,1,1.827,1.062l-.715,1.072a7.144,7.144,0,0,1,1.3,1.291l1.069-.719a8.59,8.59,0,0,1,1.069,1.822l-1.158.575a7.217,7.217,0,0,1,.473,1.769l1.286-.088a8.65,8.65,0,0,1,.076,1.075,8.293,8.293,0,0,1-.068,1.038l-1.288-.083a7.173,7.173,0,0,1-.466,1.772l1.161.568a8.494,8.494,0,0,1-1.063,1.822l-1.07-.713a7.348,7.348,0,0,1-1.292,1.3l.718,1.067a8.455,8.455,0,0,1-1.823,1.07Zm29.243,24.773a2.2,2.2,0,0,1-1.423-.524l-1.717-1.687a11.561,11.561,0,0,1-6.491,4.531.589.589,0,0,1-.113.011h-1.875l-.81.852,1.485,1.544-4.245,4.154a.783.783,0,0,1-.549.224.784.784,0,0,1-.561-.236.786.786,0,0,1,.012-1.11l3.132-3.065-9.039-9.389-3.515,3.38a.784.784,0,0,1-.559.219.782.782,0,0,1-.549-.241.783.783,0,0,1-.219-.559.783.783,0,0,1,.24-.55l4.646-4.467,8.848,9.191.955-1.007a.628.628,0,0,1,.455-.2h2.078a10.76,10.76,0,0,0,5.765-4.179l-4.1-4.032a.627.627,0,0,1-.007-.888.627.627,0,0,1,.887-.007l6.683,6.573c.188.151.81.515,1.648-.4.022-.022.778-.852.444-1.222l-2.1-2.145a2.551,2.551,0,0,1-1.579.548,2.552,2.552,0,0,1-1.773-.713,2.556,2.556,0,0,1-.766-2.128,2.537,2.537,0,0,1-1.755-.711,2.533,2.533,0,0,1-.766-1.553c-.062.025-.124.05-.191.072a4.453,4.453,0,0,1-2.941.214c-.061-.023-.121-.049-.179-.076.035.1.068.2.1.3a5.935,5.935,0,0,1-.332,4.76.626.626,0,0,1-.54.311.626.626,0,0,1-.316-.085.626.626,0,0,1-.307-.587.624.624,0,0,1,.082-.27,4.687,4.687,0,0,0,.219-3.747,12.129,12.129,0,0,0-1.414-2.816c-.19-.3-.385-.591-.578-.883a.627.627,0,0,1,.143-.846.624.624,0,0,1,.624-.076.612.612,0,0,1,.231.165c.225.26.454.523.684.784.348.4.7.786,1.065,1.157l.041.041a2.871,2.871,0,0,0,.928.7,1.917,1.917,0,0,0,1,.059,7.512,7.512,0,0,0,1.106-.295,1.514,1.514,0,0,0,.2-.077c-.013-.021-.026-.04-.034-.052-.1-.153-.2-.309-.311-.465-.237-.352-.481-.708-.736-1.062-.079-.11-.16-.22-.241-.33-.24-.32-.488-.636-.75-.938l-.043-.049a9.364,9.364,0,0,0-1.946-1.737,6.823,6.823,0,0,0-.7-.4,5.015,5.015,0,0,0-.463-.2,2.407,2.407,0,0,0-1.647-.086,3.663,3.663,0,0,0-1.463,1.39,8.31,8.31,0,0,0-.988,1.651,9.43,9.43,0,0,0-.5,2.108l-.062.392a29.509,29.509,0,0,1-1.418,5.37c-.021.057-.038.116-.059.173a.63.63,0,0,1-.81.368.626.626,0,0,1-.352-.329.627.627,0,0,1-.016-.481,28.28,28.28,0,0,0,1.418-5.307l.061-.384a10.473,10.473,0,0,1,.574-2.389,9.561,9.561,0,0,1,1.131-1.907,4.748,4.748,0,0,1,2.036-1.83,3.754,3.754,0,0,1,2.827.2l-2.588-2.753a.625.625,0,0,1-.168-.473,8.949,8.949,0,0,0-1.728-6.233c-1.277-1.459-3.349-1.393-4.573-1.19l2.874,3.092c.945,1.085-.087,2.592-.842,3.314a2.62,2.62,0,0,1-3.495.12.647.647,0,0,1-.059-.052l-2.43-2.43a7.9,7.9,0,0,0,.945,3.744c2.134,3.182,6.341,2.27,6.384,2.26a.629.629,0,0,1,.751.473.628.628,0,0,1-.473.751,8.465,8.465,0,0,1-1.728.166,6.921,6.921,0,0,1-6-2.981c-.011-.017-.021-.034-.03-.05-.079-.147-1.911-3.619-.705-5.852a.627.627,0,0,1,.462-.323.628.628,0,0,1,.534.178l3.144,3.144a1.391,1.391,0,0,0,1.823-.043c.428-.413,1.045-1.282.787-1.578l-3.6-3.869a.627.627,0,0,1-.149-.581.628.628,0,0,1,.4-.441c.182-.061,4.468-1.476,6.913,1.319a9.974,9.974,0,0,1,2.054,6.878l2.5,2.657.813-.846a2.54,2.54,0,0,1,1.794-.782,2.56,2.56,0,0,1,1.822.712,2.529,2.529,0,0,1,.675,1.119,2.536,2.536,0,0,1,1.693-.687,2.553,2.553,0,0,1,1.823.71,2.561,2.561,0,0,1,.6,2.79,2.541,2.541,0,0,1,1.287.665,2.555,2.555,0,0,1,.766,2.129,2.544,2.544,0,0,1,1.755.711,2.541,2.541,0,0,1,.783,1.795,2.54,2.54,0,0,1-.712,1.822l-1.709,1.777,2.125,2.17c.929,1.024.156,2.331-.444,2.945a2.669,2.669,0,0,1-1.981,1Z" transform="translate(1393.927 1574.998)" fill="#0071bc"/>
      <path id="Trazado_555" data-name="Trazado 555" d="M-1312.506-1513.384a1.293,1.293,0,0,0-.4-.913,1.325,1.325,0,0,0-.929-.362,1.3,1.3,0,0,0-.586.158c-.023.025-.043.052-.068.077l-2.333,2.427a2.579,2.579,0,0,1-.395.338,1.3,1.3,0,0,0,.171,1.67h0a1.305,1.305,0,0,0,1.843-.036l2.334-2.427A1.293,1.293,0,0,0-1312.506-1513.384Z" transform="translate(1369.069 1555.388)" fill="#0071bc"/>
    </g>
  </g>
</svg>
