<svg xmlns="http://www.w3.org/2000/svg" width="86" height="86" viewBox="0 0 86 86">
  <g id="Grupo_297" data-name="Grupo 297" transform="translate(-2730 -1848)">
    <rect id="Rectángulo_92" data-name="Rectángulo 92" width="86" height="86" transform="translate(2730 1848)" fill="none"/>
    <g id="Grupo_199" data-name="Grupo 199" transform="translate(2761.944 2644)">
      <path id="Trazado_544" data-name="Trazado 544" d="M51.2-754.844v43.19a5.98,5.98,0,0,1-5.98,5.98H-22.966a5.98,5.98,0,0,1-5.98-5.981v-43.19a4.056,4.056,0,0,1,4.055-4.056H47.142a4.055,4.055,0,0,1,4.055,4.055Z" transform="translate(0 -12.34)" fill="#0071bc"/>
      <path id="Trazado_545" data-name="Trazado 545" d="M-28.946-732.8v10.219l40.229,4.992,16.311-2.04,23.6-2.952V-732.8Z" transform="translate(0 -23.801)" fill="#71bcf8"/>
      <path id="Trazado_546" data-name="Trazado 546" d="M45.979-772.715H42.823v-6.164a4.971,4.971,0,0,0-4.965-4.965H22.874a4.971,4.971,0,0,0-4.965,4.965v6.164H14.753v-6.164A8.133,8.133,0,0,1,22.874-787H37.858a8.132,8.132,0,0,1,8.121,8.121Z" transform="translate(-19.19)" fill="#0071bc"/>
      <rect id="Rectángulo_71" data-name="Rectángulo 71" width="6.729" height="3.187" transform="translate(-6.06 -774.368)" fill="#71bcf8"/>
      <rect id="Rectángulo_72" data-name="Rectángulo 72" width="6.729" height="3.187" transform="translate(21.908 -774.368)" fill="#71bcf8"/>
      <path id="Trazado_547" data-name="Trazado 547" d="M51.2-755.279V-736.4l-39.914,4.992L-28.946-736.4v-18.875a3.621,3.621,0,0,1,3.622-3.622h72.9a3.621,3.621,0,0,1,3.621,3.622Z" transform="translate(0 -12.34)" fill="#0071bc"/>
      <path id="Exclusión_1" data-name="Exclusión 1" d="M-16683.5-2626.171h0l-5.193-2.245V-2644h10.387v15.585l-5.193,2.245Zm0-9.172a3.073,3.073,0,0,0-3.07,3.07,3.073,3.073,0,0,0,3.07,3.07,3.073,3.073,0,0,0,3.07-3.07A3.073,3.073,0,0,0-16683.5-2635.344Z" transform="translate(16694.795 1894.247)" fill="#71bcf8"/>
    </g>
  </g>
</svg>
