<svg xmlns="http://www.w3.org/2000/svg" width="86" height="86" viewBox="0 0 86 86">
  <g id="Grupo_291" data-name="Grupo 291" transform="translate(-2208 -1848)">
    <rect id="Rectángulo_92" data-name="Rectángulo 92" width="86" height="86" transform="translate(2208 1848)" fill="none"/>
    <g id="Grupo_171" data-name="Grupo 171" transform="translate(2211 1849)">
      <path id="Trazado_427" data-name="Trazado 427" d="M351.59,50.763c5.763,0,19.31-6.935,19.31-23.551,0-13.007-1.756-23.55-19.31-23.55s-19.31,10.544-19.31,23.55C332.28,43.829,345.827,50.763,351.59,50.763Z" transform="translate(-315.73 -3.662)" fill="#0071bc"/>
      <path id="Trazado_428" data-name="Trazado 428" d="M327.3,155.317a19.144,19.144,0,0,1,7.876-15.487c-1.613-.869-3.072-1.649-4.151-2.226l-.087-.047a1.353,1.353,0,0,0-1.473.129A17.6,17.6,0,0,1,322.4,141.1a1.358,1.358,0,0,0-.972.841l-2.564,6.757L316.3,141.94a1.358,1.358,0,0,0-.972-.841,17.594,17.594,0,0,1-7.062-3.412,1.353,1.353,0,0,0-1.473-.129c-4.092,2.187-13.907,7.473-16.678,9.34-4.685,3.159-6.735,14.583-7.1,16.839a1.356,1.356,0,0,0,.06.667c.168.475,4.468,11.6,35.789,11.6,9.487,0,16.492-1.019,21.66-2.457A19.179,19.179,0,0,1,327.3,155.317Z" transform="translate(-283 -92.484)" fill="#0071bc"/>
      <path id="Trazado_429" data-name="Trazado 429" d="M451.17,186.3a49.326,49.326,0,0,1,11.053,1.285,34.2,34.2,0,0,1-1.6-4.085,2.92,2.92,0,0,1-2.352-2.565c-1.89-.825-3.592-1.663-5.086-2.461a2.9,2.9,0,0,1-.879.485c-.2.908-.43,1.817-.684,2.716-.332,1.181-.716,2.376-1.145,3.553A2.908,2.908,0,0,1,451.17,186.3Z" transform="translate(-394.23 -119.763)" fill="#0071bc"/>
      <path id="Trazado_430" data-name="Trazado 430" d="M431.2,174.155c.386-1.063.756-2.2,1.1-3.413q.329-1.172.591-2.326a2.916,2.916,0,0,1-1.338-2.959c-1.444-.926-2.625-1.762-3.523-2.433a15.811,15.811,0,0,0-2.323,14.032,27.567,27.567,0,0,1,2.954-.6A2.92,2.92,0,0,1,431.2,174.155Z" transform="translate(-377.305 -109.504)" fill="#0071bc"/>
      <path id="Trazado_431" data-name="Trazado 431" d="M442.2,153.823a2.893,2.893,0,0,1,.8-.314,27,27,0,0,0,.11-3.9q-.029-.543-.083-1.027a15.834,15.834,0,0,0-4.142,2.956C439.743,152.177,440.855,152.961,442.2,153.823Z" transform="translate(-386.533 -99.915)" fill="#0071bc"/>
      <path id="Trazado_432" data-name="Trazado 432" d="M458.361,150.835a2.911,2.911,0,0,1,1.13,2.3v.036c1.416.759,3.032,1.562,4.827,2.347a2.989,2.989,0,0,1,.3-.262c-.168-1.091-.271-2.118-.328-3.063a32.337,32.337,0,0,1,.551-8.329,15.857,15.857,0,0,0-6.5.561A25.834,25.834,0,0,1,458.361,150.835Z" transform="translate(-399.451 -96.705)" fill="#0071bc"/>
      <path id="Trazado_433" data-name="Trazado 433" d="M502.617,219.711q.5-.508.946-1.059-1.251-.49-2.46-.906Q501.817,218.744,502.617,219.711Z" transform="translate(-427.856 -145.85)" fill="#0071bc"/>
      <path id="Trazado_434" data-name="Trazado 434" d="M483.843,145.566a30.071,30.071,0,0,0-.5,7.8q.083,1.3.271,2.58a2.916,2.916,0,0,1,2.258,2.752,66.006,66.006,0,0,0,9.4,2.533q.008-.24.007-.482A15.791,15.791,0,0,0,483.843,145.566Z" transform="translate(-416.016 -97.91)" fill="#0071bc"/>
      <path id="Trazado_435" data-name="Trazado 435" d="M487.81,191.511a31.171,31.171,0,0,0,2.4,5.513,62.645,62.645,0,0,1,5.975,2.061,15.7,15.7,0,0,0,1.82-4.908,68.45,68.45,0,0,1-10.122-2.728Z" transform="translate(-419.028 -128.384)" fill="#0071bc"/>
      <path id="Trazado_436" data-name="Trazado 436" d="M442.73,209.193a2.914,2.914,0,0,1-2.512,1.442c-.046,0-.091,0-.136,0a26.8,26.8,0,0,1-1.993,3.3,15.787,15.787,0,0,0,20.81,1.742,37.066,37.066,0,0,1-3.335-4.737A47.507,47.507,0,0,0,442.73,209.193Z" transform="translate(-386.005 -140.168)" fill="#0071bc"/>
      <path id="Trazado_437" data-name="Trazado 437" d="M431.015,212.634a26,26,0,0,0,1.388-2.343c-1.039.154-1.872.332-2.483.483A15.762,15.762,0,0,0,431.015,212.634Z" transform="translate(-380.58 -140.898)" fill="#0071bc"/>
    </g>
  </g>
</svg>
