<svg xmlns="http://www.w3.org/2000/svg" width="86" height="86" viewBox="0 0 86 86">
  <g id="Grupo_289" data-name="Grupo 289" transform="translate(-2034 -1848)">
    <rect id="Rectángulo_92" data-name="Rectángulo 92" width="86" height="86" transform="translate(2034 1848)" fill="none"/>
    <g id="Grupo_167" data-name="Grupo 167" transform="translate(2043 1849)">
      <path id="Trazado_423" data-name="Trazado 423" d="M61.285,52.39c-.517,2.123-2.25,5.814-8,8.7a.695.695,0,0,0,.072,1.271,9.788,9.788,0,0,0,3.1.408h0a23.432,23.432,0,0,0,10.773-3.034c3.711,3.194,7.886,4.65,10.441,4.65s6.727-1.46,10.441-4.65a23.436,23.436,0,0,0,10.774,3.034,9.8,9.8,0,0,0,3.1-.408.695.695,0,0,0,.071-1.271,18.765,18.765,0,0,1-4.93-3.452c-3.2,1.161-7.5,1.733-12.963,1.733-.377,0-.772,0-1.2-.01a4.649,4.649,0,0,1-2.854.987H76.7a4.731,4.731,0,0,1,0-9.462H80.12a4.633,4.633,0,0,1,3.251,1.328c.285,0,.566,0,.842,0a37.6,37.6,0,0,0,9.237-.9,5.214,5.214,0,0,1-.382-1.971V37.35a5.191,5.191,0,0,1,1.249-3.368,19.565,19.565,0,0,0-2.335-7.74c-2.358-3.861-6.906-5.659-14.312-5.659-6.144,0-10.386,1.291-12.969,3.941-2,2.058-3.161,4.991-3.7,9.425a5.184,5.184,0,0,1,1.278,3.4V49.345A5.158,5.158,0,0,1,61.285,52.39Z" transform="translate(-43.698 -14.225)" fill="#0071bc"/>
      <path id="Trazado_424" data-name="Trazado 424" d="M92.932,168.076c-.934-5.854-2.854-13.4-6.713-16.075-2.629-1.828-11.808-6.772-15.728-8.883l-.082-.044a1.274,1.274,0,0,0-1.4.123,16.617,16.617,0,0,1-6.691,3.262,1.284,1.284,0,0,0-.92.8l-2.429,6.455-2.428-6.455a1.285,1.285,0,0,0-.92-.8,16.618,16.618,0,0,1-6.691-3.262,1.273,1.273,0,0,0-1.4-.123c-3.873,2.087-13.174,7.135-15.8,8.92-4.44,3.016-6.38,13.929-6.724,16.083a1.3,1.3,0,0,0,.057.637c.159.453,4.232,11.076,33.9,11.076s33.742-10.621,33.9-11.076A1.3,1.3,0,0,0,92.932,168.076Zm-13.814-6.722H67.367v-2.495H79.119Z" transform="translate(-25 -96.21)" fill="#0071bc"/>
      <path id="Trazado_425" data-name="Trazado 425" d="M47.689,39.259H51.8a2.818,2.818,0,0,0,2.8-2.832h0V24.432a2.834,2.834,0,0,0-1.4-2.446C54.128,12.164,57.88,5.358,72.3,5.358c8.283,0,13.454,2.146,16.271,6.753A23.485,23.485,0,0,1,91.372,22,2.833,2.833,0,0,0,90,24.431v12a2.825,2.825,0,0,0,2.183,2.76c-1.812,1.2-5.564,2.42-13.332,2.42q-.944,0-1.97-.025a2.4,2.4,0,0,0-2.129-1.308H71.326a2.423,2.423,0,0,0,0,4.846h3.427A2.386,2.386,0,0,0,76.7,44.113c.721.018,1.427.03,2.111.03,8.756,0,14.323-1.51,16.579-4.506q.144-.191.263-.38h1.266a2.818,2.818,0,0,0,2.8-2.832h0V24.432a2.818,2.818,0,0,0-2.8-2.831H95.368c-.435-4.525-1.4-8.377-3.383-11.619C88.413,4.143,81.974,1.306,72.3,1.306S56.187,4.143,52.617,9.982c-1.983,3.242-2.947,7.094-3.383,11.619H47.689a2.818,2.818,0,0,0-2.8,2.831V36.427a2.818,2.818,0,0,0,2.8,2.832Z" transform="translate(-38.326 -1.306)" fill="#0071bc"/>
    </g>
  </g>
</svg>
