<svg xmlns="http://www.w3.org/2000/svg" width="220" height="190" viewBox="0 0 220 190">
  <g id="Grupo_300" data-name="Grupo 300" transform="translate(-3694 -1537)">
    <rect id="Rectángulo_91" data-name="Rectángulo 91" width="220" height="190" transform="translate(3694 1537)" fill="none"/>
    <g id="Grupo_208" data-name="Grupo 208" transform="translate(3695 1615)">
      <path id="Trazado_227" data-name="Trazado 227" d="M.642,29.533l.18.926.1-.015a.29.29,0,0,1,.186.013.158.158,0,0,1,.066.088.2.2,0,0,1-.023.132.44.44,0,0,1-.161.059l-.426.075A.188.188,0,0,1,.4,30.8a.126.126,0,0,1-.063-.1.151.151,0,0,1,.019-.117c.026-.04.081-.058.158-.076L.286,29.32l-.045.011a.274.274,0,0,1-.176-.016.123.123,0,0,1-.063-.1.188.188,0,0,1,.023-.12.329.329,0,0,1,.157-.073l.351-.058,1.032,1.078L1.4,29.126l-.117.023a.344.344,0,0,1-.171-.016.18.18,0,0,1-.063-.1.162.162,0,0,1,.028-.117.266.266,0,0,1,.158-.07l.414-.073a.216.216,0,0,1,.169.013.13.13,0,0,1,.077.1A.2.2,0,0,1,1.863,29a.308.308,0,0,1-.155.069l.266,1.487-.292.056Z" fill="#00a8e7"/>
      <path id="Trazado_228" data-name="Trazado 228" d="M5.859,10.51l.151-.369.611.692c.031.042.051.078.031.117,0,.017-.025.034-.054.054H6.539c-.005-.007-.034-.02-.045-.037Z" fill="#00a8e7"/>
      <path id="Trazado_229" data-name="Trazado 229" d="M5.812,11.308a.149.149,0,0,0-.136.013.26.26,0,0,0-.078.122l-.966.006H3.975l-.246.6a.228.228,0,0,0-.023.16.166.166,0,0,0,.085.086.128.128,0,0,0,.123-.007.223.223,0,0,0,.1-.129l.071-.175.5.448.443.42a.234.234,0,0,0-.02.162.166.166,0,0,0,.085.09.154.154,0,0,0,.126,0,.355.355,0,0,0,.1-.129l.146-.377a.2.2,0,0,0,.014-.162.1.1,0,0,0-.078-.074.145.145,0,0,0-.122,0c-.043.015-.071.063-.1.124l-.024.064L5,12.421l.271-.677h.2l-.03.07a.3.3,0,0,0-.019.158.2.2,0,0,0,.1.079.129.129,0,0,0,.112,0,.233.233,0,0,0,.1-.128l.16-.371a.29.29,0,0,0,.018-.154A.133.133,0,0,0,5.812,11.308Zm-1.052.883-.16-.148-.317-.292.326-.005h.334Z" fill="#e5007d"/>
      <path id="Trazado_230" data-name="Trazado 230" d="M4.5,14.153l.126-.292a.929.929,0,0,0,.051-.266.513.513,0,0,0-.334-.387L4.2,13.157a.536.536,0,0,0-.148-.037l.014-.309c.077.02.162.038.26.07l.14.059a.867.867,0,0,1,.293.183.706.706,0,0,1,.158.247.619.619,0,0,1,.054.227.872.872,0,0,1-.069.381l-.221.557a.221.221,0,0,1-.1.126.134.134,0,0,1-.123,0,.148.148,0,0,1-.083-.078c-.026-.037-.012-.091.011-.148L4,14.284l.018-.306ZM4.055,13.12H3.947a.572.572,0,0,0-.289.09.441.441,0,0,0-.157.231l-.123.285.635.253L4,14.284l-.729-.276a.158.158,0,0,1-.091.111.1.1,0,0,1-.109,0c-.048-.012-.085-.035-.094-.077-.026-.036-.008-.086.009-.159L3.22,13.3a.666.666,0,0,1,.163-.248A.718.718,0,0,1,3.6,12.9a1.06,1.06,0,0,1,.209-.058.9.9,0,0,1,.243-.023H4.07Z" fill="#00a8e7"/>
      <path id="Trazado_231" data-name="Trazado 231" d="M2.9,14.908l1.117.435.108-.283a.348.348,0,0,1,.106-.134.212.212,0,0,1,.117,0c.042.02.077.049.08.088.025.038.014.091-.008.158L4.073,16a.209.209,0,0,1-.091.128.134.134,0,0,1-.129,0,.1.1,0,0,1-.077-.072.235.235,0,0,1,.011-.167l.121-.275-1.12-.432-.112.282a.249.249,0,0,1-.092.125.151.151,0,0,1-.125,0,.136.136,0,0,1-.089-.078.218.218,0,0,1,.018-.164l.343-.84a.223.223,0,0,1,.088-.117.156.156,0,0,1,.123-.012.127.127,0,0,1,.088.091.3.3,0,0,1-.013.158Z" fill="#e5007d"/>
      <path id="Trazado_232" data-name="Trazado 232" d="M2.283,17.163l.866.334.045-.1a.242.242,0,0,1,.1-.134.134.134,0,0,1,.111,0c.043.017.075.04.08.083a.183.183,0,0,1-.005.16l-.148.367A.366.366,0,0,1,3.224,18a.212.212,0,0,1-.117,0,.133.133,0,0,1-.086-.085.334.334,0,0,1,.011-.144l-1.114-.433-.017.045a.186.186,0,0,1-.094.123.141.141,0,0,1-.122,0,.12.12,0,0,1-.089-.081.284.284,0,0,1,.014-.158l.137-.318,1.429-.264-.857-.338-.04.1a.22.22,0,0,1-.1.129.166.166,0,0,1-.12,0,.136.136,0,0,1-.077-.084A.162.162,0,0,1,2,16.337l.141-.366a.476.476,0,0,1,.1-.131.177.177,0,0,1,.126,0c.037.018.078.042.083.086a.161.161,0,0,1,0,.145l1.4.543-.111.271Z" fill="#00a8e7"/>
      <path id="Trazado_233" data-name="Trazado 233" d="M1.754,18.034l.808.306a.654.654,0,0,1,.376.369.594.594,0,0,1,0,.514.6.6,0,0,1-.141.223,1.008,1.008,0,0,1-.212.154,1.449,1.449,0,0,1-.254.062.657.657,0,0,1-.286-.054L1.237,19.3a.211.211,0,0,1-.086.117.163.163,0,0,1-.128,0c-.032-.016-.072-.044-.08-.08a.238.238,0,0,1,.011-.16l.155-.366c.025-.072.053-.117.1-.131a.168.168,0,0,1,.117,0,.136.136,0,0,1,.087.085.261.261,0,0,1-.015.156l-.046.1.834.313a.3.3,0,0,0,.272-.019.351.351,0,0,0,.2-.206.394.394,0,0,0,.023-.2.384.384,0,0,0-.075-.194.275.275,0,0,0-.128-.086L1.64,18.31l-.039.1a.155.155,0,0,1-.171.14.137.137,0,0,1-.049-.013.118.118,0,0,1-.083-.079.263.263,0,0,1,.013-.164l.158-.36a.266.266,0,0,1,.095-.127.143.143,0,0,1,.123-.008.172.172,0,0,1,.083.083.208.208,0,0,1-.016.152Z" fill="#e5007d"/>
      <path id="Trazado_234" data-name="Trazado 234" d="M3.014,28.847l.21,1.188.311-.048a.238.238,0,0,1,.172.007.155.155,0,0,1,.072.1.135.135,0,0,1-.03.12.258.258,0,0,1-.145.073l-.943.157a.267.267,0,0,1-.172-.01.164.164,0,0,1-.068-.1.143.143,0,0,1,.036-.12.268.268,0,0,1,.152-.073l.309-.05L2.7,28.905l-.314.053a.257.257,0,0,1-.175-.013.142.142,0,0,1-.067-.1.119.119,0,0,1,.026-.117.216.216,0,0,1,.151-.066l.932-.175a.237.237,0,0,1,.171.024.114.114,0,0,1,.072.1.137.137,0,0,1-.023.113.289.289,0,0,1-.157.07Z" fill="#e5007d"/>
      <path id="Trazado_235" data-name="Trazado 235" d="M4.891,28.291a.23.23,0,0,1,.051-.072.185.185,0,0,1,.075-.025.15.15,0,0,1,.117.02.236.236,0,0,1,.075.157l.046.244a.246.246,0,0,1-.014.175.138.138,0,0,1-.106.059.234.234,0,0,1-.1-.013.2.2,0,0,1-.077-.117.164.164,0,0,0-.066-.085.331.331,0,0,0-.189-.08.514.514,0,0,0-.234,0,.477.477,0,0,0-.246.108.555.555,0,0,0-.176.225.528.528,0,0,0-.031.333l.037.2a.486.486,0,0,0,.234.336.646.646,0,0,0,.481.064.744.744,0,0,0,.286-.1.439.439,0,0,0,.125-.129.223.223,0,0,1,.066-.075A.091.091,0,0,1,5.3,29.5a.121.121,0,0,1,.117.024.126.126,0,0,1,.063.106c.017.028,0,.085-.031.139a.737.737,0,0,1-.206.2,1.007,1.007,0,0,1-.42.157A1.029,1.029,0,0,1,4.31,30.1a.809.809,0,0,1-.364-.225.87.87,0,0,1-.2-.4l-.028-.2a.862.862,0,0,1,.025-.456.81.81,0,0,1,.254-.378.868.868,0,0,1,.4-.181.916.916,0,0,1,.256-.012.611.611,0,0,1,.243.043Z" fill="#00a8e7"/>
      <path id="Trazado_236" data-name="Trazado 236" d="M7.691,29.29a.283.283,0,0,0-.163,0L6.7,28.012l-.075-.11-.665.123a.253.253,0,0,0-.15.063.158.158,0,0,0-.028.123c.017.042.028.073.071.093a.3.3,0,0,0,.17.02l.206-.04-.272,1.282c-.075.012-.143.035-.157.067a.173.173,0,0,0-.035.113.2.2,0,0,0,.069.108.359.359,0,0,0,.175.011l.417-.071a.253.253,0,0,0,.143-.066.132.132,0,0,0,.029-.117.129.129,0,0,0-.062-.1.243.243,0,0,0-.17-.008l-.071.008.043-.194.3-.062.45-.067.117.17-.078.014a.208.208,0,0,0-.158.065.153.153,0,0,0-.025.121.19.19,0,0,0,.069.1.246.246,0,0,0,.175.014l.4-.072a.288.288,0,0,0,.162-.067.163.163,0,0,0,.029-.121.181.181,0,0,0-.088-.122Zm-1.038-.351-.246.043.135-.649.131.2.234.362Z" fill="#e5007d"/>
      <path id="Trazado_237" data-name="Trazado 237" d="M8.547,29.111h0a.26.26,0,0,1,.176.014.152.152,0,0,1,.065.095.178.178,0,0,1-.025.127.4.4,0,0,1-.161.071l-.071.007.014-.314Zm.084-1.547-.026.311a.473.473,0,0,1,.258.027.208.208,0,0,1,.126.151.153.153,0,0,1-.025.117.459.459,0,0,1-.18.153,1.268,1.268,0,0,1-.2.08l-.023.306.117-.015a1.891,1.891,0,0,1,.74.573l.16-.028a.24.24,0,0,0,.166-.067.149.149,0,0,0,.022-.116.139.139,0,0,0-.088-.11c-.028-.017-.062-.021-.154,0a2.87,2.87,0,0,0-.234-.234,2.521,2.521,0,0,0-.252-.182.63.63,0,0,0,.221-.251.391.391,0,0,0,.042-.27.512.512,0,0,0-.253-.355.628.628,0,0,0-.423-.09Zm-.264,1.181.072.386.108-.019-.013.314-.4.07a.294.294,0,0,1-.171-.015.163.163,0,0,1-.068-.107.1.1,0,0,1,.031-.106.231.231,0,0,1,.152-.075l.053-.009L7.914,28H7.856a.244.244,0,0,1-.166-.016.117.117,0,0,1-.062-.1.135.135,0,0,1,.017-.114A.266.266,0,0,1,7.8,27.7l.706-.13a.7.7,0,0,0,.125-.007l-.025.311H8.571l-.351.063.1.51h0l.234-.045h.034l-.023.306Z" fill="#00a8e7"/>
      <path id="Trazado_238" data-name="Trazado 238" d="M11.827,28.563a.484.484,0,0,0-.152,0l-.826-1.273-.071-.112-.66.123a.3.3,0,0,0-.164.058.2.2,0,0,0-.019.128.135.135,0,0,0,.058.1.348.348,0,0,0,.175.015l.212-.04-.286,1.275a.227.227,0,0,0-.151.079.106.106,0,0,0-.026.107.124.124,0,0,0,.074.106.279.279,0,0,0,.169.014l.4-.075A.238.238,0,0,0,10.723,29a.134.134,0,0,0,.026-.117.137.137,0,0,0-.068-.1.212.212,0,0,0-.169-.013l-.075.013.043-.2.3-.05.459-.077.106.175-.08.01c-.074.013-.126.027-.149.066a.131.131,0,0,0-.037.117.147.147,0,0,0,.08.1.234.234,0,0,0,.16.021l.417-.077A.27.27,0,0,0,11.9,28.8a.186.186,0,0,0,.028-.113.3.3,0,0,0-.1-.124ZM10.8,28.212l-.258.043.143-.641.137.2.226.351Z" fill="#e5007d"/>
      <path id="Trazado_252" data-name="Trazado 252" d="M12.761,12.714s-2.243.357-2.339.364c-.234.043-.334-.188-.02-.234s2.21-.234,2.324-.234S13.185,12.635,12.761,12.714Z" fill="#fff100"/>
      <path id="Trazado_253" data-name="Trazado 253" d="M12.644,13.511s-2.035,1.162-2.126,1.2c-.214.1-.4-.1-.109-.256.269-.166,2.044-1,2.147-1.066C12.7,13.335,13.327,13.077,12.644,13.511Z" fill="#fff100"/>
      <path id="Trazado_257" data-name="Trazado 257" d="M12.947,13.663s-1.092,1.072-1.147,1.111c-.08.083-.309-.014-.159-.168s1.148-.956,1.214-1C12.947,13.53,13.31,13.283,12.947,13.663Z" fill="#fff100"/>
      <path id="Trazado_258" data-name="Trazado 258" d="M12.77,13.1s-1.552.462-1.612.482c-.226.058-.309-.2-.1-.27s1.458-.322,1.629-.332C12.776,12.969,13.281,12.9,12.77,13.1Z" fill="#fff100"/>
      <path id="Trazado_261" data-name="Trazado 261" d="M12.932,11.956s-1.683-.363-1.754-.37c-.183-.024-.246.157-.018.207s1.656.238,1.739.256C13.012,12.061,13.509,12.1,12.932,11.956Z" fill="#fff100"/>
      <path id="Trazado_263" data-name="Trazado 263" d="M12.944,11.293s-1.435-1.2-1.5-1.259c-.106-.086-.326.035-.14.2s1.475,1.085,1.554,1.135C12.955,11.436,13.413,11.718,12.944,11.293Z" fill="#fff100"/>
      <path id="Trazado_266" data-name="Trazado 266" d="M12.97,11.665s-1.556-.769-1.63-.809c-.122-.058-.325.131-.108.234s1.584.643,1.667.673C13.017,11.812,13.5,11.956,12.97,11.665Z" fill="#fff100"/>
      <path id="Trazado_267" data-name="Trazado 267" d="M12.819,12.226s-1.79-.117-1.872-.117c-.257-.013-.251.312,0,.323s1.649-.031,1.841-.054C12.876,12.363,13.43,12.3,12.819,12.226Z" fill="#fff100"/>
      <path id="Trazado_284" data-name="Trazado 284" d="M13.181,5.42a6.611,6.611,0,0,1,2.087.016c-.172-.211-.344-.395-.484-.57A6.654,6.654,0,0,0,13.1,4.9c-.2.038-.383.074-.585.123-.117.214-.234.418-.346.638a6.057,6.057,0,0,1,1.012-.241Z" fill="#fff100"/>
      <path id="Trazado_294" data-name="Trazado 294" d="M13.2,5.42a6.712,6.712,0,0,1,2.084.016H15.27a6.611,6.611,0,0,0-2.087-.016,6.046,6.046,0,0,0-1.011.241H12.16A6.3,6.3,0,0,1,13.2,5.42Z" fill="#fff100"/>
      <path id="Trazado_296" data-name="Trazado 296" d="M3.347,23.184c-.355,1.274-.1,1.641.153,1.96.234.339,1.138.619,1.19-.369.071-1.233,2.59-7.96,3.224-9.78A69.307,69.307,0,0,1,15.093,1.03c.544-.76.9-1.569-.125-.553A62.356,62.356,0,0,0,9.521,8.63,73.3,73.3,0,0,0,3.347,23.184Z" fill="#00a8e7"/>
      <path id="Trazado_239" data-name="Trazado 239" d="M13.484,28l.077.4a1.533,1.533,0,0,1-.334.208,1,1,0,0,1-.312.1,1.266,1.266,0,0,1-.451.009.809.809,0,0,1-.275-.086.929.929,0,0,1-.362-.556l-.038-.22a.845.845,0,0,1,.648-1,.7.7,0,0,0,.078-.013.867.867,0,0,1,.249-.023.71.71,0,0,1,.223.042.2.2,0,0,1,.111-.083.162.162,0,0,1,.126.033.267.267,0,0,1,.075.146l.029.2a.175.175,0,0,1-.017.157.153.153,0,0,1-.1.074.108.108,0,0,1-.094-.025c-.031-.007-.059-.025-.077-.085a.23.23,0,0,0-.069-.094.291.291,0,0,0-.154-.05.708.708,0,0,0-.234.011.559.559,0,0,0-.308.13.436.436,0,0,0-.146.221.457.457,0,0,0-.026.307l.031.228a.509.509,0,0,0,.223.345.7.7,0,0,0,.484.044,1.232,1.232,0,0,0,.374-.143l-.04-.219-.314.055a.274.274,0,0,1-.176-.019.135.135,0,0,1-.071-.1.144.144,0,0,1,.028-.114.24.24,0,0,1,.155-.069l.631-.113a.167.167,0,0,1,.117.025c.042.014.058.052.068.1a.148.148,0,0,1-.026.117.21.21,0,0,1-.1.06Z" fill="#00a8e7"/>
      <path id="Trazado_240" data-name="Trazado 240" d="M15.1,26.742l.16.862a.585.585,0,0,1-.123.511.638.638,0,0,1-.449.289.711.711,0,0,1-.54-.108.836.836,0,0,1-.191-.175.553.553,0,0,1-.108-.272l-.157-.858a.474.474,0,0,1-.176-.009.14.14,0,0,1-.058-.1.157.157,0,0,1,.014-.122.264.264,0,0,1,.161-.071l.42-.073a.242.242,0,0,1,.159.016.13.13,0,0,1,.069.1.184.184,0,0,1-.029.123.258.258,0,0,1-.138.058L14,26.937l.161.9a.362.362,0,0,0,.168.219.408.408,0,0,0,.286.046.43.43,0,0,0,.209-.083.378.378,0,0,0,.12-.175.21.21,0,0,0,.011-.154l-.165-.9-.108.024a.284.284,0,0,1-.155-.024.138.138,0,0,1-.042-.215.333.333,0,0,1,.131-.073l.426-.067a.273.273,0,0,1,.176.012.171.171,0,0,1,.068.1.15.15,0,0,1-.026.123A.251.251,0,0,1,15.1,26.742Z" fill="#e5007d"/>
      <path id="Trazado_241" data-name="Trazado 241" d="M17.422,27.6c-.028-.024-.077-.024-.157-.011l-.835-1.275-.073-.1-.658.117c-.08.01-.132.03-.155.067a.122.122,0,0,0-.028.117.162.162,0,0,0,.069.1.294.294,0,0,0,.171.016l.206-.036-.277,1.277a.309.309,0,0,0-.163.063c-.018.038-.043.079-.018.126a.13.13,0,0,0,.063.1.278.278,0,0,0,.171.013l.41-.073a.26.26,0,0,0,.154-.065.16.16,0,0,0,.029-.127.235.235,0,0,0-.075-.1.277.277,0,0,0-.166-.011l-.08.009.051-.19.3-.059.458-.075.111.168-.071.015a.267.267,0,0,0-.168.067.148.148,0,0,0-.023.117.13.13,0,0,0,.065.106.389.389,0,0,0,.176.018l.409-.076a.27.27,0,0,0,.157-.071.166.166,0,0,0,.026-.117.121.121,0,0,0-.079-.11Zm-1.04-.355-.258.041.141-.649.14.209.234.354Z" fill="#00a8e7"/>
      <path id="Trazado_242" data-name="Trazado 242" d="M19.378,26l.225,1.184.21-.028a.246.246,0,0,1,.171.011.134.134,0,0,1,.062.1.144.144,0,0,1-.019.121.325.325,0,0,1-.166.065l-.727.124a.212.212,0,0,1-.162-.007.129.129,0,0,1-.069-.106.113.113,0,0,1,.027-.108c.019-.041.073-.058.148-.078l.211-.028-.22-1.191-.335.052.052.288c.014.073.014.133-.02.158a.115.115,0,0,1-.106.072.1.1,0,0,1-.106-.027.258.258,0,0,1-.079-.153l-.1-.585,1.6-.279.111.591a.291.291,0,0,1-.018.16.129.129,0,0,1-.106.064.105.105,0,0,1-.109-.027.17.17,0,0,1-.079-.146l-.049-.284Z" fill="#e5007d"/>
      <path id="Trazado_243" data-name="Trazado 243" d="M21.1,26.923h0a.214.214,0,0,1,.168.016.137.137,0,0,1,.075.1.149.149,0,0,1-.029.117c-.026.04-.074.052-.154.067l-.077.023.017-.322Zm.072-1.55-.012.315a.4.4,0,0,1,.257.029.241.241,0,0,1,.126.143.177.177,0,0,1-.041.131.375.375,0,0,1-.159.139.555.555,0,0,1-.211.081l-.015.317.1-.025a2.048,2.048,0,0,1,.757.585l.155-.036a.221.221,0,0,0,.16-.068c.023-.036.046-.069.023-.117a.126.126,0,0,0-.075-.105.235.235,0,0,0-.157-.006c-.106-.1-.183-.183-.237-.23a2.679,2.679,0,0,0-.254-.183.766.766,0,0,0,.221-.246.465.465,0,0,0,.04-.275.517.517,0,0,0-.255-.358.744.744,0,0,0-.425-.091Zm-.258,1.179.075.394.111-.023-.018.322-.4.059c-.08.02-.134.02-.165-.009a.147.147,0,0,1-.072-.1.277.277,0,0,1,.026-.117.256.256,0,0,1,.16-.067l.049-.016-.223-1.19-.043.014c-.083.009-.137.009-.171-.02a.127.127,0,0,1-.072-.1.118.118,0,0,1,.028-.108c.026-.043.077-.059.155-.078l.7-.121a.721.721,0,0,0,.117-.017l-.012.315a.1.1,0,0,0-.034.006l-.351.052.085.514h0l.25-.049h.023l-.015.317Z" fill="#00a8e7"/>
      <path id="Trazado_244" data-name="Trazado 244" d="M23.05,25.353l.218,1.189.325-.052a.282.282,0,0,1,.16.013.119.119,0,0,1,.072.1.172.172,0,0,1-.029.121.238.238,0,0,1-.154.071l-.935.162a.2.2,0,0,1-.164-.018.124.124,0,0,1-.073-.093.115.115,0,0,1,.028-.123.218.218,0,0,1,.151-.073l.312-.052-.22-1.192-.312.058a.27.27,0,0,1-.175-.008.273.273,0,0,1-.068-.1.159.159,0,0,1,.025-.116.327.327,0,0,1,.158-.075l.939-.156a.2.2,0,0,1,.161.007.135.135,0,0,1,.077.1.133.133,0,0,1-.028.121.293.293,0,0,1-.152.071Z" fill="#e5007d"/>
      <path id="Trazado_245" data-name="Trazado 245" d="M25.363,24.953l.157.865a.6.6,0,0,1-.117.511.714.714,0,0,1-.454.292,1.093,1.093,0,0,1-.28-.007.813.813,0,0,1-.258-.112.693.693,0,0,1-.192-.17.588.588,0,0,1-.108-.279l-.157-.856a.246.246,0,0,1-.175-.008.183.183,0,0,1-.04-.226.234.234,0,0,1,.158-.069l.409-.07a.224.224,0,0,1,.157.01.145.145,0,0,1,.075.1.13.13,0,0,1-.029.121.194.194,0,0,1-.14.059l-.111.027.163.9a.3.3,0,0,0,.169.217.393.393,0,0,0,.288.05.367.367,0,0,0,.2-.082.565.565,0,0,0,.132-.175.221.221,0,0,0,.008-.158L25.05,25l-.106.023A.23.23,0,0,1,24.787,25a.125.125,0,0,1-.069-.1.1.1,0,0,1,.028-.109.171.171,0,0,1,.132-.071l.428-.078a.283.283,0,0,1,.17.015.12.12,0,0,1,.071.106.106.106,0,0,1-.031.11.228.228,0,0,1-.153.076Z" fill="#00a8e7"/>
      <path id="Trazado_246" data-name="Trazado 246" d="M26.383,25.059l.175.911.109-.02a.321.321,0,0,1,.165.017.166.166,0,0,1,.072.1.154.154,0,0,1-.02.117.3.3,0,0,1-.161.078l-.422.069a.264.264,0,0,1-.175-.016c-.034-.011-.054-.05-.072-.1a.139.139,0,0,1,.038-.114.3.3,0,0,1,.154-.07l-.22-1.191-.052.012a.228.228,0,0,1-.168-.015.147.147,0,0,1-.072-.1.171.171,0,0,1,.026-.117.273.273,0,0,1,.157-.071l.358-.059L27.3,25.56l-.175-.912-.117.015a.268.268,0,0,1-.172-.015.175.175,0,0,1-.058-.094.137.137,0,0,1,.029-.117c.023-.038.079-.056.151-.08l.42-.064a.291.291,0,0,1,.175.009.185.185,0,0,1,.069.106.119.119,0,0,1-.034.117.312.312,0,0,1-.157.067l.283,1.489-.3.052Z" fill="#e5007d"/>
      <path id="Trazado_247" data-name="Trazado 247" d="M28.56,25.16l.084.448.325-.055a.286.286,0,0,1,.166.016.119.119,0,0,1,.072.1.145.145,0,0,1-.028.117.233.233,0,0,1-.155.067l-.683.117a.24.24,0,0,1-.169-.007.177.177,0,0,1-.069-.1.2.2,0,0,1,.03-.121.347.347,0,0,1,.153-.071l.05-.01-.218-1.186-.048.01a.267.267,0,0,1-.172-.018.116.116,0,0,1-.069-.106.1.1,0,0,1,.028-.105c.023-.039.075-.058.155-.075l1.462-.256.08.464a.227.227,0,0,1-.011.168.11.11,0,0,1-.1.059.147.147,0,0,1-.117-.023.23.23,0,0,1-.072-.153l-.031-.158-.8.141.08.439.274-.053c-.016-.068-.016-.117.007-.143a.159.159,0,0,1,.117-.085.132.132,0,0,1,.117.028.2.2,0,0,1,.068.147l.064.3a.251.251,0,0,1-.021.166.142.142,0,0,1-.1.07.157.157,0,0,1-.14-.047c-.025-.01-.04-.053-.054-.137Z" fill="#00a8e7"/>
      <path id="Trazado_248" data-name="Trazado 248" d="M31.748,25.221a.138.138,0,0,0-.083-.11c-.017-.017-.074-.017-.157,0l-.826-1.273-.072-.112-.669.117a.27.27,0,0,0-.153.072.148.148,0,0,0-.023.121.131.131,0,0,0,.068.089.2.2,0,0,0,.17.019l.208-.038-.275,1.273c-.08.026-.128.042-.154.082a.106.106,0,0,0-.025.111.119.119,0,0,0,.058.1.261.261,0,0,0,.176.02l.4-.078a.218.218,0,0,0,.157-.064.131.131,0,0,0,.023-.122.122.122,0,0,0-.059-.1.355.355,0,0,0-.18-.011l-.069.011.035-.193.315-.058.445-.086.117.172-.072.024a.243.243,0,0,0-.154.062.146.146,0,0,0-.039.126.27.27,0,0,0,.068.1.289.289,0,0,0,.186.011l.4-.078a.2.2,0,0,0,.157-.065.123.123,0,0,0,.022-.122Zm-1.115-.468-.254.05.143-.65.128.2.234.358Z" fill="#e5007d"/>
      <path id="Trazado_249" data-name="Trazado 249" d="M32.836,23.524l.087.932a.148.148,0,0,1-.03.113c-.02.037-.058.049-.1.069a.166.166,0,0,1-.183-.132l-.259-.892c-.007-.051-.012-.082-.027-.094a.265.265,0,0,1,.046-.206.253.253,0,0,1,.163-.1.339.339,0,0,1,.192.044.256.256,0,0,1,.1.175c.011.007.011.051.014.1Zm.223,1.509h0a.132.132,0,0,1-.028.123.233.233,0,0,1-.129.075.2.2,0,0,1-.142-.023.2.2,0,0,1-.075-.108.2.2,0,0,1,.038-.117.192.192,0,0,1,.128-.063.2.2,0,0,1,.141.017.125.125,0,0,1,.067.1Z" fill="#00a8e7"/>
      <path id="Trazado_250" data-name="Trazado 250" d="M13.719,12.111a.494.494,0,0,1-.291-.635l.011-.027a.681.681,0,0,1,.7-.375,1.432,1.432,0,0,1,1.069.644c.3.4.517,1.047.163,1.34a1,1,0,0,1-.792.17,1.534,1.534,0,0,0-.531.055c-.227.085-.544.312-.7.023a.628.628,0,0,1,.269-.775C13.773,12.419,13.979,12.206,13.719,12.111Z" fill="#e5007d"/>
      <path id="Trazado_251" data-name="Trazado 251" d="M6.708,21.284c.228-1.065,3.341-4.3,4.67-4.976a1.8,1.8,0,0,1,2.058.286,1.838,1.838,0,0,0,1.3.526,5.575,5.575,0,0,0,1.345-.685,1.4,1.4,0,0,1,1.306.058,6.1,6.1,0,0,0,1.089.477c.342.1.671-.164.9-.272a1.211,1.211,0,0,1,1.037.085,2.8,2.8,0,0,0,1.007.443,7.663,7.663,0,0,1,1.32-.063c.5.108,1.14.234,1.177.568a.585.585,0,0,1-.441.7.63.63,0,0,1-.156.014c-.366.013-.761-.27-1.009-.305a.7.7,0,0,0-.589.128c-.106.127-.565.493-.871.314-.357-.211-.606-.4-.806-.515-.317-.166-.706.141-.954.384a1.142,1.142,0,0,1-1.159.159c-.431-.139-1.2-1.066-1.909-.468-.293.257-.819.863-1.186,1.24a.853.853,0,0,1-.971.117,12.041,12.041,0,0,1-1.152-.711,1.176,1.176,0,0,0-1.8.11,28.171,28.171,0,0,1-2.656,2.874C7.617,22.265,6.548,22.024,6.708,21.284Z" fill="#f07d00"/>
      <path id="Trazado_254" data-name="Trazado 254" d="M14.276,13.818s.123,1.94.123,2.026c-.007.2-.234.254-.255-.009s.011-1.9.011-1.988C14.156,13.724,14.241,13.35,14.276,13.818Z" fill="#fff100"/>
      <path id="Trazado_255" data-name="Trazado 255" d="M13.223,13.876l-1.014,1.6c-.077.117-.334.071-.2-.143s1.043-1.44,1.115-1.5C13.2,13.74,13.533,13.335,13.223,13.876Z" fill="#fff100"/>
      <path id="Trazado_256" data-name="Trazado 256" d="M13.9,13.876s-.1,1.512-.1,1.57c-.017.124-.26.189-.246-.015s.215-1.468.22-1.548C13.8,13.778,13.9,13.362,13.9,13.876Z" fill="#fff100"/>
      <path id="Trazado_259" data-name="Trazado 259" d="M13.639,13.876s-.512,1.5-.541,1.563c-.081.2-.337.131-.28-.086.059-.2.585-1.338.666-1.493C13.532,13.783,13.769,13.35,13.639,13.876Z" fill="#fff100"/>
      <path id="Trazado_260" data-name="Trazado 260" d="M14.656,13.818s.351,1.55.366,1.621a.162.162,0,0,1-.312.09h0c-.054-.214-.186-1.467-.2-1.646C14.513,13.8,14.507,13.3,14.656,13.818Z" fill="#fff100"/>
      <path id="Trazado_262" data-name="Trazado 262" d="M13.77,10.668s-.332-1.448-.357-1.51c-.054-.141-.286-.131-.24.074s.446,1.378.471,1.447C13.679,10.769,13.858,11.168,13.77,10.668Z" fill="#fff100"/>
      <path id="Trazado_264" data-name="Trazado 264" d="M13.516,10.852l-.569-1.3c-.1-.208-.321-.088-.249.083s.655,1.175.688,1.234C13.438,10.959,13.679,11.281,13.516,10.852Z" fill="#fff100"/>
      <path id="Trazado_265" data-name="Trazado 265" d="M14.179,10.613s-.072-1.4-.086-1.458c-.022-.234-.277-.181-.268,0s.206,1.363.223,1.435C14.071,10.693,14.193,11.075,14.179,10.613Z" fill="#fff100"/>
      <path id="Trazado_268" data-name="Trazado 268" d="M13.2,11.075s-.911-1.241-.957-1.291c-.123-.18-.351-.032-.238.136s.941,1.087,1.064,1.209C13.127,11.183,13.482,11.513,13.2,11.075Z" fill="#fff100"/>
      <path id="Trazado_269" data-name="Trazado 269" d="M16.093,12.261s2.252-.26,2.349-.268c.241-.023.261-.276-.048-.23-.309.029-2.195.359-2.3.4S15.308,12.336,16.093,12.261Z" fill="#fff100"/>
      <path id="Trazado_270" data-name="Trazado 270" d="M16.222,12.982s2.489.585,2.595.613c.241.036.341-.2.038-.289s-2.456-.429-2.573-.451C16.125,12.832,15.44,12.751,16.222,12.982Z" fill="#fff100"/>
      <path id="Trazado_271" data-name="Trazado 271" d="M14.953,13.724s.426,1.9.446,1.984c.075.187.306.179.252-.079s-.546-1.818-.58-1.917S14.845,13.28,14.953,13.724Z" fill="#fff100"/>
      <path id="Trazado_272" data-name="Trazado 272" d="M15.971,13.5s1.378,1.219,1.435,1.275c.111.094.332-.015.146-.193s-1.409-1.1-1.483-1.15C15.965,13.362,15.522,13.066,15.971,13.5Z" fill="#fff100"/>
      <path id="Trazado_273" data-name="Trazado 273" d="M15.328,13.68s.531,1.425.548,1.487c.04.106.3.106.226-.087s-.623-1.349-.664-1.42C15.39,13.557,15.174,13.185,15.328,13.68Z" fill="#fff100"/>
      <path id="Trazado_274" data-name="Trazado 274" d="M16.1,13.243a15.245,15.245,0,0,0,1.49.748c.1.052.3-.11.114-.211s-1.469-.61-1.552-.638C16.051,13.1,15.65,12.969,16.1,13.243Z" fill="#fff100"/>
      <path id="Trazado_275" data-name="Trazado 275" d="M16.079,12.628s1.735.042,1.8.042c.234,0,.239-.272.023-.283s-1.733.068-1.907.093C15.91,12.492,15.521,12.571,16.079,12.628Z" fill="#fff100"/>
      <path id="Trazado_276" data-name="Trazado 276" d="M15.585,13.61s.915,1.305.954,1.365c.137.168.369.02.255-.159S15.84,13.68,15.71,13.55C15.657,13.5,15.391,13.326,15.585,13.61Z" fill="#fff100"/>
      <path id="Trazado_277" data-name="Trazado 277" d="M15.7,11.58s1.521-.8,1.589-.829c.163-.064.286.082.075.2s-1.528.677-1.6.711C15.662,11.7,15.2,11.873,15.7,11.58Z" fill="#fff100"/>
      <path id="Trazado_278" data-name="Trazado 278" d="M14.485,10.625s-.046-1.542-.046-1.6c.016-.157.252-.2.26,0S14.61,10.53,14.61,10.6C14.61,10.695,14.541,11.128,14.485,10.625Z" fill="#fff100"/>
      <path id="Trazado_279" data-name="Trazado 279" d="M15.39,11,16.6,9.335c.08-.117.335-.058.186.156s-1.22,1.479-1.277,1.548C15.421,11.137,15.062,11.536,15.39,11Z" fill="#fff100"/>
      <path id="Trazado_280" data-name="Trazado 280" d="M14.8,10.715s.209-1.38.209-1.436c.018-.224.292-.176.263,0-.011.18-.315,1.345-.328,1.41C14.914,10.8,14.768,11.175,14.8,10.715Z" fill="#fff100"/>
      <path id="Trazado_281" data-name="Trazado 281" d="M15.585,11.313s1.283-1.164,1.345-1.213c.091-.087.345.041.163.2-.163.161-1.329,1.041-1.4,1.1C15.585,11.466,15.168,11.728,15.585,11.313Z" fill="#fff100"/>
      <path id="Trazado_282" data-name="Trazado 282" d="M15.9,11.808s1.692-.59,1.764-.612c.237-.078.329.223.1.31s-1.595.415-1.789.44C15.868,11.963,15.328,12.049,15.9,11.808Z" fill="#fff100"/>
      <path id="Trazado_283" data-name="Trazado 283" d="M15.07,10.852s.655-1.481.67-1.549c.085-.2.35-.126.283.075s-.727,1.337-.816,1.479C15.168,10.925,14.924,11.346,15.07,10.852Z" fill="#fff100"/>
      <path id="Trazado_285" data-name="Trazado 285" d="M16.333,6.672c-.182-.225-.368-.437-.548-.632a6.466,6.466,0,0,0-2.517-.1,7.073,7.073,0,0,0-1.478.4c-.134.234-.258.487-.386.727a6.407,6.407,0,0,1,1.95-.619,6.536,6.536,0,0,1,2.979.224Z" fill="#00adee"/>
      <path id="Trazado_286" data-name="Trazado 286" d="M13.436,6.959a6.519,6.519,0,0,1,2.383.074h.039a8.131,8.131,0,0,1,1.079.328c-.2-.231-.4-.458-.6-.688a6.57,6.57,0,0,0-2.987-.218,6.776,6.776,0,0,0-1.961.611c-.129.26-.26.523-.4.782.083-.042.168-.1.254-.139a6.671,6.671,0,0,1,2.193-.75Z" fill="#2e3191"/>
      <path id="Trazado_287" data-name="Trazado 287" d="M17.588,8.131c-.214-.253-.437-.513-.651-.76a6.765,6.765,0,0,0-1.078-.336h-.04a6.583,6.583,0,0,0-4.57.676c-.086.041-.172.1-.254.143-.146.284-.3.574-.435.867a6.4,6.4,0,0,1,2.956-1.233,6.685,6.685,0,0,1,4.072.643Z" fill="#e5007d"/>
      <path id="Trazado_288" data-name="Trazado 288" d="M15.859,7.033" fill="#e01f26"/>
      <path id="Trazado_289" data-name="Trazado 289" d="M13.436,6.959a6.671,6.671,0,0,0-2.187.75,6.583,6.583,0,0,1,4.57-.676,6.541,6.541,0,0,0-2.383-.074Z" fill="#e01f26"/>
      <path id="Trazado_290" data-name="Trazado 290" d="M13.587,8.006c.059-.007.129-.02.194-.024a.974.974,0,0,0,.141-.019h.017a6.759,6.759,0,0,1,3.693.667c.234.128.483.256.7.4-.225-.282-.483-.585-.743-.891a6.643,6.643,0,0,0-4.07-.65,6.419,6.419,0,0,0-2.972,1.24q-.221.459-.458.931a6.814,6.814,0,0,1,3.5-1.654Z" fill="#2e3191"/>
      <path id="Trazado_291" data-name="Trazado 291" d="M17.632,8.63a6.753,6.753,0,0,0-3.693-.667h-.018a.942.942,0,0,1-.14.019A1.066,1.066,0,0,0,13.612,8,6.825,6.825,0,0,0,10.1,9.654c-.189.392-.418.877-.6,1.268a6.812,6.812,0,0,1,4.176-2.35A7.023,7.023,0,0,1,19.3,10.227c-.243-.323-.589-.753-.966-1.2A6.56,6.56,0,0,0,17.632,8.63Z" fill="#00a050"/>
      <path id="Trazado_292" data-name="Trazado 292" d="M13.938,7.963" fill="#f09021"/>
      <path id="Trazado_293" data-name="Trazado 293" d="M15.785,6.04c-.175-.213-.351-.414-.5-.6A6.712,6.712,0,0,0,13.2,5.42a6.178,6.178,0,0,0-1.04.241c-.122.228-.243.445-.369.677a6.661,6.661,0,0,1,1.478-.4,6.4,6.4,0,0,1,2.516.1Z" fill="#00a050"/>
      <path id="Trazado_295" data-name="Trazado 295" d="M4.427,25.846A18.2,18.2,0,0,1,9.466,24.2a52.978,52.978,0,0,1,7.1-1.074c3.725-.356,10.722-.646,11.4-.672,1.248-.04.683.3.542.3a127.269,127.269,0,0,0-13.442,1.805c-2.386.445-7.611,1.766-9.9,2.522C4.232,27.4,3.621,26.372,4.427,25.846Z" fill="#fd0"/>
      <path id="Trazado_297" data-name="Trazado 297" d="M14.493,3.789c-.117-.16-.786-.25-.322.382s4.586,5.234,5.478,6.575c1.481,2.191,2.973,3.807,5.517,8.018.811,1.33,1.623,3,2.163,3.247.34.155,1.506.126.966-.891-.709-1.315-3.247-4.765-4.321-6.2-1.535-2.041-4.608-5.841-5.113-6.457C17.794,7.164,14.738,4.116,14.493,3.789Z" fill="#c7d300"/>
      <path id="Trazado_298" data-name="Trazado 298" d="M118.222,12.1l.031-.678h.049a1.087,1.087,0,0,0,.737-.262.817.817,0,0,0,.3-.6h0a.934.934,0,0,0-.229-.6,1.01,1.01,0,0,0-.76-.357l.023-.676a1.7,1.7,0,0,1,.777.224,1.491,1.491,0,0,1,.628.618,1.645,1.645,0,0,1,.213.787,1.526,1.526,0,0,1-.209.748,1.593,1.593,0,0,1-.618.576,1.944,1.944,0,0,1-.866.213Zm.206-3.842.023-.59.068-.056a.3.3,0,0,1,.176-.085.223.223,0,0,1,.16.062.233.233,0,0,1,.069.153.31.31,0,0,1-.14.213h0l-.355.3Zm2.989.766v.22a1.372,1.372,0,0,1,.861-.31,1.169,1.169,0,0,1,.917.368,1.087,1.087,0,0,1,.278.78v1.242a.477.477,0,0,1,.351.1.321.321,0,0,1,.106.239.3.3,0,0,1-.106.234.46.46,0,0,1-.351.1h-.657a.448.448,0,0,1-.341-.1.285.285,0,0,1-.1-.239.281.281,0,0,1,.1-.234.448.448,0,0,1,.341-.1V10.06a.425.425,0,0,0-.117-.315.64.64,0,0,0-.45-.134.964.964,0,0,0-.4.086,1.978,1.978,0,0,0-.432.374v1.252c.171,0,.279.024.32.07a.343.343,0,0,1,.137.267.29.29,0,0,1-.1.238.493.493,0,0,1-.361.1h-.64a.475.475,0,0,1-.351-.1.313.313,0,0,1-.106-.238.369.369,0,0,1,.134-.27c.045-.047.152-.067.323-.067V9.7a.52.52,0,0,1-.351-.086.316.316,0,0,1-.105-.243.328.328,0,0,1,.1-.249.515.515,0,0,1,.34-.094Zm-2.966-1.356-.023.59-.366.292a.259.259,0,0,1-.18.086.217.217,0,0,1-.152-.062.2.2,0,0,1-.058-.153.279.279,0,0,1,.128-.209l.652-.546Zm-.075,1.266-.023.676a.144.144,0,0,0-.054-.01,1,1,0,0,0-.738.289.917.917,0,0,0-.3.675.8.8,0,0,0,.3.592,1.082,1.082,0,0,0,.692.267l-.031.677a1.842,1.842,0,0,1-.778-.212,1.509,1.509,0,0,1-.622-.576,1.487,1.487,0,0,1-.215-.76,1.626,1.626,0,0,1,.215-.791,1.535,1.535,0,0,1,.622-.61,1.744,1.744,0,0,1,.855-.227c.026,0,.054.007.077.007Zm-11.018,3.138.034-.68c.09-.02.183-.043.283-.075a2.094,2.094,0,0,0,.538-.256v-.286h0a3.593,3.593,0,0,0-.731-.084h-.049l.026-.662.058-.01a4.74,4.74,0,0,1,.694.066l-.013-.156a.247.247,0,0,0-.117-.241.842.842,0,0,0-.477-.1.418.418,0,0,0-.112.01l.032-.683h.051a1.564,1.564,0,0,1,.952.268.918.918,0,0,1,.337.739v1.385h.106a.506.506,0,0,1,.354.09.327.327,0,0,1,.1.239.311.311,0,0,1-.1.248.524.524,0,0,1-.354.091h-.76v-.16a1.99,1.99,0,0,1-.548.2,3.018,3.018,0,0,1-.306.055Zm4.879-2.938a.319.319,0,0,1,.243-.117.3.3,0,0,1,.226.1.5.5,0,0,1,.091.342v.429a.5.5,0,0,1-.091.35.325.325,0,0,1-.234.1.344.344,0,0,1-.22-.076.412.412,0,0,1-.112-.244.367.367,0,0,0-.18-.262,1.248,1.248,0,0,0-.66-.156,1.037,1.037,0,0,0-.746.272.95.95,0,0,0-.281.694.81.81,0,0,0,.275.623,1.422,1.422,0,0,0,.891.234,2.186,2.186,0,0,0,.663-.087,1.111,1.111,0,0,0,.292-.175.368.368,0,0,1,.246-.132.292.292,0,0,1,.234.1.307.307,0,0,1,.1.239.553.553,0,0,1-.3.417,2.236,2.236,0,0,1-1.286.3,1.888,1.888,0,0,1-1.19-.329,1.394,1.394,0,0,1-.572-1.178A1.585,1.585,0,0,1,111.3,8.926a2.3,2.3,0,0,1,.5.051,1.876,1.876,0,0,1,.437.16Zm3.009-.113.006,2.291h.78a.581.581,0,0,1,.355.093.378.378,0,0,1,0,.492.528.528,0,0,1-.355.092l-2.222-.005a.523.523,0,0,1-.347-.093.294.294,0,0,1-.1-.234.309.309,0,0,1,.1-.25.523.523,0,0,1,.347-.093h.78V9.7h-.527a.5.5,0,0,1-.339-.1.314.314,0,0,1-.1-.246.289.289,0,0,1,.1-.239.428.428,0,0,1,.331-.1h1.195Zm-.1-1.275h0v.7h-.783v-.7Zm-7.622,1.17-.032.682a3.165,3.165,0,0,0-.649.1.945.945,0,0,1-.268.048.3.3,0,0,1-.224-.1.336.336,0,0,1-.088-.249.291.291,0,0,1,.111-.247,2,2,0,0,1,.249-.09,3.767,3.767,0,0,1,.494-.1,2.222,2.222,0,0,1,.407-.043Zm-.066,1.111-.026.662a1.121,1.121,0,0,0-.643.2c-.114.083-.183.165-.183.26a.211.211,0,0,0,.1.153.759.759,0,0,0,.432.1.963.963,0,0,0,.257-.013l-.034.681a2.3,2.3,0,0,1-.234.015,1.237,1.237,0,0,1-.86-.292.842.842,0,0,1-.34-.629,1.035,1.035,0,0,1,.429-.786,1.641,1.641,0,0,1,1.106-.35ZM85.547,17.878l.032-.688a.969.969,0,0,0,.329.052,1.765,1.765,0,0,0,.534-.1,1.656,1.656,0,0,0,.54-.26V16.6h0a3.352,3.352,0,0,0-.727-.086,1.169,1.169,0,0,0-.639.171l.04-.76a2.423,2.423,0,0,1,.634-.081,5.176,5.176,0,0,1,.692.065v-.163a.317.317,0,0,0-.128-.241.851.851,0,0,0-.477-.094,3.027,3.027,0,0,0-.7.1l.029-.707c.059-.007.129-.023.188-.028a3.4,3.4,0,0,1,.45-.045A1.535,1.535,0,0,1,87.3,15a.893.893,0,0,1,.343.744v1.38h.1a.482.482,0,0,1,.355.094.317.317,0,0,1,.108.245.333.333,0,0,1-.108.243.5.5,0,0,1-.355.087h-.76V17.64a2.009,2.009,0,0,1-.544.2,2.85,2.85,0,0,1-.545.059,1.678,1.678,0,0,1-.347-.031Zm.312-5.82.034-.665h.04a1.063,1.063,0,0,0,.738-.278.792.792,0,0,0,.3-.585h0a.889.889,0,0,0-.227-.6.971.971,0,0,0-.76-.363l.029-.677a1.747,1.747,0,0,1,.781.229,1.587,1.587,0,0,1,.625.61,1.639,1.639,0,0,1,.206.8,1.48,1.48,0,0,1-.206.742,1.531,1.531,0,0,1-.623.576,1.851,1.851,0,0,1-.866.212Zm3.1-3.074V9.2a1.287,1.287,0,0,1,.866-.307,1.231,1.231,0,0,1,.923.366,1.136,1.136,0,0,1,.266.779l.006,1.251a.523.523,0,0,1,.346.083.306.306,0,0,1,.1.243.3.3,0,0,1-.1.245.48.48,0,0,1-.346.1h-.661a.48.48,0,0,1-.343-.1.366.366,0,0,1,0-.489.517.517,0,0,1,.343-.094l0-1.258A.377.377,0,0,0,90.24,9.7a.686.686,0,0,0-.451-.128.956.956,0,0,0-.394.085,1.7,1.7,0,0,0-.437.377l.011,1.247a.492.492,0,0,1,.311.069.323.323,0,0,1,.144.266.3.3,0,0,1-.112.249.468.468,0,0,1-.343.091h-.654a.441.441,0,0,1-.34-.1.29.29,0,0,1-.1-.242.33.33,0,0,1,.131-.27.529.529,0,0,1,.309-.065V9.653a.487.487,0,0,1-.343-.086.329.329,0,0,1-.1-.252.318.318,0,0,1,.1-.241.517.517,0,0,1,.343-.09Zm5.341.123a.309.309,0,0,1,.234-.113.286.286,0,0,1,.239.106.53.53,0,0,1,.087.333v.44a.575.575,0,0,1-.083.343.356.356,0,0,1-.25.1.413.413,0,0,1-.225-.073A.687.687,0,0,1,94.2,10a.367.367,0,0,0-.184-.267,1.234,1.234,0,0,0-.657-.157.976.976,0,0,0-.737.278.933.933,0,0,0-.28.7.792.792,0,0,0,.263.618,1.421,1.421,0,0,0,.892.224,2.359,2.359,0,0,0,.669-.081.851.851,0,0,0,.293-.179.4.4,0,0,1,.251-.13.275.275,0,0,1,.223.1.36.36,0,0,1,.109.238c0,.149-.109.286-.3.423a2.243,2.243,0,0,1-1.286.3,1.916,1.916,0,0,1-1.192-.326,1.4,1.4,0,0,1-.577-1.187A1.6,1.6,0,0,1,93.215,8.9h.144a3,3,0,0,1,.509.052,3.38,3.38,0,0,1,.434.162Zm2.959-.113v2.3h.783a.5.5,0,0,1,.357.1.29.29,0,0,1,.1.24.308.308,0,0,1-.1.237.484.484,0,0,1-.357.1H95.827a.511.511,0,0,1-.351-.1.345.345,0,0,1-.1-.245.309.309,0,0,1,.1-.233.441.441,0,0,1,.34-.1H96.6V9.667h-.526a.473.473,0,0,1-.341-.094.294.294,0,0,1-.1-.24.312.312,0,0,1,.1-.245A.478.478,0,0,1,96.074,9Zm-.092-1.275h0v.72h-.783l-.014-.714Zm3.61.013V11.3h.786a.53.53,0,0,1,.358.1.3.3,0,0,1,.1.241.277.277,0,0,1-.1.237.487.487,0,0,1-.355.1h-2.23a.47.47,0,0,1-.34-.1.342.342,0,0,1,0-.478.446.446,0,0,1,.34-.1l.789.005V8.41H99.6a.561.561,0,0,1-.355-.1.362.362,0,0,1-.088-.245.346.346,0,0,1,.088-.246.565.565,0,0,1,.355-.092l1.183.006ZM104.3,9v2.3h.785a.546.546,0,0,1,.347.087.356.356,0,0,1,.1.247.37.37,0,0,1-.1.249.533.533,0,0,1-.347.087H102.85a.485.485,0,0,1-.343-.1.29.29,0,0,1-.093-.237.312.312,0,0,1,.093-.24.475.475,0,0,1,.343-.1h.783V9.677h-.526a.514.514,0,0,1-.34-.09.356.356,0,0,1-.1-.247.28.28,0,0,1,.1-.24.448.448,0,0,1,.34-.1Zm-.1-1.272h0v.709h-.786v-.7ZM90.455,13.564v3.573h.789a.551.551,0,0,1,.346.091.353.353,0,0,1,0,.492.508.508,0,0,1-.346.094l-2.222-.007a.5.5,0,0,1-.344-.091.311.311,0,0,1-.106-.244.3.3,0,0,1,.106-.245.471.471,0,0,1,.344-.094H89.8V14.242h-.526a.485.485,0,0,1-.346-.1.332.332,0,0,1-.1-.24.363.363,0,0,1,.1-.248.52.52,0,0,1,.346-.093ZM86.016,8.89l-.029.677c-.023,0-.036-.007-.054,0a1.04,1.04,0,0,0-.743.282.917.917,0,0,0-.289.678.794.794,0,0,0,.289.585,1.166,1.166,0,0,0,.7.278l-.035.665a1.761,1.761,0,0,1-.776-.213,1.453,1.453,0,0,1-.841-1.334,1.68,1.68,0,0,1,.211-.786,1.5,1.5,0,0,1,.629-.608,1.677,1.677,0,0,1,.852-.226Zm-.311,5.923-.03.708-.058.018a1.311,1.311,0,0,1-.272.038.268.268,0,0,1-.215-.1.3.3,0,0,1-.1-.243.445.445,0,0,1,.028-.153.279.279,0,0,1,.1-.1.611.611,0,0,1,.233-.088c.1-.031.212-.054.312-.083Zm-.049,1.12-.04.761a.156.156,0,0,0-.046.029c-.126.088-.182.164-.182.255a.171.171,0,0,0,.085.156c.043.024.074.04.106.055l-.032.688a1.239,1.239,0,0,1-.515-.247.837.837,0,0,1-.325-.636.991.991,0,0,1,.423-.783,1.191,1.191,0,0,1,.526-.278Zm-7.432,1.751.038-.819a.546.546,0,0,0,.094.092,1.147,1.147,0,0,0,1.475,0,.79.79,0,0,0,.292-.6h0a.9.9,0,0,0-.223-.584,1.091,1.091,0,0,0-1.541-.1l-.014.013-.026.023.04-.829a1.837,1.837,0,0,1,.73-.16,1.692,1.692,0,0,1,.854.239,1.429,1.429,0,0,1,.628.605,1.663,1.663,0,0,1,.206.789,1.461,1.461,0,0,1-.206.749,1.53,1.53,0,0,1-.616.578,1.884,1.884,0,0,1-.864.213,2.058,2.058,0,0,1-.863-.213l-.006-.008Zm.293-5.639.04-.673H78.7a3.848,3.848,0,0,0,.97-.158,1.812,1.812,0,0,1,.342-.058.29.29,0,0,1,.218.086.355.355,0,0,1,.091.243.3.3,0,0,1-.093.226,1.647,1.647,0,0,1-.624.234,4.236,4.236,0,0,1-.945.1Zm.062-1.252.041-.678h.98a1.008,1.008,0,0,0-.4-.415,1.047,1.047,0,0,0-.555-.136l.041-.677a1.643,1.643,0,0,1,.643.141,1.56,1.56,0,0,1,.5.307,1.949,1.949,0,0,1,.386.606,1.65,1.65,0,0,1,.1.574V10.8Zm4.716-1.706a.319.319,0,0,1,.45-.03l.024.023a.579.579,0,0,1,.091.351v.427a.528.528,0,0,1-.091.338.3.3,0,0,1-.237.1.351.351,0,0,1-.234-.075.51.51,0,0,1-.1-.244.411.411,0,0,0-.18-.271,1.386,1.386,0,0,0-.663-.149,1.009,1.009,0,0,0-.741.271,1.028,1.028,0,0,0-.286.706.841.841,0,0,0,.278.62,1.4,1.4,0,0,0,.889.234,2.415,2.415,0,0,0,.671-.092,1,1,0,0,0,.289-.183.386.386,0,0,1,.24-.113.32.32,0,0,1,.234.093.325.325,0,0,1,.109.248.577.577,0,0,1-.309.423,2.32,2.32,0,0,1-1.286.3,1.9,1.9,0,0,1-1.186-.333,1.385,1.385,0,0,1-.577-1.185,1.6,1.6,0,0,1,.462-1.185A1.658,1.658,0,0,1,82.36,8.89a2.26,2.26,0,0,1,.506.047,2.466,2.466,0,0,1,.432.153Zm-1.318,5.742v.217a1.245,1.245,0,0,1,.4-.234,1.478,1.478,0,0,1,.462-.073,1.162,1.162,0,0,1,.915.372,1.1,1.1,0,0,1,.283.771v1.244a.459.459,0,0,1,.34.1.338.338,0,0,1,0,.492.518.518,0,0,1-.34.086l-.656-.006a.543.543,0,0,1-.355-.087.338.338,0,0,1-.094-.241.35.35,0,0,1,.094-.242.516.516,0,0,1,.342-.1V15.861a.417.417,0,0,0-.108-.314.67.67,0,0,0-.454-.127.781.781,0,0,0-.386.084,1.749,1.749,0,0,0-.429.38v1.244a.472.472,0,0,1,.309.063.382.382,0,0,1,.14.267.354.354,0,0,1-.1.25.529.529,0,0,1-.35.087h-.666a.513.513,0,0,1-.34-.087.343.343,0,0,1-.108-.25.337.337,0,0,1,.14-.267.513.513,0,0,1,.309-.063V15.5a.529.529,0,0,1-.341-.091.321.321,0,0,1-.108-.243.336.336,0,0,1,.1-.25.586.586,0,0,1,.346-.09Zm-3.29-5.946-.04.677h-.031a1.144,1.144,0,0,0-.581.136.938.938,0,0,0-.245.2l.054-.853a1.667,1.667,0,0,1,.76-.164Zm-.068,1.232-.04.678h-.835l.035-.678Zm-.062,1.257-.041.673a1.869,1.869,0,0,1-.823-.227L77.741,11a.922.922,0,0,0,.251.219,1.214,1.214,0,0,0,.564.158Zm-.195,3.521-.041.829a.919.919,0,0,0-.274.643.732.732,0,0,0,.214.5l-.037.819a1.467,1.467,0,0,1-.611-.57,1.826,1.826,0,0,1-.176-.418l.051-.845a1.475,1.475,0,0,1,.129-.283,1.552,1.552,0,0,1,.626-.613,1.145,1.145,0,0,1,.12-.063ZM77.39,17.67a.33.33,0,0,0,.071-.213.311.311,0,0,0-.054-.185Zm.455-8.623L77.79,9.9a1.331,1.331,0,0,0-.148.216h.137l-.034.677h-.123a.829.829,0,0,0,.12.2l-.048.822a1.641,1.641,0,0,1-.3-.229,1.487,1.487,0,0,1-.472-1.111,1.43,1.43,0,0,1,.515-1.155,1.578,1.578,0,0,1,.409-.277Zm-.358,6.8-.051.845a1.369,1.369,0,0,1-.04-.331,1.636,1.636,0,0,1,.092-.514Zm-.08,1.42a.141.141,0,0,0-.052-.059.473.473,0,0,0-.345-.1h-.789V14.83H75.029a.457.457,0,0,0-.337.086.344.344,0,0,0,0,.485.474.474,0,0,0,.335.1h.537V17.12h-.786a.487.487,0,0,0-.34.1.167.167,0,0,0-.054.077l-.026.307a.728.728,0,0,0,.08.1.475.475,0,0,0,.34.09l2.231.007a.461.461,0,0,0,.345-.1.154.154,0,0,0,.034-.028l.017-.4Zm-2.74-5.438.025-.433a.307.307,0,0,1,.059.2.316.316,0,0,1-.086.234Zm.076-1.392a4.5,4.5,0,0,1,1.287,1.5h.331a.525.525,0,0,0,.337-.1A.292.292,0,0,0,76.8,11.6a.393.393,0,0,0-.131-.28.543.543,0,0,0-.311-.063c-.176-.259-.3-.456-.4-.579a3.576,3.576,0,0,0-.436-.468,1.857,1.857,0,0,0,.542-.46,1,1,0,0,0,.188-.578,1.148,1.148,0,0,0-.391-.857,1.476,1.476,0,0,0-.986-.343l-.037.663a.945.945,0,0,1,.552.167.535.535,0,0,1,.206.351.365.365,0,0,1-.121.26.8.8,0,0,1-.394.246,1.235,1.235,0,0,1-.3.076l-.037.7Zm1.38,3.107h0v.708h-.786v-.708ZM74.872,7.976l-.038.663h-.777V9.751h.514a1.124,1.124,0,0,0,.209-.013l-.037.7a.062.062,0,0,0-.034-.02h-.652v.842H74.3a.518.518,0,0,1,.354.091c.015.011.026.036.04.046l-.025.433a.01.01,0,0,0-.007.009.6.6,0,0,1-.362.1h-1a.54.54,0,0,1-.342-.094.327.327,0,0,1-.1-.245.317.317,0,0,1,.1-.242.5.5,0,0,1,.342-.092h.1V8.638h-.1a.479.479,0,0,1-.343-.093.325.325,0,0,1-.1-.234.331.331,0,0,1,.1-.248.488.488,0,0,1,.343-.09H74.88Zm-.486,9.313-.026.307a.5.5,0,0,1-.02-.138.3.3,0,0,1,.046-.169Zm-5.419.5.042-.728a2.365,2.365,0,0,0,.366-.193v-.283h0c-.122-.022-.233-.039-.338-.053l.038-.679c.091.008.186.031.289.039v-.157a.278.278,0,0,0-.12-.238.313.313,0,0,0-.152-.059l.031-.676a1.229,1.229,0,0,1,.561.234.9.9,0,0,1,.338.733v1.385h.114a.552.552,0,0,1,.355.091.406.406,0,0,1,.111.252.311.311,0,0,1-.111.24.52.52,0,0,1-.355.087h-.76v-.156a2.163,2.163,0,0,1-.41.163Zm.305-5.76.032-.673a.888.888,0,0,0,.146.008,4.2,4.2,0,0,0,.971-.156,1.915,1.915,0,0,1,.343-.07.323.323,0,0,1,.223.1.392.392,0,0,1,.091.243.32.32,0,0,1-.1.227,1.5,1.5,0,0,1-.62.225,4.672,4.672,0,0,1-.958.1Zm.069-1.248.037-.67h.969a1.017,1.017,0,0,0-.395-.429,1.123,1.123,0,0,0-.548-.143l.04-.667a1.779,1.779,0,0,1,.643.143,1.893,1.893,0,0,1,.515.311,2.522,2.522,0,0,1,.374.6,1.649,1.649,0,0,1,.1.574v.287l-1.732-.007Zm4.007,4.161a.365.365,0,0,1,.246-.122.294.294,0,0,1,.229.1.538.538,0,0,1,.085.343V15.7a.526.526,0,0,1-.085.343.311.311,0,0,1-.238.107.342.342,0,0,1-.22-.08.408.408,0,0,1-.106-.24.4.4,0,0,0-.188-.262,1.163,1.163,0,0,0-.661-.166,1.026,1.026,0,0,0-.743.274.977.977,0,0,0-.278.7.84.84,0,0,0,.266.629,1.478,1.478,0,0,0,.893.221,2.023,2.023,0,0,0,.665-.088.74.74,0,0,0,.286-.175.375.375,0,0,1,.255-.126.3.3,0,0,1,.234.1.363.363,0,0,1,.1.24.553.553,0,0,1-.292.428,2.407,2.407,0,0,1-1.3.3,1.938,1.938,0,0,1-1.188-.331,1.4,1.4,0,0,1-.577-1.187,1.591,1.591,0,0,1,.468-1.188,1.663,1.663,0,0,1,1.214-.459,1.879,1.879,0,0,1,.507.051,1.525,1.525,0,0,1,.423.16Zm-3.9-6.07-.04.667h-.026a1.188,1.188,0,0,0-.584.143,1.059,1.059,0,0,0-.4.429h.983l-.037.67h-.961a.95.95,0,0,0,.361.427,1.229,1.229,0,0,0,.562.148l-.032.673a1.734,1.734,0,0,1-1.131-.445,1.608,1.608,0,0,1-.478-1.123,1.413,1.413,0,0,1,.52-1.144,1.708,1.708,0,0,1,1.169-.448.708.708,0,0,0,.092,0Zm-.321,5.889-.031.676a1.114,1.114,0,0,0-.335-.039,3.062,3.062,0,0,0-.748.117,1.335,1.335,0,0,1-.274.035.29.29,0,0,1-.224-.1.414.414,0,0,1-.058-.4.388.388,0,0,1,.1-.1,1.244,1.244,0,0,1,.234-.087,4.943,4.943,0,0,1,.5-.1,2.339,2.339,0,0,1,.457-.04,1.691,1.691,0,0,1,.389.033Zm-.047,1.093-.038.678a2.29,2.29,0,0,0-.4-.026,1.211,1.211,0,0,0-.692.193c-.114.088-.176.169-.176.261a.181.181,0,0,0,.091.151.718.718,0,0,0,.432.112,1.814,1.814,0,0,0,.537-.094,1.1,1.1,0,0,0,.176-.068l-.043.728c-.043.007-.092.028-.14.036a2.318,2.318,0,0,1-.538.067,1.27,1.27,0,0,1-.863-.283.831.831,0,0,1-.328-.638,1.011,1.011,0,0,1,.409-.773,1.688,1.688,0,0,1,1.17-.363,2.6,2.6,0,0,1,.394.019Zm-4.191,1.887.032-.581a.155.155,0,0,1,.058.039.309.309,0,0,1,.108.253.323.323,0,0,1-.1.234.358.358,0,0,1-.1.058Zm.09-1.717,1.111,1.754h.65l-.011-3.291a.532.532,0,0,0,.351-.089.335.335,0,0,0,.094-.251.348.348,0,0,0-.094-.241.527.527,0,0,0-.351-.091h-.894a.5.5,0,0,0-.343.091.3.3,0,0,0-.1.241.308.308,0,0,0,.1.247.5.5,0,0,0,.343.093h.24V16.5l-1.026-1.642-.071,1.161Zm.222-4,.029-.67h.046a1.009,1.009,0,0,0,.717-.229.774.774,0,0,0,.263-.6h0a.971.971,0,0,0-.292-.7.909.909,0,0,0-.632-.292l.028-.67a1.259,1.259,0,0,1,.4.078,1.756,1.756,0,0,1,.492.24v-.83H66.14a.442.442,0,0,1-.343-.1.3.3,0,0,1-.109-.234.337.337,0,0,1,.109-.255.533.533,0,0,1,.343-.087h.76l.009,3.573h.117a.593.593,0,0,1,.355.091.368.368,0,0,1,.1.239.407.407,0,0,1-.1.25.564.564,0,0,1-.355.093h-.772v-.169a1.954,1.954,0,0,1-.467.208,2.385,2.385,0,0,1-.512.058.33.33,0,0,1-.077,0Zm.16-3.157-.028.67h-.07a.927.927,0,0,0-.689.292.941.941,0,0,0-.283.688.8.8,0,0,0,.26.611,1,1,0,0,0,.678.229l-.029.67a1.56,1.56,0,0,1-1.12-.436,1.5,1.5,0,0,1-.446-1.09,1.629,1.629,0,0,1,1.625-1.639c.044,0,.072.007.1.007Zm-.312,5.994-.07,1.161-.585-.946v2.03h.245a.551.551,0,0,1,.283.052l-.031.581a.585.585,0,0,1-.252.032h-.891a.54.54,0,0,1-.351-.088.322.322,0,0,1-.1-.243.312.312,0,0,1,.1-.244.47.47,0,0,1,.351-.09l-.009-2.624h-.1a.559.559,0,0,1-.358-.089.355.355,0,0,1-.093-.248.336.336,0,0,1,.093-.246.6.6,0,0,1,.358-.093l.754.008.66,1.046Zm-5.263,2.91.226-4.244h.152l.005,3.567h.106a.587.587,0,0,1,.355.092.324.324,0,0,1,.1.24.342.342,0,0,1-.1.254.577.577,0,0,1-.355.088Zm.3-5.747.034-.676h.048a1.08,1.08,0,0,0,.746-.267.818.818,0,0,0,.292-.59h0a.932.932,0,0,0-.227-.6,1.051,1.051,0,0,0-.765-.358l.032-.672a1.7,1.7,0,0,1,.777.227,1.52,1.52,0,0,1,.626.61,1.713,1.713,0,0,1,.209.8,1.5,1.5,0,0,1-.829,1.32,1.872,1.872,0,0,1-.861.213Zm.163-3.164-.032.671h-.048a.993.993,0,0,0-.738.287.9.9,0,0,0-.3.677.774.774,0,0,0,.3.585,1.085,1.085,0,0,0,.69.272l-.035.676a2.018,2.018,0,0,1-.771-.213,1.712,1.712,0,0,1-.527-.422l.1-1.98a1.646,1.646,0,0,1,.43-.335,1.7,1.7,0,0,1,.848-.22c.023,0,.052.006.08.006Zm-.237,4.667-.226,4.245h-.269l-.013-.165a1.719,1.719,0,0,1-.461.2,1.837,1.837,0,0,1-.511.07.491.491,0,0,1-.086,0l.04-.672h.043a1,1,0,0,0,.721-.234.764.764,0,0,0,.255-.59h0a.972.972,0,0,0-.283-.707.956.956,0,0,0-.641-.283l.028-.673a1.55,1.55,0,0,1,.41.079,1.939,1.939,0,0,1,.483.238V14.2H59.39a.506.506,0,0,1-.346-.089.372.372,0,0,1-.1-.242.388.388,0,0,1,.1-.249.55.55,0,0,1,.346-.09Zm-1.12-4.118-.1,1.98c-.035-.053-.063-.1-.1-.155a1.527,1.527,0,0,1-.214-.756,1.635,1.635,0,0,1,.214-.79,1.987,1.987,0,0,1,.2-.279Zm-.283,5.3-.028.673h-.052a.925.925,0,0,0-.7.283.9.9,0,0,0-.282.7.8.8,0,0,0,.245.6,1.031,1.031,0,0,0,.688.234l-.04.672a1.619,1.619,0,0,1-1.106-.432,1.435,1.435,0,0,1-.425-.8l.042-.773a1.675,1.675,0,0,1,.406-.681,1.581,1.581,0,0,1,1.152-.479.425.425,0,0,1,.094.007Zm-1.747,2.9a.373.373,0,0,0,.052-.184.447.447,0,0,0-.034-.153l-.018.337Zm.3-5.7L57.316,9a1.414,1.414,0,0,1,.262.212,1.105,1.105,0,0,1,.269.779v1.239a.516.516,0,0,1,.351.1.309.309,0,0,1,.106.239.292.292,0,0,1-.106.242.465.465,0,0,1-.351.1ZM57.316,9l-.154,2.913a.628.628,0,0,1-.312-.1.32.32,0,0,1-.106-.242.314.314,0,0,1,.106-.24.478.478,0,0,1,.34-.1V9.982a.46.46,0,0,0-.114-.327.713.713,0,0,0-.447-.132,1.027,1.027,0,0,0-.4.093,1.5,1.5,0,0,0-.423.378v1.242a.512.512,0,0,1,.315.07.347.347,0,0,1,.131.271.318.318,0,0,1-.1.243.543.543,0,0,1-.346.093H55.15l.16-2.971h.5v.213a1.254,1.254,0,0,1,.389-.234,1.457,1.457,0,0,1,.468-.076A1.3,1.3,0,0,1,57.319,9Zm-.363,6.861-.042.773a1.149,1.149,0,0,1-.03-.286,1.6,1.6,0,0,1,.073-.477Zm-.077,1.412a.233.233,0,0,0-.074-.088.471.471,0,0,0-.346-.1h-.109V15.713A.9.9,0,0,0,56,14.974a1.454,1.454,0,0,0-.951-.269h-.04l-.041.682h.109a.93.93,0,0,1,.482.086.318.318,0,0,1,.126.248v.164A3.564,3.564,0,0,0,55,15.811h-.05l-.037.671h.051a4.089,4.089,0,0,1,.723.085h0v.281a1.809,1.809,0,0,1-.531.26c-.106.028-.192.052-.28.067l-.03.683a2,2,0,0,0,.3-.054,1.7,1.7,0,0,0,.543-.2v.16h.769a.542.542,0,0,0,.36-.094.611.611,0,0,1,.042-.058ZM55.311,8.942l-.16,2.971h-.008a.57.57,0,0,1-.34-.093.316.316,0,0,1-.1-.246.413.413,0,0,1,.134-.274.463.463,0,0,1,.306-.063V9.616a.462.462,0,0,1-.34-.093.3.3,0,0,1-.1-.241.322.322,0,0,1,.1-.252.532.532,0,0,1,.34-.088Zm-.3,5.763-.041.682a3.642,3.642,0,0,0-.648.11,1.316,1.316,0,0,1-.272.042.293.293,0,0,1-.214-.1.367.367,0,0,1-.094-.25.293.293,0,0,1,.031-.143.221.221,0,0,1,.1-.1,1.042,1.042,0,0,1,.234-.091c.168-.042.326-.083.506-.112.149-.015.272-.035.406-.037Zm-.058,1.106-.038.671a1.224,1.224,0,0,0-.643.2.343.343,0,0,0-.172.257.177.177,0,0,0,.083.155.792.792,0,0,0,.441.1,1.546,1.546,0,0,0,.254-.022l-.029.683a1.63,1.63,0,0,1-.242.015,1.318,1.318,0,0,1-.863-.286.845.845,0,0,1-.332-.633,1.052,1.052,0,0,1,.426-.786,1.724,1.724,0,0,1,1.115-.358Zm-4,2.056.035-.675.051.007a1.055,1.055,0,0,0,.718-.234.779.779,0,0,0,.257-.595h0a.927.927,0,0,0-.286-.7.91.91,0,0,0-.643-.3l.043-.665a1.637,1.637,0,0,1,.4.08,1.792,1.792,0,0,1,.492.243l-.01-.836h-.1a.531.531,0,0,1-.346-.089.317.317,0,0,1-.1-.244.323.323,0,0,1,.1-.247.5.5,0,0,1,.343-.1l.767.005v3.571h.116a.486.486,0,0,1,.351.1.311.311,0,0,1,.1.238.3.3,0,0,1-.1.246.528.528,0,0,1-.351.095h-.771V17.6a1.554,1.554,0,0,1-.472.2,1.95,1.95,0,0,1-.5.075.5.5,0,0,1-.086,0Zm.309-5.967.044-.666h.3V9.613h-.219l.043-.677h.825v.421a3.662,3.662,0,0,1,.661-.41,1.14,1.14,0,0,1,.434-.1,1,1,0,0,1,.623.24.471.471,0,0,1,.206.343.326.326,0,0,1-.1.24.3.3,0,0,1-.234.1.415.415,0,0,1-.252-.126.35.35,0,0,0-.24-.125.924.924,0,0,0-.4.176,8.07,8.07,0,0,0-.695.526V11.23h.949a.509.509,0,0,1,.351.093.375.375,0,0,1,.1.247.327.327,0,0,1-.1.239.53.53,0,0,1-.351.086Zm.17-2.964-.043.677H51.36a.43.43,0,0,1-.332-.1.29.29,0,0,1-.108-.24.309.309,0,0,1,.108-.252.469.469,0,0,1,.332-.09Zm-.126,2.3-.044.666h-.051a.547.547,0,0,1-.343-.086.349.349,0,0,1-.1-.247.366.366,0,0,1,.1-.243.536.536,0,0,1,.343-.09Zm-.18,3.471-.043.666h-.052a.953.953,0,0,0-.7.292.971.971,0,0,0-.277.693.791.791,0,0,0,.251.607.967.967,0,0,0,.68.234l-.034.675a1.61,1.61,0,0,1-1.1-.441,1.448,1.448,0,0,1-.458-.973l.029-.409a1.633,1.633,0,0,1,.437-.862,1.6,1.6,0,0,1,1.17-.476ZM49.348,17.53a.942.942,0,0,1,.02-.1.652.652,0,0,0-.014-.077l-.006.18Zm.289-5.63.034-.709.054-.009a1.46,1.46,0,0,1,.34-.065.317.317,0,0,1,.226.091.292.292,0,0,1,.08.24.256.256,0,0,1-.088.222,1.216,1.216,0,0,1-.618.23Zm.065-1.135L49.78,9.2a.786.786,0,0,1,.117.1,1.943,1.943,0,0,1,.377.589,1.488,1.488,0,0,1,.1.59v.284ZM49.78,9.2l-.08,1.565-1.053-.016.023-.664h.974a.96.96,0,0,0-.394-.43,1.111,1.111,0,0,0-.549-.138l.031-.671a1.66,1.66,0,0,1,.658.139,1.7,1.7,0,0,1,.385.218Zm-.108,1.989-.035.708a3.892,3.892,0,0,1-.931.1h-.129l.034-.665h.143a3.751,3.751,0,0,0,.918-.147Zm-.246,4.853-.029.409v-.109a1.6,1.6,0,0,1,.029-.3Zm-.071,1.307-.007.18a.29.29,0,0,1-.093.142.538.538,0,0,1-.346.088h-.638l.035-.671h.6a.507.507,0,0,1,.346.088.258.258,0,0,1,.094.172Zm-.618-8.5-.031.671h-.035a1.155,1.155,0,0,0-.575.138,1.033,1.033,0,0,0-.4.429h.971l-.022.665h-.963a.911.911,0,0,0,.357.43,1.331,1.331,0,0,0,.568.16l-.034.665a1.716,1.716,0,0,1-1.131-.444,1.551,1.551,0,0,1-.474-1.129,1.443,1.443,0,0,1,.519-1.147,1.712,1.712,0,0,1,1.175-.442.581.581,0,0,0,.072.005Zm-.431,8.245-.035.67H46.685a.535.535,0,0,1-.344-.1.306.306,0,0,1-.1-.239.321.321,0,0,1,.1-.244.492.492,0,0,1,.344-.094h.785V15.466h-.526a.483.483,0,0,1-.337-.09.311.311,0,0,1-.1-.244.336.336,0,0,1,.094-.249.5.5,0,0,1,.346-.09h1.184l.005,2.3Zm-6.6-.156.108-1.959v1.394a1.46,1.46,0,0,1-.106.565Zm.129-2.475.032-.676a.477.477,0,0,1,.292.093.326.326,0,0,1,.092.25.308.308,0,0,1-.092.233.52.52,0,0,1-.325.1Zm.126-2.456L42,11.334h.048a1.039,1.039,0,0,0,.72-.234.777.777,0,0,0,.255-.6h0a.962.962,0,0,0-.283-.7.915.915,0,0,0-.64-.288l.035-.675a1.547,1.547,0,0,1,1.074.483,1.6,1.6,0,0,1,.472,1.164,1.438,1.438,0,0,1-.449,1.087A1.635,1.635,0,0,1,42.049,12Zm3.6-3.07v2.292l.793.008a.555.555,0,0,1,.351.091.335.335,0,0,1,.1.24.341.341,0,0,1-.1.252.527.527,0,0,1-.351.088h-2.23a.526.526,0,0,1-.34-.093.353.353,0,0,1-.1-.247.338.338,0,0,1,.1-.245.5.5,0,0,1,.34-.094h.788L44.9,9.611h-.538a.53.53,0,0,1-.34-.093.323.323,0,0,1-.094-.248.3.3,0,0,1,.094-.239.524.524,0,0,1,.34-.1l1.19.005Zm-.091-1.272h0v.7h-.783v-.7Zm-2.078,7.128v.216a1.174,1.174,0,0,1,.4-.234,1.328,1.328,0,0,1,.463-.077,1.2,1.2,0,0,1,.92.369,1.129,1.129,0,0,1,.264.775l.009,1.247a.5.5,0,0,1,.348.1.355.355,0,0,1,0,.482.5.5,0,0,1-.348.09h-.661a.482.482,0,0,1-.345-.09.34.34,0,0,1,0-.482h0a.464.464,0,0,1,.343-.095V15.821a.4.4,0,0,0-.123-.317.672.672,0,0,0-.446-.13.92.92,0,0,0-.4.081,1.809,1.809,0,0,0-.427.382v1.244c.166,0,.272.023.3.065a.37.37,0,0,1,.149.28.294.294,0,0,1-.106.24.488.488,0,0,1-.347.09h-.654a.527.527,0,0,1-.355-.094.338.338,0,0,1-.088-.234.342.342,0,0,1,.134-.283.484.484,0,0,1,.309-.063l-.006-1.619a.567.567,0,0,1-.351-.088.382.382,0,0,1-.1-.253.352.352,0,0,1,.1-.243.539.539,0,0,1,.351-.086Zm4.639-1.27h0v.708h-.791v-.708Zm-5.9-4.681-.035.675h-.052a.979.979,0,0,0-.7.28.963.963,0,0,0-.271.692.762.762,0,0,0,.254.606.985.985,0,0,0,.672.24l-.034.673a2.17,2.17,0,0,1-.425-.063,1.933,1.933,0,0,1-.468-.217V11.9H40.3a.545.545,0,0,1-.348-.094.335.335,0,0,1-.016-.473l.016-.015a.477.477,0,0,1,.348-.1h.112v-2.9H40.3a.494.494,0,0,1-.351-.093.1.1,0,0,1-.051-.063l.011-.384a.129.129,0,0,1,.041-.036.506.506,0,0,1,.35-.087h.767v1.5a1.644,1.644,0,0,1,.482-.234,1.543,1.543,0,0,1,.5-.087Zm-.264,4.948-.032.676h-.02v.515L41.7,16.94a1.714,1.714,0,0,1-.329.487,1.462,1.462,0,0,1-1.057.437,1.52,1.52,0,0,1-.577-.112,1.588,1.588,0,0,1-.344-.2l.069-1.409v.288a.759.759,0,0,0,.246.536.854.854,0,0,0,.6.22.749.749,0,0,0,.431-.107.849.849,0,0,0,.335-.324.668.668,0,0,0,.074-.325V14.466h-.234a.445.445,0,0,1-.323-.1.316.316,0,0,1-.1-.244.3.3,0,0,1,.1-.24.469.469,0,0,1,.323-.1H41.8Zm-2.306.676h.151a.459.459,0,0,0,.315-.1.32.32,0,0,0,.1-.244.307.307,0,0,0-.1-.24.448.448,0,0,0-.315-.1h-.125l-.031.68Zm.18-3.527a1.333,1.333,0,0,0,.082-.468,1.413,1.413,0,0,0-.036-.343ZM39.9,7.788l-.011.384a.3.3,0,0,1-.051-.18.324.324,0,0,1,.062-.2Zm-.117,2.339-.046.814a1.515,1.515,0,0,1-.12.278A1.632,1.632,0,0,1,39,11.8a1.876,1.876,0,0,1-.869.21h-.083l.037-.672h.046a1.058,1.058,0,0,0,.74-.273.792.792,0,0,0,.292-.59h0a.874.874,0,0,0-.224-.593,1,1,0,0,0-.755-.364l.031-.671a1.706,1.706,0,0,1,.769.225,1.5,1.5,0,0,1,.626.61,1.548,1.548,0,0,1,.175.449ZM39.6,13.789l-.031.679h-.092v1.675L39.4,17.552a1.7,1.7,0,0,1-.131-.123,1.758,1.758,0,0,1-.332-.439,1.386,1.386,0,0,1-.117-.613l-.005-1.916a.523.523,0,0,1-.346-.092.3.3,0,0,1-.1-.244.293.293,0,0,1,.1-.243.481.481,0,0,1,.346-.093Zm-3.812-3.113v.9a3.772,3.772,0,0,1-.746.332,2.181,2.181,0,0,1-.686.092,2.682,2.682,0,0,1-.927-.155,1.245,1.245,0,0,1-.526-.3,1.566,1.566,0,0,1-.361-.53,1.868,1.868,0,0,1-.175-.788V9.74a1.92,1.92,0,0,1,.409-1.2,1.745,1.745,0,0,1,1.458-.716,3.36,3.36,0,0,1,.51.058,2.169,2.169,0,0,1,.468.171.356.356,0,0,1,.249-.117.285.285,0,0,1,.234.1.469.469,0,0,1,.089.334v.445a.535.535,0,0,1-.089.343.294.294,0,0,1-.234.1.271.271,0,0,1-.2-.072.4.4,0,0,1-.108-.214.454.454,0,0,0-.1-.227.752.752,0,0,0-.3-.165,1.526,1.526,0,0,0-.5-.08,1.359,1.359,0,0,0-.675.163,1.14,1.14,0,0,0-.384.423,1.331,1.331,0,0,0-.179.655l.011.487a1.054,1.054,0,0,0,.3.818,1.436,1.436,0,0,0,.978.283,1.858,1.858,0,0,0,.832-.181v-.472h-.667a.469.469,0,0,1-.351-.1.338.338,0,0,1,0-.478h0a.483.483,0,0,1,.351-.1h1.309a.39.39,0,0,1,.226.1.327.327,0,0,1,.106.238.352.352,0,0,1-.329.344Zm2.435-1.832-.031.67h-.061a1.039,1.039,0,0,0-.743.285.942.942,0,0,0-.289.672.806.806,0,0,0,.292.59,1.069,1.069,0,0,0,.695.273l-.038.672a1.9,1.9,0,0,1-.774-.206,1.565,1.565,0,0,1-.621-.584,1.487,1.487,0,0,1-.209-.761,1.614,1.614,0,0,1,.213-.8,1.583,1.583,0,0,1,.617-.606,1.715,1.715,0,0,1,.852-.214Zm-4.262,8.888-1.139-2.28a.44.44,0,0,1-.335-.094.287.287,0,0,1-.106-.244.273.273,0,0,1,.106-.24.45.45,0,0,1,.335-.1h.74a.477.477,0,0,1,.34.095.358.358,0,0,1,.109.24.3.3,0,0,1-.109.244.471.471,0,0,1-.34.1L34.333,17l.764-1.539a.5.5,0,0,1-.355-.1.325.325,0,0,1-.088-.244.318.318,0,0,1,.088-.234.49.49,0,0,1,.351-.094h.74a.518.518,0,0,1,.341.094.349.349,0,0,1,0,.484.473.473,0,0,1-.344.093l-1.492,3.021h.489a.486.486,0,0,1,.214.336.32.32,0,0,1-.117.247.467.467,0,0,1-.345.086H32.94a.547.547,0,0,1-.354-.09.359.359,0,0,1,0-.492.553.553,0,0,1,.354-.087h.66Z" fill="#4eade2"/>
      <path id="Trazado_299" data-name="Trazado 299" d="M107.275,25.353l.028-.393a.841.841,0,0,0,.149-.032c.072-.008.123,0,.14.073s-.088.132.023.132,0,.084-.08.114a.487.487,0,0,1-.26.106Zm.031-.483.01-.255c.159-.023.259-.059.276-.056.043.02.012.189-.058.234a1.333,1.333,0,0,1-.229.075Zm.052-1.018a1.846,1.846,0,0,0,1.228.313.8.8,0,0,0,.73,1.151c.914.11,1-.158,1.074-.26a.477.477,0,0,0,.051-.28c-.012-.066.017-.234-.051-.261s-.443.01-.626,0c-.163-.008-.5-.037-.449-.239s.778-.369.883-.424c.059-.012.195-.075.2-.18a1.129,1.129,0,0,0-.169-.468.573.573,0,0,0-.58-.292,3.911,3.911,0,0,0-.74.392,2.254,2.254,0,0,1-.789-.053c-.234-.072-.6-.152-.214-.5a4.61,4.61,0,0,1,2.28-1.072c.176-.019.1-.309.043-.409a2.353,2.353,0,0,0-.186-.393c-.04-.008-.04-.073-.292-.043a4.449,4.449,0,0,0-2.013.919c-.111.107-.2.2-.286.3l-.091,1.8ZM124.413,24.9a1.855,1.855,0,0,0-.1.761.453.453,0,0,0,.511.323c.249-.034.363-.137.355-.351a1.811,1.811,0,0,0-.234-.765c-.111-.08-.383-.268-.535.03Zm.621-1.878c-.035.046-.152.069-.176-.023a1.962,1.962,0,0,1-.089-.521A32.372,32.372,0,0,1,126.718,18c.252-.361.13-.531.264-.659a.253.253,0,0,1,.428.135,1.878,1.878,0,0,1,0,1.03c-.131.185-.546.866-.643,1.036s-1.249,2.442-1.329,2.651a7.121,7.121,0,0,1-.406.833ZM111.575,21.3c-.035.034.091.07.15.216s-.1.366.043.464.386-.078.446.133a.509.509,0,0,1-.062.554,5.327,5.327,0,0,0-.613,1.551c.028.263,0,.5.209.468s.381.176.5-.223.826-1.733.849-1.813.292-.553.523-.608c.214-.067.429.179.36.593s-.077,1.691.329,1.948c.537.336,1.017.117,1.72-.631-.042.424-.053.936.1.994s.44.046.454-.18a7.261,7.261,0,0,1,1.192-3.26L119.4,21.5s-.058.346-.092.526.358.51.461.516-.054.123-.292.394-.715,1.428-.155,1.653a4.9,4.9,0,0,0,2.188-.007c.41-.107.5-.211.427-.239s-.163.02-.114-.086.083-.165.008-.169c-.059,0-.157-.027-.126-.058s.306-.134.214-.2a.262.262,0,0,0-.223-.059c-.071.01-1.443.117-1.549.087s-.277-.117-.041-.314.973-.593,1-.755A.578.578,0,0,0,121,22.36c-.063-.09-.332-.409-.363-.474s.193-.209.3-.234,1.086-.153,1.228-.153.289.023.286-.1c-.011-.147-.128-.2-.049-.275.059-.076.27-.135.229-.263a.406.406,0,0,0-.409-.234c-.183.025-1.852.176-1.852.176l-2.222-.072a11.416,11.416,0,0,1,1.137-1.677c.069-.079-.011-.2-.045-.368a2.329,2.329,0,0,0-.083-.415c-.041-.071-.146-.341-.281-.241-.117.106-1.637,2.714-1.637,2.714s-1.287-.051-1.493-.1-.62-.224-.643-.027-.1.871.46.963a5.9,5.9,0,0,0,1.232.02,5.216,5.216,0,0,1-.638,1.1c-.32.35-.774,1.076-1.308,1.139-.13.017-.273,0-.273-.163a7.723,7.723,0,0,0,0-1.665c-.114-.265-.314-.822-.7-.848a1.551,1.551,0,0,0-1.132.585c-.038.049-.257-.59-.734-.59a.524.524,0,0,0-.43.15Zm-4.125.745-.092,1.8a.885.885,0,0,1-.223-.359,1.294,1.294,0,0,1,.314-1.442Zm-.134,2.563a1.114,1.114,0,0,1-.913-.138c-.409-.355-.314-.994-.271-1.331a6.241,6.241,0,0,1,1.089-2.232c.531-.625.26-.812.2-.941s-.226-.534-.381-.44a6.666,6.666,0,0,0-1.515,2.844s-.343-.588-.809-.536a1.139,1.139,0,0,0-.386.147l-.054,1.043a1,1,0,0,1,.723-.281.225.225,0,0,0,.015.165c.045.092.128.138.143.208s.058.261-.049.36h0c-.083.058-.5.569-.907.9l-.05,1.1a6.614,6.614,0,0,0,1.374-1.251s.244.994,1.03,1.1a2.686,2.686,0,0,0,.722.026l.028-.393c-.031,0-.068,0-.08-.027s.023-.049.083-.063Zm-2.988-2.627-.054,1.043a3.628,3.628,0,0,0-.914,1.286c-.214.543-.031.5.437.321a1.569,1.569,0,0,0,.4-.261l-.051,1.1a.794.794,0,0,1-.175.087c-.329.134-.971.168-1.154-.212a2.135,2.135,0,0,1-.131-.317l.058-1.248c.066-.15.143-.316.229-.484a3.872,3.872,0,0,1,1.354-1.314Zm-1.432-1.06.072-1.386a.914.914,0,0,1,.077.389,2.314,2.314,0,0,1-.149,1Zm.072-1.386-.072,1.386a1.6,1.6,0,0,1-.814.753,2.445,2.445,0,0,1-2.046.16,1.323,1.323,0,0,1-.234-1.419c.183-.175.217-.193.314.043s.14.576.574.563a2.39,2.39,0,0,0,1.584-.626c.208-.274.045-.514-.406-.464a6,6,0,0,0-1.258.458c-.157.051-.028-.138-.008-.167s.013-.083-.02-.094c-.049-.015.16-.221.223-.271s-.289.122-.318.126-.143-.027,0-.154c.16-.127.852-.42.858-.44s-.26-.08-.16-.1.861-.4,1.2-.248a.961.961,0,0,1,.581.5Zm-.223,4.244-.058,1.248a1.84,1.84,0,0,1,.058-1.244Zm-5.768,2.2a2.911,2.911,0,0,0,2.441-.622c.043.513.932.763,1.515.643s.783-.047.837-.15a.737.737,0,0,0,.08-.3c.018-.108.018-.409-.065-.4s-.585.04-.769.064-.84-.024-.994-.284a4.617,4.617,0,0,0,.955-1.852c.059-.433-.075-.356-.092-.409s-.053-.624-.322-.409a4.445,4.445,0,0,0-.958,1.3,2.74,2.74,0,0,0-.211.819,2.823,2.823,0,0,1-1.769.788c.339-.2.752-.578.775-.843a4.35,4.35,0,0,0,.036-1.151c-.094-.23-.28-.87-.734-.693a2.765,2.765,0,0,0-.557.286l-.059,1.1a2.437,2.437,0,0,1,.423-.32c.323-.187.34-.2.278.044a4.507,4.507,0,0,1-.744.978Zm.166-3.216-.058,1.1a8.562,8.562,0,0,0-.746.717c-.017.276.157.326.32.316h0a1.385,1.385,0,0,0,.383-.332l-.066,1.419c-.049-.012-.094-.018-.14-.032-1.078-.187-1.052-.9-1.052-.9s-1,.928-1.309,1.124a1.583,1.583,0,0,1-1.7-.031,1.553,1.553,0,0,1-.332-1.4c-.154-.02-.32-.086-.486-.63a1.281,1.281,0,0,1,.577-1.388,3.679,3.679,0,0,1,1.378-.566c.585-.047.563.468.606.575s-.123.175-.226.175a1.964,1.964,0,0,0-.837.208c-.649.34-.7.639-.752.783-.034.152.172.129.351.106s1-.567,1.177-.574.247.21.318.4a.394.394,0,0,1-.163.485c-.206.122-.79.287-1.007.4s-.191.289-.234.494.081.266.249.281a2.557,2.557,0,0,0,1.743-.907,16,16,0,0,1,2-1.831Zm-8.2,3.349.08-1.468a2.12,2.12,0,0,0,.2-.106,1.694,1.694,0,0,0,.823-1c.006-.143.031-.553-.449-.321a4.2,4.2,0,0,0-.52.357l.051-1.09a.158.158,0,0,0,.1-.043c.063-.075.085-.122.26-.093a1.472,1.472,0,0,1,1.18,1.169,1.777,1.777,0,0,1-1.486,1.945,2.791,2.791,0,0,0,1.637.444c.437-.032.647-.138.59.058s.042.226.083.345.062.138-.112.248a1.31,1.31,0,0,1-1.078.16,3.848,3.848,0,0,1-1.357-.6Zm.188-3.633-.051,1.09a12.248,12.248,0,0,0-.951.969c-.172.134-.032.2.148.234h0a1.033,1.033,0,0,0,.746-.129l-.08,1.468a9.66,9.66,0,0,1-1.228-.93c-.46.634-.786,1.642-.889,1.712s-.154.026-.209.067a.308.308,0,0,1-.083.031l.112-1.85a9.58,9.58,0,0,1,1.36-1.871,2.464,2.464,0,0,1,1.126-.791Zm-2.389.694L87,22.729a2.55,2.55,0,0,0,.254-1.852,1.353,1.353,0,0,0-.354-.7Zm.157-3-.157,3a2.218,2.218,0,0,1-1.767,1.349c-1.053.016-1.02-.44-1.066-.473s-1.34,2.57-1.5,2.851-.323.263-.557.163c-.1-.042-.072-.316-.1-.406s-.194-.13-.16-.33,1.766-3.414,1.841-3.472.169.117.226.031.058-.264.217-.188a1.944,1.944,0,0,1,.486.432,2.314,2.314,0,0,1-.234.526,1.712,1.712,0,0,0,1-.088,2.975,2.975,0,0,0,1.4-1.962c.175-.852-.072-1.082-.306-1.122-.374-.063-1.058.721-1.523,1.419-.351.554-.479.891-.579,1.039-.058.088-.32-.255-.391-.279s-.149-.07-.182,0-.106.09-.106.055a1.383,1.383,0,0,1,.011-.158,17.591,17.591,0,0,1,1.6-2.3c.572-.578.784-.694,1.2-.543a1.7,1.7,0,0,1,.638.462Zm-.254,4.971A7.543,7.543,0,0,0,86.1,26.21c-.1.259.1.267.188.386a1.244,1.244,0,0,1,.149.345c.029.07.058.07.094.058l.113-1.85ZM70.022,27.2l.042-.794a3.2,3.2,0,0,0,2.109-.838c.052-.369.729-1.441,1.17-1.521.326-.058.315.329.315.329s.251.188.214.374a4.675,4.675,0,0,1-.918,1.452c-.369.3.1.553.584.5a1.982,1.982,0,0,0,1.727-1.25c.128-.482-.08-.833-.341-.877a1.015,1.015,0,0,0-.562.037c-.126.068-.464.161-.249,0s.357-.185.226-.211-.252.043-.34.043-.306-.033-.226-.117a1.988,1.988,0,0,1,.464-.288c.163-.074.423-.176.314-.18s-.463.2-.34.083c.1-.11.233-.26.375-.268s.02-.1.245-.049.637-.01.835.576.386.6.383,1.262a2.014,2.014,0,0,1-1.462,1.952c-1.178.422-2.424.313-2.4-.811a3.958,3.958,0,0,1-2.158.593Zm.065-1.321a6.774,6.774,0,0,0,.873-1.262,5.387,5.387,0,0,0,.818-2.525c-.022-.3-.206-.035-.206-.213s-.019-.567-.325-.479a2.343,2.343,0,0,0-.952.742l-.075,1.349a5.42,5.42,0,0,1,.441-.64h0c.334-.351.447-.339.254.2a7.221,7.221,0,0,1-.74,1.391l-.085,1.439Zm7.088.256a3.133,3.133,0,0,0-.451.58,2.6,2.6,0,0,0-.28.93,1.891,1.891,0,0,0,.175.919c.166.216.435.339.454-.074a3.783,3.783,0,0,1,.841-1.727c.292-.256-.051-.244-.123-.283s-.234-.331-.34-.36-.1-.109-.276.012Zm-6.882-3.993-.075,1.349a6.253,6.253,0,0,0-.84,1.919,6.716,6.716,0,0,0,.795-.97l-.086,1.439c-.085.121-.2.259-.323.428a.407.407,0,0,0,.3.1l-.042.794c-.432-.019-.778-.129-.906-.369-.241.24-1.818,1.059-2.1.819a3.5,3.5,0,0,1-.973.369l.052-1.06a.681.681,0,0,1,.126-.017c.234-.05.781-1.175.819-1.511h0c.04-.333-.092-.443-.329-.2-.151.152-.357.374-.564.594l.082-1.422a1.064,1.064,0,0,1,.533-.3c.292-.028.621.346.889.828a2.965,2.965,0,0,1-.072,1.722,2.54,2.54,0,0,0,1.2-.726A2.544,2.544,0,0,1,68.96,24.1a8.784,8.784,0,0,1,1.329-1.966ZM66.226,24.4c.246-.3,1.228-1.539,1.412-1.681.217-.165,0-.366-.078-.428s-.153-.134-.062-.234c.075-.1-.074-.42-.293-.24a6.639,6.639,0,0,0-.9,1.062ZM60.5,26.941c.3-.1.11.058,0,.147Zm-.011.268a.96.96,0,0,0,.234.066c.035,0,.324-.1.252.029a1.527,1.527,0,0,1-.512.4l.026-.5ZM66.3,22.875c-.917,1.277-2.069,3.17-2.2,3.437a.93.93,0,0,0-.078.55,8.925,8.925,0,0,1-1.183.293c-.252.04-.789-.016-.849-.193-.014-.058.286-.305.337-.326a2.824,2.824,0,0,0,.286-.143,1.7,1.7,0,0,0,.624-.175c.251-.139.16-.293-.026-.468s-.365-.477-.628-.426a3.757,3.757,0,0,1-1.345.335c-.406-.024-.245-.132.137-.413a7.9,7.9,0,0,1,1.541-.791,1.886,1.886,0,0,1,.509,0c.114,0,.159-.07.128-.133a2.786,2.786,0,0,0-.343-.361c-.068-.082.112-.048.083-.1a.632.632,0,0,0-.557-.314,6.787,6.787,0,0,0-2.129,1.124l-.092,1.739a1.991,1.991,0,0,0,.868.123,1.093,1.093,0,0,0,.275,1.111,1.654,1.654,0,0,0,1.192.264,2.686,2.686,0,0,0,1.35-.548.235.235,0,0,0,.052-.087.5.5,0,0,0,.176.029.994.994,0,0,0,.361-.145c-.078.251-.063.4.42.667a1.251,1.251,0,0,0,.828.087l.052-1.061c-.268.039-.706.059-.848-.091,0,0,.452-.543.9-1.046l.081-1.422-.009.016.009-.016Zm-9.357,1.9c.034-.008.4.033.445.175s.18.186.234.234.146.13,0,.266a2.69,2.69,0,0,0-1.148,1.475c-.172.48,0,.59.175.536a2.259,2.259,0,0,0,1.261-.752,1.884,1.884,0,0,1,.442-1.1,3.5,3.5,0,0,1,.738-.871c.145-.042.254.135.351.312s.256.093.256.393a3.562,3.562,0,0,1-.874,1.658c.12.194,1.228.01,1.638-.157l.042-.007-.006.147-.058.043c-.023.026,0,.05.052.078l-.025.5a2.109,2.109,0,0,1-.5.2c-.5.139-1.643.2-1.838-.117a2.9,2.9,0,0,1-1.711.67.674.674,0,0,1-.4-.17l.138-2.587a2.375,2.375,0,0,1,.794-.922Zm3.667,0a3.081,3.081,0,0,0-.358.277c-.311.259-.088.308-.117.5s-.157.757.343.947l.04.014.092-1.739Zm-4.424.292a2.288,2.288,0,0,0,.229-.322,2.683,2.683,0,0,0,.175-1.83.857.857,0,0,0-.268-.358Zm-.176,3.217a1.161,1.161,0,0,1-.322-.606l.054-1.019a5.428,5.428,0,0,1,.406-.963Zm.309-5.728-.134,2.511c-.108.13-.24.27-.38.409l.091-1.707c.018-.068.038-.122.049-.183h0a.646.646,0,0,0-.015-.45l.049-.846c.1.08.231.171.34.264Zm-.631,5.122a1.924,1.924,0,0,1,.046-.956l.008-.063-.054,1.019Zm.293-5.389a2.3,2.3,0,0,1-.275-.2,1.67,1.67,0,0,0-1.843.445,8.169,8.169,0,0,0-1.81,2.6c-.234.654-1.059,2.838-1.141,3.027s.067.213.087.253a.329.329,0,0,1,.043.2.662.662,0,0,0,.111.483c.134.213.172.056.283.04s.331-.209.319-.267a1.062,1.062,0,0,1,.193-.7c.3-.48.8-1.515.8-1.515.255.15.176.417,1.02.193a6.253,6.253,0,0,0,2.041-1.376l.091-1.7a3.8,3.8,0,0,1-.806,1.185,4,4,0,0,1-1,.766,2.348,2.348,0,0,1-.8.182,5.616,5.616,0,0,0,.626-1.031,3.158,3.158,0,0,0-.461-.563,4.263,4.263,0,0,1,.95-1.179c.485-.342,1.023-.429,1.223-.283a.853.853,0,0,1,.3.292l.049-.846Zm-12.113,7.16.047-.86a3.313,3.313,0,0,0,2.32-.117c.394-.18.32.052.3.1s.115.17.206.18.234.113.157.213a3.657,3.657,0,0,1-2.583.657,4.746,4.746,0,0,1-.446-.176Zm.092-1.8.065-1.187c.066-.071.12-.138.175-.2a5.365,5.365,0,0,0,.87-1.6c.163-.55.234-.755.126-.91s-.258-.351-.5-.21a3.6,3.6,0,0,0-.538.471l.063-1.228a.253.253,0,0,1,.072-.029c.228-.059.048-.234.234-.209a2.969,2.969,0,0,1,.866.526,2.035,2.035,0,0,1,.317,1.862,5.583,5.583,0,0,1-1.754,2.71Zm.262-4.86-.063,1.228a4.8,4.8,0,0,0-.889,1.314,3.49,3.49,0,0,0-.312,2.022h0l-.008-.015a8.264,8.264,0,0,0,1.074-.874l-.065,1.188a4.359,4.359,0,0,1-.6.452,1.312,1.312,0,0,0,.559.489l-.047.86a3.351,3.351,0,0,1-1.14-.976,11.824,11.824,0,0,1-2.653,1.212c-1.111.21-1.106-.18-1.257-.459s-.077-.53-.155-.585a.22.22,0,0,1-.054-.245c.034-.052.186-.569.186-.569a4.678,4.678,0,0,1-1.6-.019c-.366-.186-.484-.255-.592-.667a1.656,1.656,0,0,1,.176-1.593,7.564,7.564,0,0,1,3.386-2.415c.5-.1.715-.258,1.007-.1a8.267,8.267,0,0,1,.794.667.387.387,0,0,1,.244.447,2.526,2.526,0,0,1-.644,1.133c-.234.2-.334.229-.439.117-.051-.058-.186-.2-.161-.3s.046-.292-.042-.336-.249-.159-.2-.2.091-.03.143-.054a1.762,1.762,0,0,0,.384-.479c.031-.1.054-.182-.332-.159a5,5,0,0,0-2.538,1.248c-.9.881-1.2,1.439-1.178,1.671s.494.175.828.181a3.467,3.467,0,0,0,1.638-.526c.314-.307.672-.538.694-.572s.169,0,.32.077.176.256.286.256.357.179.293.329a1.414,1.414,0,0,1-.446.536,3.458,3.458,0,0,0-.723.306,3.678,3.678,0,0,0-.672,1.14c-.068.357.286.259.475.214a11.277,11.277,0,0,0,2.449-1.069,4.811,4.811,0,0,1,.42-2.961,5.219,5.219,0,0,1,1.458-1.912Z" fill="#a5529b"/>
      <g id="Grupo_205" data-name="Grupo 205">
        <g id="Grupo_204" data-name="Grupo 204">
          <path id="Trazado_582" data-name="Trazado 582" d="M143.29,17.926v4.791h3.352a2.746,2.746,0,0,1,1.541.3,1.626,1.626,0,0,1,.67,1.373,1.554,1.554,0,0,1-.8,1.441,3,3,0,0,1-1.407.235h-7.205a2.365,2.365,0,0,1-1.508-.335,1.567,1.567,0,0,1-.7-1.341,1.6,1.6,0,0,1,.8-1.441,2.888,2.888,0,0,1,1.408-.235h.5V9.884h-.5a2.668,2.668,0,0,1-1.508-.3,1.652,1.652,0,0,1-.7-1.374,1.6,1.6,0,0,1,.8-1.441,2.888,2.888,0,0,1,1.408-.235H155.22v5.06a2.676,2.676,0,0,1-.3,1.509,1.7,1.7,0,0,1-2.82-.1,2.884,2.884,0,0,1-.235-1.409V9.884H143.29v4.725h2.848v-.235a2.671,2.671,0,0,1,.3-1.508,1.654,1.654,0,0,1,1.374-.7,1.528,1.528,0,0,1,1.407.8,3.006,3.006,0,0,1,.235,1.407v3.787a2.762,2.762,0,0,1-.3,1.541,1.624,1.624,0,0,1-1.341.7,1.512,1.512,0,0,1-1.475-.9,3.1,3.1,0,0,1-.2-1.34v-.235Z" fill="#68c8ed"/>
          <path id="Trazado_583" data-name="Trazado 583" d="M168.624,9.884V22.717h3.384a2.759,2.759,0,0,1,1.507.3,1.6,1.6,0,0,1,.7,1.373q0,1.676-2.211,1.676h-10.12a2.648,2.648,0,0,1-1.509-.335,1.571,1.571,0,0,1-.7-1.341,1.6,1.6,0,0,1,.8-1.441,2.891,2.891,0,0,1,1.408-.235h3.384V9.884h-3.384a2.675,2.675,0,0,1-1.509-.3,1.656,1.656,0,0,1-.7-1.374,1.6,1.6,0,0,1,.8-1.441,2.891,2.891,0,0,1,1.408-.235H172a2.77,2.77,0,0,1,1.507.3,1.6,1.6,0,0,1,.7,1.374,1.6,1.6,0,0,1-.8,1.441A2.879,2.879,0,0,1,172,9.884Z" fill="#68c8ed"/>
          <path id="Trazado_584" data-name="Trazado 584" d="M192.582,8.275v2.949a2.757,2.757,0,0,1-.3,1.542,1.627,1.627,0,0,1-1.34.7A1.566,1.566,0,0,1,189.734,13a3.247,3.247,0,0,1-.469-1.341,2.537,2.537,0,0,0-1.324-1.626,5.318,5.318,0,0,0-2.664-.62,4.726,4.726,0,0,0-2.681.737,2.145,2.145,0,0,0-1.106,1.81,1.954,1.954,0,0,0,1.24,1.843,15.025,15.025,0,0,0,3.352.871,12.365,12.365,0,0,1,5.226,1.844,5.083,5.083,0,0,1,1.977,4.189,5.056,5.056,0,0,1-2.11,4.221,8.937,8.937,0,0,1-5.563,1.609,11.064,11.064,0,0,1-5.228-1.306,1.829,1.829,0,0,1-1.339.8q-1.71,0-1.71-2.212V21.612a2.759,2.759,0,0,1,.3-1.542,1.763,1.763,0,0,1,2.581-.2,4.108,4.108,0,0,1,.5,1.14,2.735,2.735,0,0,0,1.626,1.541,7.04,7.04,0,0,0,3.032.637,6.2,6.2,0,0,0,3.151-.737,2.119,2.119,0,0,0,1.273-1.81,1.956,1.956,0,0,0-1.206-1.776,14.016,14.016,0,0,0-3.519-.9,13.825,13.825,0,0,1-4.323-1.308A5.013,5.013,0,0,1,178,12a5.247,5.247,0,0,1,2.078-4.239,8.955,8.955,0,0,1,9.551-.587q.435-1.105,1.307-1.106a1.542,1.542,0,0,1,1.407.771A3.129,3.129,0,0,1,192.582,8.275Z" fill="#68c8ed"/>
          <path id="Trazado_585" data-name="Trazado 585" d="M201.864,17.926v4.791h8.578V20.975a2.856,2.856,0,0,1,.3-1.541,1.6,1.6,0,0,1,1.374-.7,1.652,1.652,0,0,1,1.441.8,2.991,2.991,0,0,1,.235,1.441v5.094H198.01a2.364,2.364,0,0,1-1.507-.335,1.567,1.567,0,0,1-.7-1.341,1.656,1.656,0,0,1,.8-1.441,2.884,2.884,0,0,1,1.407-.235h.5V9.884h-.5a2.664,2.664,0,0,1-1.507-.3,1.652,1.652,0,0,1-.7-1.374,1.6,1.6,0,0,1,.8-1.441,2.884,2.884,0,0,1,1.407-.235h15.046v5.027a2.755,2.755,0,0,1-.3,1.542,1.656,1.656,0,0,1-1.373.7,1.506,1.506,0,0,1-1.575-1.072,4.641,4.641,0,0,1-.1-1.173V9.884h-7.841v4.725h2.848v-.235a2.757,2.757,0,0,1,.3-1.542,1.628,1.628,0,0,1,1.341-.7q1.675,0,1.676,1.877v4.156a2.667,2.667,0,0,1-.3,1.507,1.623,1.623,0,0,1-1.34.7,1.556,1.556,0,0,1-1.441-.8,3,3,0,0,1-.235-1.407V17.93Z" fill="#68c8ed"/>
        </g>
      </g>
      <g id="Grupo_207" data-name="Grupo 207">
        <g id="Grupo_206" data-name="Grupo 206">
          <path id="Trazado_586" data-name="Trazado 586" d="M135.869,31.517v.826h.356a.2.2,0,0,1,.164.052.361.361,0,0,1,.072.236.324.324,0,0,1-.086.248.21.21,0,0,1-.15.041h-.765a.184.184,0,0,1-.161-.058.4.4,0,0,1,.012-.479.2.2,0,0,1,.149-.04h.054V30.132h-.054a.2.2,0,0,1-.161-.052.36.36,0,0,1-.074-.236.337.337,0,0,1,.086-.248.2.2,0,0,1,.149-.041h1.678v.872a.7.7,0,0,1-.033.259c-.038.081-.087.121-.146.121s-.115-.046-.153-.138a.789.789,0,0,1-.025-.242v-.3h-.912v.814h.3V30.9a.692.692,0,0,1,.032-.26c.038-.081.086-.121.147-.121s.115.046.149.139a.83.83,0,0,1,.024.242v.652a.751.751,0,0,1-.031.266c-.038.08-.086.121-.142.121-.075,0-.127-.053-.157-.156a.8.8,0,0,1-.022-.231v-.041Z" fill="#231f20"/>
          <path id="Trazado_587" data-name="Trazado 587" d="M138.209,30.323a.764.764,0,0,1,.642.392,1.841,1.841,0,0,1,0,1.908.741.741,0,0,1-1.3,0,1.847,1.847,0,0,1,0-1.913.784.784,0,0,1,.658-.387Zm0,.577a.488.488,0,0,0-.4.219.889.889,0,0,0-.165.549.9.9,0,0,0,.162.544.471.471,0,0,0,.8,0,.993.993,0,0,0,0-1.09.473.473,0,0,0-.4-.222Z" fill="#231f20"/>
          <path id="Trazado_588" data-name="Trazado 588" d="M139.957,30.4v.277c.152-.235.314-.352.488-.352a.532.532,0,0,1,.423.214,1.156,1.156,0,0,1,.211.755v1.051c.145,0,.217.1.217.288a.333.333,0,0,1-.086.248.2.2,0,0,1-.149.041h-.317c-.159,0-.239-.1-.239-.289s.074-.288.218-.288v-1.03q0-.416-.321-.415-.22,0-.445.392v1.051h.021a.2.2,0,0,1,.161.052.36.36,0,0,1,.074.236.349.349,0,0,1-.085.248.2.2,0,0,1-.15.041h-.4a.2.2,0,0,1-.163-.058.35.35,0,0,1-.071-.231.327.327,0,0,1,.085-.248.216.216,0,0,1,.149-.04h.022V30.974c-.145-.007-.218-.1-.218-.288,0-.161.056-.254.165-.277a.411.411,0,0,1,.074-.011Z" fill="#231f20"/>
          <path id="Trazado_589" data-name="Trazado 589" d="M143.283,29.318v3.025h.057a.207.207,0,0,1,.165.052.361.361,0,0,1,.07.236.336.336,0,0,1-.085.248.2.2,0,0,1-.15.041h-.413v-.2a.728.728,0,0,1-.538.282.72.72,0,0,1-.63-.374,2,2,0,0,1,0-1.934.725.725,0,0,1,.634-.375.661.661,0,0,1,.534.288V29.89h-.057a.2.2,0,0,1-.16-.052.367.367,0,0,1-.075-.237.331.331,0,0,1,.086-.242.209.209,0,0,1,.149-.041Zm-.887,1.576a.437.437,0,0,0-.389.228,1.093,1.093,0,0,0,0,1.076.447.447,0,0,0,.777,0,.97.97,0,0,0,.142-.53,1.006,1.006,0,0,0-.142-.549.439.439,0,0,0-.384-.225Z" fill="#231f20"/>
          <path id="Trazado_590" data-name="Trazado 590" d="M144.634,30.323a.764.764,0,0,1,.642.392,1.847,1.847,0,0,1,0,1.908.741.741,0,0,1-1.3,0,1.847,1.847,0,0,1,0-1.913A.783.783,0,0,1,144.634,30.323Zm0,.577a.49.49,0,0,0-.406.219,1,1,0,0,0,0,1.093.471.471,0,0,0,.8,0,.993.993,0,0,0,0-1.09.476.476,0,0,0-.4-.222Z" fill="#231f20"/>
          <path id="Trazado_591" data-name="Trazado 591" d="M149.718,29.318v3.025h.057a.207.207,0,0,1,.165.052.361.361,0,0,1,.071.236.333.333,0,0,1-.086.248.2.2,0,0,1-.15.041h-.412v-.2a.731.731,0,0,1-.538.282.722.722,0,0,1-.631-.374,2,2,0,0,1,0-1.934.725.725,0,0,1,.634-.375.664.664,0,0,1,.535.288V29.89h-.057a.2.2,0,0,1-.16-.052.362.362,0,0,1-.076-.237.331.331,0,0,1,.086-.242.213.213,0,0,1,.15-.041Zm-.886,1.576a.437.437,0,0,0-.39.228,1.1,1.1,0,0,0,0,1.076.447.447,0,0,0,.777,0,.97.97,0,0,0,.143-.53,1.006,1.006,0,0,0-.143-.549.439.439,0,0,0-.387-.225Z" fill="#231f20"/>
          <path id="Trazado_592" data-name="Trazado 592" d="M151.965,31.927h-1.454a.569.569,0,0,0,.585.508,1.672,1.672,0,0,0,.58-.162.316.316,0,0,1,.118-.029.145.145,0,0,1,.121.084.4.4,0,0,1,.05.2.3.3,0,0,1-.123.257,1.147,1.147,0,0,1-.357.156,1.555,1.555,0,0,1-.422.066.8.8,0,0,1-.676-.375,1.636,1.636,0,0,1-.264-.964,1.675,1.675,0,0,1,.265-.961.749.749,0,0,1,1.315,0,1.748,1.748,0,0,1,.262.987Zm-1.443-.507h1.048a.7.7,0,0,0-.186-.379.475.475,0,0,0-.678,0A.68.68,0,0,0,150.522,31.42Z" fill="#231f20"/>
          <path id="Trazado_593" data-name="Trazado 593" d="M155.525,30.132v2.211h.36a.208.208,0,0,1,.161.052.346.346,0,0,1,.074.236c0,.193-.078.289-.235.289H154.81a.2.2,0,0,1-.161-.058.4.4,0,0,1,.012-.479.2.2,0,0,1,.149-.04h.359V30.132h-.359a.2.2,0,0,1-.161-.052.36.36,0,0,1-.074-.236.337.337,0,0,1,.086-.248.2.2,0,0,1,.149-.041h1.075a.208.208,0,0,1,.161.052.351.351,0,0,1,.074.237.334.334,0,0,1-.086.248.2.2,0,0,1-.149.04Z" fill="#231f20"/>
          <path id="Trazado_594" data-name="Trazado 594" d="M157.11,30.4v.277c.152-.235.314-.352.488-.352a.532.532,0,0,1,.423.214,1.156,1.156,0,0,1,.211.755v1.051c.145,0,.217.1.217.288a.333.333,0,0,1-.086.248.2.2,0,0,1-.149.041H157.9c-.159,0-.239-.1-.239-.289s.073-.288.218-.288v-1.03q0-.416-.321-.415-.22,0-.445.392v1.051h.021a.2.2,0,0,1,.161.052.36.36,0,0,1,.074.236.349.349,0,0,1-.085.248.2.2,0,0,1-.15.041h-.4a.2.2,0,0,1-.163-.058.35.35,0,0,1-.071-.231.327.327,0,0,1,.085-.248.216.216,0,0,1,.149-.04h.022V30.974c-.145-.007-.218-.1-.218-.288,0-.161.056-.254.165-.277a.411.411,0,0,1,.074-.011Z" fill="#231f20"/>
          <path id="Trazado_595" data-name="Trazado 595" d="M159.586,32.215l.381-1.241h-.035a.2.2,0,0,1-.161-.051.361.361,0,0,1-.074-.237.327.327,0,0,1,.085-.248.216.216,0,0,1,.15-.04h.48a.227.227,0,0,1,.164.051.391.391,0,0,1,.071.237.333.333,0,0,1-.086.248.2.2,0,0,1-.149.04h-.057l-.6,1.946h-.37l-.594-1.946h-.05a.2.2,0,0,1-.16-.051.362.362,0,0,1-.075-.237.331.331,0,0,1,.085-.248.216.216,0,0,1,.15-.04h.469a.214.214,0,0,1,.165.051.364.364,0,0,1,.071.237.337.337,0,0,1-.086.248.207.207,0,0,1-.15.04h-.01Z" fill="#231f20"/>
          <path id="Trazado_596" data-name="Trazado 596" d="M162.6,31.927h-1.454a.568.568,0,0,0,.584.508,1.676,1.676,0,0,0,.581-.162.311.311,0,0,1,.117-.029.146.146,0,0,1,.122.084.406.406,0,0,1,.05.205.3.3,0,0,1-.123.257,1.158,1.158,0,0,1-.357.156,1.561,1.561,0,0,1-.422.066.8.8,0,0,1-.676-.375,1.636,1.636,0,0,1-.264-.964,1.675,1.675,0,0,1,.265-.961.749.749,0,0,1,1.315,0,1.748,1.748,0,0,1,.262.987Zm-1.443-.507h1.048a.7.7,0,0,0-.186-.379.475.475,0,0,0-.678,0,.68.68,0,0,0-.181.379Z" fill="#231f20"/>
          <path id="Trazado_597" data-name="Trazado 597" d="M163.734,30.4v.374a2.46,2.46,0,0,1,.34-.351.418.418,0,0,1,.255-.093.546.546,0,0,1,.449.491.386.386,0,0,1-.054.208.151.151,0,0,1-.124.086c-.04,0-.087-.034-.139-.1s-.1-.1-.139-.1q-.15,0-.588.588v.849h.5a.2.2,0,0,1,.164.052.361.361,0,0,1,.075.236.324.324,0,0,1-.086.248.216.216,0,0,1-.153.041h-1.057a.2.2,0,0,1-.165-.058.356.356,0,0,1-.07-.231.334.334,0,0,1,.086-.248.2.2,0,0,1,.149-.04h.206V30.974h-.125a.182.182,0,0,1-.16-.057.338.338,0,0,1-.074-.231.318.318,0,0,1,.085-.242.184.184,0,0,1,.149-.046Z" fill="#231f20"/>
          <path id="Trazado_598" data-name="Trazado 598" d="M166.258,31.119l-.017-.052a.468.468,0,0,0-.367-.167.5.5,0,0,0-.244.06c-.072.041-.108.088-.108.142a.162.162,0,0,0,.092.138,1.17,1.17,0,0,0,.3.087,1.179,1.179,0,0,1,.517.219.835.835,0,0,1,.249.652.8.8,0,0,1-.225.584.76.76,0,0,1-.569.23.843.843,0,0,1-.528-.167.144.144,0,0,1-.113.069c-.072,0-.124-.046-.157-.139a.791.791,0,0,1-.025-.242v-.19a.66.66,0,0,1,.036-.266c.038-.081.087-.121.146-.121.09,0,.15.085.182.254a.509.509,0,0,0,.445.225.55.55,0,0,0,.293-.075.208.208,0,0,0,.123-.173.23.23,0,0,0-.12-.2,1.007,1.007,0,0,0-.329-.1.913.913,0,0,1-.541-.247.76.76,0,0,1-.167-.526.8.8,0,0,1,.207-.568.686.686,0,0,1,.526-.222.738.738,0,0,1,.46.15q.039-.15.114-.15c.111,0,.167.126.167.381v.213a.738.738,0,0,1-.032.266c-.036.077-.084.115-.146.115S166.3,31.238,166.258,31.119Z" fill="#231f20"/>
          <path id="Trazado_599" data-name="Trazado 599" d="M168.185,30.4v1.945h.435a.2.2,0,0,1,.16.052.366.366,0,0,1,.075.236.337.337,0,0,1-.086.248.2.2,0,0,1-.149.041h-1.226a.181.181,0,0,1-.16-.058.4.4,0,0,1,.011-.479.208.208,0,0,1,.149-.04h.435V30.974h-.278a.187.187,0,0,1-.164-.057.4.4,0,0,1,.011-.479.215.215,0,0,1,.153-.04Zm-.05-1.074v.606h-.42v-.606Z" fill="#231f20"/>
          <path id="Trazado_600" data-name="Trazado 600" d="M170.155,30.323a.764.764,0,0,1,.642.392,1.847,1.847,0,0,1,0,1.908.742.742,0,0,1-1.3,0,1.853,1.853,0,0,1,0-1.913.785.785,0,0,1,.663-.387Zm0,.577a.49.49,0,0,0-.406.219,1,1,0,0,0,0,1.093.471.471,0,0,0,.8,0,1,1,0,0,0,0-1.09.476.476,0,0,0-.4-.222Zm.562-1.582-.473.647q-.067.093-.114.093a.113.113,0,0,1-.093-.064.268.268,0,0,1-.038-.145.356.356,0,0,1,.081-.213l.47-.636c.045-.061.082-.092.113-.092.089,0,.133.072.133.214a.343.343,0,0,1-.083.2Z" fill="#231f20"/>
          <path id="Trazado_601" data-name="Trazado 601" d="M171.906,30.4v.277c.152-.235.314-.352.488-.352a.532.532,0,0,1,.423.214,1.156,1.156,0,0,1,.211.755v1.051c.145,0,.217.1.217.288a.333.333,0,0,1-.086.248.2.2,0,0,1-.149.041h-.317c-.158,0-.238-.1-.238-.289s.073-.288.218-.288v-1.03c0-.277-.108-.415-.322-.415q-.221,0-.445.392v1.051h.021a.2.2,0,0,1,.161.052.36.36,0,0,1,.074.236.345.345,0,0,1-.085.248.2.2,0,0,1-.15.041h-.4a.2.2,0,0,1-.163-.058.35.35,0,0,1-.071-.231.327.327,0,0,1,.085-.248.218.218,0,0,1,.149-.04h.022V30.974c-.145-.007-.218-.1-.218-.288,0-.161.056-.254.165-.277a.424.424,0,0,1,.074-.011Z" fill="#231f20"/>
          <path id="Trazado_602" data-name="Trazado 602" d="M177.326,29.856v.507a.744.744,0,0,1-.031.266c-.039.081-.086.121-.143.121a.145.145,0,0,1-.129-.081.815.815,0,0,1-.049-.231.463.463,0,0,0-.141-.28.4.4,0,0,0-.283-.107.373.373,0,0,0-.285.128.437.437,0,0,0-.118.311.376.376,0,0,0,.132.317,1.172,1.172,0,0,0,.356.151,1.054,1.054,0,0,1,.555.317,1.141,1.141,0,0,1,.21.725,1.118,1.118,0,0,1-.225.727.721.721,0,0,1-.591.277.844.844,0,0,1-.555-.225c-.048.093-.1.139-.143.139-.12,0-.182-.127-.182-.381v-.381a.739.739,0,0,1,.033-.266c.036-.077.084-.115.146-.115a.147.147,0,0,1,.128.081.967.967,0,0,1,.054.2.419.419,0,0,0,.173.266.517.517,0,0,0,.322.11.473.473,0,0,0,.335-.128.413.413,0,0,0,.134-.311.384.384,0,0,0-.127-.306,1.081,1.081,0,0,0-.375-.156,1.1,1.1,0,0,1-.459-.225,1.034,1.034,0,0,1-.292-.8,1.173,1.173,0,0,1,.22-.73.672.672,0,0,1,.553-.292.621.621,0,0,1,.463.191c.03-.127.076-.191.139-.191s.116.045.15.133a.869.869,0,0,1,.025.239Z" fill="#231f20"/>
          <path id="Trazado_603" data-name="Trazado 603" d="M178.641,30.323a.764.764,0,0,1,.642.392,1.847,1.847,0,0,1,0,1.908.741.741,0,0,1-1.3,0,1.847,1.847,0,0,1,0-1.913.783.783,0,0,1,.658-.387Zm0,.577a.49.49,0,0,0-.406.219,1,1,0,0,0,0,1.093.471.471,0,0,0,.8,0,1,1,0,0,0,0-1.09.476.476,0,0,0-.4-.222Z" fill="#231f20"/>
          <path id="Trazado_604" data-name="Trazado 604" d="M181.621,30.7v.444a.686.686,0,0,1-.032.259c-.039.081-.087.122-.146.122a.146.146,0,0,1-.128-.081.444.444,0,0,1-.053-.19.389.389,0,0,0-.083-.214.5.5,0,0,0-.377-.144.457.457,0,0,0-.41.243,1.11,1.11,0,0,0-.146.582q0,.71.627.71a.8.8,0,0,0,.374-.075.642.642,0,0,0,.178-.179.136.136,0,0,1,.107-.069.153.153,0,0,1,.125.086.394.394,0,0,1,.053.208.536.536,0,0,1-.228.422.981.981,0,0,1-.634.184.819.819,0,0,1-.741-.4,1.641,1.641,0,0,1-.217-.888,1.825,1.825,0,0,1,.255-1.01.759.759,0,0,1,.657-.392.775.775,0,0,1,.513.173c.021-.115.066-.173.135-.173C181.564,30.323,181.621,30.449,181.621,30.7Z" fill="#231f20"/>
          <path id="Trazado_605" data-name="Trazado 605" d="M183.081,30.4v1.945h.434a.2.2,0,0,1,.16.052.361.361,0,0,1,.076.236.337.337,0,0,1-.086.248.206.206,0,0,1-.15.041H182.29a.181.181,0,0,1-.16-.058.4.4,0,0,1,.011-.479.208.208,0,0,1,.149-.04h.435V30.974h-.278a.187.187,0,0,1-.164-.057.4.4,0,0,1,.011-.479.215.215,0,0,1,.153-.04Zm-.05-1.074v.606h-.42v-.606Z" fill="#231f20"/>
          <path id="Trazado_606" data-name="Trazado 606" d="M185.3,32.92v-.133a.9.9,0,0,1-.592.225.568.568,0,0,1-.452-.228.836.836,0,0,1-.189-.551,1.111,1.111,0,0,1,.139-.537.78.78,0,0,1,.723-.438,1.447,1.447,0,0,1,.371.057v-.132c0-.189-.11-.283-.332-.283a1.105,1.105,0,0,0-.413.1.393.393,0,0,1-.142.035.147.147,0,0,1-.125-.084.408.408,0,0,1-.05-.21.258.258,0,0,1,.108-.243,1.221,1.221,0,0,1,.612-.173.633.633,0,0,1,.514.225.961.961,0,0,1,.187.629v1.166h.057a.2.2,0,0,1,.164.052.356.356,0,0,1,.071.236.333.333,0,0,1-.086.248.2.2,0,0,1-.149.041Zm0-.779v-.289a1.447,1.447,0,0,0-.4-.063.464.464,0,0,0-.322.127.385.385,0,0,0-.141.294.2.2,0,0,0,.078.161.3.3,0,0,0,.192.064.847.847,0,0,0,.588-.294Z" fill="#231f20"/>
          <path id="Trazado_607" data-name="Trazado 607" d="M187.3,29.318v3.025h.434a.2.2,0,0,1,.16.052.361.361,0,0,1,.076.236.337.337,0,0,1-.086.248.207.207,0,0,1-.15.041H186.51a.18.18,0,0,1-.16-.058.4.4,0,0,1,.01-.479.212.212,0,0,1,.15-.04h.435V29.9h-.279a.189.189,0,0,1-.163-.058.327.327,0,0,1-.074-.231.343.343,0,0,1,.084-.248.222.222,0,0,1,.153-.041Z" fill="#231f20"/>
          <path id="Trazado_608" data-name="Trazado 608" d="M192.218,29.318v3.025h.057a.207.207,0,0,1,.165.052.361.361,0,0,1,.07.236.332.332,0,0,1-.085.248.2.2,0,0,1-.15.041h-.413v-.2a.688.688,0,0,1-1.168-.092,2,2,0,0,1,0-1.934.725.725,0,0,1,.634-.375.661.661,0,0,1,.534.288V29.89h-.056a.2.2,0,0,1-.16-.052.362.362,0,0,1-.076-.237.331.331,0,0,1,.086-.242.212.212,0,0,1,.15-.041Zm-.887,1.576a.437.437,0,0,0-.389.228,1.1,1.1,0,0,0,0,1.076.447.447,0,0,0,.777,0,.97.97,0,0,0,.142-.53,1.006,1.006,0,0,0-.142-.549.439.439,0,0,0-.388-.225Z" fill="#231f20"/>
          <path id="Trazado_609" data-name="Trazado 609" d="M194.466,31.927h-1.454a.569.569,0,0,0,.585.508,1.681,1.681,0,0,0,.581-.162.307.307,0,0,1,.117-.029.145.145,0,0,1,.121.084.4.4,0,0,1,.05.205.3.3,0,0,1-.123.257,1.147,1.147,0,0,1-.357.156,1.555,1.555,0,0,1-.422.066.8.8,0,0,1-.676-.375,1.636,1.636,0,0,1-.264-.964,1.668,1.668,0,0,1,.266-.961.748.748,0,0,1,1.314,0,1.748,1.748,0,0,1,.262.987Zm-1.443-.507h1.048a.7.7,0,0,0-.186-.379.474.474,0,0,0-.678,0,.687.687,0,0,0-.184.379Z" fill="#231f20"/>
          <path id="Trazado_610" data-name="Trazado 610" d="M197.471,31.517v.826h.911v-.3a.76.76,0,0,1,.033-.265c.036-.081.084-.122.146-.122s.115.047.153.139a.823.823,0,0,1,.025.248v.878h-1.677a.182.182,0,0,1-.161-.058.341.341,0,0,1-.074-.231.354.354,0,0,1,.085-.248.209.209,0,0,1,.15-.04h.053V30.132h-.053a.2.2,0,0,1-.161-.052.36.36,0,0,1-.074-.236.34.34,0,0,1,.085-.248.2.2,0,0,1,.15-.041h1.6v.866a.7.7,0,0,1-.033.265c-.037.081-.086.121-.146.121-.085,0-.14-.061-.167-.184a1.322,1.322,0,0,1-.01-.2v-.289h-.834v.814h.3v-.04a.715.715,0,0,1,.032-.266c.037-.081.085-.121.143-.121.118,0,.177.108.177.323v.716a.713.713,0,0,1-.031.259c-.038.082-.086.122-.143.122a.181.181,0,0,1-.153-.139.792.792,0,0,1-.025-.242v-.041Z" fill="#231f20"/>
          <path id="Trazado_611" data-name="Trazado 611" d="M199.419,30.4v.139c.109-.143.21-.214.3-.214q.2,0,.364.282.16-.282.37-.282a.386.386,0,0,1,.333.217,1.007,1.007,0,0,1,.134.539v1.264c.142,0,.214.1.214.288s-.079.289-.236.289h-.335v-1.8c0-.151-.041-.225-.124-.225s-.171.087-.271.259v1.184c.143,0,.214.1.214.288a.354.354,0,0,1-.085.248.207.207,0,0,1-.15.041h-.335v-1.8c0-.151-.042-.225-.124-.225s-.176.087-.271.259v1.184c.145,0,.218.1.218.288a.35.35,0,0,1-.086.248.207.207,0,0,1-.15.041h-.314a.2.2,0,0,1-.163-.058.341.341,0,0,1-.074-.231c0-.192.07-.288.213-.288V30.974c-.143-.007-.213-.1-.213-.288,0-.161.054-.254.163-.277a.437.437,0,0,1,.074-.011Z" fill="#231f20"/>
          <path id="Trazado_612" data-name="Trazado 612" d="M203.094,31.927H201.64a.568.568,0,0,0,.584.508,1.676,1.676,0,0,0,.581-.162.311.311,0,0,1,.117-.029.146.146,0,0,1,.122.084.407.407,0,0,1,.05.205.3.3,0,0,1-.123.257,1.158,1.158,0,0,1-.357.156,1.567,1.567,0,0,1-.422.066.8.8,0,0,1-.676-.375,1.636,1.636,0,0,1-.264-.964,1.675,1.675,0,0,1,.265-.961.749.749,0,0,1,1.315,0,1.748,1.748,0,0,1,.262.987Zm-1.444-.507h1.05a.7.7,0,0,0-.185-.379.474.474,0,0,0-.678,0,.688.688,0,0,0-.187.379Z" fill="#231f20"/>
          <path id="Trazado_613" data-name="Trazado 613" d="M204.226,30.4v.374a2.461,2.461,0,0,1,.34-.351.418.418,0,0,1,.255-.093.546.546,0,0,1,.449.491.386.386,0,0,1-.054.208.151.151,0,0,1-.124.086c-.04,0-.087-.034-.139-.1s-.1-.1-.139-.1c-.1,0-.295.2-.588.588v.849h.495a.2.2,0,0,1,.164.052.361.361,0,0,1,.075.236.324.324,0,0,1-.086.248.216.216,0,0,1-.153.041h-1.057a.2.2,0,0,1-.165-.058.356.356,0,0,1-.07-.231.334.334,0,0,1,.086-.248.2.2,0,0,1,.149-.04h.206V30.974h-.125a.182.182,0,0,1-.16-.057.338.338,0,0,1-.074-.231.318.318,0,0,1,.085-.242.184.184,0,0,1,.149-.046Z" fill="#231f20"/>
          <path id="Trazado_614" data-name="Trazado 614" d="M206.823,30.6v-.2h.413a.208.208,0,0,1,.163.051.364.364,0,0,1,.072.237.337.337,0,0,1-.086.248.208.208,0,0,1-.149.04h-.057v2.061a1.391,1.391,0,0,1-.2.762.564.564,0,0,1-.485.306h-.4a.182.182,0,0,1-.16-.058.4.4,0,0,1,.01-.479.209.209,0,0,1,.15-.04h.388a.284.284,0,0,0,.244-.133.628.628,0,0,0,.091-.358V32.72a.659.659,0,0,1-.5.282.7.7,0,0,1-.6-.384,2.023,2.023,0,0,1,0-1.915.7.7,0,0,1,.6-.384.612.612,0,0,1,.506.281Zm-.495.289a.416.416,0,0,0-.348.222.972.972,0,0,0-.143.539.984.984,0,0,0,.143.543.383.383,0,0,0,.7,0,.944.944,0,0,0,.146-.533.99.99,0,0,0-.145-.549.414.414,0,0,0-.353-.217Z" fill="#231f20"/>
          <path id="Trazado_615" data-name="Trazado 615" d="M209.462,31.927h-1.454a.568.568,0,0,0,.584.508,1.676,1.676,0,0,0,.581-.162.311.311,0,0,1,.117-.029.146.146,0,0,1,.122.084.407.407,0,0,1,.05.205.3.3,0,0,1-.123.257,1.158,1.158,0,0,1-.357.156,1.567,1.567,0,0,1-.422.066.8.8,0,0,1-.676-.375,1.636,1.636,0,0,1-.264-.964,1.675,1.675,0,0,1,.265-.961.749.749,0,0,1,1.315,0,1.748,1.748,0,0,1,.262.987Zm-1.444-.507h1.048a.7.7,0,0,0-.185-.379.474.474,0,0,0-.678,0,.688.688,0,0,0-.185.379Z" fill="#231f20"/>
          <path id="Trazado_616" data-name="Trazado 616" d="M210.351,30.4v.277c.152-.235.314-.352.488-.352a.533.533,0,0,1,.423.214,1.162,1.162,0,0,1,.211.755v1.051c.145,0,.217.1.217.288a.333.333,0,0,1-.086.248.2.2,0,0,1-.149.041h-.317c-.159,0-.239-.1-.239-.289s.073-.288.218-.288v-1.03c0-.277-.108-.415-.321-.415-.147,0-.3.131-.445.392v1.051h.021a.2.2,0,0,1,.161.052.36.36,0,0,1,.074.236.345.345,0,0,1-.086.248.2.2,0,0,1-.149.041h-.4a.2.2,0,0,1-.163-.058.35.35,0,0,1-.071-.231.331.331,0,0,1,.084-.248.219.219,0,0,1,.15-.04h.022V30.974c-.145-.007-.218-.1-.218-.288,0-.161.056-.254.165-.277a.411.411,0,0,1,.074-.011Z" fill="#231f20"/>
          <path id="Trazado_617" data-name="Trazado 617" d="M213.67,30.7v.444a.686.686,0,0,1-.032.259c-.039.081-.087.122-.147.122a.145.145,0,0,1-.127-.081.443.443,0,0,1-.053-.19.389.389,0,0,0-.083-.214.5.5,0,0,0-.378-.144.456.456,0,0,0-.409.243,1.11,1.11,0,0,0-.146.582q0,.71.627.71a.8.8,0,0,0,.374-.075.656.656,0,0,0,.178-.179.134.134,0,0,1,.107-.069.153.153,0,0,1,.125.086.394.394,0,0,1,.053.208.536.536,0,0,1-.228.422.981.981,0,0,1-.634.184.819.819,0,0,1-.741-.4,1.641,1.641,0,0,1-.217-.888,1.825,1.825,0,0,1,.255-1.01.758.758,0,0,1,.656-.392.777.777,0,0,1,.514.173c.021-.115.066-.173.134-.173C213.613,30.323,213.67,30.449,213.67,30.7Z" fill="#231f20"/>
          <path id="Trazado_618" data-name="Trazado 618" d="M215.13,30.4v1.945h.434a.2.2,0,0,1,.16.052.361.361,0,0,1,.076.236.337.337,0,0,1-.086.248.207.207,0,0,1-.15.041h-1.225a.18.18,0,0,1-.16-.058.4.4,0,0,1,.01-.479.212.212,0,0,1,.15-.04h.435V30.974h-.279a.186.186,0,0,1-.163-.057.338.338,0,0,1-.074-.231.343.343,0,0,1,.084-.248.218.218,0,0,1,.153-.04Zm-.05-1.074v.606h-.42v-.606Z" fill="#231f20"/>
          <path id="Trazado_619" data-name="Trazado 619" d="M217.348,32.92v-.133a.9.9,0,0,1-.591.225.568.568,0,0,1-.452-.228.836.836,0,0,1-.189-.551,1.111,1.111,0,0,1,.139-.537.779.779,0,0,1,.722-.438,1.434,1.434,0,0,1,.371.057v-.132q0-.284-.331-.283a1.105,1.105,0,0,0-.413.1.4.4,0,0,1-.142.035.149.149,0,0,1-.126-.084.418.418,0,0,1-.049-.21.258.258,0,0,1,.107-.243,1.226,1.226,0,0,1,.612-.173.635.635,0,0,1,.515.225.961.961,0,0,1,.187.629v1.166h.057a.2.2,0,0,1,.164.052.356.356,0,0,1,.071.236.333.333,0,0,1-.086.248.2.2,0,0,1-.149.041Zm0-.779v-.289a1.453,1.453,0,0,0-.4-.063.468.468,0,0,0-.323.127.384.384,0,0,0-.14.294.2.2,0,0,0,.078.161.3.3,0,0,0,.192.064.847.847,0,0,0,.6-.294Z" fill="#231f20"/>
        </g>
      </g>
    </g>
  </g>
</svg>
