<svg xmlns="http://www.w3.org/2000/svg" width="379.386" height="71" viewBox="0 0 379.386 71">
  <g id="Grupo_198" data-name="Grupo 198" transform="translate(-206 -37)">
    <g id="Grupo_4" data-name="Grupo 4" transform="translate(166.446 24.336)">
      <g id="Grupo_3" data-name="Grupo 3">
        <path id="Trazado_2" data-name="Trazado 2" d="M67.534,51.095H55.209V20.315h43.51V55.044h3.26V35.89H114.3V66.446H86.524V31.9H67.534Z" fill="#184376"/>
        <path id="Trazado_3" data-name="Trazado 3" d="M83.04,66.464H39.554V20.331H51.877V55.079h18.85V35.908H83.04Z" fill="#184376"/>
        <rect id="Rectángulo_5" data-name="Rectángulo 5" width="12.175" height="11.357" transform="translate(102.099 20.34)" fill="#184376"/>
      </g>
      <text id="Universidad_Nacional_de_Ingeniería" data-name="Universidad
Nacional de 
Ingeniería" transform="translate(123.58 33.664)" fill="#1c1c1b" font-size="17.664" font-family="Montserrat-ExtraBold, Montserrat" font-weight="800"><tspan x="0" y="0">Universidad</tspan><tspan x="0" y="21.197">Nacional de </tspan><tspan x="0" y="42.394">Ingeniería</tspan></text>
    </g>
    <g id="Grupo_7" data-name="Grupo 7" transform="translate(34.209 24.39)">
      <g id="Grupo_6" data-name="Grupo 6" transform="translate(400 36.302)">
        <g id="Grupo_5" data-name="Grupo 5">
          <path id="Trazado_4" data-name="Trazado 4" d="M443.4,36.465c2.744,0,5.4-.021,8.064.032.266.005.663.427.756.709,1.124,3.379,2.253,6.757,3.274,10.158.679,2.265,1.186,4.563,1.913,6.879.174-.812.282-1.638.534-2.433,1.191-3.773,2.418-7.537,3.641-11.3.363-1.118.791-2.224,1.126-3.347.147-.5.38-.711,1.053-.7,2.549.032,5.1.013,7.863.013-.5,1.348-.882,2.473-1.321,3.583-2.758,6.981-5.537,13.958-8.279,20.943-.25.637-.568.907-1.458.88-2.249-.07-4.506-.07-6.756-.014-.848.021-1.18-.222-1.406-.842q-2.944-8.1-5.943-16.193c-.945-2.562-1.909-5.121-2.86-7.683C443.528,36.949,443.483,36.745,443.4,36.465Z" transform="translate(-403.67 -36.458)" fill="#1e3f76"/>
          <path id="Trazado_5" data-name="Trazado 5" d="M408.121,52.225V61.8h-8.052a2.581,2.581,0,0,1-.066-.4c0-4.976,0-9.953,0-15.019.354-.02.674-.053.993-.054,2.854,0,5.71.037,8.563-.016,1.283-.024,2.683.011,3.3-1.272.512-1.06-.021-2.09-1.37-2.365a12.32,12.32,0,0,0-2.333-.233c-3-.027-6-.011-9.077-.011,0-1.976,0-3.913,0-5.85.059-.033.121-.1.181-.094,4.314.049,8.643-.052,12.94.2,4.646.272,7.666,3,8.185,6.944a7.626,7.626,0,0,1-5.961,8.063,37.008,37.008,0,0,1-5.773.518C409.207,52.253,408.756,52.225,408.121,52.225Z" transform="translate(-400 -36.461)" fill="#1e3f76"/>
          <path id="Trazado_6" data-name="Trazado 6" d="M506.476,62.775c-.6,0-1.188.006-1.775,0-2.4-.03-4.8-.036-7.2-.1-4.571-.132-7.476-2.514-7.78-6.359-.235-2.974-.047-5.97-.047-9.017H497.7c0,.663,0,1.323,0,1.984.006,1.739-.027,3.48.032,5.218.05,1.456.622,2.008,2.4,2.151,1.635.132,3.293.085,4.941.114.444.007.889,0,1.412,0Z" transform="translate(-407.578 -37.374)" fill="#1e3f76"/>
          <path id="Trazado_7" data-name="Trazado 7" d="M475.725,47.276h7.993V72.589h-7.993Z" transform="translate(-406.404 -47.235)" fill="#1e3f76"/>
          <path id="Trazado_8" data-name="Trazado 8" d="M488.058,36.5h19.179v5.893H488.058Z" transform="translate(-407.447 -36.461)" fill="#1e3f76"/>
          <path id="Trazado_9" data-name="Trazado 9" d="M424.507,48.679h17.6v5.829h-17.6Z" transform="translate(-402.072 -37.491)" fill="#1e3f76"/>
        </g>
      </g>
      <text id="Programa_de_Vinculación_e_Innovación_Tecnológica" data-name="Programa de
Vinculación e
Innovación
Tecnológica" transform="translate(501.177 39.61)" fill="#1c1c1b" font-size="7" font-family="Montserrat-Bold, Montserrat" font-weight="700"><tspan x="0" y="0">Programa de</tspan><tspan x="0" y="8">Vinculación e</tspan><tspan x="0" y="16">Innovación</tspan><tspan x="0" y="24">Tecnológica</tspan></text>
    </g>
    <g id="Rectángulo_54" data-name="Rectángulo 54" transform="translate(418 37)" fill="#1e3f76" stroke="#707070" stroke-width="1">
      <rect width="4" height="71" stroke="none"/>
      <rect x="0.5" y="0.5" width="3" height="70" fill="none"/>
    </g>
  </g>
</svg>
