<svg xmlns="http://www.w3.org/2000/svg" width="382.08" height="101.708" viewBox="0 0 382.08 101.708">
  <g id="Grupo_51" data-name="Grupo 51" transform="translate(-199.965 -669.393)">
    <path id="Trazado_144" data-name="Trazado 144" d="M218.2,687.744a5.653,5.653,0,0,0-5.644,5.859,5.723,5.723,0,0,0,5.491,5.475h.008a5.716,5.716,0,0,0,3.612-1.181,8.051,8.051,0,0,1,4.9-1.716,2.591,2.591,0,0,1,2.662,2.567v15.038h11.32a10.961,10.961,0,0,1-1.743-6.19,10.779,10.779,0,0,1,10.437-10.488l.368-.005a10.784,10.784,0,0,1,9.043,16.683h11.331V674.067a1.049,1.049,0,0,0-1.034-1.034H229.235v15.038a2.571,2.571,0,0,1-2.567,2.569,8.167,8.167,0,0,1-5.014-1.732A5.624,5.624,0,0,0,218.2,687.744Z" transform="translate(21.75 6.289)" fill="#3aa749"/>
    <path id="Trazado_145" data-name="Trazado 145" d="M219.452,716.353a8.246,8.246,0,0,1-1.729,5.033,5.545,5.545,0,0,0-1.168,3.437,5.661,5.661,0,0,0,5.627,5.647l.235,0a5.724,5.724,0,0,0,5.475-5.488,5.64,5.64,0,0,0-1.181-3.622,7.986,7.986,0,0,1-1.716-4.9,2.594,2.594,0,0,1,2.567-2.665H242.6V702.471a10.84,10.84,0,0,1-5.941,1.743l-.235,0a10.8,10.8,0,0,1,.273-21.6,10.678,10.678,0,0,1,5.9,1.757V673.033H202.881a1.047,1.047,0,0,0-1.034,1.034v39.719h15.038A2.571,2.571,0,0,1,219.452,716.353Z" transform="translate(3.252 6.289)" fill="#df1f26"/>
    <path id="Trazado_146" data-name="Trazado 146" d="M241.82,697.853a8.245,8.245,0,0,1,1.729-5.03,5.532,5.532,0,0,0,1.168-3.434,5.661,5.661,0,0,0-5.627-5.649l-.235.006a5.722,5.722,0,0,0-5.475,5.486,5.632,5.632,0,0,0,1.181,3.625,7.962,7.962,0,0,1,1.716,4.9,2.592,2.592,0,0,1-2.567,2.665H218.669v11.318a10.887,10.887,0,0,1,5.892-1.749l.3.005a10.8,10.8,0,0,1-.295,21.6,10.662,10.662,0,0,1-5.9-1.757v11.331h39.722a1.047,1.047,0,0,0,1.034-1.034V700.423H244.386A2.57,2.57,0,0,1,241.82,697.853Z" transform="translate(32.316 24.789)" fill="#5f9ad2"/>
    <path id="Trazado_147" data-name="Trazado 147" d="M202.881,730.609H242.6V715.571A2.567,2.567,0,0,1,245.167,713a8.238,8.238,0,0,1,5.03,1.73,5.546,5.546,0,0,0,3.437,1.167,5.662,5.662,0,0,0,5.663-5.865,5.756,5.756,0,0,0-5.507-5.472h-.005a5.8,5.8,0,0,0-3.617,1.168,7.9,7.9,0,0,1-4.9,1.729,2.589,2.589,0,0,1-2.66-2.567V689.856h-11.32a10.8,10.8,0,0,1-8.693,16.677,3.418,3.418,0,0,1-.374.017,10.8,10.8,0,0,1-9.04-16.694H201.847v39.719A1.046,1.046,0,0,0,202.881,730.609Z" transform="translate(3.252 35.356)" fill="#ffeb00"/>
    <g id="Grupo_50" data-name="Grupo 50" transform="translate(199.965 669.393)">
      <g id="Grupo_49" data-name="Grupo 49" transform="translate(103.656)">
        <g id="Grupo_47" data-name="Grupo 47" transform="translate(0 67.193)">
          <path id="Trazado_148" data-name="Trazado 148" d="M237.965,694.263h20.423V701.3H246.945v5.647h10.72V713.7h-10.72v6.571h11.88v7.035H237.965Z" transform="translate(-237.965 -693.617)" fill="#322f81"/>
          <path id="Trazado_149" data-name="Trazado 149" d="M246.691,694.263h12.842l3.623,19.58h.1l3.622-19.58h12.842V727.31h-8.4V702.686h-.1l-4.782,24.624H259.97l-4.782-24.624h-.1V727.31h-8.4Z" transform="translate(-222.888 -693.617)" fill="#322f81"/>
          <path id="Trazado_150" data-name="Trazado 150" d="M260.107,694.263h13.47c6.857,0,9.945,4.4,9.945,10.183,0,6.759-4.007,10.276-11.3,10.276h-3.14V727.31h-8.98Zm8.98,14.255h1.691c2.269,0,3.475-1.249,3.475-4.027,0-2.73-1.206-4.026-3.475-4.026h-1.691Z" transform="translate(-199.709 -693.617)" fill="#322f81"/>
          <path id="Trazado_151" data-name="Trazado 151" d="M269.735,694.263h14.051c6.855,0,9.463,3.7,9.463,8.794,0,4.4-1.787,7.267-5.889,7.87v.093c4.345.368,5.646,3.006,5.646,7.406v2.823c0,1.71,0,3.933.436,4.58a2.287,2.287,0,0,0,1.015,1.02v.461H284.9c-.87-1.759-.87-4.9-.87-6.293v-2.223c0-3.748-.772-4.722-2.943-4.722h-2.368V727.31h-8.98Zm8.98,13.98H280.5c2.559,0,3.767-1.577,3.767-3.936,0-2.684-1.11-3.841-3.816-3.841h-1.738Z" transform="translate(-183.073 -693.617)" fill="#322f81"/>
          <path id="Trazado_152" data-name="Trazado 152" d="M279.894,694.263h20.423V701.3H288.874v5.647h10.72V713.7h-10.72v6.571h11.877v7.035H279.894Z" transform="translate(-165.521 -693.617)" fill="#322f81"/>
          <path id="Trazado_153" data-name="Trazado 153" d="M302.838,704.209v-.788c0-1.945-.821-3.562-2.559-3.562a2.7,2.7,0,0,0-2.8,2.913c0,6.527,14.678,3.333,14.678,15.415,0,7.035-4.3,10.183-12.218,10.183-7.436,0-11.587-2.452-11.587-9.3v-1.157h8.691v.788c0,2.823,1.208,3.841,2.946,3.841a2.891,2.891,0,0,0,2.9-3.194c0-6.525-14.1-3.287-14.1-14.995,0-6.667,3.718-10.322,11.3-10.322,7.823,0,11.154,3.1,11.154,10.183Z" transform="translate(-150.904 -694.026)" fill="#322f81"/>
          <path id="Trazado_154" data-name="Trazado 154" d="M305.641,694.263h11.3l8.4,33.047H315.78l-.919-5.783h-7.144l-.917,5.783h-9.561Zm5.7,6.757h-.1l-2.463,14.026H313.8Z" transform="translate(-135.553 -693.617)" fill="#322f81"/>
          <path id="Trazado_155" data-name="Trazado 155" d="M308.088,694.263h14.051c6.858,0,9.465,3.7,9.465,8.794,0,4.4-1.787,7.267-5.892,7.87v.093c4.345.368,5.649,3.006,5.649,7.406v2.823c0,1.71,0,3.933.434,4.58a2.316,2.316,0,0,0,1.015,1.02v.461h-9.561c-.867-1.759-.867-4.9-.867-6.293v-2.223c0-3.748-.775-4.722-2.946-4.722h-2.365V727.31h-8.983Zm8.983,13.98h1.787c2.559,0,3.764-1.577,3.764-3.936,0-2.684-1.11-3.841-3.813-3.841h-1.737Z" transform="translate(-116.808 -693.617)" fill="#322f81"/>
          <path id="Trazado_156" data-name="Trazado 156" d="M318.124,694.263h8.98V727.31h-8.98Z" transform="translate(-99.468 -693.617)" fill="#322f81"/>
          <path id="Trazado_157" data-name="Trazado 157" d="M330.242,694.263h11.3l8.4,33.047h-9.561l-.917-5.783h-7.147l-.917,5.783H321.84Zm5.7,6.757h-.1l-2.463,14.026H338.4Z" transform="translate(-93.047 -693.617)" fill="#322f81"/>
          <path id="Trazado_158" data-name="Trazado 158" d="M332.69,694.263h8.98v26.012h11.056v7.035H332.69Z" transform="translate(-74.301 -693.617)" fill="#322f81"/>
        </g>
        <g id="Grupo_48" data-name="Grupo 48" transform="translate(1.708)">
          <path id="Trazado_159" data-name="Trazado 159" d="M250.386,674.063h15.862l11.795,46.394H264.619l-1.287-8.123H253.3l-1.288,8.123H238.591Zm8,9.484h-.136l-3.456,19.689h7.049Z" transform="translate(-238.591 -661.324)" fill="#322f81"/>
          <path id="Trazado_160" data-name="Trazado 160" d="M260.8,684.327h-9.49V674.063H282.9v10.265h-9.49v36.13H260.8Z" transform="translate(-216.607 -661.324)" fill="#322f81"/>
          <path id="Trazado_161" data-name="Trazado 161" d="M263.939,674.063h28.672v9.875H276.547v7.927h15.047v9.487H276.547v9.228h16.675v9.877H263.939Z" transform="translate(-194.795 -661.324)" fill="#322f81"/>
          <path id="Trazado_162" data-name="Trazado 162" d="M276.364,674.063h14.1l8.134,28.59h.134v-28.59h11.795v46.394H296.7L288.3,691.8h-.137v28.656H276.364Z" transform="translate(-173.328 -661.324)" fill="#322f81"/>
          <path id="Trazado_163" data-name="Trazado 163" d="M311.3,688.74c0-5.265-1.017-6.825-3.459-6.825-3.863,0-4.269,3.38-4.269,15.922s.406,15.919,4.269,15.919c3.121,0,3.8-2.6,3.8-11.372h12.2v3.445c0,12.995-7.93,16.113-16,16.113-14.165,0-17.283-6.822-17.283-24.105,0-17.741,4.2-24.108,17.283-24.108,11.388,0,15.66,5.718,15.66,14.684v2.927H311.3Z" transform="translate(-148.81 -661.901)" fill="#322f81"/>
          <path id="Trazado_164" data-name="Trazado 164" d="M304.246,674.063h12.608v46.394H304.246Z" transform="translate(-125.154 -661.324)" fill="#322f81"/>
          <path id="Trazado_165" data-name="Trazado 165" d="M327.643,681.221c12.878,0,17.283,6.757,17.283,24.108s-4.405,24.105-17.283,24.105-17.283-6.757-17.283-24.105S314.765,681.221,327.643,681.221Zm-1.967-11.828h11.388l-6.506,9.487H322.7Zm1.967,51.855c3.865,0,4.269-3.38,4.269-15.919s-.4-15.922-4.269-15.922-4.269,3.38-4.269,15.922S323.778,721.248,327.643,721.248Z" transform="translate(-114.59 -669.393)" fill="#322f81"/>
          <path id="Trazado_166" data-name="Trazado 166" d="M324.7,674.063h14.1l8.134,28.59h.134v-28.59h11.795v46.394H345.034l-8.4-28.656h-.136v28.656H324.7Z" transform="translate(-89.817 -661.324)" fill="#322f81"/>
        </g>
      </g>
      <path id="Trazado_167" data-name="Trazado 167" d="M295.47,673.415a1.037,1.037,0,0,0-.134-.15,3.011,3.011,0,0,0-.556-.562,1.038,1.038,0,0,0-.158-.136,6.127,6.127,0,0,0-3.914-1.416H206.133a6.174,6.174,0,0,0-6.168,6.167v84.575a6.121,6.121,0,0,0,1.669,4.2,2.222,2.222,0,0,0,.286.289,6.136,6.136,0,0,0,4.212,1.677h84.575a6.176,6.176,0,0,0,6.167-6.17V677.318A6.06,6.06,0,0,0,295.47,673.415Zm-55.791,34.048.235,0a10.84,10.84,0,0,0,5.941-1.743v11.315H230.813a2.594,2.594,0,0,0-2.567,2.665,7.986,7.986,0,0,0,1.716,4.9,5.64,5.64,0,0,1,1.181,3.623,5.724,5.724,0,0,1-5.475,5.488l-.235,0a5.646,5.646,0,0,1-4.46-9.083A8.247,8.247,0,0,0,222.7,719.6a2.571,2.571,0,0,0-2.567-2.567H205.1v-39.72a1.047,1.047,0,0,1,1.034-1.034h39.722v11.331a10.781,10.781,0,0,0-16.68,9.394A10.8,10.8,0,0,0,239.679,707.463Zm-23.252,14.711a10.807,10.807,0,0,0,9.04,16.694,3.433,3.433,0,0,0,.374-.016,10.8,10.8,0,0,0,8.693-16.677h11.32v15.038a2.589,2.589,0,0,0,2.66,2.567,7.9,7.9,0,0,0,4.9-1.729,5.8,5.8,0,0,1,3.617-1.168h.006a5.756,5.756,0,0,1,5.507,5.472,5.662,5.662,0,0,1-5.663,5.865,5.546,5.546,0,0,1-3.437-1.167,8.238,8.238,0,0,0-5.03-1.73,2.567,2.567,0,0,0-2.564,2.567v15.038H206.133a1.046,1.046,0,0,1-1.034-1.034V722.174Zm50.45-7.567a5.632,5.632,0,0,1-1.181-3.625,5.722,5.722,0,0,1,5.475-5.486l.235-.005a5.646,5.646,0,0,1,4.46,9.083,8.246,8.246,0,0,0-1.729,5.03,2.57,2.57,0,0,0,2.567,2.57h15.038v39.719a1.048,1.048,0,0,1-1.034,1.034H250.985V751.6a10.789,10.789,0,0,0,16.678-9.411,10.774,10.774,0,0,0-10.483-10.436l-.3-.006a10.888,10.888,0,0,0-5.892,1.749V722.174h15.041a2.592,2.592,0,0,0,2.567-2.665A7.962,7.962,0,0,0,266.877,714.607Zm24.864,2.431H280.41a10.792,10.792,0,0,0-9.043-16.683l-.368.006a10.779,10.779,0,0,0-10.437,10.488,10.96,10.96,0,0,0,1.743,6.19h-11.32V702a2.591,2.591,0,0,0-2.662-2.567,8.051,8.051,0,0,0-4.9,1.716,5.715,5.715,0,0,1-3.612,1.181H239.8a5.723,5.723,0,0,1-5.491-5.475,5.661,5.661,0,0,1,9.1-4.694,8.166,8.166,0,0,0,5.014,1.732,2.571,2.571,0,0,0,2.567-2.569V676.285h39.722a1.049,1.049,0,0,1,1.034,1.034Z" transform="translate(-199.965 -666.356)" fill="#1c1c1b"/>
    </g>
  </g>
</svg>
