<svg xmlns="http://www.w3.org/2000/svg" width="220" height="190" viewBox="0 0 220 190">
  <g id="Grupo_287" data-name="Grupo 287" transform="translate(-1924 -1537)">
    <rect id="Rectángulo_91" data-name="Rectángulo 91" width="220" height="190" transform="translate(1924 1537)" fill="none"/>
    <g id="Grupo_260" data-name="Grupo 260" transform="translate(2868 1532.037)">
      <g id="Grupo_258" data-name="Grupo 258">
        <path id="Trazado_822" data-name="Trazado 822" d="M-942.9,112.93l.311,1.6.173-.027a.508.508,0,0,1,.32.022.265.265,0,0,1,.113.153.319.319,0,0,1-.039.227.731.731,0,0,1-.276.106l-.735.13a.329.329,0,0,1-.291-.024.221.221,0,0,1-.109-.168.254.254,0,0,1,.035-.2c.044-.069.138-.1.271-.131l-.384-2.049-.079.02a.482.482,0,0,1-.3-.028.208.208,0,0,1-.109-.172.308.308,0,0,1,.04-.207.55.55,0,0,1,.271-.126l.6-.1,1.78,1.862-.291-1.581-.2.04a.577.577,0,0,1-.3-.027.309.309,0,0,1-.108-.178.276.276,0,0,1,.049-.2.457.457,0,0,1,.271-.121l.715-.126a.388.388,0,0,1,.292.022.233.233,0,0,1,.133.168.335.335,0,0,1-.049.215.512.512,0,0,1-.267.118l.458,2.568-.507.1Z" fill="#00a8e7"/>
        <path id="Trazado_823" data-name="Trazado 823" d="M-933.9,80.1l.262-.636,1.055,1.194c.054.073.089.135.054.207-.005.029-.044.059-.094.093h-.1c-.01-.012-.059-.034-.079-.064Z" fill="#00a8e7"/>
        <path id="Trazado_824" data-name="Trazado 824" d="M-933.974,81.478a.261.261,0,0,0-.237.022.441.441,0,0,0-.133.21l-1.667.012h-1.134l-.425,1.033a.4.4,0,0,0-.039.277.28.28,0,0,0,.148.147.222.222,0,0,0,.212-.012.4.4,0,0,0,.168-.222l.123-.305.858.774.765.725a.394.394,0,0,0-.035.278.283.283,0,0,0,.148.156.264.264,0,0,0,.217-.008.639.639,0,0,0,.168-.221l.251-.651a.333.333,0,0,0,.025-.279.179.179,0,0,0-.133-.128.25.25,0,0,0-.212,0c-.074.027-.123.108-.168.214l-.039.111-.262-.217.469-1.167h.345l-.049.121a.508.508,0,0,0-.035.272.341.341,0,0,0,.168.135.21.21,0,0,0,.192,0,.391.391,0,0,0,.168-.219l.276-.641a.511.511,0,0,0,.03-.267A.232.232,0,0,0-933.974,81.478ZM-935.789,83l-.277-.254-.547-.508.563-.008h.576Z" fill="#e5007d"/>
        <path id="Trazado_825" data-name="Trazado 825" d="M-936.238,86.388l.217-.506a1.671,1.671,0,0,0,.089-.458.882.882,0,0,0-.182-.392.908.908,0,0,0-.395-.277l-.242-.086a.9.9,0,0,0-.256-.064l.024-.533c.134.035.281.067.449.121l.242.1a1.516,1.516,0,0,1,.5.316,1.194,1.194,0,0,1,.271.427,1.031,1.031,0,0,1,.094.392,1.5,1.5,0,0,1-.119.658l-.38.959c-.054.119-.1.186-.177.22a.233.233,0,0,1-.212,0,.266.266,0,0,1-.143-.136c-.044-.064-.02-.157.02-.256l-.676-.259.03-.528Zm-.769-1.783c-.065-.005-.119-.005-.188-.005a.988.988,0,0,0-.5.155.778.778,0,0,0-.272.4l-.211.494,1.1.436-.03.528-1.258-.476c-.035.1-.083.17-.158.19a.162.162,0,0,1-.187,0c-.084-.02-.148-.059-.163-.133-.044-.062-.014-.148.015-.274l.414-1a1.139,1.139,0,0,1,.281-.429,1.292,1.292,0,0,1,.38-.271,1.87,1.87,0,0,1,.36-.1,1.565,1.565,0,0,1,.42-.04h.024Z" fill="#00a8e7"/>
        <path id="Trazado_826" data-name="Trazado 826" d="M-939,87.69l1.928.753.188-.489a.575.575,0,0,1,.182-.232.369.369,0,0,1,.2,0c.073.035.133.084.138.151.044.066.024.157-.015.274l-.6,1.438a.376.376,0,0,1-.158.221.236.236,0,0,1-.222,0,.176.176,0,0,1-.133-.126.4.4,0,0,1,.02-.288l.207-.474-1.933-.747-.193.489a.426.426,0,0,1-.158.216.273.273,0,0,1-.217,0,.235.235,0,0,1-.153-.135.378.378,0,0,1,.03-.284l.592-1.447c.049-.106.1-.181.153-.2a.282.282,0,0,1,.212-.023.225.225,0,0,1,.153.158.516.516,0,0,1-.025.271Z" fill="#e5007d"/>
        <path id="Trazado_827" data-name="Trazado 827" d="M-940.066,91.58l1.495.576.079-.17a.415.415,0,0,1,.168-.232.244.244,0,0,1,.192,0c.074.03.128.07.138.144a.32.32,0,0,1-.01.276l-.256.633a.6.6,0,0,1-.183.225.344.344,0,0,1-.2,0,.23.23,0,0,1-.148-.145.562.562,0,0,1,.02-.25l-1.924-.747-.029.079a.331.331,0,0,1-.164.212.241.241,0,0,1-.211,0,.2.2,0,0,1-.153-.138.5.5,0,0,1,.025-.273l.236-.548,2.466-.457-1.479-.581-.069.17a.389.389,0,0,1-.178.224.294.294,0,0,1-.207,0,.236.236,0,0,1-.134-.145.286.286,0,0,1,.025-.269l.242-.631a.8.8,0,0,1,.168-.225.3.3,0,0,1,.216-.007c.065.032.134.073.144.148a.284.284,0,0,1-.005.251l2.407.937-.192.469Z" fill="#00a8e7"/>
        <path id="Trazado_828" data-name="Trazado 828" d="M-940.978,93.084l1.4.528a1.126,1.126,0,0,1,.646.639,1.014,1.014,0,0,1,0,.885,1.013,1.013,0,0,1-.242.385,1.683,1.683,0,0,1-.365.266,2.641,2.641,0,0,1-.439.109,1.163,1.163,0,0,1-.493-.094l-1.4-.54a.368.368,0,0,1-.148.2.289.289,0,0,1-.222.005.247.247,0,0,1-.138-.138.421.421,0,0,1,.02-.276l.266-.632c.045-.123.094-.2.168-.224a.274.274,0,0,1,.207,0,.23.23,0,0,1,.148.145.441.441,0,0,1-.025.269l-.078.183,1.44.539a.518.518,0,0,0,.468-.031.609.609,0,0,0,.341-.358.682.682,0,0,0,.039-.345.686.686,0,0,0-.128-.336.493.493,0,0,0-.222-.148l-1.445-.55-.069.165a.291.291,0,0,1-.158.22.285.285,0,0,1-.222,0,.21.21,0,0,1-.143-.138.451.451,0,0,1,.024-.281l.272-.624a.457.457,0,0,1,.163-.217.24.24,0,0,1,.212-.015.292.292,0,0,1,.143.143A.355.355,0,0,1-940.978,93.084Z" fill="#e5007d"/>
        <path id="Trazado_829" data-name="Trazado 829" d="M-938.8,111.746l.36,2.049.538-.083a.413.413,0,0,1,.3.012.266.266,0,0,1,.123.177.236.236,0,0,1-.049.208.443.443,0,0,1-.252.125l-1.628.272a.456.456,0,0,1-.3-.018.3.3,0,0,1-.118-.172.243.243,0,0,1,.064-.207.464.464,0,0,1,.262-.126l.532-.087-.369-2.051-.543.091a.445.445,0,0,1-.3-.022.239.239,0,0,1-.114-.178.2.2,0,0,1,.045-.2.372.372,0,0,1,.262-.114l1.607-.3a.423.423,0,0,1,.3.042.2.2,0,0,1,.123.178.245.245,0,0,1-.039.195.5.5,0,0,1-.271.121Z" fill="#e5007d"/>
        <path id="Trazado_830" data-name="Trazado 830" d="M-935.562,110.787a.359.359,0,0,1,.089-.126.294.294,0,0,1,.128-.042.258.258,0,0,1,.2.034.406.406,0,0,1,.128.269l.079.422a.422.422,0,0,1-.024.3.228.228,0,0,1-.183.1.374.374,0,0,1-.177-.022.353.353,0,0,1-.134-.2.286.286,0,0,0-.113-.148.583.583,0,0,0-.326-.137.9.9,0,0,0-.4,0,.854.854,0,0,0-.425.184.981.981,0,0,0-.3.39.935.935,0,0,0-.054.575l.065.345a.834.834,0,0,0,.4.579,1.1,1.1,0,0,0,.828.112,1.263,1.263,0,0,0,.494-.163.721.721,0,0,0,.217-.225.433.433,0,0,1,.113-.128.159.159,0,0,1,.1-.042.216.216,0,0,1,.2.042.221.221,0,0,1,.109.183c.029.049,0,.148-.055.239a1.271,1.271,0,0,1-.355.345,1.744,1.744,0,0,1-.725.271,1.768,1.768,0,0,1-.887-.042,1.394,1.394,0,0,1-.627-.389,1.472,1.472,0,0,1-.355-.688l-.049-.353a1.507,1.507,0,0,1,.044-.787,1.385,1.385,0,0,1,.439-.651,1.486,1.486,0,0,1,.7-.313,1.623,1.623,0,0,1,.443-.02A1.042,1.042,0,0,1-935.562,110.787Z" fill="#00a8e7"/>
        <path id="Trazado_831" data-name="Trazado 831" d="M-930.733,112.51a.474.474,0,0,0-.282,0l-1.425-2.2-.128-.19-1.149.212a.408.408,0,0,0-.257.109.256.256,0,0,0-.049.209.245.245,0,0,0,.123.163.5.5,0,0,0,.291.034l.355-.069-.468,2.213c-.128.019-.247.059-.272.115a.292.292,0,0,0-.059.195.344.344,0,0,0,.118.185.608.608,0,0,0,.3.02l.72-.123a.441.441,0,0,0,.247-.114.233.233,0,0,0,.049-.207.22.22,0,0,0-.108-.18.433.433,0,0,0-.291-.015l-.124.015.075-.333.512-.108.775-.116.2.293-.133.025a.346.346,0,0,0-.271.111.257.257,0,0,0-.044.209.328.328,0,0,0,.118.173.425.425,0,0,0,.3.024l.7-.123a.513.513,0,0,0,.281-.115.286.286,0,0,0,.05-.21A.314.314,0,0,0-930.733,112.51Zm-1.791-.609-.424.075.232-1.12.226.35.4.626Z" fill="#e5007d"/>
        <path id="Trazado_832" data-name="Trazado 832" d="M-929.253,112.2h0a.46.46,0,0,1,.3.025.268.268,0,0,1,.114.165.3.3,0,0,1-.045.217.674.674,0,0,1-.276.123l-.123.012.025-.542Zm.143-2.669-.045.538a.792.792,0,0,1,.444.047.351.351,0,0,1,.217.259.257.257,0,0,1-.044.2.773.773,0,0,1-.311.266,2.131,2.131,0,0,1-.336.136l-.039.528.2-.025a3.263,3.263,0,0,1,1.278.989l.276-.047a.421.421,0,0,0,.286-.116.259.259,0,0,0,.039-.2.242.242,0,0,0-.152-.19c-.05-.03-.109-.035-.267,0a4.657,4.657,0,0,0-.4-.407,4.022,4.022,0,0,0-.434-.313,1.1,1.1,0,0,0,.38-.435.68.68,0,0,0,.074-.465.883.883,0,0,0-.439-.612A1.077,1.077,0,0,0-929.11,109.531Zm-.454,2.037.123.666.188-.034-.025.542-.686.121a.5.5,0,0,1-.3-.024.3.3,0,0,1-.118-.186.171.171,0,0,1,.054-.182.391.391,0,0,1,.262-.128l.093-.017-.379-2.04-.1.008a.419.419,0,0,1-.286-.03.2.2,0,0,1-.109-.178.238.238,0,0,1,.03-.2.463.463,0,0,1,.266-.121l1.218-.224c.079,0,.153,0,.218-.013l-.045.538h-.059l-.607.108.173.881h0l.4-.079h.059l-.039.528Z" fill="#00a8e7"/>
        <path id="Trazado_833" data-name="Trazado 833" d="M-923.6,111.255a.775.775,0,0,0-.262,0l-1.425-2.2-.123-.193-1.139.212a.514.514,0,0,0-.282.1.348.348,0,0,0-.034.22.232.232,0,0,0,.1.177.584.584,0,0,0,.3.027l.365-.069-.493,2.2a.4.4,0,0,0-.262.136.187.187,0,0,0-.044.185c.02.091.044.148.128.182a.461.461,0,0,0,.292.025l.7-.128a.421.421,0,0,0,.271-.119.229.229,0,0,0,.044-.2.236.236,0,0,0-.118-.175.36.36,0,0,0-.291-.022l-.128.022.074-.348.518-.086.794-.133.182.305-.138.018c-.128.022-.217.047-.256.116a.219.219,0,0,0-.065.2.257.257,0,0,0,.139.173.41.41,0,0,0,.276.035l.72-.133a.456.456,0,0,0,.271-.126.3.3,0,0,0,.05-.195A.488.488,0,0,0-923.6,111.255Zm-1.771-.6-.444.072.247-1.1.237.353.389.6Z" fill="#e5007d"/>
        <path id="Trazado_834" data-name="Trazado 834" d="M-920.735,110.294l.133.685a2.561,2.561,0,0,1-.577.36,1.807,1.807,0,0,1-.538.168,2.173,2.173,0,0,1-.779.014,1.337,1.337,0,0,1-.474-.148,1.439,1.439,0,0,1-.369-.374,1.457,1.457,0,0,1-.257-.585l-.064-.379a1.461,1.461,0,0,1,.143-1,1.475,1.475,0,0,1,1.11-.752,1.456,1.456,0,0,1,.429-.042,1.259,1.259,0,0,1,.385.075.346.346,0,0,1,.192-.144.288.288,0,0,1,.217.057.477.477,0,0,1,.128.252l.05.338a.3.3,0,0,1-.03.271.252.252,0,0,1-.173.128.183.183,0,0,1-.162-.042c-.054-.012-.1-.044-.134-.148a.406.406,0,0,0-.118-.163.536.536,0,0,0-.266-.086,1.217,1.217,0,0,0-.4.02.971.971,0,0,0-.533.224.75.75,0,0,0-.251.38.789.789,0,0,0-.045.53l.055.4a.872.872,0,0,0,.384.594,1.21,1.21,0,0,0,.834.077,2.116,2.116,0,0,0,.646-.247l-.069-.377-.542.093a.479.479,0,0,1-.3-.031.236.236,0,0,1-.124-.173.241.241,0,0,1,.05-.195.423.423,0,0,1,.266-.121l1.09-.192a.289.289,0,0,1,.2.042c.073.024.1.091.118.175a.25.25,0,0,1-.045.2A.4.4,0,0,1-920.735,110.294Z" fill="#00a8e7"/>
        <path id="Trazado_835" data-name="Trazado 835" d="M-917.953,108.113l.276,1.487a1.007,1.007,0,0,1-.212.881,1.1,1.1,0,0,1-.775.5,1.277,1.277,0,0,1-.493,0,1.289,1.289,0,0,1-.439-.185,1.413,1.413,0,0,1-.33-.3.963.963,0,0,1-.188-.471l-.271-1.48a.774.774,0,0,1-.306-.015.237.237,0,0,1-.1-.177.264.264,0,0,1,.025-.21.456.456,0,0,1,.276-.123l.726-.126a.43.43,0,0,1,.276.027.221.221,0,0,1,.118.173.322.322,0,0,1-.049.212.437.437,0,0,1-.237.1l-.192.044.276,1.544a.635.635,0,0,0,.291.38.7.7,0,0,0,.493.079.751.751,0,0,0,.36-.143.662.662,0,0,0,.207-.3.363.363,0,0,0,.02-.264l-.286-1.546-.187.039a.513.513,0,0,1-.267-.039.209.209,0,0,1-.128-.17.2.2,0,0,1,.054-.2.59.59,0,0,1,.227-.126l.735-.116a.477.477,0,0,1,.3.02.313.313,0,0,1,.118.17.263.263,0,0,1-.044.212A.431.431,0,0,1-917.953,108.113Z" fill="#e5007d"/>
        <path id="Trazado_836" data-name="Trazado 836" d="M-913.938,109.593c-.05-.042-.134-.042-.271-.02l-1.441-2.2-.128-.177-1.135.2c-.138.018-.226.052-.266.117a.209.209,0,0,0-.049.2.275.275,0,0,0,.119.172.493.493,0,0,0,.295.027l.355-.061-.478,2.2a.534.534,0,0,0-.281.108c-.03.064-.074.136-.03.217a.22.22,0,0,0,.109.168.483.483,0,0,0,.3.022l.71-.123a.455.455,0,0,0,.266-.114.273.273,0,0,0,.05-.219.407.407,0,0,0-.129-.168.481.481,0,0,0-.286-.02l-.138.015.089-.328.513-.1.789-.13.192.291-.123.024a.464.464,0,0,0-.291.116.265.265,0,0,0-.039.2.228.228,0,0,0,.113.183.663.663,0,0,0,.3.029l.71-.13a.479.479,0,0,0,.271-.122.288.288,0,0,0,.045-.207A.208.208,0,0,0-913.938,109.593Zm-1.8-.612-.443.07.241-1.12.242.36.4.612Z" fill="#00a8e7"/>
        <path id="Trazado_837" data-name="Trazado 837" d="M-910.564,106.823l.389,2.042.36-.046a.424.424,0,0,1,.3.019.227.227,0,0,1,.109.173.247.247,0,0,1-.035.207.536.536,0,0,1-.286.111l-1.253.215a.365.365,0,0,1-.281-.013.222.222,0,0,1-.118-.182.193.193,0,0,1,.044-.185c.035-.074.128-.106.257-.136l.365-.047-.38-2.056-.577.091.089.5c.024.125.024.229-.035.273a.2.2,0,0,1-.183.124.169.169,0,0,1-.182-.047.434.434,0,0,1-.138-.264l-.178-1.007,2.768-.481.192,1.019a.5.5,0,0,1-.03.277.22.22,0,0,1-.182.111.186.186,0,0,1-.188-.047.287.287,0,0,1-.138-.252l-.084-.491Z" fill="#e5007d"/>
        <path id="Trazado_838" data-name="Trazado 838" d="M-907.595,108.424h0a.371.371,0,0,1,.291.027.246.246,0,0,1,.129.17.263.263,0,0,1-.05.2c-.044.069-.128.089-.266.116l-.133.039.029-.557Zm.124-2.674-.02.543a.688.688,0,0,1,.443.049.426.426,0,0,1,.218.249.31.31,0,0,1-.07.225.655.655,0,0,1-.275.239.954.954,0,0,1-.366.141l-.024.545.177-.042a3.528,3.528,0,0,1,1.307,1.006l.267-.061a.39.39,0,0,0,.276-.117c.039-.063.079-.12.039-.2a.221.221,0,0,0-.128-.183.4.4,0,0,0-.271-.01c-.183-.177-.316-.315-.41-.4a4.2,4.2,0,0,0-.439-.315,1.294,1.294,0,0,0,.38-.425.792.792,0,0,0,.069-.475.881.881,0,0,0-.439-.617A1.27,1.27,0,0,0-907.471,105.75Zm-.444,2.035.128.679.192-.04-.029.557-.691.1c-.138.034-.232.034-.286-.015a.257.257,0,0,1-.124-.175.46.46,0,0,1,.045-.2.44.44,0,0,1,.276-.116l.084-.026-.385-2.055-.074.025c-.143.014-.236.014-.3-.035a.217.217,0,0,1-.123-.175.2.2,0,0,1,.049-.187c.045-.072.134-.1.267-.134l1.208-.207c.079-.01.153-.025.2-.03l-.02.543a.176.176,0,0,0-.06.01l-.606.091.148.886h0l.429-.084h.039l-.024.545Z" fill="#00a8e7"/>
        <path id="Trazado_839" data-name="Trazado 839" d="M-904.226,105.716l.375,2.052.562-.091a.505.505,0,0,1,.276.022.207.207,0,0,1,.124.17.3.3,0,0,1-.05.21.422.422,0,0,1-.266.123l-1.613.279a.345.345,0,0,1-.281-.03.216.216,0,0,1-.128-.16.2.2,0,0,1,.049-.212.371.371,0,0,1,.261-.126l.538-.091-.38-2.057-.538.1a.454.454,0,0,1-.3-.015.476.476,0,0,1-.119-.175.273.273,0,0,1,.045-.205.577.577,0,0,1,.271-.128l1.623-.269a.344.344,0,0,1,.276.013.233.233,0,0,1,.133.175.226.226,0,0,1-.049.209.488.488,0,0,1-.262.124Z" fill="#e5007d"/>
        <path id="Trazado_840" data-name="Trazado 840" d="M-900.236,105.026l.272,1.492a1.037,1.037,0,0,1-.2.882,1.231,1.231,0,0,1-.784.5,1.894,1.894,0,0,1-.483-.013,1.4,1.4,0,0,1-.444-.192,1.179,1.179,0,0,1-.331-.293,1,1,0,0,1-.187-.481l-.272-1.478a.42.42,0,0,1-.3-.014.225.225,0,0,1-.1-.176.215.215,0,0,1,.035-.214.4.4,0,0,1,.271-.118l.71-.122a.388.388,0,0,1,.271.018.246.246,0,0,1,.129.177.23.23,0,0,1-.049.21.348.348,0,0,1-.242.1l-.193.047.282,1.551a.524.524,0,0,0,.291.373.678.678,0,0,0,.5.086.61.61,0,0,0,.345-.141.978.978,0,0,0,.227-.3.391.391,0,0,0,.014-.272l-.29-1.539-.183.04a.4.4,0,0,1-.271-.032.217.217,0,0,1-.119-.18.176.176,0,0,1,.05-.188.282.282,0,0,1,.227-.123l.739-.136a.483.483,0,0,1,.291.027.213.213,0,0,1,.124.183.186.186,0,0,1-.054.19A.4.4,0,0,1-900.236,105.026Z" fill="#00a8e7"/>
        <path id="Trazado_841" data-name="Trazado 841" d="M-898.475,105.208l.306,1.573.188-.034a.538.538,0,0,1,.286.027.283.283,0,0,1,.123.173.263.263,0,0,1-.035.2c-.049.072-.167.1-.276.134l-.73.12a.449.449,0,0,1-.3-.027c-.059-.019-.094-.086-.123-.177a.237.237,0,0,1,.064-.2.536.536,0,0,1,.266-.12l-.379-2.057-.089.022a.4.4,0,0,1-.291-.027.255.255,0,0,1-.124-.18.3.3,0,0,1,.045-.2.481.481,0,0,1,.271-.123l.617-.1,1.771,1.857-.3-1.574-.2.027a.454.454,0,0,1-.3-.027.293.293,0,0,1-.1-.162.241.241,0,0,1,.049-.2c.04-.066.138-.1.261-.138l.726-.108a.5.5,0,0,1,.306.014.324.324,0,0,1,.118.183.209.209,0,0,1-.059.205.552.552,0,0,1-.271.116l.487,2.569-.517.089Z" fill="#e5007d"/>
        <path id="Trazado_842" data-name="Trazado 842" d="M-894.716,105.383l.143.772.562-.094a.5.5,0,0,1,.286.027.211.211,0,0,1,.124.17.247.247,0,0,1-.05.208.4.4,0,0,1-.266.113l-1.179.2a.415.415,0,0,1-.291-.012.3.3,0,0,1-.118-.178.328.328,0,0,1,.049-.209.622.622,0,0,1,.266-.124l.084-.017-.375-2.047-.084.018a.471.471,0,0,1-.295-.03.2.2,0,0,1-.119-.185.181.181,0,0,1,.049-.18c.04-.067.129-.1.266-.128l2.526-.444.138.8a.4.4,0,0,1-.019.292.187.187,0,0,1-.173.1.257.257,0,0,1-.2-.039.4.4,0,0,1-.123-.264l-.055-.272-1.371.242.138.759.473-.093c-.029-.116-.029-.205.011-.246a.279.279,0,0,1,.2-.148.228.228,0,0,1,.2.049.35.35,0,0,1,.118.254l.109.525a.433.433,0,0,1-.035.286.244.244,0,0,1-.172.121.275.275,0,0,1-.242-.081c-.045-.017-.069-.092-.094-.237Z" fill="#00a8e7"/>
        <path id="Trazado_843" data-name="Trazado 843" d="M-889.217,105.487a.24.24,0,0,0-.143-.19c-.029-.027-.128-.027-.271-.008l-1.425-2.2-.124-.192-1.154.2a.468.468,0,0,0-.266.123.266.266,0,0,0-.04.21.219.219,0,0,0,.119.153c.059.057.162.057.291.034l.36-.066-.474,2.2c-.138.045-.222.072-.266.141a.186.186,0,0,0-.044.192.208.208,0,0,0,.1.17.447.447,0,0,0,.3.035l.7-.133a.392.392,0,0,0,.272-.111.226.226,0,0,0,.039-.21.211.211,0,0,0-.1-.17.643.643,0,0,0-.311-.02l-.119.02.06-.333.542-.1.77-.148.2.3-.123.042a.407.407,0,0,0-.267.109.246.246,0,0,0-.068.216.449.449,0,0,0,.117.171.516.516,0,0,0,.321.019l.691-.135a.36.36,0,0,0,.271-.111A.215.215,0,0,0-889.217,105.487Zm-1.923-.8-.439.086.247-1.122.221.345.4.617Z" fill="#e5007d"/>
        <path id="Trazado_844" data-name="Trazado 844" d="M-887.337,102.562l.148,1.608a.243.243,0,0,1-.05.194c-.034.065-.1.084-.177.119a.313.313,0,0,1-.2-.047.314.314,0,0,1-.119-.18l-.449-1.539c-.01-.089-.019-.143-.044-.163a.447.447,0,0,1,.079-.355.44.44,0,0,1,.281-.173.584.584,0,0,1,.33.075.442.442,0,0,1,.173.3c.02.012.02.088.025.163Zm.385,2.6h0a.232.232,0,0,1-.05.212.393.393,0,0,1-.222.128.338.338,0,0,1-.246-.039.341.341,0,0,1-.129-.185.349.349,0,0,1,.064-.2.332.332,0,0,1,.223-.111.338.338,0,0,1,.241.029A.224.224,0,0,1-886.952,105.166Z" fill="#00a8e7"/>
        <path id="Trazado_845" data-name="Trazado 845" d="M-920.33,82.864a.852.852,0,0,1-.484-1.142,1.174,1.174,0,0,1,1.208-.646,2.468,2.468,0,0,1,1.845,1.107c.513.693.893,1.808.281,2.313a1.726,1.726,0,0,1-1.366.294,2.684,2.684,0,0,0-.917.1c-.39.146-.938.538-1.2.04-.281-.494.049-1,.464-1.337C-920.237,83.394-919.882,83.026-920.33,82.864Z" fill="#e5007d"/>
        <path id="Trazado_846" data-name="Trazado 846" d="M-932.43,98.692c.4-1.837,5.766-7.418,8.06-8.587a3.1,3.1,0,0,1,3.551.495,3.189,3.189,0,0,0,2.239.908,9.515,9.515,0,0,0,2.324-1.184,2.422,2.422,0,0,1,2.254.1,10.491,10.491,0,0,0,1.879.824c.592.175,1.159-.284,1.559-.469a2.083,2.083,0,0,1,1.79.146,4.85,4.85,0,0,0,1.736.764,13.208,13.208,0,0,1,2.279-.108c.853.187,1.968.406,2.032.981a1.008,1.008,0,0,1-1.031,1.231c-.631.022-1.312-.466-1.741-.525a1.2,1.2,0,0,0-1.016.219c-.182.22-.976.851-1.5.542-.617-.364-1.046-.685-1.391-.887-.547-.287-1.218.244-1.648.663a1.969,1.969,0,0,1-2,.274c-.745-.24-2.072-1.84-3.295-.8-.5.444-1.416,1.489-2.047,2.141a1.478,1.478,0,0,1-1.677.2,21,21,0,0,1-1.988-1.229c-.74-.705-1.83-1.023-3.1.19-.473.449-2.984,3.747-4.582,4.962C-930.862,100.389-932.7,99.97-932.43,98.692Z" fill="#f07d00"/>
        <path id="Trazado_847" data-name="Trazado 847" d="M-921.983,83.9s-3.872.617-4.035.629c-.409.074-.577-.323-.035-.4.538-.1,3.813-.4,4.011-.4S-921.248,83.766-921.983,83.9Z" fill="#fff100"/>
        <path id="Trazado_848" data-name="Trazado 848" d="M-922.185,85.278s-3.512,2-3.67,2.079c-.37.175-.681-.177-.187-.441.463-.286,3.526-1.731,3.7-1.84C-922.092,84.975-921.006,84.531-922.185,85.278Z" fill="#fff100"/>
        <path id="Trazado_849" data-name="Trazado 849" d="M-919.369,85.808s.212,3.35.212,3.5c-.01.345-.4.439-.439-.015s.02-3.275.02-3.433C-919.576,85.646-919.433,85-919.369,85.808Z" fill="#fff100"/>
        <path id="Trazado_850" data-name="Trazado 850" d="M-921.184,85.91l-1.751,2.764c-.133.2-.577.124-.35-.246.251-.358,1.8-2.484,1.924-2.592C-921.229,85.675-920.651,84.975-921.184,85.91Z" fill="#fff100"/>
        <path id="Trazado_851" data-name="Trazado 851" d="M-920.02,85.91s-.173,2.609-.173,2.708c-.029.214-.449.328-.424-.025.015-.368.37-2.533.38-2.671C-920.193,85.744-920.01,85.022-920.02,85.91Z" fill="#fff100"/>
        <path id="Trazado_852" data-name="Trazado 852" d="M-921.662,85.542s-1.885,1.85-1.978,1.917c-.139.143-.533-.025-.277-.292.252-.251,1.983-1.649,2.1-1.731C-921.662,85.313-921.036,84.886-921.662,85.542Z" fill="#fff100"/>
        <path id="Trazado_853" data-name="Trazado 853" d="M-921.968,84.573s-2.678.8-2.782.831c-.39.106-.533-.341-.173-.466s2.516-.555,2.812-.572C-921.958,84.344-921.086,84.225-921.968,84.573Z" fill="#fff100"/>
        <path id="Trazado_854" data-name="Trazado 854" d="M-920.469,85.91s-.883,2.582-.932,2.695c-.138.353-.582.227-.484-.148.1-.338,1.007-2.308,1.15-2.575C-920.651,85.749-920.242,85-920.469,85.91Z" fill="#fff100"/>
        <path id="Trazado_855" data-name="Trazado 855" d="M-918.713,85.808s.6,2.676.632,2.8a.28.28,0,1,1-.538.156c-.094-.368-.321-2.531-.341-2.839C-918.96,85.774-918.969,84.913-918.713,85.808Z" fill="#fff100"/>
        <path id="Trazado_856" data-name="Trazado 856" d="M-921.687,82.6s-2.9-.627-3.029-.639c-.315-.042-.424.271-.029.358s2.856.411,3,.441C-921.549,82.777-920.691,82.851-921.687,82.6Z" fill="#fff100"/>
        <path id="Trazado_857" data-name="Trazado 857" d="M-920.242,80.373s-.572-2.5-.616-2.607c-.094-.241-.494-.224-.415.128s.77,2.378.814,2.5C-920.4,80.548-920.089,81.236-920.242,80.373Z" fill="#fff100"/>
        <path id="Trazado_858" data-name="Trazado 858" d="M-921.667,81.451s-2.476-2.077-2.6-2.173c-.182-.148-.562.061-.241.34.33.294,2.545,1.872,2.683,1.958C-921.648,81.7-920.858,82.183-921.667,81.451Z" fill="#fff100"/>
        <path id="Trazado_859" data-name="Trazado 859" d="M-920.681,80.691s-.942-2.155-.981-2.247c-.173-.357-.553-.15-.43.143s1.13,2.03,1.189,2.131C-920.814,80.876-920.4,81.431-920.681,80.691Z" fill="#fff100"/>
        <path id="Trazado_860" data-name="Trazado 860" d="M-919.536,80.277s-.124-2.415-.148-2.516c-.04-.4-.479-.313-.464,0,.034.311.355,2.353.385,2.476C-919.724,80.415-919.512,81.076-919.536,80.277Z" fill="#fff100"/>
        <path id="Trazado_861" data-name="Trazado 861" d="M-921.623,82.094s-2.684-1.329-2.811-1.4c-.212-.1-.563.224-.188.406.35.2,2.733,1.11,2.876,1.162C-921.539,82.348-920.7,82.6-921.623,82.094Z" fill="#fff100"/>
        <path id="Trazado_862" data-name="Trazado 862" d="M-921.885,83.061s-3.087-.2-3.225-.2c-.444-.022-.434.538-.005.558.419.042,2.846-.055,3.176-.094C-921.786,83.3-920.829,83.2-921.885,83.061Z" fill="#fff100"/>
        <path id="Trazado_863" data-name="Trazado 863" d="M-921.229,81.076s-1.573-2.143-1.652-2.23c-.212-.31-.6-.054-.409.235.207.305,1.623,1.876,1.835,2.086C-921.352,81.261-920.74,81.83-921.229,81.076Z" fill="#fff100"/>
        <path id="Trazado_864" data-name="Trazado 864" d="M-916.232,83.123s3.887-.449,4.055-.464c.414-.039.449-.476-.084-.4-.533.052-3.788.619-3.971.683S-917.588,83.251-916.232,83.123Z" fill="#fff100"/>
        <path id="Trazado_865" data-name="Trazado 865" d="M-916.01,84.366s4.3,1.011,4.479,1.058c.414.061.587-.353.064-.5s-4.242-.74-4.444-.78C-916.178,84.107-917.362,83.968-916.01,84.366Z" fill="#fff100"/>
        <path id="Trazado_866" data-name="Trazado 866" d="M-918.2,85.646s.735,3.287.77,3.425c.128.321.528.308.434-.138s-.942-3.137-1-3.307C-918.052,85.424-918.387,84.881-918.2,85.646Z" fill="#fff100"/>
        <path id="Trazado_867" data-name="Trazado 867" d="M-916.444,85.258s2.378,2.1,2.476,2.2c.193.162.572-.025.252-.334-.306-.291-2.432-1.894-2.56-1.985C-916.454,85.022-917.218,84.514-916.444,85.258Z" fill="#fff100"/>
        <path id="Trazado_868" data-name="Trazado 868" d="M-917.553,85.572s.917,2.458.947,2.564c.068.183.517.183.389-.15s-1.075-2.328-1.145-2.449C-917.445,85.359-917.815,84.716-917.553,85.572Z" fill="#fff100"/>
        <path id="Trazado_869" data-name="Trazado 869" d="M-916.217,84.817a26.22,26.22,0,0,0,2.57,1.29c.173.091.518-.19.2-.363s-2.535-1.053-2.678-1.1C-916.306,84.565-917,84.344-916.217,84.817Z" fill="#fff100"/>
        <path id="Trazado_870" data-name="Trazado 870" d="M-916.256,83.754s2.994.074,3.107.074c.4,0,.415-.469.039-.488s-2.989.116-3.289.16C-916.547,83.52-917.218,83.658-916.256,83.754Z" fill="#fff100"/>
        <path id="Trazado_871" data-name="Trazado 871" d="M-917.11,85.451s1.579,2.252,1.648,2.355c.236.291.636.034.438-.274-.216-.31-1.647-1.96-1.869-2.185C-916.986,85.253-917.445,84.96-917.11,85.451Z" fill="#fff100"/>
        <path id="Trazado_872" data-name="Trazado 872" d="M-916.9,81.947s2.618-1.377,2.742-1.431c.281-.111.493.141.128.348-.36.18-2.639,1.166-2.762,1.226C-916.977,82.163-917.766,82.454-916.9,81.947Z" fill="#fff100"/>
        <path id="Trazado_873" data-name="Trazado 873" d="M-919.009,80.3s-.078-2.661-.078-2.77c.029-.271.433-.34.448.008s-.153,2.6-.153,2.713C-918.792,80.42-918.91,81.167-919.009,80.3Z" fill="#fff100"/>
        <path id="Trazado_874" data-name="Trazado 874" d="M-917.445,80.945s2-2.752,2.082-2.873c.137-.2.576-.1.32.269s-2.106,2.552-2.2,2.671C-917.391,81.182-918.013,81.872-917.445,80.945Z" fill="#fff100"/>
        <path id="Trazado_875" data-name="Trazado 875" d="M-918.471,80.454s.36-2.382.36-2.478c.03-.387.5-.3.454.007-.02.311-.543,2.316-.567,2.432C-918.269,80.6-918.516,81.244-918.471,80.454Z" fill="#fff100"/>
        <path id="Trazado_876" data-name="Trazado 876" d="M-917.11,81.485s2.215-2.007,2.323-2.091c.158-.151.6.069.282.34-.282.279-2.294,1.8-2.422,1.894C-917.11,81.749-917.83,82.2-917.11,81.485Z" fill="#fff100"/>
        <path id="Trazado_877" data-name="Trazado 877" d="M-916.572,82.341s2.92-1.019,3.043-1.058c.41-.133.567.385.173.535s-2.752.718-3.088.76C-916.622,82.607-917.553,82.755-916.572,82.341Z" fill="#fff100"/>
        <path id="Trazado_878" data-name="Trazado 878" d="M-918,80.691s1.129-2.557,1.154-2.673c.148-.345.606-.218.488.128s-1.253,2.308-1.406,2.553C-917.83,80.817-918.249,81.542-918,80.691Z" fill="#fff100"/>
        <path id="Trazado_879" data-name="Trazado 879" d="M-921.258,71.317a11.343,11.343,0,0,1,3.6.027c-.3-.365-.592-.683-.834-.984a11.433,11.433,0,0,0-2.91.059c-.336.064-.661.126-1.006.212-.2.368-.4.72-.6,1.1A10.439,10.439,0,0,1-921.258,71.317Z" fill="#fff100"/>
        <path id="Trazado_880" data-name="Trazado 880" d="M-915.818,73.477c-.315-.39-.636-.754-.947-1.092a11.2,11.2,0,0,0-4.345-.178,12.367,12.367,0,0,0-2.55.693c-.232.407-.444.841-.666,1.256a11.068,11.068,0,0,1,3.364-1.069A11.319,11.319,0,0,1-915.818,73.477Z" fill="#00adee"/>
        <path id="Trazado_881" data-name="Trazado 881" d="M-920.819,73.973a11.257,11.257,0,0,1,4.114.126h.069a14.083,14.083,0,0,1,1.859.565c-.35-.4-.7-.79-1.03-1.187a11.308,11.308,0,0,0-5.155-.374,11.614,11.614,0,0,0-3.384,1.053c-.222.448-.448.9-.685,1.351.143-.074.291-.17.439-.242A11.516,11.516,0,0,1-920.819,73.973Z" fill="#2e3191"/>
        <path id="Trazado_882" data-name="Trazado 882" d="M-913.652,76c-.37-.436-.755-.885-1.125-1.317a11.687,11.687,0,0,0-1.859-.579h-.069a11.414,11.414,0,0,0-4.114-.121,11.4,11.4,0,0,0-3.773,1.287c-.148.072-.3.168-.439.247-.252.491-.513.991-.75,1.5a11.055,11.055,0,0,1,5.1-2.129A11.541,11.541,0,0,1-913.652,76Z" fill="#e5007d"/>
        <path id="Trazado_883" data-name="Trazado 883" d="M-916.636,74.1h0Z" fill="#e01f26"/>
        <path id="Trazado_884" data-name="Trazado 884" d="M-920.819,73.973a11.516,11.516,0,0,0-3.773,1.292,11.4,11.4,0,0,1,3.773-1.287,11.414,11.414,0,0,1,4.114.121A11.257,11.257,0,0,0-920.819,73.973Z" fill="#e01f26"/>
        <path id="Trazado_885" data-name="Trazado 885" d="M-920.558,75.778c.1-.012.222-.034.336-.041a1.59,1.59,0,0,0,.242-.033h.029a11.654,11.654,0,0,1,6.373,1.152c.405.22.833.441,1.213.686-.389-.489-.833-1.006-1.282-1.539a11.465,11.465,0,0,0-7.024-1.123,11.1,11.1,0,0,0-5.13,2.141c-.252.528-.523,1.066-.789,1.606A11.757,11.757,0,0,1-920.558,75.778Z" fill="#2e3191"/>
        <path id="Trazado_886" data-name="Trazado 886" d="M-913.578,76.856a11.645,11.645,0,0,0-6.373-1.152h-.029a1.59,1.59,0,0,1-.242.033,1.924,1.924,0,0,0-.291.034,11.779,11.779,0,0,0-6.067,2.851c-.326.678-.72,1.514-1.036,2.19a11.745,11.745,0,0,1,7.206-4.057,12.125,12.125,0,0,1,9.713,2.856c-.42-.558-1.017-1.3-1.668-2.069A11.669,11.669,0,0,0-913.578,76.856Z" fill="#00a050"/>
        <path id="Trazado_887" data-name="Trazado 887" d="M-919.951,75.7h0Z" fill="#f09021"/>
        <path id="Trazado_888" data-name="Trazado 888" d="M-916.765,72.385c-.3-.368-.6-.713-.868-1.041a11.53,11.53,0,0,0-3.6-.027,10.8,10.8,0,0,0-1.795.414c-.212.395-.419.769-.636,1.169a11.5,11.5,0,0,1,2.55-.7A11.061,11.061,0,0,1-916.765,72.385Z" fill="#00a050"/>
        <path id="Trazado_889" data-name="Trazado 889" d="M-921.229,71.317a11.53,11.53,0,0,1,3.6.027h-.024a11.343,11.343,0,0,0-3.6-.027,10.439,10.439,0,0,0-1.746.414h-.02A10.8,10.8,0,0,1-921.229,71.317Z" fill="#fff100"/>
        <path id="Trazado_890" data-name="Trazado 890" d="M-936.366,106.567c2.032-1.344,6.205-2.281,8.7-2.839a91.587,91.587,0,0,1,12.252-1.852c6.427-.614,18.5-1.115,19.666-1.159,2.155-.069,1.179.51.937.52a219.558,219.558,0,0,0-23.2,3.115c-4.118.77-13.134,3.048-17.086,4.353C-936.7,109.241-937.757,107.474-936.366,106.567Z" fill="#fd0"/>
        <path id="Trazado_891" data-name="Trazado 891" d="M-938.231,101.972c-.611,2.2-.162,2.831.266,3.384.405.584,1.964,1.068,2.053-.639.123-2.128,4.469-13.737,5.564-16.877a119.524,119.524,0,0,1,12.39-24.1c.937-1.31,1.559-2.709-.217-.955-1.539,1.5-7.582,10.56-9.4,14.07C-930.95,83.414-935.567,92.088-938.231,101.972Z" fill="#00a8e7"/>
        <path id="Trazado_892" data-name="Trazado 892" d="M-918.994,68.5c-.2-.276-1.356-.431-.557.661s7.916,9.032,9.455,11.348c2.555,3.78,5.13,6.57,9.52,13.835,1.4,2.3,2.8,5.182,3.739,5.6.587.269,2.6.218,1.667-1.536-1.223-2.269-5.6-8.222-7.458-10.7-2.649-3.522-7.951-10.08-8.824-11.143C-913.3,74.326-918.57,69.065-918.994,68.5Z" fill="#c7d300"/>
        <path id="Trazado_893" data-name="Trazado 893" d="M-739.984,82.851l.055-1.169h.083a1.887,1.887,0,0,0,1.273-.453,1.415,1.415,0,0,0,.523-1.031h0a1.6,1.6,0,0,0-.4-1.029,1.743,1.743,0,0,0-1.312-.616l.039-1.167a2.949,2.949,0,0,1,1.342.388,2.586,2.586,0,0,1,1.085,1.067,2.834,2.834,0,0,1,.365,1.357,2.627,2.627,0,0,1-.36,1.292,2.734,2.734,0,0,1-1.065.994,3.335,3.335,0,0,1-1.495.367Zm.355-6.631.04-1.019.118-.1a.522.522,0,0,1,.3-.148.392.392,0,0,1,.276.108.4.4,0,0,1,.119.264c0,.116-.084.235-.242.368h0l-.612.523Zm5.16,1.322v.38a2.167,2.167,0,0,1,.69-.393,2.16,2.16,0,0,1,.795-.143,2.014,2.014,0,0,1,1.583.637,1.871,1.871,0,0,1,.478,1.346v2.143a.809.809,0,0,1,.6.17.539.539,0,0,1,.182.412.506.506,0,0,1-.182.407.784.784,0,0,1-.6.168l-1.135.005a.765.765,0,0,1-.587-.173.487.487,0,0,1-.177-.411.48.48,0,0,1,.177-.408.769.769,0,0,1,.587-.175v-2.18a.72.72,0,0,0-.2-.542,1.091,1.091,0,0,0-.774-.232,1.656,1.656,0,0,0-.69.148,3.427,3.427,0,0,0-.745.646v2.16c.3,0,.483.042.552.121a.594.594,0,0,1,.237.462.5.5,0,0,1-.168.411.839.839,0,0,1-.621.168h-1.1a.827.827,0,0,1-.607-.168.547.547,0,0,1-.182-.411.637.637,0,0,1,.231-.467.845.845,0,0,1,.558-.116V78.7a.907.907,0,0,1-.607-.148.555.555,0,0,1-.182-.419.571.571,0,0,1,.172-.43.894.894,0,0,1,.587-.162Zm-5.12-2.341-.04,1.019-.631.508a.451.451,0,0,1-.311.148.373.373,0,0,1-.261-.109.352.352,0,0,1-.1-.264.483.483,0,0,1,.222-.36l1.125-.942Zm-.129,2.185-.039,1.167a.213.213,0,0,0-.094-.017,1.72,1.72,0,0,0-1.272.5,1.58,1.58,0,0,0-.518,1.164,1.371,1.371,0,0,0,.518,1.023,1.856,1.856,0,0,0,1.194.461l-.055,1.169a3.175,3.175,0,0,1-1.341-.367,2.611,2.611,0,0,1-1.076-.994,2.562,2.562,0,0,1-.369-1.307,2.824,2.824,0,0,1,.369-1.364,2.668,2.668,0,0,1,1.076-1.053,2.982,2.982,0,0,1,1.474-.392c.045,0,.094.012.133.012ZM-758.732,82.8l.059-1.174c.153-.034.316-.074.488-.128a3.643,3.643,0,0,0,.928-.441v-.494h0a6.173,6.173,0,0,0-1.263-.145h-.084l.044-1.142.1-.017a8.493,8.493,0,0,1,1.2.113l-.025-.269a.425.425,0,0,0-.2-.417,1.459,1.459,0,0,0-.824-.17.7.7,0,0,0-.192.018l.054-1.177h.089a2.683,2.683,0,0,1,1.642.462,1.577,1.577,0,0,1,.582,1.274v2.39h.183a.872.872,0,0,1,.611.156.564.564,0,0,1,.178.414.547.547,0,0,1-.178.429.9.9,0,0,1-.611.156h-1.307v-.277a3.411,3.411,0,0,1-.947.345,5.334,5.334,0,0,1-.528.094Zm8.42-5.07a.549.549,0,0,1,.419-.2.515.515,0,0,1,.389.175.858.858,0,0,1,.158.59v.74a.864.864,0,0,1-.158.606.555.555,0,0,1-.4.171.59.59,0,0,1-.38-.131.711.711,0,0,1-.192-.419.633.633,0,0,0-.311-.454,2.149,2.149,0,0,0-1.144-.271,1.785,1.785,0,0,0-1.288.47,1.635,1.635,0,0,0-.483,1.2,1.391,1.391,0,0,0,.474,1.075,2.456,2.456,0,0,0,1.539.4,3.8,3.8,0,0,0,1.144-.15,1.967,1.967,0,0,0,.508-.3.637.637,0,0,1,.424-.227.51.51,0,0,1,.4.18.525.525,0,0,1,.177.412.956.956,0,0,1-.518.72,3.853,3.853,0,0,1-2.224.52,3.242,3.242,0,0,1-2.052-.567,2.409,2.409,0,0,1-.987-2.035,2.792,2.792,0,0,1,.794-2.064,2.832,2.832,0,0,1,2.1-.8,4.059,4.059,0,0,1,.858.089,3.339,3.339,0,0,1,.755.277Zm5.193-.195.01,3.953h1.347a.992.992,0,0,1,.612.161.5.5,0,0,1,.157.431.516.516,0,0,1-.157.419.909.909,0,0,1-.612.158l-3.838-.007a.907.907,0,0,1-.6-.163.506.506,0,0,1-.172-.407.533.533,0,0,1,.172-.431.893.893,0,0,1,.6-.161h1.347l-.005-2.789h-.908a.873.873,0,0,1-.587-.165.539.539,0,0,1-.167-.425.5.5,0,0,1,.167-.412.753.753,0,0,1,.573-.17l2.061.008Zm-.172-2.2h0v1.206h-1.351V75.337Zm-13.155,2.022-.054,1.177a5.645,5.645,0,0,0-1.12.172,1.568,1.568,0,0,1-.464.084.513.513,0,0,1-.385-.17.582.582,0,0,1-.152-.429.607.607,0,0,1,.049-.249.639.639,0,0,1,.143-.178,3.545,3.545,0,0,1,.429-.155,6.8,6.8,0,0,1,.854-.178,3.864,3.864,0,0,1,.7-.074Zm-.114,1.919-.044,1.142a1.956,1.956,0,0,0-1.11.352c-.2.143-.315.287-.315.449a.36.36,0,0,0,.167.264,1.3,1.3,0,0,0,.745.166,1.668,1.668,0,0,0,.444-.023l-.059,1.174a3.738,3.738,0,0,1-.405.027,2.14,2.14,0,0,1-1.484-.5,1.454,1.454,0,0,1-.587-1.084,1.787,1.787,0,0,1,.739-1.357,2.838,2.838,0,0,1,1.909-.609ZM-796.372,92.82l.054-1.186a1.716,1.716,0,0,0,.567.089,3.075,3.075,0,0,0,.923-.163,2.882,2.882,0,0,0,.932-.449V90.63h0a5.786,5.786,0,0,0-1.253-.15,2.032,2.032,0,0,0-1.105.3l.069-1.312a4.147,4.147,0,0,1,1.1-.141,8.617,8.617,0,0,1,1.193.114v-.281a.543.543,0,0,0-.222-.417,1.472,1.472,0,0,0-.823-.163,5.163,5.163,0,0,0-1.209.175l.049-1.221c.1-.012.222-.039.326-.047a6.029,6.029,0,0,1,.774-.078,2.65,2.65,0,0,1,1.648.466,1.543,1.543,0,0,1,.591,1.285v2.38h.178a.833.833,0,0,1,.611.162.538.538,0,0,1,.188.422.561.561,0,0,1-.188.419.847.847,0,0,1-.611.151H-793.9v-.271a3.475,3.475,0,0,1-.937.352,4.878,4.878,0,0,1-.942.1,2.76,2.76,0,0,1-.6-.054Zm.538-10.043.059-1.149h.069a1.83,1.83,0,0,0,1.272-.478,1.369,1.369,0,0,0,.523-1.014h0a1.545,1.545,0,0,0-.39-1.031,1.678,1.678,0,0,0-1.312-.626l.05-1.169a3.021,3.021,0,0,1,1.346.394,2.753,2.753,0,0,1,1.081,1.053,2.838,2.838,0,0,1,.355,1.379,2.559,2.559,0,0,1-.355,1.28,2.665,2.665,0,0,1-1.076.994,3.211,3.211,0,0,1-1.494.367Zm5.346-5.3v.374a2.4,2.4,0,0,1,.686-.4,2.372,2.372,0,0,1,.809-.131,2.123,2.123,0,0,1,1.593.631,1.968,1.968,0,0,1,.459,1.345l.01,2.158a.908.908,0,0,1,.6.143.525.525,0,0,1,.172.421.507.507,0,0,1-.172.422.812.812,0,0,1-.6.17h-1.14a.83.83,0,0,1-.592-.17.561.561,0,0,1-.162-.422.563.563,0,0,1,.162-.421.893.893,0,0,1,.592-.163l-.009-2.17a.65.65,0,0,0-.193-.56,1.187,1.187,0,0,0-.779-.222,1.661,1.661,0,0,0-.681.148,2.922,2.922,0,0,0-.755.651l.02,2.153a.85.85,0,0,1,.537.118.552.552,0,0,1,.247.459.521.521,0,0,1-.192.429.792.792,0,0,1-.592.158H-791.6a.767.767,0,0,1-.587-.168.507.507,0,0,1-.178-.419.564.564,0,0,1,.227-.466.91.91,0,0,1,.533-.111v-2.8a.848.848,0,0,1-.592-.148.563.563,0,0,1-.168-.434.54.54,0,0,1,.168-.417.893.893,0,0,1,.592-.155Zm9.219.212a.534.534,0,0,1,.4-.195.5.5,0,0,1,.414.183.924.924,0,0,1,.148.574v.759a.982.982,0,0,1-.143.592.6.6,0,0,1-.429.168.7.7,0,0,1-.39-.126,1.221,1.221,0,0,1-.183-.421.633.633,0,0,0-.315-.462,2.141,2.141,0,0,0-1.135-.271,1.674,1.674,0,0,0-1.272.481,1.6,1.6,0,0,0-.483,1.209,1.363,1.363,0,0,0,.453,1.068,2.451,2.451,0,0,0,1.539.384,4.086,4.086,0,0,0,1.154-.138,1.417,1.417,0,0,0,.5-.308.708.708,0,0,1,.435-.225.471.471,0,0,1,.384.18.627.627,0,0,1,.188.412c0,.257-.188.494-.518.73a3.878,3.878,0,0,1-2.225.516,3.313,3.313,0,0,1-2.057-.563,2.43,2.43,0,0,1-1-2.049A2.808,2.808,0,0,1-785,78.134a2.829,2.829,0,0,1,2.1-.817,5.014,5.014,0,0,1,.878.089,5.8,5.8,0,0,1,.75.279Zm5.1-.195v3.966h1.352a.863.863,0,0,1,.616.172.511.511,0,0,1,.168.415.538.538,0,0,1-.168.411.833.833,0,0,1-.616.173l-3.823-.007a.886.886,0,0,1-.606-.166.6.6,0,0,1-.178-.424.544.544,0,0,1,.178-.407.775.775,0,0,1,.587-.167h1.351V78.649h-.907a.819.819,0,0,1-.588-.163.508.508,0,0,1-.177-.414.538.538,0,0,1,.177-.422.825.825,0,0,1,.588-.16Zm-.157-2.2h0v1.233h-1.352l-.025-1.233Zm6.229.022v6.153h1.356a.9.9,0,0,1,.617.163.525.525,0,0,1,.173.415.483.483,0,0,1-.173.411.828.828,0,0,1-.611.173h-3.848a.808.808,0,0,1-.587-.173.492.492,0,0,1-.167-.411.493.493,0,0,1,.167-.415.77.77,0,0,1,.587-.172l1.361.009-.005-4.986h-.912a.956.956,0,0,1-.611-.171.616.616,0,0,1-.153-.423.591.591,0,0,1,.153-.425.978.978,0,0,1,.611-.158l2.042.01Zm6.077,2.2.005,3.971h1.347a.928.928,0,0,1,.6.15.608.608,0,0,1,.173.427.629.629,0,0,1-.173.429.911.911,0,0,1-.6.151h-3.853a.846.846,0,0,1-.592-.181.506.506,0,0,1-.162-.411.552.552,0,0,1,.162-.415.823.823,0,0,1,.592-.163h1.352v-2.8h-.913a.888.888,0,0,1-.587-.155.611.611,0,0,1-.172-.427.485.485,0,0,1,.172-.414.774.774,0,0,1,.587-.166Zm-.178-2.2h0v1.224h-1.356V75.312ZM-787.9,85.377l.005,6.166h1.361a.94.94,0,0,1,.6.157.538.538,0,0,1,.173.43.547.547,0,0,1-.173.419.884.884,0,0,1-.6.163l-3.837-.013a.84.84,0,0,1-.592-.158.526.526,0,0,1-.183-.419.514.514,0,0,1,.183-.422.811.811,0,0,1,.592-.162h1.342v-4.99h-.913a.841.841,0,0,1-.6-.167.58.58,0,0,1-.177-.415.623.623,0,0,1,.177-.429.9.9,0,0,1,.6-.16Zm-7.66-8.067-.05,1.169c-.039,0-.064-.012-.093,0a1.783,1.783,0,0,0-1.283.488,1.577,1.577,0,0,0-.5,1.169,1.373,1.373,0,0,0,.5,1.014,2,2,0,0,0,1.214.478l-.059,1.149a3.033,3.033,0,0,1-1.342-.367,2.88,2.88,0,0,1-1.09-.979,2.81,2.81,0,0,1-.36-1.324,2.894,2.894,0,0,1,.365-1.357,2.623,2.623,0,0,1,1.085-1.051,2.919,2.919,0,0,1,1.47-.389Zm-.538,10.222-.049,1.221-.1.03a2.093,2.093,0,0,1-.468.066.452.452,0,0,1-.37-.17.527.527,0,0,1-.168-.419.744.744,0,0,1,.049-.264.488.488,0,0,1,.168-.17,1.059,1.059,0,0,1,.4-.151c.178-.054.366-.093.538-.143Zm-.084,1.934-.069,1.312c-.024.012-.069.034-.078.052-.218.15-.316.281-.316.439a.291.291,0,0,0,.148.269c.074.042.128.068.182.1l-.054,1.186a2.129,2.129,0,0,1-.888-.427,1.445,1.445,0,0,1-.563-1.1,1.723,1.723,0,0,1,.731-1.352,2.029,2.029,0,0,1,.907-.478Zm-12.824,3.021.064-1.41a1,1,0,0,0,.163.157,1.831,1.831,0,0,0,1.272.466,1.837,1.837,0,0,0,1.273-.461,1.36,1.36,0,0,0,.508-1.028h0a1.55,1.55,0,0,0-.385-1.006,1.756,1.756,0,0,0-1.4-.639,1.745,1.745,0,0,0-1.282.493l-.044.042.069-1.433a3.164,3.164,0,0,1,1.257-.276,2.927,2.927,0,0,1,1.475.414,2.467,2.467,0,0,1,1.085,1.043,2.863,2.863,0,0,1,.355,1.362,2.5,2.5,0,0,1-.355,1.292,2.635,2.635,0,0,1-1.065,1,3.243,3.243,0,0,1-1.49.367A3.532,3.532,0,0,1-809,92.5l-.01-.015Zm.5-9.732.069-1.161h.247a6.757,6.757,0,0,0,1.672-.272,3.109,3.109,0,0,1,.591-.1.5.5,0,0,1,.376.148.618.618,0,0,1,.157.42.5.5,0,0,1-.162.389,2.8,2.8,0,0,1-1.076.4,7.263,7.263,0,0,1-1.632.177Zm.108-2.16.07-1.169h1.686a1.721,1.721,0,0,0-.68-.725,1.8,1.8,0,0,0-.957-.234l.069-1.17a2.864,2.864,0,0,1,1.115.245,2.692,2.692,0,0,1,.858.53,3.34,3.34,0,0,1,.666,1.046,2.823,2.823,0,0,1,.177.989V80.6Zm8.139-2.945a.6.6,0,0,1,.41-.19.59.59,0,0,1,.409.178,1,1,0,0,1,.158.6v.737a.931.931,0,0,1-.158.585.526.526,0,0,1-.409.177.61.61,0,0,1-.405-.13.9.9,0,0,1-.178-.42.709.709,0,0,0-.31-.468,2.392,2.392,0,0,0-1.144-.256,1.73,1.73,0,0,0-1.278.466,1.758,1.758,0,0,0-.493,1.218,1.444,1.444,0,0,0,.478,1.07,2.42,2.42,0,0,0,1.534.4,4.144,4.144,0,0,0,1.159-.158,1.713,1.713,0,0,0,.5-.315.663.663,0,0,1,.419-.205.554.554,0,0,1,.4.16.562.562,0,0,1,.187.427.994.994,0,0,1-.532.73,4.01,4.01,0,0,1-2.22.515,3.281,3.281,0,0,1-2.047-.574,2.391,2.391,0,0,1-1-2.045,2.761,2.761,0,0,1,.8-2.047,2.871,2.871,0,0,1,2.1-.806,3.891,3.891,0,0,1,.873.081,4.307,4.307,0,0,1,.745.264Zm-2.274,9.91v.374a2.182,2.182,0,0,1,.681-.4,2.567,2.567,0,0,1,.8-.125,2,2,0,0,1,1.578.641,1.9,1.9,0,0,1,.489,1.331v2.146a.8.8,0,0,1,.587.168.514.514,0,0,1,.182.419.5.5,0,0,1-.182.429.891.891,0,0,1-.587.151l-1.135-.015a.947.947,0,0,1-.611-.15.588.588,0,0,1-.163-.415.6.6,0,0,1,.163-.419.9.9,0,0,1,.592-.168V89.338a.718.718,0,0,0-.188-.54,1.156,1.156,0,0,0-.784-.22,1.371,1.371,0,0,0-.666.143,3.065,3.065,0,0,0-.74.658v2.146a.822.822,0,0,1,.533.109.659.659,0,0,1,.242.461.626.626,0,0,1-.173.432.924.924,0,0,1-.6.15h-1.149a.894.894,0,0,1-.587-.15.593.593,0,0,1-.188-.432.588.588,0,0,1,.242-.461.88.88,0,0,1,.533-.109v-2.8a.9.9,0,0,1-.587-.155.547.547,0,0,1-.188-.419.575.575,0,0,1,.178-.432,1,1,0,0,1,.6-.155ZM-808.21,77.3l-.069,1.17h-.054a1.97,1.97,0,0,0-1,.234,1.643,1.643,0,0,0-.424.352l.094-1.472a2.891,2.891,0,0,1,1.312-.284Zm-.118,2.129-.07,1.169h-1.44l.06-1.169Zm-.109,2.168-.069,1.161a3.231,3.231,0,0,1-1.42-.392l.083-1.418a1.645,1.645,0,0,0,.434.377,2.078,2.078,0,0,0,.972.272Zm-.335,6.074-.069,1.433a1.581,1.581,0,0,0-.474,1.11,1.262,1.262,0,0,0,.37.866l-.064,1.41a2.533,2.533,0,0,1-1.056-.984,3.06,3.06,0,0,1-.3-.72l.088-1.458a2.419,2.419,0,0,1,.222-.488,2.655,2.655,0,0,1,1.081-1.058,2.158,2.158,0,0,1,.207-.111Zm-1.678,4.795a.562.562,0,0,0,.124-.368.544.544,0,0,0-.094-.32Zm.785-14.882-.094,1.472a2.282,2.282,0,0,0-.256.373h.237l-.06,1.169h-.212a1.457,1.457,0,0,0,.207.35l-.083,1.418a2.906,2.906,0,0,1-.524-.395,2.564,2.564,0,0,1-.813-1.915,2.464,2.464,0,0,1,.888-1.994,2.684,2.684,0,0,1,.71-.478Zm-.617,11.744-.088,1.458a2.24,2.24,0,0,1-.07-.572,2.847,2.847,0,0,1,.158-.886Zm-.138,2.45a.236.236,0,0,0-.089-.1.816.816,0,0,0-.6-.168l-1.362-.005V87.56h-2.057a.784.784,0,0,0-.582.148.52.52,0,0,0-.172.416.51.51,0,0,0,.177.42.8.8,0,0,0,.577.165h.928V91.5h-1.357a.833.833,0,0,0-.587.166.273.273,0,0,0-.093.132l-.045.531a1.254,1.254,0,0,0,.138.177.826.826,0,0,0,.587.156l3.848.012a.794.794,0,0,0,.6-.168.232.232,0,0,0,.059-.046l.03-.688Zm-4.73-9.387.044-.747a.531.531,0,0,1,.1.34.547.547,0,0,1-.148.407Zm.133-2.4a7.765,7.765,0,0,1,2.215,2.587h.572a.907.907,0,0,0,.582-.163.51.51,0,0,0,.183-.414.676.676,0,0,0-.228-.484.945.945,0,0,0-.537-.108c-.3-.447-.518-.787-.7-1a6.211,6.211,0,0,0-.754-.812,3.18,3.18,0,0,0,.937-.794,1.73,1.73,0,0,0,.325-1,1.985,1.985,0,0,0-.675-1.477,2.543,2.543,0,0,0-1.7-.592l-.064,1.145a1.617,1.617,0,0,1,.952.286.92.92,0,0,1,.355.6.625.625,0,0,1-.207.449,1.38,1.38,0,0,1-.681.424,2.136,2.136,0,0,1-.513.133l-.064,1.214Zm2.382,5.361h0v1.224h-1.356V85.347Zm-2.16-9.616-.064,1.145H-816.2v1.916h.888a2.138,2.138,0,0,0,.36-.02l-.064,1.214a.107.107,0,0,0-.059-.035H-816.2V81.4h.415a.9.9,0,0,1,.611.158c.025.019.045.061.069.079l-.044.747a.018.018,0,0,0-.01.015,1.025,1.025,0,0,1-.626.17l-1.717-.008a.928.928,0,0,1-.592-.162.562.562,0,0,1-.177-.422.551.551,0,0,1,.177-.419.883.883,0,0,1,.592-.158h.168V76.876h-.178a.832.832,0,0,1-.592-.161.559.559,0,0,1-.167-.407.578.578,0,0,1,.167-.429.84.84,0,0,1,.592-.155h2.56a1.2,1.2,0,0,1,.158.007Zm-.838,16.07-.045.531a.849.849,0,0,1-.035-.237.5.5,0,0,1,.08-.294Zm-9.353.864.075-1.256a4.285,4.285,0,0,0,.631-.332v-.489h0c-.212-.039-.4-.069-.582-.091l.064-1.172c.158.013.321.054.5.067v-.271a.488.488,0,0,0-.207-.412.579.579,0,0,0-.261-.1l.054-1.166a2.135,2.135,0,0,1,.966.4,1.549,1.549,0,0,1,.583,1.266V91.5h.2a.94.94,0,0,1,.611.157.683.683,0,0,1,.193.435.535.535,0,0,1-.193.414.9.9,0,0,1-.611.15h-1.312v-.271a3.591,3.591,0,0,1-.706.284Zm.528-9.94.054-1.163a1.552,1.552,0,0,0,.252.014,7.3,7.3,0,0,0,1.677-.268,3.389,3.389,0,0,1,.592-.121.564.564,0,0,1,.385.165.691.691,0,0,1,.158.419.557.557,0,0,1-.168.392,2.568,2.568,0,0,1-1.07.39,8.107,8.107,0,0,1-1.653.172Zm.118-2.155.065-1.156h1.672a1.756,1.756,0,0,0-.681-.74,1.94,1.94,0,0,0-.947-.247l.069-1.149a2.992,2.992,0,0,1,1.11.247,3.251,3.251,0,0,1,.888.534,4.379,4.379,0,0,1,.646,1.036,2.86,2.86,0,0,1,.168.992v.5l-2.99-.012Zm6.916,7.182a.64.64,0,0,1,.424-.21.509.509,0,0,1,.4.18.918.918,0,0,1,.148.592v.745a.9.9,0,0,1-.148.592.531.531,0,0,1-.41.185.6.6,0,0,1-.38-.138.718.718,0,0,1-.182-.415.683.683,0,0,0-.325-.451,2.01,2.01,0,0,0-1.14-.288,1.773,1.773,0,0,0-1.282.475,1.677,1.677,0,0,0-.479,1.209,1.444,1.444,0,0,0,.459,1.085,2.541,2.541,0,0,0,1.539.38,3.523,3.523,0,0,0,1.149-.15,1.278,1.278,0,0,0,.493-.3.65.65,0,0,1,.44-.217.519.519,0,0,1,.4.17.62.62,0,0,1,.172.414.956.956,0,0,1-.5.74,4.143,4.143,0,0,1-2.229.508,3.357,3.357,0,0,1-2.052-.569,2.415,2.415,0,0,1-1-2.049,2.746,2.746,0,0,1,.8-2.05,2.871,2.871,0,0,1,2.1-.794,3.25,3.25,0,0,1,.873.089A2.639,2.639,0,0,1-817.424,87.752Zm-6.738-10.474-.069,1.149h-.044a2.07,2.07,0,0,0-1.012.247,1.841,1.841,0,0,0-.685.74h1.7l-.065,1.156H-826a1.636,1.636,0,0,0,.622.738,2.112,2.112,0,0,0,.971.254l-.054,1.163a2.993,2.993,0,0,1-1.953-.769,2.773,2.773,0,0,1-.824-1.938,2.436,2.436,0,0,1,.9-1.973,2.948,2.948,0,0,1,2.017-.775.988.988,0,0,0,.158.008Zm-.552,10.161-.054,1.166a2,2,0,0,0-.578-.067,5.33,5.33,0,0,0-1.292.2,2.231,2.231,0,0,1-.474.062.5.5,0,0,1-.384-.168.571.571,0,0,1-.148-.424.57.57,0,0,1,.044-.257.632.632,0,0,1,.168-.175,2.017,2.017,0,0,1,.4-.15,8.667,8.667,0,0,1,.854-.178,3.924,3.924,0,0,1,.789-.069,2.967,2.967,0,0,1,.671.057Zm-.084,1.886-.064,1.172a3.99,3.99,0,0,0-.686-.047,2.1,2.1,0,0,0-1.193.333c-.2.153-.306.294-.306.451a.309.309,0,0,0,.158.262,1.239,1.239,0,0,0,.744.192,3.152,3.152,0,0,0,.928-.163,1.892,1.892,0,0,0,.306-.116l-.075,1.256c-.073.012-.157.047-.241.061a4.017,4.017,0,0,1-.927.116,2.2,2.2,0,0,1-1.49-.488,1.445,1.445,0,0,1-.568-1.1,1.753,1.753,0,0,1,.711-1.334,2.917,2.917,0,0,1,2.022-.626,4.548,4.548,0,0,1,.681.034Zm-7.231,3.258.054-1a.234.234,0,0,1,.1.066.536.536,0,0,1,.187.437.56.56,0,0,1-.167.4.641.641,0,0,1-.173.1Zm.153-2.964,1.918,3.028h1.125l-.02-5.679a.934.934,0,0,0,.607-.153.59.59,0,0,0,.163-.434.6.6,0,0,0-.163-.415.92.92,0,0,0-.607-.158H-830.4a.866.866,0,0,0-.592.158.521.521,0,0,0-.177.415.533.533,0,0,0,.177.427.865.865,0,0,0,.592.16h.415V90.45l-1.771-2.834-.123,2Zm.384-6.9.05-1.159h.079a1.732,1.732,0,0,0,1.238-.395,1.338,1.338,0,0,0,.454-1.026h0a1.67,1.67,0,0,0-.5-1.213,1.567,1.567,0,0,0-1.091-.5l.05-1.157a2.289,2.289,0,0,1,.7.136,3.067,3.067,0,0,1,.849.415V76.388h-.193a.766.766,0,0,1-.592-.164.52.52,0,0,1-.187-.406.583.583,0,0,1,.187-.442.92.92,0,0,1,.592-.15h1.307l.015,6.166h.2a1.037,1.037,0,0,1,.612.157.629.629,0,0,1,.173.412.7.7,0,0,1-.173.432.969.969,0,0,1-.612.16h-1.331v-.291a3.338,3.338,0,0,1-.809.358,4.092,4.092,0,0,1-.883.1C-831.4,82.725-831.447,82.725-831.492,82.721Zm.277-5.451-.05,1.157h-.118a1.6,1.6,0,0,0-1.189.5,1.621,1.621,0,0,0-.488,1.186,1.374,1.374,0,0,0,.449,1.053,1.7,1.7,0,0,0,1.169.395l-.05,1.159a2.7,2.7,0,0,1-1.933-.753,2.592,2.592,0,0,1-.769-1.881,2.754,2.754,0,0,1,.818-2,2.728,2.728,0,0,1,1.988-.829c.074,0,.123.012.173.012Zm-.538,10.346-.123,2-1.011-1.633v3.5h.424a.95.95,0,0,1,.488.089l-.054,1a1,1,0,0,1-.434.054H-834a.929.929,0,0,1-.6-.15.555.555,0,0,1-.173-.419.535.535,0,0,1,.173-.422.813.813,0,0,1,.6-.155l-.015-4.528h-.177a.956.956,0,0,1-.617-.155.613.613,0,0,1-.163-.427.581.581,0,0,1,.163-.425,1.019,1.019,0,0,1,.617-.16l1.3.012,1.139,1.808Zm-9.086,5.021.39-7.324h.261l.01,6.156.183.007a.994.994,0,0,1,.611.158.567.567,0,0,1,.178.414.593.593,0,0,1-.178.439.979.979,0,0,1-.611.15Zm.518-9.916.06-1.167h.083a1.865,1.865,0,0,0,1.288-.461,1.418,1.418,0,0,0,.508-1.019h0a1.622,1.622,0,0,0-.39-1.04,1.814,1.814,0,0,0-1.322-.617l.054-1.159a2.922,2.922,0,0,1,1.342.392,2.608,2.608,0,0,1,1.08,1.051,2.931,2.931,0,0,1,.36,1.373,2.38,2.38,0,0,1-.36,1.283,2.41,2.41,0,0,1-1.07,1,3.237,3.237,0,0,1-1.485.368Zm.281-5.463-.054,1.159a.479.479,0,0,1-.084,0,1.714,1.714,0,0,0-1.272.493,1.557,1.557,0,0,0-.513,1.169,1.332,1.332,0,0,0,.513,1.011,1.869,1.869,0,0,0,1.189.469l-.06,1.167a3.494,3.494,0,0,1-1.331-.368,2.942,2.942,0,0,1-.913-.73l.183-3.416a2.815,2.815,0,0,1,.74-.579,2.92,2.92,0,0,1,1.464-.38c.04,0,.089.01.138.01Zm-.409,8.055-.39,7.324h-.463l-.025-.283a2.993,2.993,0,0,1-.794.345,3.17,3.17,0,0,1-.883.121,1.013,1.013,0,0,1-.148-.007l.069-1.16h.074a1.724,1.724,0,0,0,1.243-.406,1.322,1.322,0,0,0,.439-1.019h0a1.676,1.676,0,0,0-.488-1.221,1.642,1.642,0,0,0-1.1-.488l.049-1.162a2.781,2.781,0,0,1,.71.136,3.319,3.319,0,0,1,.834.412V86.47h-.192a.87.87,0,0,1-.6-.153.64.64,0,0,1-.168-.42.668.668,0,0,1,.168-.429.944.944,0,0,1,.6-.155Zm-1.933-7.106-.183,3.416c-.059-.091-.108-.172-.168-.266a2.644,2.644,0,0,1-.37-1.3,2.853,2.853,0,0,1,.37-1.365,3.567,3.567,0,0,1,.351-.481Zm-.489,9.15-.049,1.162h-.089a1.6,1.6,0,0,0-1.2.488,1.559,1.559,0,0,0-.488,1.2,1.371,1.371,0,0,0,.425,1.036,1.776,1.776,0,0,0,1.188.406l-.069,1.16a2.8,2.8,0,0,1-1.909-.745,2.491,2.491,0,0,1-.735-1.386l.074-1.334a2.9,2.9,0,0,1,.7-1.177,2.727,2.727,0,0,1,1.988-.824.8.8,0,0,1,.162.01Zm-3.014,5.009a.647.647,0,0,0,.089-.318.812.812,0,0,0-.059-.264l-.03.582Zm.523-9.83.267-5.029a2.509,2.509,0,0,1,.453.368,1.908,1.908,0,0,1,.464,1.344v2.138a.9.9,0,0,1,.6.175.537.537,0,0,1,.182.415.5.5,0,0,1-.182.416.8.8,0,0,1-.6.173h-1.184Zm.267-5.029-.267,5.029a1.084,1.084,0,0,1-.537-.173.547.547,0,0,1-.183-.416.543.543,0,0,1,.183-.415.82.82,0,0,1,.587-.175V79.191a.787.787,0,0,0-.2-.564,1.233,1.233,0,0,0-.769-.227,1.81,1.81,0,0,0-.691.16,2.561,2.561,0,0,0-.73.654v2.143a.879.879,0,0,1,.543.121.593.593,0,0,1,.227.469.539.539,0,0,1-.173.416.907.907,0,0,1-.6.16h-1.134l.276-5.124h.858v.367a2.141,2.141,0,0,1,.671-.4,2.542,2.542,0,0,1,.8-.13,2.23,2.23,0,0,1,1.13.271Zm-.627,11.841-.074,1.334a2.037,2.037,0,0,1-.049-.493,2.777,2.777,0,0,1,.123-.841Zm-.133,2.436a.384.384,0,0,0-.128-.15.813.813,0,0,0-.6-.165h-.188V89.081a1.55,1.55,0,0,0-.6-1.275,2.5,2.5,0,0,0-1.642-.464h-.069l-.069,1.177h.187a1.614,1.614,0,0,1,.834.148.552.552,0,0,1,.217.427v.285a6.177,6.177,0,0,0-1.194-.128h-.078l-.064,1.159h.088a7.019,7.019,0,0,1,1.248.146h0v.486a3.135,3.135,0,0,1-.917.449c-.183.047-.331.089-.484.115l-.049,1.179a3.491,3.491,0,0,0,.513-.093,2.989,2.989,0,0,0,.937-.338v.276h1.327a.936.936,0,0,0,.622-.162,1,1,0,0,1,.073-.1Zm-2.7-14.385-.276,5.124h-.01a.975.975,0,0,1-.587-.16.545.545,0,0,1-.173-.424.72.72,0,0,1,.232-.474.807.807,0,0,1,.528-.108v-2.8a.8.8,0,0,1-.587-.16.527.527,0,0,1-.173-.417.56.56,0,0,1,.173-.434.913.913,0,0,1,.587-.15Zm-.518,9.943-.069,1.177a6.463,6.463,0,0,0-1.12.19,2.214,2.214,0,0,1-.468.074.511.511,0,0,1-.37-.17.627.627,0,0,1-.163-.432.5.5,0,0,1,.054-.247.392.392,0,0,1,.163-.177,1.741,1.741,0,0,1,.4-.155c.291-.075.562-.143.873-.195.256-.025.468-.06.7-.065Zm-.1,1.909-.064,1.159a2.1,2.1,0,0,0-1.11.346.586.586,0,0,0-.3.441.3.3,0,0,0,.143.266,1.35,1.35,0,0,0,.759.183,2.478,2.478,0,0,0,.439-.04l-.049,1.179a2.808,2.808,0,0,1-.419.028,2.288,2.288,0,0,1-1.49-.493,1.46,1.46,0,0,1-.572-1.093,1.82,1.82,0,0,1,.735-1.357,2.981,2.981,0,0,1,1.924-.619Zm-6.9,3.549.059-1.166.089.012a1.828,1.828,0,0,0,1.238-.407,1.346,1.346,0,0,0,.444-1.028h0a1.608,1.608,0,0,0-.493-1.2,1.562,1.562,0,0,0-1.115-.515l.074-1.15a2.834,2.834,0,0,1,.686.139,3.084,3.084,0,0,1,.848.419l-.015-1.443h-.177a.9.9,0,0,1-.6-.153.543.543,0,0,1-.173-.422.553.553,0,0,1,.173-.426.854.854,0,0,1,.592-.163l1.322.007.005,6.163.2-.007a.836.836,0,0,1,.6.171.53.53,0,0,1,.167.411.527.527,0,0,1-.167.425.911.911,0,0,1-.6.162h-1.332v-.293a2.692,2.692,0,0,1-.814.345,3.353,3.353,0,0,1-.868.13,1.049,1.049,0,0,1-.148-.007Zm.533-10.3.074-1.149h.523v-2.8h-.38l.074-1.167h1.425v.725a6.394,6.394,0,0,1,1.139-.705,1.971,1.971,0,0,1,.75-.17,1.731,1.731,0,0,1,1.076.414.81.81,0,0,1,.355.592.566.566,0,0,1-.173.414.519.519,0,0,1-.41.176.709.709,0,0,1-.433-.217.606.606,0,0,0-.415-.215,1.584,1.584,0,0,0-.69.3,14.266,14.266,0,0,0-1.2.91v1.741h1.638a.871.871,0,0,1,.6.16.646.646,0,0,1,.178.427.563.563,0,0,1-.178.414.916.916,0,0,1-.6.148Zm.291-5.115-.074,1.167h-.05a.736.736,0,0,1-.572-.163.5.5,0,0,1-.187-.414.537.537,0,0,1,.187-.434.8.8,0,0,1,.572-.156Zm-.217,3.966-.074,1.149h-.089a.934.934,0,0,1-.592-.148.6.6,0,0,1-.168-.427.629.629,0,0,1,.168-.419.918.918,0,0,1,.592-.155Zm-.311,5.99-.074,1.15h-.089a1.642,1.642,0,0,0-1.2.5,1.675,1.675,0,0,0-.478,1.2,1.354,1.354,0,0,0,.434,1.045,1.653,1.653,0,0,0,1.174.4l-.059,1.166a2.779,2.779,0,0,1-1.9-.762,2.492,2.492,0,0,1-.789-1.679l.049-.708a2.8,2.8,0,0,1,.755-1.487,2.761,2.761,0,0,1,2.017-.822Zm-3.073,4.874a1.4,1.4,0,0,1,.035-.178,1.046,1.046,0,0,0-.025-.133l-.01.311Zm.5-9.715.059-1.223.094-.017a2.611,2.611,0,0,1,.587-.111.548.548,0,0,1,.39.158.513.513,0,0,1,.138.414.438.438,0,0,1-.153.382,2.074,2.074,0,0,1-1.066.4Zm.113-1.958.134-2.7a1.274,1.274,0,0,1,.2.171,3.356,3.356,0,0,1,.651,1.016,2.581,2.581,0,0,1,.173,1.019v.49Zm.134-2.7-.134,2.7-1.819-.027.039-1.147h1.687a1.654,1.654,0,0,0-.681-.742,1.909,1.909,0,0,0-.947-.237l.054-1.159a2.85,2.85,0,0,1,1.135.242,2.974,2.974,0,0,1,.666.374Zm-.188,3.431-.059,1.223a6.687,6.687,0,0,1-1.608.18h-.222l.059-1.149h.247a6.386,6.386,0,0,0,1.583-.254Zm-.424,8.373-.049.708v-.19a2.76,2.76,0,0,1,.049-.518Zm-.123,2.254-.01.311a.5.5,0,0,1-.163.247.929.929,0,0,1-.6.15h-1.1l.059-1.157h1.04a.871.871,0,0,1,.6.15A.438.438,0,0,1-858.842,91.9Zm-1.066-14.674-.054,1.159h-.059a1.991,1.991,0,0,0-.991.237,1.771,1.771,0,0,0-.686.742h1.677l-.039,1.147h-1.663a1.565,1.565,0,0,0,.617.74,2.278,2.278,0,0,0,.981.276l-.059,1.149a2.962,2.962,0,0,1-1.953-.767,2.678,2.678,0,0,1-.819-1.948,2.49,2.49,0,0,1,.9-1.978,2.946,2.946,0,0,1,2.027-.764.786.786,0,0,0,.123.007Zm-.744,14.225-.059,1.157h-2.738a.941.941,0,0,1-.592-.173.528.528,0,0,1-.178-.414.551.551,0,0,1,.178-.42.859.859,0,0,1,.592-.162h1.356l0-2.8h-.913a.828.828,0,0,1-.582-.155.532.532,0,0,1-.178-.422.574.574,0,0,1,.163-.429.857.857,0,0,1,.6-.156h2.042l.01,3.971Zm-11.385-.271.188-3.379v2.4a2.535,2.535,0,0,1-.188.974Zm.222-4.269.055-1.167a.834.834,0,0,1,.508.161.566.566,0,0,1,.157.429.539.539,0,0,1-.157.406.911.911,0,0,1-.563.171Zm.217-4.242.059-1.162h.084a1.806,1.806,0,0,0,1.243-.407,1.345,1.345,0,0,0,.439-1.031h0a1.654,1.654,0,0,0-.488-1.2,1.575,1.575,0,0,0-1.105-.5l.059-1.166a2.672,2.672,0,0,1,1.855.836,2.757,2.757,0,0,1,.814,2.008,2.478,2.478,0,0,1-.775,1.873,2.808,2.808,0,0,1-2.042.748Zm6.205-5.3.005,3.956,1.367.012a.96.96,0,0,1,.6.158.571.571,0,0,1,.168.414.582.582,0,0,1-.168.434.9.9,0,0,1-.6.153h-3.848a.922.922,0,0,1-.586-.16.612.612,0,0,1-.183-.427.592.592,0,0,1,.183-.424.87.87,0,0,1,.586-.16h1.367l-.015-2.794h-.927a.9.9,0,0,1-.587-.161.553.553,0,0,1-.163-.427.514.514,0,0,1,.163-.411.9.9,0,0,1,.587-.171l2.051.008Zm-.157-2.195h0v1.216H-866.9V75.179Zm-3.586,12.3v.372a2.024,2.024,0,0,1,.685-.4,2.239,2.239,0,0,1,.8-.133,2.065,2.065,0,0,1,1.589.636,1.947,1.947,0,0,1,.453,1.337l.015,2.153a.872.872,0,0,1,.6.162.536.536,0,0,1,.163.42.533.533,0,0,1-.163.414.879.879,0,0,1-.6.155h-1.13a.832.832,0,0,1-.6-.155.5.5,0,0,1-.173-.414.5.5,0,0,1,.173-.42.819.819,0,0,1,.592-.162V89.256a.687.687,0,0,0-.212-.547,1.167,1.167,0,0,0-.77-.225,1.585,1.585,0,0,0-.685.141,3.1,3.1,0,0,0-.735.658v2.146c.286,0,.468.04.523.114a.631.631,0,0,1,.256.483.5.5,0,0,1-.183.414.837.837,0,0,1-.6.155h-1.13a.911.911,0,0,1-.611-.162.585.585,0,0,1-.153-.407.6.6,0,0,1,.231-.488.846.846,0,0,1,.533-.109l-.01-2.794a.967.967,0,0,1-.6-.151.657.657,0,0,1-.168-.436.6.6,0,0,1,.168-.419.919.919,0,0,1,.6-.148Zm8.005-2.193h0v1.221h-1.356V85.288Zm-10.176-8.079-.059,1.166h-.089a1.68,1.68,0,0,0-1.213.483,1.664,1.664,0,0,0-.469,1.195A1.309,1.309,0,0,0-872.7,81.1a1.684,1.684,0,0,0,1.159.414l-.059,1.162a3.744,3.744,0,0,1-.735-.109,3.407,3.407,0,0,1-.8-.374v.3h-1.332a.932.932,0,0,1-.6-.161.591.591,0,0,1-.182-.433.6.6,0,0,1,.182-.41.817.817,0,0,1,.6-.163h.193v-5h-.193a.847.847,0,0,1-.606-.16.162.162,0,0,1-.089-.109l.02-.663a.226.226,0,0,1,.069-.062.878.878,0,0,1,.606-.15h1.323v2.587a2.826,2.826,0,0,1,.833-.407,2.617,2.617,0,0,1,.868-.15Zm-.453,8.54-.055,1.167h-.034v.89l-.188,3.379a2.953,2.953,0,0,1-.567.841,2.515,2.515,0,0,1-1.825.755,2.657,2.657,0,0,1-1-.193,2.766,2.766,0,0,1-.592-.35l.118-2.432v.5a1.311,1.311,0,0,0,.424.925,1.477,1.477,0,0,0,1.026.379,1.284,1.284,0,0,0,.745-.184,1.445,1.445,0,0,0,.577-.558A1.164,1.164,0,0,0-873,90.3V86.916h-.4a.764.764,0,0,1-.557-.171.543.543,0,0,1-.178-.421.517.517,0,0,1,.178-.414.8.8,0,0,1,.557-.166l1.534,0Zm-3.981,1.167h.261a.791.791,0,0,0,.543-.171.555.555,0,0,0,.173-.421.522.522,0,0,0-.173-.414.766.766,0,0,0-.543-.166h-.207l-.054,1.172Zm.311-6.087a2.271,2.271,0,0,0,.143-.811,2.419,2.419,0,0,0-.064-.592Zm.286-5.438-.02.663a.518.518,0,0,1-.088-.31.571.571,0,0,1,.108-.353Zm-.207,4.035-.079,1.4a2.583,2.583,0,0,1-.207.479,2.791,2.791,0,0,1-1.071,1,3.225,3.225,0,0,1-1.5.363h-.143l.064-1.162h.079a1.815,1.815,0,0,0,1.277-.471,1.366,1.366,0,0,0,.5-1.018h0a1.516,1.516,0,0,0-.389-1.024,1.726,1.726,0,0,0-1.3-.626l.054-1.159a2.934,2.934,0,0,1,1.327.389,2.585,2.585,0,0,1,1.08,1.051,2.661,2.661,0,0,1,.306.777Zm-.336,6.318-.054,1.172h-.158v2.89l-.118,2.432a3.079,3.079,0,0,1-.227-.212,3.157,3.157,0,0,1-.572-.757,2.386,2.386,0,0,1-.2-1.058l-.01-3.307a.9.9,0,0,1-.6-.159.522.522,0,0,1-.178-.421.512.512,0,0,1,.178-.42.842.842,0,0,1,.6-.16Zm-6.58-5.371v1.553a6.491,6.491,0,0,1-1.287.575,3.8,3.8,0,0,1-1.184.158,4.625,4.625,0,0,1-1.6-.266,2.131,2.131,0,0,1-.912-.521,2.7,2.7,0,0,1-.622-.915,3.228,3.228,0,0,1-.306-1.359v-.841a3.331,3.331,0,0,1,.706-2.076,3.005,3.005,0,0,1,2.515-1.236,5.762,5.762,0,0,1,.883.1,3.809,3.809,0,0,1,.809.293.625.625,0,0,1,.429-.2.493.493,0,0,1,.409.175.807.807,0,0,1,.153.577v.767a.919.919,0,0,1-.153.592.506.506,0,0,1-.409.173.462.462,0,0,1-.345-.127.677.677,0,0,1-.188-.367.79.79,0,0,0-.167-.392,1.348,1.348,0,0,0-.518-.286,2.639,2.639,0,0,0-.858-.138,2.342,2.342,0,0,0-1.164.281,1.983,1.983,0,0,0-.662.73,2.276,2.276,0,0,0-.31,1.129l.019.841a1.822,1.822,0,0,0,.523,1.414,2.477,2.477,0,0,0,1.687.488,3.189,3.189,0,0,0,1.436-.313v-.814h-1.15a.806.806,0,0,1-.6-.175.53.53,0,0,1-.173-.417.529.529,0,0,1,.173-.412.828.828,0,0,1,.6-.178h2.259a.684.684,0,0,1,.39.178.572.572,0,0,1,.183.412.5.5,0,0,1-.183.422.491.491,0,0,1-.385.17Zm4.2-3.164-.054,1.159h-.089a1.8,1.8,0,0,0-1.283.49,1.627,1.627,0,0,0-.5,1.16,1.389,1.389,0,0,0,.5,1.018,1.831,1.831,0,0,0,1.2.471l-.064,1.162a3.336,3.336,0,0,1-1.337-.355,2.69,2.69,0,0,1-1.07-1.006,2.533,2.533,0,0,1-.36-1.308,2.753,2.753,0,0,1,.365-1.373,2.714,2.714,0,0,1,1.065-1.046,2.962,2.962,0,0,1,1.47-.372Zm-7.354,15.34-1.969-3.936a.758.758,0,0,1-.576-.161.5.5,0,0,1-.183-.422.472.472,0,0,1,.183-.414.782.782,0,0,1,.576-.165h1.278a.837.837,0,0,1,.587.165.613.613,0,0,1,.188.414.524.524,0,0,1-.188.422.808.808,0,0,1-.587.166l1.332,2.656,1.317-2.656a.863.863,0,0,1-.612-.166.57.57,0,0,1-.153-.422.556.556,0,0,1,.153-.409.857.857,0,0,1,.6-.162h1.277a.9.9,0,0,1,.588.162.529.529,0,0,1,.172.427.531.531,0,0,1-.168.409.813.813,0,0,1-.592.161l-2.574,5.213h.843a.837.837,0,0,1,.37.58.557.557,0,0,1-.2.426.816.816,0,0,1-.6.148h-2.826a.963.963,0,0,1-.612-.155.543.543,0,0,1-.168-.419.54.54,0,0,1,.168-.429.959.959,0,0,1,.612-.151h1.129Z" fill="#009ee3"/>
        <path id="Trazado_894" data-name="Trazado 894" d="M-758.875,105.716l.049-.678a1.507,1.507,0,0,0,.256-.057c.124-.012.213.01.242.128.04.1-.153.227.04.227.177.02-.01.146-.139.2a.843.843,0,0,1-.448.182Zm.054-.833.015-.442c.276-.039.449-.1.478-.1.074.035.02.325-.1.409a2.713,2.713,0,0,1-.394.129Zm.089-1.759a3.167,3.167,0,0,0,2.116.54,1.371,1.371,0,0,0,1.258,1.985c1.578.19,1.731-.271,1.854-.448a.83.83,0,0,0,.089-.484c-.02-.113.03-.4-.089-.449-.143-.044-.764.018-1.08,0-.281-.012-.868-.064-.774-.412s1.341-.638,1.524-.732c.1-.02.335-.131.345-.311a1.967,1.967,0,0,0-.291-.809.99.99,0,0,0-1-.5,6.625,6.625,0,0,0-1.278.678,3.928,3.928,0,0,1-1.361-.092c-.4-.125-1.026-.263-.37-.863a7.932,7.932,0,0,1,3.936-1.849c.306-.035.168-.535.074-.708a4.009,4.009,0,0,0-.321-.678c-.069-.012-.069-.126-.508-.074a7.677,7.677,0,0,0-3.472,1.585c-.193.185-.346.343-.494.514l-.157,3.107Zm29.432,1.818a3.155,3.155,0,0,0-.168,1.316.781.781,0,0,0,.883.558c.429-.059.627-.237.612-.6a3.109,3.109,0,0,0-.4-1.322c-.192-.136-.661-.461-.922.052Zm1.07-3.241c-.059.079-.261.118-.306-.042a3.411,3.411,0,0,1-.153-.9c.03-.861,2.98-7.125,3.365-7.734.434-.621.221-.915.453-1.137s.6-.155.74.232a3.245,3.245,0,0,1,.005,1.778c-.227.321-.942,1.495-1.11,1.786-.143.288-2.155,4.214-2.293,4.577a12.448,12.448,0,0,1-.7,1.438Zm-23.227-2.969c-.059.059.158.123.262.374.1.272-.178.632.073.8s.667-.136.77.229a.88.88,0,0,1-.108.957,9.161,9.161,0,0,0-1.056,2.676c.049.454.005.861.36.809s.656.3.868-.385c.227-.695,1.426-2.991,1.465-3.127s.5-.954.9-1.05c.37-.117.74.31.621,1.023s-.133,2.918.568,3.362c.927.579,1.755.2,2.969-1.088-.074.732-.094,1.611.168,1.717s.759.078.784-.314a12.565,12.565,0,0,1,2.057-5.625l2.8-.013s-.1.6-.159.908.617.878.794.89-.093.212-.5.679-1.233,2.463-.266,2.853a8.472,8.472,0,0,0,3.778-.012c.706-.185.859-.363.735-.412-.108-.054-.281.034-.2-.148s.143-.286.015-.291c-.1-.007-.271-.047-.217-.1s.527-.232.37-.35a.46.46,0,0,0-.385-.1c-.123.018-2.491.205-2.673.151s-.479-.2-.07-.543c.405-.321,1.678-1.023,1.727-1.3a1,1,0,0,0-.192-.742c-.109-.156-.572-.711-.627-.819s.335-.36.518-.407,1.875-.264,2.121-.264c.227,0,.5.039.493-.182-.02-.254-.222-.346-.084-.474.1-.131.464-.234.4-.454a.7.7,0,0,0-.705-.407c-.316.042-3.2.306-3.2.306l-3.837-.123a19.7,19.7,0,0,1,1.963-2.9c.119-.135-.02-.34-.079-.633a3.953,3.953,0,0,0-.143-.718c-.069-.121-.251-.587-.483-.414-.207.182-2.827,4.683-2.827,4.683s-2.219-.089-2.575-.163-1.07-.387-1.109-.047-.168,1.505.794,1.662a10.158,10.158,0,0,0,2.126.035,9.017,9.017,0,0,1-1.1,1.894c-.552.61-1.337,1.857-2.259,1.968-.222.027-.469,0-.469-.283a13.308,13.308,0,0,0,0-2.874c-.2-.456-.542-1.417-1.208-1.462a2.677,2.677,0,0,0-1.954,1.006c-.064.084-.443-1.018-1.267-1.018A.9.9,0,0,0-751.457,98.732Zm-7.118,1.285-.157,3.107a1.537,1.537,0,0,1-.385-.619,2.232,2.232,0,0,1,.542-2.488Zm-.231,4.424a1.921,1.921,0,0,1-1.574-.237c-.71-.614-.542-1.717-.468-2.3a10.714,10.714,0,0,1,1.879-3.853c.918-1.078.449-1.4.34-1.623s-.389-.922-.656-.759a11.5,11.5,0,0,0-2.614,4.908s-.592-1.016-1.4-.925a1.976,1.976,0,0,0-.666.254l-.093,1.8a1.728,1.728,0,0,1,1.248-.483.393.393,0,0,0,.024.286c.079.157.222.237.247.357s.1.452-.084.621h0a21.8,21.8,0,0,1-1.564,1.547l-.089,1.894a11.386,11.386,0,0,0,2.373-2.158s.42,1.717,1.776,1.9a4.689,4.689,0,0,0,1.248.047l.049-.678c-.054,0-.118-.007-.138-.047s.039-.084.143-.108Zm-5.155-4.533-.093,1.8a6.273,6.273,0,0,0-1.579,2.225c-.37.936-.054.863.755.552a2.74,2.74,0,0,0,.7-.449l-.089,1.894a1.335,1.335,0,0,1-.305.148c-.567.232-1.678.291-1.993-.365a3.7,3.7,0,0,1-.227-.545l.1-2.155c.113-.259.247-.545.4-.837a6.693,6.693,0,0,1,2.337-2.266Zm-2.471-1.83.123-2.392a1.6,1.6,0,0,1,.134.671A4,4,0,0,1-766.432,98.078Zm.123-2.392-.123,2.392a2.772,2.772,0,0,1-1.4,1.3,4.221,4.221,0,0,1-3.528.276,2.286,2.286,0,0,1-.4-2.449c.316-.306.375-.333.542.074.148.4.242.994.992.972A4.125,4.125,0,0,0-767.5,97.17c.361-.473.08-.888-.7-.8a10.367,10.367,0,0,0-2.17.789c-.271.089-.049-.237-.015-.286s.025-.143-.034-.163c-.084-.027.276-.38.384-.468s-.5.212-.547.219c-.034.032-.247-.047-.005-.266.276-.22,1.47-.725,1.48-.76.005-.054-.449-.138-.277-.177s1.485-.686,2.072-.427a1.643,1.643,0,0,1,1,.856Zm-.384,7.325-.1,2.155a3.191,3.191,0,0,1,.1-2.155Zm-9.954,3.79c1.041.215,2.175.259,4.212-1.073.074.886,1.608,1.317,2.615,1.11,1.025-.19,1.351-.081,1.445-.259a1.337,1.337,0,0,0,.138-.518c.029-.187.029-.7-.114-.683-.162.005-1.006.069-1.327.109-.3.042-1.45-.04-1.716-.489a7.948,7.948,0,0,0,1.647-3.2c.1-.747-.128-.614-.157-.708s-.094-1.077-.558-.71a7.693,7.693,0,0,0-1.652,2.239,4.68,4.68,0,0,0-.365,1.411,4.874,4.874,0,0,1-3.053,1.361c.586-.352,1.3-1,1.336-1.455a7.37,7.37,0,0,0,.065-1.987c-.164-.4-.484-1.5-1.268-1.2a4.769,4.769,0,0,0-.962.493l-.1,1.894a4.167,4.167,0,0,1,.731-.555c.557-.321.586-.348.478.076a7.727,7.727,0,0,1-1.283,1.687Zm.286-5.551-.1,1.894a14.315,14.315,0,0,0-1.287,1.236c-.03.475.271.562.552.545h0a2.406,2.406,0,0,0,.661-.573l-.113,2.449c-.084-.02-.163-.032-.242-.054-1.859-.323-1.815-1.551-1.815-1.551s-1.721,1.6-2.259,1.938a2.732,2.732,0,0,1-2.925-.054,2.681,2.681,0,0,1-.572-2.41c-.267-.034-.552-.148-.839-1.085a2.212,2.212,0,0,1,1-2.4,6.343,6.343,0,0,1,2.377-.976c1.011-.082.972.808,1.046.991s-.212.3-.39.306a3.388,3.388,0,0,0-1.445.357c-1.12.587-1.214,1.1-1.3,1.352-.059.264.3.224.6.185s1.726-.98,2.032-.992.424.36.547.693a.675.675,0,0,1-.281.836c-.355.21-1.361.5-1.736.7s-.33.5-.405.851c-.054.34.139.461.43.488s1.405-.061,3.008-1.566a27.537,27.537,0,0,1,3.453-3.159Zm-14.151,5.778.138-2.533c.123-.054.227-.115.35-.182a2.928,2.928,0,0,0,1.42-1.734c.01-.247.055-.955-.774-.553a6.884,6.884,0,0,0-.9.615l.088-1.88c.084-.02.138-.032.163-.074.109-.13.148-.212.449-.162a2.542,2.542,0,0,1,2.037,2.015c.434,2.084-1.766,3.287-2.565,3.356a4.816,4.816,0,0,0,2.826.765c.755-.055,1.115-.237,1.016.1s.075.389.143.6c.084.182.109.236-.192.426a2.255,2.255,0,0,1-1.859.277A6.6,6.6,0,0,1-790.512,107.028Zm.325-6.267-.088,1.88a21.348,21.348,0,0,0-1.643,1.672c-.3.232-.055.352.257.4h0a1.779,1.779,0,0,0,1.287-.222l-.138,2.533a16.672,16.672,0,0,1-2.121-1.6c-.794,1.093-1.357,2.834-1.534,2.952-.188.133-.267.047-.36.116a.582.582,0,0,1-.143.055l.192-3.192a16.513,16.513,0,0,1,2.348-3.231,4.247,4.247,0,0,1,1.943-1.364Zm-4.123,1.2c.148-.257.3-.524.443-.77a4.414,4.414,0,0,0,.44-3.2,2.353,2.353,0,0,0-.612-1.211Zm.271-5.177-.271,5.177c-.691,1.146-1.554,2.3-3.049,2.328-1.815.027-1.761-.76-1.839-.817s-2.314,4.435-2.58,4.92-.557.454-.962.282c-.173-.074-.123-.545-.173-.7-.029-.155-.335-.224-.276-.57s3.049-5.891,3.176-5.992c.124-.121.292.2.39.054s.1-.456.375-.326a3.376,3.376,0,0,1,.839.745,3.907,3.907,0,0,1-.4.905,2.954,2.954,0,0,0,1.731-.151,5.121,5.121,0,0,0,2.422-3.386c.3-1.469-.123-1.866-.527-1.936-.646-.108-1.825,1.243-2.629,2.45-.6.954-.824,1.536-1,1.793-.1.15-.552-.442-.676-.481s-.256-.121-.315-.008-.183.156-.183.1a2.429,2.429,0,0,1,.02-.274,30.169,30.169,0,0,1,2.752-3.968c.987-1,1.352-1.2,2.072-.937a2.908,2.908,0,0,1,1.1.8Zm-.439,8.575a13.01,13.01,0,0,0-.937,1.835c-.173.446.178.461.326.666a2.227,2.227,0,0,1,.256.594c.049.123.1.123.163.1l.192-3.192Zm-28.687,3.539.073-1.371c1.026.035,3.143-.666,3.641-1.448.089-.634,1.257-2.486,2.017-2.624.563-.1.543.567.543.567s.434.326.37.646a8.081,8.081,0,0,1-1.584,2.506c-.636.513.173.955,1.006.861a3.424,3.424,0,0,0,2.98-2.158c.222-.831-.139-1.438-.587-1.51a1.744,1.744,0,0,0-.972.065c-.217.116-.8.276-.429,0,.39-.279.617-.321.39-.365s-.435.074-.587.074c-.168.012-.528-.057-.39-.2a3.461,3.461,0,0,1,.8-.5c.281-.128.73-.3.542-.311-.172-.007-.8.351-.586.143.172-.189.4-.449.646-.461s.034-.178.424-.084,1.1-.017,1.44.994.666,1.036.661,2.178a3.473,3.473,0,0,1-2.525,3.369c-2.032.73-4.183.54-4.148-1.4a6.829,6.829,0,0,1-3.724,1.026Zm.113-2.281a11.747,11.747,0,0,0,1.505-2.178,9.285,9.285,0,0,0,1.41-4.358c-.039-.515-.355-.061-.355-.367-.005-.328-.035-.979-.563-.826a4.049,4.049,0,0,0-1.642,1.28l-.128,2.328a9.227,9.227,0,0,1,.759-1.1h0c.578-.607.77-.585.44.34a12.594,12.594,0,0,1-1.278,2.4l-.148,2.484Zm12.233.441a5.45,5.45,0,0,0-.78,1,4.514,4.514,0,0,0-.483,1.605,3.273,3.273,0,0,0,.3,1.586c.286.372.749.584.784-.129a6.491,6.491,0,0,1,1.45-2.979c.508-.441-.088-.421-.212-.488-.108-.081-.409-.572-.587-.624S-810.509,106.845-810.819,107.055Zm-11.878-6.89-.128,2.328a10.765,10.765,0,0,0-1.45,3.312,11.506,11.506,0,0,0,1.371-1.675l-.148,2.484c-.148.209-.345.446-.557.74a.7.7,0,0,0,.517.17l-.073,1.371c-.745-.034-1.342-.224-1.564-.636-.414.412-3.137,1.827-3.631,1.415a6.027,6.027,0,0,1-1.676.637l.088-1.83a1.182,1.182,0,0,1,.218-.03c.4-.086,1.346-2.027,1.415-2.607h0c.069-.574-.158-.764-.567-.35-.261.261-.617.644-.972,1.024l.138-2.454a1.854,1.854,0,0,1,.923-.513c.5-.047,1.07.6,1.533,1.43a5.1,5.1,0,0,1-.123,2.972,4.4,4.4,0,0,0,2.067-1.253,4.38,4.38,0,0,1,.325-3.142,15.139,15.139,0,0,1,2.294-3.393Zm-7.019,3.9c.425-.513,2.116-2.656,2.437-2.9.375-.286-.005-.631-.134-.739s-.266-.232-.108-.407c.128-.171-.128-.726-.5-.415a11.4,11.4,0,0,0-1.558,1.832Zm-9.875,4.387c.518-.175.188.1-.009.254l.009-.254Zm-.019.464a1.582,1.582,0,0,0,.4.113c.059.007.557-.167.434.049a2.633,2.633,0,0,1-.883.691l.045-.853Zm10.028-7.481c-1.584,2.206-3.572,5.473-3.794,5.932a1.625,1.625,0,0,0-.133.95,15.625,15.625,0,0,1-2.042.51c-.434.069-1.361-.027-1.465-.333-.025-.1.493-.528.582-.562a5.281,5.281,0,0,0,.494-.247,2.913,2.913,0,0,0,1.075-.3c.434-.24.276-.5-.045-.807-.3-.321-.631-.824-1.085-.735a6.407,6.407,0,0,1-2.318.58c-.7-.042-.424-.23.237-.713a13.675,13.675,0,0,1,2.658-1.366,3.275,3.275,0,0,1,.878,0c.2-.007.276-.121.222-.23a5.068,5.068,0,0,0-.592-.623c-.118-.141.193-.084.143-.173s-.237-.459-.961-.54c-.583-.062-2.6,1.193-3.675,1.938l-.158,3a3.473,3.473,0,0,0,1.5.212,1.883,1.883,0,0,0,.474,1.919,2.866,2.866,0,0,0,2.057.456,4.662,4.662,0,0,0,2.328-.945.454.454,0,0,0,.089-.15.894.894,0,0,0,.3.049,1.713,1.713,0,0,0,.621-.249c-.133.432-.108.695.725,1.149a2.158,2.158,0,0,0,1.431.151l.088-1.83c-.463.067-1.218.106-1.464-.158,0,0,.779-.937,1.558-1.805l.138-2.454-.014.027.014-.027Zm-16.15,3.283c.06-.012.691.057.77.3.089.22.311.321.4.4s.252.222,0,.459a4.642,4.642,0,0,0-1.982,2.545c-.3.829.009,1.019.3.925a3.893,3.893,0,0,0,2.176-1.3,3.233,3.233,0,0,1,.764-1.892,5.985,5.985,0,0,1,1.273-1.5c.251-.074.439.232.6.538s.444.16.444.678a6.154,6.154,0,0,1-1.509,2.861c.207.335,2.116.017,2.827-.271l.073-.013-.009.254-.1.074c-.04.047-.005.086.089.136l-.045.853a3.661,3.661,0,0,1-.863.348c-.863.239-2.836.352-3.171-.2a5.012,5.012,0,0,1-2.955,1.157,1.163,1.163,0,0,1-.7-.294l.237-4.466a4.114,4.114,0,0,1,1.371-1.591Zm6.329,0a5.365,5.365,0,0,0-.617.479c-.537.446-.153.532-.2.865s-.271,1.305.592,1.633l.069.025.158-3Zm-7.636.506a3.8,3.8,0,0,0,.4-.558,4.627,4.627,0,0,0,.3-3.156,1.483,1.483,0,0,0-.464-.62Zm-.3,5.551a2,2,0,0,1-.557-1.046l.094-1.758a9.4,9.4,0,0,1,.7-1.662l-.237,4.466Zm.533-9.885-.232,4.334c-.187.224-.414.466-.656.705l.158-2.947c.03-.116.064-.21.084-.316h0a1.12,1.12,0,0,0-.025-.777l.084-1.46C-847.217,100.572-846.994,100.729-846.807,100.889Zm-1.09,8.839a3.32,3.32,0,0,1,.079-1.649l.015-.109-.094,1.758Zm.5-9.3a3.893,3.893,0,0,1-.474-.35c-.394-.38-1.918-.362-3.181.769a14.071,14.071,0,0,0-3.122,4.489c-.4,1.13-1.83,4.9-1.968,5.226-.168.311.113.368.148.437a.549.549,0,0,1,.074.345,1.153,1.153,0,0,0,.192.834c.232.367.3.1.489.069s.571-.363.552-.461a1.817,1.817,0,0,1,.331-1.2c.517-.829,1.375-2.615,1.375-2.615.439.259.3.72,1.762.333a10.792,10.792,0,0,0,3.521-2.375l.158-2.947a6.534,6.534,0,0,1-1.391,2.045,6.866,6.866,0,0,1-1.721,1.321,4.063,4.063,0,0,1-1.382.314,9.718,9.718,0,0,0,1.081-1.778,5.376,5.376,0,0,0-.794-.972,7.346,7.346,0,0,1,1.637-2.035c.839-.589,1.766-.74,2.111-.488a1.465,1.465,0,0,1,.518.5l.084-1.46ZM-868.3,112.782l.079-1.485a5.719,5.719,0,0,0,4.005-.2c.681-.31.553.092.518.178s.2.293.356.311c.167,0,.409.195.271.367-.163.19-2.693,1.672-4.459,1.135-.267-.082-.523-.2-.77-.306Zm.158-3.108.114-2.049c.113-.124.207-.239.3-.345a9.189,9.189,0,0,0,1.5-2.758c.281-.949.4-1.3.217-1.571s-.444-.6-.859-.362a6.235,6.235,0,0,0-.927.814l.109-2.116a.488.488,0,0,1,.123-.05c.4-.1.084-.4.4-.36a5.151,5.151,0,0,1,1.494.91c.385.326.893,1.384.548,3.211A9.636,9.636,0,0,1-868.145,109.674Zm.454-8.387-.109,2.116a8.261,8.261,0,0,0-1.534,2.266,6.014,6.014,0,0,0-.537,3.49h0l-.015-.027a14.217,14.217,0,0,0,1.855-1.507l-.114,2.049a7.421,7.421,0,0,1-1.041.78,2.262,2.262,0,0,0,.962.843l-.079,1.485a5.782,5.782,0,0,1-1.968-1.685,20.393,20.393,0,0,1-4.577,2.092c-1.914.362-1.909-.311-2.17-.792s-.134-.915-.267-1.011a.377.377,0,0,1-.093-.422c.059-.091.32-.982.32-.982a8.074,8.074,0,0,1-2.762-.034c-.631-.321-.834-.439-1.021-1.149a2.86,2.86,0,0,1,.3-2.75,13.04,13.04,0,0,1,5.845-4.168c.853-.168,1.233-.447,1.736-.18a13.911,13.911,0,0,1,1.371,1.152.666.666,0,0,1,.42.771,4.358,4.358,0,0,1-1.11,1.956c-.4.348-.577.395-.76.2-.089-.1-.32-.347-.276-.518.02-.175.079-.5-.074-.579-.128-.074-.429-.274-.346-.345s.158-.052.247-.094a3.022,3.022,0,0,0,.661-.827c.055-.172.094-.313-.572-.273a8.63,8.63,0,0,0-4.38,2.153c-1.559,1.519-2.062,2.483-2.032,2.883s.853.3,1.43.313a6,6,0,0,0,2.822-.9c.542-.53,1.159-.929,1.2-.989s.291,0,.553.134.3.444.493.444.616.308.508.567a2.426,2.426,0,0,1-.77.925,6,6,0,0,0-1.248.528,6.33,6.33,0,0,0-1.159,1.967c-.118.615.494.447.819.368a19.384,19.384,0,0,0,4.228-1.845,8.3,8.3,0,0,1,.724-5.11C-868.924,102.357-868.135,101.5-867.691,101.287Z" fill="#e5007d"/>
      </g>
      <g id="Grupo_259" data-name="Grupo 259">
        <path id="Trazado_895" data-name="Trazado 895" d="M-870.995,123.014v2.778h.336a.712.712,0,0,1,.479.129.435.435,0,0,1,.144.34.422.422,0,0,1-.144.333.7.7,0,0,1-.479.131h-1.223a.7.7,0,0,1-.48-.131.436.436,0,0,1-.143-.338.438.438,0,0,1,.141-.335.637.637,0,0,1,.437-.129v-3.647a.579.579,0,0,1-.372-.15.441.441,0,0,1-.124-.318.444.444,0,0,1,.142-.34.725.725,0,0,1,.481-.129l1.023,0,1.269,2.806,1.246-2.811,1.032,0a.712.712,0,0,1,.479.127.425.425,0,0,1,.144.337.431.431,0,0,1-.127.318.579.579,0,0,1-.368.15v3.647a.62.62,0,0,1,.436.132.441.441,0,0,1,.141.337.422.422,0,0,1-.144.333.7.7,0,0,1-.479.131h-1.228a.7.7,0,0,1-.476-.131.435.435,0,0,1-.142-.338.439.439,0,0,1,.142-.335.715.715,0,0,1,.476-.129h.341v-2.778l-1.068,2.4h-.81Z" fill="#312783"/>
        <path id="Trazado_896" data-name="Trazado 896" d="M-863.482,122.145v3.647h.941a.713.713,0,0,1,.479.129.435.435,0,0,1,.144.34.422.422,0,0,1-.144.333.7.7,0,0,1-.479.131h-2.815a.708.708,0,0,1-.481-.131.435.435,0,0,1-.142-.338.439.439,0,0,1,.142-.335.725.725,0,0,1,.481-.129h.941v-3.647h-.941a.725.725,0,0,1-.481-.129.443.443,0,0,1-.142-.339.443.443,0,0,1,.142-.34.725.725,0,0,1,.481-.129l2.815,0a.714.714,0,0,1,.479.127.425.425,0,0,1,.144.337.434.434,0,0,1-.144.339.713.713,0,0,1-.479.129Z" fill="#312783"/>
        <path id="Trazado_897" data-name="Trazado 897" d="M-859.526,122.973v2.819h.337a.713.713,0,0,1,.479.129.435.435,0,0,1,.144.34.422.422,0,0,1-.144.333.7.7,0,0,1-.479.131h-1.224a.7.7,0,0,1-.48-.131.436.436,0,0,1-.143-.338.436.436,0,0,1,.141-.332.622.622,0,0,1,.437-.132v-3.647h-.146a.722.722,0,0,1-.48-.129.444.444,0,0,1-.143-.339.444.444,0,0,1,.143-.34.722.722,0,0,1,.48-.129l1.078,0,2.383,3.738v-2.806h-.336a.712.712,0,0,1-.479-.129.431.431,0,0,1-.144-.339.432.432,0,0,1,.144-.34.712.712,0,0,1,.479-.129l1.223,0a.722.722,0,0,1,.48.127.434.434,0,0,1,.143.337.44.44,0,0,1-.141.336.614.614,0,0,1-.432.132v4.58h-.923Z" fill="#312783"/>
        <path id="Trazado_898" data-name="Trazado 898" d="M-852.3,122.145v3.647h.941a.713.713,0,0,1,.479.129.435.435,0,0,1,.144.34.422.422,0,0,1-.144.333.7.7,0,0,1-.479.131h-2.815a.705.705,0,0,1-.48-.131.436.436,0,0,1-.143-.338.44.44,0,0,1,.143-.335.722.722,0,0,1,.48-.129h.941v-3.647h-.941a.722.722,0,0,1-.48-.129.444.444,0,0,1-.143-.339.444.444,0,0,1,.143-.34.722.722,0,0,1,.48-.129l2.815,0a.714.714,0,0,1,.479.127.425.425,0,0,1,.144.337.434.434,0,0,1-.144.339.713.713,0,0,1-.479.129Z" fill="#312783"/>
        <path id="Trazado_899" data-name="Trazado 899" d="M-848.543,126.488a.811.811,0,0,1-.2.187.375.375,0,0,1-.183.041.447.447,0,0,1-.344-.143.715.715,0,0,1-.129-.476v-.627a.714.714,0,0,1,.129-.48.438.438,0,0,1,.344-.144.43.43,0,0,1,.274.087.546.546,0,0,1,.171.288.793.793,0,0,0,.123.276,1.438,1.438,0,0,0,.469.286,1.831,1.831,0,0,0,.736.146,1.693,1.693,0,0,0,1.023-.291.52.52,0,0,0,.255-.437.514.514,0,0,0-.123-.326.9.9,0,0,0-.4-.251,6.129,6.129,0,0,0-.814-.187,4.386,4.386,0,0,1-1.155-.341,1.531,1.531,0,0,1-.618-.564,1.454,1.454,0,0,1-.228-.787,1.534,1.534,0,0,1,.56-1.171,2.1,2.1,0,0,1,1.455-.5,2.635,2.635,0,0,1,.665.08,1.857,1.857,0,0,1,.558.243.532.532,0,0,1,.364-.178.421.421,0,0,1,.333.144.69.69,0,0,1,.131.475v.7a.706.706,0,0,1-.131.481.429.429,0,0,1-.333.142.462.462,0,0,1-.3-.1.524.524,0,0,1-.15-.31.865.865,0,0,0-.128-.332,1,1,0,0,0-.4-.291,1.491,1.491,0,0,0-.61-.118,1.246,1.246,0,0,0-.8.234.643.643,0,0,0-.294.489.544.544,0,0,0,.121.335.771.771,0,0,0,.352.252,6.873,6.873,0,0,0,.87.2,5.513,5.513,0,0,1,1.1.309,1.522,1.522,0,0,1,.64.527,1.441,1.441,0,0,1,.255.855,1.376,1.376,0,0,1-.487,1.105,2.46,2.46,0,0,1-1.646.546,3.046,3.046,0,0,1-.753-.094A3.062,3.062,0,0,1-848.543,126.488Z" fill="#312783"/>
        <path id="Trazado_900" data-name="Trazado 900" d="M-841.14,122.145v3.647h.628a.713.713,0,0,1,.479.129.435.435,0,0,1,.144.34.422.422,0,0,1-.144.333.7.7,0,0,1-.479.131H-842.7a.7.7,0,0,1-.479-.131.427.427,0,0,1-.144-.338.43.43,0,0,1,.144-.335.713.713,0,0,1,.479-.129h.623v-3.647h-1.01v.882a.729.729,0,0,1-.128.481.445.445,0,0,1-.34.142.432.432,0,0,1-.334-.142.712.712,0,0,1-.13-.481v-1.819l4.83,0v1.814a.706.706,0,0,1-.131.481.435.435,0,0,1-.338.142.439.439,0,0,1-.335-.142.723.723,0,0,1-.129-.481v-.882Z" fill="#312783"/>
        <path id="Trazado_901" data-name="Trazado 901" d="M-836.96,124.424v1.368h2.378v-.5a.711.711,0,0,1,.129-.479.434.434,0,0,1,.339-.144.422.422,0,0,1,.334.144.7.7,0,0,1,.13.479v1.437h-4.388a.706.706,0,0,1-.481-.131.435.435,0,0,1-.142-.338.431.431,0,0,1,.145-.335.719.719,0,0,1,.478-.129h.145v-3.647h-.145a.723.723,0,0,1-.481-.129.443.443,0,0,1-.142-.339.444.444,0,0,1,.142-.34.723.723,0,0,1,.481-.129l4.184,0v1.419a.715.715,0,0,1-.128.476.432.432,0,0,1-.336.142.434.434,0,0,1-.338-.141.691.691,0,0,1-.131-.477v-.487h-2.173v1.346h.818a1.018,1.018,0,0,1,.068-.468.448.448,0,0,1,.4-.223.43.43,0,0,1,.335.144.719.719,0,0,1,.128.479V124.5a.8.8,0,0,1-.072.41.452.452,0,0,1-.391.213.448.448,0,0,1-.4-.223,1.027,1.027,0,0,1-.068-.472Z" fill="#312783"/>
        <path id="Trazado_902" data-name="Trazado 902" d="M-831.376,124.619v1.173h.337a.722.722,0,0,1,.48.129.444.444,0,0,1,.143.34.431.431,0,0,1-.143.333.7.7,0,0,1-.48.131h-1.415a.7.7,0,0,1-.479-.131.427.427,0,0,1-.144-.338.432.432,0,0,1,.146-.335.718.718,0,0,1,.477-.129h.146v-3.647h-.146a.713.713,0,0,1-.479-.129.434.434,0,0,1-.144-.339.435.435,0,0,1,.144-.34.713.713,0,0,1,.479-.129l2.11,0a2.221,2.221,0,0,1,1.531.488,1.548,1.548,0,0,1,.543,1.19,1.33,1.33,0,0,1-.255.793,2.2,2.2,0,0,1-.768.635,5.9,5.9,0,0,1,.632.664q.209.259.564.809a.99.99,0,0,1,.468.073.453.453,0,0,1,.205.4.429.429,0,0,1-.141.333.692.692,0,0,1-.478.131h-.532a5.974,5.974,0,0,0-1.878-2.106Zm0-.932h.728a2,2,0,0,0,.723-.123,1.4,1.4,0,0,0,.576-.346.58.58,0,0,0,.147-.359.629.629,0,0,0-.282-.488,1.283,1.283,0,0,0-.823-.226h-1.069Z" fill="#312783"/>
        <path id="Trazado_903" data-name="Trazado 903" d="M-824.359,122.145v3.647h.941a.711.711,0,0,1,.479.129.435.435,0,0,1,.144.34.422.422,0,0,1-.144.333.7.7,0,0,1-.479.131h-2.815a.705.705,0,0,1-.48-.131.436.436,0,0,1-.143-.338.44.44,0,0,1,.143-.335.722.722,0,0,1,.48-.129h.942v-3.647h-.942a.722.722,0,0,1-.48-.129.444.444,0,0,1-.143-.339.444.444,0,0,1,.143-.34.722.722,0,0,1,.48-.129l2.815,0a.712.712,0,0,1,.479.127.424.424,0,0,1,.144.337.434.434,0,0,1-.144.339.711.711,0,0,1-.479.129Z" fill="#312783"/>
        <path id="Trazado_904" data-name="Trazado 904" d="M-816.619,123.969a2.883,2.883,0,0,1-.788,2.067,2.464,2.464,0,0,1-1.827.825,2.429,2.429,0,0,1-1.682-.687,2.852,2.852,0,0,1-.928-2.205,2.866,2.866,0,0,1,.928-2.21,2.429,2.429,0,0,1,1.682-.687,2.454,2.454,0,0,1,1.827.826A2.883,2.883,0,0,1-816.619,123.969Zm-.932,0a1.992,1.992,0,0,0-.514-1.407,1.558,1.558,0,0,0-1.169-.558,1.55,1.55,0,0,0-1.164.56,1.993,1.993,0,0,0-.514,1.4,1.987,1.987,0,0,0,.514,1.4,1.55,1.55,0,0,0,1.164.557,1.558,1.558,0,0,0,1.169-.555A1.985,1.985,0,0,0-817.551,123.969Z" fill="#312783"/>
        <path id="Trazado_905" data-name="Trazado 905" d="M-810.143,125.792v-3.647a.637.637,0,0,1-.437-.135.429.429,0,0,1-.141-.333.435.435,0,0,1,.144-.34.713.713,0,0,1,.479-.129l1.951,0a2.452,2.452,0,0,1,.89.168,2.035,2.035,0,0,1,.7.428,3.008,3.008,0,0,1,.415.536,3.039,3.039,0,0,1,.326.678,2.686,2.686,0,0,1,.109.823v.446a2.587,2.587,0,0,1-.2,1.047,2.094,2.094,0,0,1-.526.746,2.651,2.651,0,0,1-.611.426,2.791,2.791,0,0,1-1.178.214H-810.1a.7.7,0,0,1-.479-.131.427.427,0,0,1-.144-.338.432.432,0,0,1,.144-.336A.6.6,0,0,1-810.143,125.792Zm.932,0h.992a1.74,1.74,0,0,0,.836-.159,1.439,1.439,0,0,0,.555-.532,1.652,1.652,0,0,0,.187-.837v-.441a1.677,1.677,0,0,0-.169-.773,1.688,1.688,0,0,0-.592-.712,1.629,1.629,0,0,0-.826-.193h-.983Z" fill="#312783"/>
        <path id="Trazado_906" data-name="Trazado 906" d="M-803.426,124.424v1.368h2.378v-.5a.711.711,0,0,1,.129-.479.435.435,0,0,1,.34-.144.422.422,0,0,1,.333.144.7.7,0,0,1,.131.479v1.437H-804.5a.7.7,0,0,1-.48-.131.436.436,0,0,1-.143-.338.432.432,0,0,1,.146-.335.718.718,0,0,1,.477-.129h.146v-3.647h-.146a.722.722,0,0,1-.48-.129.444.444,0,0,1-.143-.339.444.444,0,0,1,.143-.34.722.722,0,0,1,.48-.129l4.184,0v1.419a.721.721,0,0,1-.127.476.433.433,0,0,1-.337.142.436.436,0,0,1-.338-.141.691.691,0,0,1-.13-.477v-.487h-2.174v1.346h.818a1,1,0,0,1,.069-.468.446.446,0,0,1,.4-.223.43.43,0,0,1,.335.144.713.713,0,0,1,.129.479V124.5a.794.794,0,0,1-.073.41.451.451,0,0,1-.391.213.446.446,0,0,1-.4-.223,1.01,1.01,0,0,1-.069-.472Z" fill="#312783"/>
        <path id="Trazado_907" data-name="Trazado 907" d="M-797.269,122.145v3.647h2.01v-.882a.722.722,0,0,1,.129-.48.444.444,0,0,1,.34-.143.431.431,0,0,1,.333.143.705.705,0,0,1,.131.48v1.815h-4.416a.708.708,0,0,1-.481-.131.435.435,0,0,1-.142-.338.439.439,0,0,1,.142-.335.725.725,0,0,1,.481-.129h.541v-3.647h-.541a.725.725,0,0,1-.481-.129.443.443,0,0,1-.142-.339.444.444,0,0,1,.142-.34.725.725,0,0,1,.481-.129l2.019,0a.726.726,0,0,1,.481.127.433.433,0,0,1,.142.337.443.443,0,0,1-.142.339.725.725,0,0,1-.481.129Z" fill="#312783"/>
        <path id="Trazado_908" data-name="Trazado 908" d="M-786.241,124.833v.959h.942a.722.722,0,0,1,.48.129.444.444,0,0,1,.143.34.431.431,0,0,1-.143.333.705.705,0,0,1-.48.131h-2.019a.706.706,0,0,1-.481-.131.435.435,0,0,1-.142-.338.431.431,0,0,1,.145-.335.72.72,0,0,1,.478-.129h.145v-3.647h-.145a.723.723,0,0,1-.481-.129.443.443,0,0,1-.142-.339.444.444,0,0,1,.142-.34.723.723,0,0,1,.481-.129l2.146,0a2.12,2.12,0,0,1,1.5.515,1.665,1.665,0,0,1,.552,1.258,1.679,1.679,0,0,1-.186.774,1.786,1.786,0,0,1-.472.539,2.586,2.586,0,0,1-.673.4,2.521,2.521,0,0,1-.906.134Zm0-.932h.865a1.547,1.547,0,0,0,.967-.275.819.819,0,0,0,.356-.662.732.732,0,0,0-.29-.573,1.234,1.234,0,0,0-.824-.246h-1.074Z" fill="#312783"/>
        <path id="Trazado_909" data-name="Trazado 909" d="M-777.495,123.969a2.88,2.88,0,0,1-.789,2.067,2.462,2.462,0,0,1-1.826.825,2.43,2.43,0,0,1-1.683-.687,2.856,2.856,0,0,1-.928-2.205,2.869,2.869,0,0,1,.928-2.21,2.43,2.43,0,0,1,1.683-.687,2.452,2.452,0,0,1,1.826.826A2.879,2.879,0,0,1-777.495,123.969Zm-.933,0a1.992,1.992,0,0,0-.514-1.407A1.556,1.556,0,0,0-780.11,122a1.55,1.55,0,0,0-1.165.56,2,2,0,0,0-.513,1.4,1.991,1.991,0,0,0,.513,1.4,1.55,1.55,0,0,0,1.165.557,1.556,1.556,0,0,0,1.168-.555A1.985,1.985,0,0,0-778.428,123.969Z" fill="#312783"/>
        <path id="Trazado_910" data-name="Trazado 910" d="M-776.609,125.792v-3.647a.634.634,0,0,1-.436-.135.429.429,0,0,1-.141-.333.435.435,0,0,1,.144-.34.713.713,0,0,1,.479-.129l1.951,0a2.456,2.456,0,0,1,.89.168,2.03,2.03,0,0,1,.7.428,3.008,3.008,0,0,1,.415.536,3.039,3.039,0,0,1,.326.678,2.686,2.686,0,0,1,.109.823v.446a2.57,2.57,0,0,1-.2,1.047,2.081,2.081,0,0,1-.526.746,2.651,2.651,0,0,1-.611.426,2.787,2.787,0,0,1-1.178.214h-1.873a.7.7,0,0,1-.479-.131.427.427,0,0,1-.144-.338.432.432,0,0,1,.144-.336A.6.6,0,0,1-776.609,125.792Zm.933,0h.991a1.744,1.744,0,0,0,.837-.159,1.453,1.453,0,0,0,.555-.532,1.663,1.663,0,0,0,.186-.837v-.441a1.689,1.689,0,0,0-.168-.773,1.7,1.7,0,0,0-.593-.712,1.626,1.626,0,0,0-.826-.193h-.982Z" fill="#312783"/>
        <path id="Trazado_911" data-name="Trazado 911" d="M-769.892,124.424v1.368h2.379v-.5a.711.711,0,0,1,.129-.479.433.433,0,0,1,.339-.144.423.423,0,0,1,.334.144.7.7,0,0,1,.13.479v1.437h-4.389a.705.705,0,0,1-.48-.131.436.436,0,0,1-.143-.338.432.432,0,0,1,.146-.335.718.718,0,0,1,.477-.129h.146v-3.647h-.146a.722.722,0,0,1-.48-.129.444.444,0,0,1-.143-.339.444.444,0,0,1,.143-.34.722.722,0,0,1,.48-.129l4.184,0v1.419a.716.716,0,0,1-.127.476.433.433,0,0,1-.337.142.436.436,0,0,1-.338-.141.691.691,0,0,1-.13-.477v-.487h-2.174v1.346h.819a1.019,1.019,0,0,1,.068-.468.446.446,0,0,1,.4-.223.429.429,0,0,1,.335.144.713.713,0,0,1,.129.479V124.5a.783.783,0,0,1-.073.41.451.451,0,0,1-.391.213.446.446,0,0,1-.4-.223,1.028,1.028,0,0,1-.068-.472Z" fill="#312783"/>
        <path id="Trazado_912" data-name="Trazado 912" d="M-764.307,124.619v1.173h.336a.723.723,0,0,1,.481.129.444.444,0,0,1,.142.34.43.43,0,0,1-.142.333.706.706,0,0,1-.481.131h-1.414a.7.7,0,0,1-.479-.131.427.427,0,0,1-.144-.338.431.431,0,0,1,.145-.335.721.721,0,0,1,.478-.129h.146v-3.647h-.146a.713.713,0,0,1-.479-.129.434.434,0,0,1-.144-.339.435.435,0,0,1,.144-.34.713.713,0,0,1,.479-.129l2.11,0a2.223,2.223,0,0,1,1.531.488,1.548,1.548,0,0,1,.543,1.19,1.33,1.33,0,0,1-.255.793,2.206,2.206,0,0,1-.768.635,5.989,5.989,0,0,1,.632.664q.208.259.564.809a.994.994,0,0,1,.468.073.455.455,0,0,1,.205.4.429.429,0,0,1-.141.333.692.692,0,0,1-.478.131h-.532a5.974,5.974,0,0,0-1.878-2.106Zm0-.932h.727a1.993,1.993,0,0,0,.723-.123,1.407,1.407,0,0,0,.577-.346.579.579,0,0,0,.147-.359.629.629,0,0,0-.282-.488,1.287,1.287,0,0,0-.824-.226h-1.068Z" fill="#312783"/>
        <path id="Trazado_913" data-name="Trazado 913" d="M-868.075,132.626a.632.632,0,0,1,.187-.177.437.437,0,0,1,.222-.059.432.432,0,0,1,.333.14.694.694,0,0,1,.131.478v.791a.7.7,0,0,1-.131.479.422.422,0,0,1-.333.144.426.426,0,0,1-.3-.1.718.718,0,0,1-.169-.391.562.562,0,0,0-.127-.3,1.294,1.294,0,0,0-.52-.327,1.938,1.938,0,0,0-.671-.123,1.633,1.633,0,0,0-.769.182,1.671,1.671,0,0,0-.618.591,1.734,1.734,0,0,0-.269.973v.6a1.457,1.457,0,0,0,.49,1.123,1.925,1.925,0,0,0,1.357.45,2.406,2.406,0,0,0,.877-.141,1.337,1.337,0,0,0,.446-.322,1.188,1.188,0,0,1,.227-.19.418.418,0,0,1,.187-.042.449.449,0,0,1,.327.141.453.453,0,0,1,.141.332.641.641,0,0,1-.191.409,1.9,1.9,0,0,1-.714.5,3.319,3.319,0,0,1-1.3.246,3.223,3.223,0,0,1-1.492-.341,2.367,2.367,0,0,1-.914-.863,2.333,2.333,0,0,1-.377-1.284v-.632a2.8,2.8,0,0,1,.34-1.358,2.383,2.383,0,0,1,.938-.97,2.529,2.529,0,0,1,1.273-.341,3,3,0,0,1,.757.092A2.456,2.456,0,0,1-868.075,132.626Z" fill="#312783"/>
        <path id="Trazado_914" data-name="Trazado 914" d="M-863.482,133.322v3.647h.941a.713.713,0,0,1,.479.129.434.434,0,0,1,.144.339.423.423,0,0,1-.144.334.7.7,0,0,1-.479.13h-2.815a.708.708,0,0,1-.481-.13.436.436,0,0,1-.142-.338.437.437,0,0,1,.142-.335.725.725,0,0,1,.481-.129h.941v-3.647h-.941a.725.725,0,0,1-.481-.129.443.443,0,0,1-.142-.34.443.443,0,0,1,.142-.339.725.725,0,0,1,.481-.129l2.815.005a.714.714,0,0,1,.479.127.424.424,0,0,1,.144.336.435.435,0,0,1-.144.34.713.713,0,0,1-.479.129Z" fill="#312783"/>
        <path id="Trazado_915" data-name="Trazado 915" d="M-856.229,133.322v2.642a1.98,1.98,0,0,1-.62,1.469,2.068,2.068,0,0,1-1.495.6,2.191,2.191,0,0,1-.812-.152,2.063,2.063,0,0,1-.682-.449,2.489,2.489,0,0,1-.47-.615,1.862,1.862,0,0,1-.168-.858v-2.642a.623.623,0,0,1-.437-.132.441.441,0,0,1-.141-.337.431.431,0,0,1,.141-.336.718.718,0,0,1,.482-.127l1.223-.005a.711.711,0,0,1,.479.129.434.434,0,0,1,.144.339.435.435,0,0,1-.144.34.711.711,0,0,1-.479.129h-.336v2.724a.979.979,0,0,0,.349.74,1.194,1.194,0,0,0,.838.319,1.275,1.275,0,0,0,.614-.154,1.23,1.23,0,0,0,.468-.45.858.858,0,0,0,.114-.455v-2.724h-.337a.713.713,0,0,1-.479-.129.435.435,0,0,1-.144-.34.434.434,0,0,1,.144-.339.713.713,0,0,1,.479-.129l1.224.005a.722.722,0,0,1,.48.127.433.433,0,0,1,.143.336.441.441,0,0,1-.141.337A.622.622,0,0,1-856.229,133.322Z" fill="#312783"/>
        <path id="Trazado_916" data-name="Trazado 916" d="M-854.855,136.969v-3.647a.636.636,0,0,1-.437-.135.43.43,0,0,1-.141-.334.434.434,0,0,1,.144-.339.713.713,0,0,1,.479-.129l1.951.005a2.456,2.456,0,0,1,.89.168,2.03,2.03,0,0,1,.7.427,3.017,3.017,0,0,1,.415.537,2.971,2.971,0,0,1,.326.677,2.693,2.693,0,0,1,.109.824v.445a2.574,2.574,0,0,1-.2,1.048,2.081,2.081,0,0,1-.526.746,2.632,2.632,0,0,1-.611.426,2.787,2.787,0,0,1-1.177.213h-1.874a.7.7,0,0,1-.479-.13.428.428,0,0,1-.144-.338.433.433,0,0,1,.144-.337A.6.6,0,0,1-854.855,136.969Zm.932,0h.991a1.745,1.745,0,0,0,.837-.159,1.453,1.453,0,0,0,.555-.532,1.666,1.666,0,0,0,.186-.837V135a1.689,1.689,0,0,0-.168-.773,1.693,1.693,0,0,0-.593-.713,1.633,1.633,0,0,0-.826-.192h-.982Z" fill="#312783"/>
        <path id="Trazado_917" data-name="Trazado 917" d="M-846.042,136.4h-2.265l-.227.568h.227a.725.725,0,0,1,.481.129.443.443,0,0,1,.142.339.431.431,0,0,1-.142.334.708.708,0,0,1-.481.13h-1.255a.708.708,0,0,1-.481-.13.436.436,0,0,1-.142-.338.432.432,0,0,1,.15-.341.716.716,0,0,1,.5-.123l1.464-3.647h-.609a.712.712,0,0,1-.479-.129.435.435,0,0,1-.144-.34.434.434,0,0,1,.144-.339.712.712,0,0,1,.479-.129l2.014.005,1.856,4.579a.843.843,0,0,1,.432.073.465.465,0,0,1,.209.395.43.43,0,0,1-.141.334.692.692,0,0,1-.478.13h-1.255a.7.7,0,0,1-.479-.13.428.428,0,0,1-.144-.338.429.429,0,0,1,.144-.335.713.713,0,0,1,.479-.129h.228Zm-.387-.933-.75-1.846-.755,1.846Z" fill="#312783"/>
        <path id="Trazado_918" data-name="Trazado 918" d="M-843.677,136.969v-3.647a.637.637,0,0,1-.437-.135.43.43,0,0,1-.141-.334.434.434,0,0,1,.144-.339.713.713,0,0,1,.479-.129l1.951.005a2.456,2.456,0,0,1,.89.168,2.029,2.029,0,0,1,.7.427,2.975,2.975,0,0,1,.416.537,2.963,2.963,0,0,1,.325.677,2.69,2.69,0,0,1,.11.824v.445a2.592,2.592,0,0,1-.2,1.048,2.106,2.106,0,0,1-.526.746,2.651,2.651,0,0,1-.611.426,2.8,2.8,0,0,1-1.178.213h-1.874a.7.7,0,0,1-.479-.13.428.428,0,0,1-.144-.338.433.433,0,0,1,.144-.337A.6.6,0,0,1-843.677,136.969Zm.932,0h.991a1.744,1.744,0,0,0,.837-.159,1.446,1.446,0,0,0,.555-.532,1.665,1.665,0,0,0,.186-.837V135a1.689,1.689,0,0,0-.168-.773,1.693,1.693,0,0,0-.593-.713,1.633,1.633,0,0,0-.826-.192h-.982Z" fill="#312783"/>
        <path id="Trazado_919" data-name="Trazado 919" d="M-834.864,136.4h-2.265l-.227.568h.227a.723.723,0,0,1,.481.129.443.443,0,0,1,.142.339.431.431,0,0,1-.142.334.706.706,0,0,1-.481.13h-1.255a.705.705,0,0,1-.48-.13.437.437,0,0,1-.143-.338.432.432,0,0,1,.15-.341.716.716,0,0,1,.5-.123l1.464-3.647h-.609a.711.711,0,0,1-.479-.129.435.435,0,0,1-.144-.34.434.434,0,0,1,.144-.339.711.711,0,0,1,.479-.129l2.014.005,1.856,4.579a.843.843,0,0,1,.432.073.465.465,0,0,1,.209.395.43.43,0,0,1-.141.334.691.691,0,0,1-.477.13h-1.256a.7.7,0,0,1-.479-.13.428.428,0,0,1-.144-.338.429.429,0,0,1,.144-.335.713.713,0,0,1,.479-.129h.228Zm-.387-.933-.75-1.846-.755,1.846Z" fill="#312783"/>
        <path id="Trazado_920" data-name="Trazado 920" d="M-831.581,134.149v2.82h.337a.713.713,0,0,1,.479.129.434.434,0,0,1,.144.339.423.423,0,0,1-.144.334.7.7,0,0,1-.479.13h-1.223a.706.706,0,0,1-.481-.13.436.436,0,0,1-.142-.338.434.434,0,0,1,.141-.332.62.62,0,0,1,.436-.132v-3.647h-.145a.723.723,0,0,1-.481-.129.444.444,0,0,1-.142-.34.443.443,0,0,1,.142-.339.723.723,0,0,1,.481-.129l1.077.005,2.383,3.738v-2.806h-.336a.712.712,0,0,1-.479-.129.435.435,0,0,1-.144-.34.434.434,0,0,1,.144-.339.712.712,0,0,1,.479-.129l1.223.005a.724.724,0,0,1,.481.127.432.432,0,0,1,.142.336.441.441,0,0,1-.141.337.614.614,0,0,1-.432.132V137.9h-.923Z" fill="#312783"/>
        <path id="Trazado_921" data-name="Trazado 921" d="M-822.208,135.145a2.885,2.885,0,0,1-.788,2.068,2.465,2.465,0,0,1-1.827.825,2.429,2.429,0,0,1-1.682-.687,2.853,2.853,0,0,1-.928-2.206,2.867,2.867,0,0,1,.928-2.21,2.428,2.428,0,0,1,1.682-.686,2.456,2.456,0,0,1,1.827.826A2.88,2.88,0,0,1-822.208,135.145Zm-.932,0a1.989,1.989,0,0,0-.514-1.406,1.555,1.555,0,0,0-1.169-.558,1.549,1.549,0,0,0-1.164.559,2,2,0,0,0-.514,1.4,1.989,1.989,0,0,0,.514,1.4,1.552,1.552,0,0,0,1.164.556,1.56,1.56,0,0,0,1.169-.554A1.987,1.987,0,0,0-823.14,135.145Z" fill="#312783"/>
        <path id="Trazado_922" data-name="Trazado 922" d="M-814.186,136.009v.96h.942a.722.722,0,0,1,.48.129.444.444,0,0,1,.143.339.432.432,0,0,1-.143.334.705.705,0,0,1-.48.13h-2.02a.705.705,0,0,1-.48-.13.437.437,0,0,1-.143-.338.431.431,0,0,1,.146-.335.718.718,0,0,1,.477-.129h.146v-3.647h-.146a.722.722,0,0,1-.48-.129.444.444,0,0,1-.143-.34.444.444,0,0,1,.143-.339.722.722,0,0,1,.48-.129l2.147.005a2.117,2.117,0,0,1,1.5.515,1.665,1.665,0,0,1,.552,1.258,1.661,1.661,0,0,1-.187.773,1.772,1.772,0,0,1-.471.54,2.586,2.586,0,0,1-.673.4,2.552,2.552,0,0,1-.907.133Zm0-.932h.864a1.551,1.551,0,0,0,.967-.274.82.82,0,0,0,.357-.663.735.735,0,0,0-.29-.573,1.24,1.24,0,0,0-.825-.245h-1.073Z" fill="#312783"/>
        <path id="Trazado_923" data-name="Trazado 923" d="M-806.919,136.4h-2.264l-.228.568h.228a.722.722,0,0,1,.48.129.444.444,0,0,1,.143.339.432.432,0,0,1-.143.334.705.705,0,0,1-.48.13h-1.256a.705.705,0,0,1-.48-.13.437.437,0,0,1-.143-.338.432.432,0,0,1,.15-.341.72.72,0,0,1,.5-.123l1.465-3.647h-.61a.713.713,0,0,1-.479-.129.435.435,0,0,1-.144-.34.434.434,0,0,1,.144-.339.713.713,0,0,1,.479-.129l2.015.005,1.855,4.579a.843.843,0,0,1,.432.073.463.463,0,0,1,.209.395.43.43,0,0,1-.141.334.691.691,0,0,1-.477.13h-1.255a.7.7,0,0,1-.479-.13.428.428,0,0,1-.144-.338.429.429,0,0,1,.144-.335.711.711,0,0,1,.479-.129h.227Zm-.386-.933-.751-1.846-.755,1.846Z" fill="#312783"/>
        <path id="Trazado_924" data-name="Trazado 924" d="M-803.431,135.8v1.173h.337a.722.722,0,0,1,.48.129.444.444,0,0,1,.143.339.432.432,0,0,1-.143.334.705.705,0,0,1-.48.13h-1.414a.7.7,0,0,1-.479-.13.428.428,0,0,1-.144-.338.43.43,0,0,1,.145-.335.719.719,0,0,1,.478-.129h.145v-3.647h-.145a.712.712,0,0,1-.479-.129.435.435,0,0,1-.144-.34.434.434,0,0,1,.144-.339.712.712,0,0,1,.479-.129l2.11.005a2.218,2.218,0,0,1,1.531.488,1.55,1.55,0,0,1,.542,1.19,1.324,1.324,0,0,1-.254.792,2.192,2.192,0,0,1-.769.636,5.81,5.81,0,0,1,.632.664,9.638,9.638,0,0,1,.564.809.982.982,0,0,1,.469.073.453.453,0,0,1,.2.395.43.43,0,0,1-.141.334.691.691,0,0,1-.477.13h-.532a5.967,5.967,0,0,0-1.878-2.1Zm0-.933h.728a1.993,1.993,0,0,0,.723-.122,1.417,1.417,0,0,0,.576-.346.58.58,0,0,0,.147-.359.627.627,0,0,0-.282-.488,1.283,1.283,0,0,0-.823-.226h-1.069Z" fill="#312783"/>
        <path id="Trazado_925" data-name="Trazado 925" d="M-795.741,136.4h-2.264l-.228.568h.228a.722.722,0,0,1,.48.129.444.444,0,0,1,.143.339.432.432,0,0,1-.143.334.705.705,0,0,1-.48.13h-1.255a.707.707,0,0,1-.481-.13.436.436,0,0,1-.142-.338.432.432,0,0,1,.15-.341.715.715,0,0,1,.495-.123l1.465-3.647h-.61a.713.713,0,0,1-.479-.129.435.435,0,0,1-.144-.34.434.434,0,0,1,.144-.339.713.713,0,0,1,.479-.129l2.015.005,1.855,4.579a.838.838,0,0,1,.432.073.464.464,0,0,1,.21.395.43.43,0,0,1-.141.334.694.694,0,0,1-.478.13h-1.255a.7.7,0,0,1-.479-.13.428.428,0,0,1-.144-.338.429.429,0,0,1,.144-.335.713.713,0,0,1,.479-.129h.227Zm-.386-.933-.75-1.846-.755,1.846Z" fill="#312783"/>
        <path id="Trazado_926" data-name="Trazado 926" d="M-786.09,133.322v3.647h2.01v-.882a.729.729,0,0,1,.128-.481.445.445,0,0,1,.34-.142.429.429,0,0,1,.333.142.706.706,0,0,1,.131.481V137.9h-4.416a.705.705,0,0,1-.48-.13.437.437,0,0,1-.143-.338.438.438,0,0,1,.143-.335.722.722,0,0,1,.48-.129h.541v-3.647h-.541a.722.722,0,0,1-.48-.129.444.444,0,0,1-.143-.34.444.444,0,0,1,.143-.339.722.722,0,0,1,.48-.129l2.019.005a.724.724,0,0,1,.481.127.432.432,0,0,1,.142.336.443.443,0,0,1-.142.34.723.723,0,0,1-.481.129Z" fill="#312783"/>
        <path id="Trazado_927" data-name="Trazado 927" d="M-778.973,136.4h-2.265l-.228.568h.228a.722.722,0,0,1,.48.129.444.444,0,0,1,.143.339.432.432,0,0,1-.143.334.705.705,0,0,1-.48.13h-1.255a.706.706,0,0,1-.481-.13.436.436,0,0,1-.142-.338.432.432,0,0,1,.15-.341.715.715,0,0,1,.495-.123l1.465-3.647h-.61a.713.713,0,0,1-.479-.129.435.435,0,0,1-.144-.34.434.434,0,0,1,.144-.339.713.713,0,0,1,.479-.129l2.015.005,1.855,4.579a.838.838,0,0,1,.432.073.464.464,0,0,1,.21.395.43.43,0,0,1-.141.334.692.692,0,0,1-.478.13h-1.255a.7.7,0,0,1-.479-.13.428.428,0,0,1-.144-.338.429.429,0,0,1,.144-.335.713.713,0,0,1,.479-.129h.227Zm-.387-.933-.75-1.846-.755,1.846Z" fill="#312783"/>
        <path id="Trazado_928" data-name="Trazado 928" d="M-770.3,137.665a.8.8,0,0,1-.2.186.367.367,0,0,1-.183.041.45.45,0,0,1-.345-.142.721.721,0,0,1-.128-.476v-.628a.719.719,0,0,1,.128-.479.441.441,0,0,1,.345-.144.435.435,0,0,1,.274.086.553.553,0,0,1,.171.289.777.777,0,0,0,.123.275,1.441,1.441,0,0,0,.468.287,1.84,1.84,0,0,0,.737.145,1.7,1.7,0,0,0,1.023-.291.519.519,0,0,0,.255-.436.515.515,0,0,0-.123-.326.9.9,0,0,0-.4-.252,6.4,6.4,0,0,0-.814-.186,4.423,4.423,0,0,1-1.155-.341,1.554,1.554,0,0,1-.619-.564,1.464,1.464,0,0,1-.227-.787,1.535,1.535,0,0,1,.559-1.172,2.1,2.1,0,0,1,1.456-.5,2.636,2.636,0,0,1,.665.08,1.856,1.856,0,0,1,.558.242.528.528,0,0,1,.364-.177.422.422,0,0,1,.333.144.688.688,0,0,1,.131.475v.7a.7.7,0,0,1-.131.48.431.431,0,0,1-.333.143.458.458,0,0,1-.3-.1.517.517,0,0,1-.15-.309.858.858,0,0,0-.128-.332,1.006,1.006,0,0,0-.4-.291,1.476,1.476,0,0,0-.61-.118,1.252,1.252,0,0,0-.8.233.646.646,0,0,0-.294.49.546.546,0,0,0,.121.335.771.771,0,0,0,.352.252,6.956,6.956,0,0,0,.87.2,5.514,5.514,0,0,1,1.1.309,1.525,1.525,0,0,1,.64.528,1.437,1.437,0,0,1,.255.855,1.376,1.376,0,0,1-.487,1.105,2.46,2.46,0,0,1-1.646.546,3.06,3.06,0,0,1-.754-.094A3.055,3.055,0,0,1-770.3,137.665Z" fill="#312783"/>
        <path id="Trazado_929" data-name="Trazado 929" d="M-762.206,136.4h-2.265l-.227.568h.227a.725.725,0,0,1,.481.129.443.443,0,0,1,.142.339.431.431,0,0,1-.142.334.708.708,0,0,1-.481.13h-1.255a.708.708,0,0,1-.481-.13.436.436,0,0,1-.142-.338.432.432,0,0,1,.15-.341.716.716,0,0,1,.5-.123l1.464-3.647h-.609a.712.712,0,0,1-.479-.129.435.435,0,0,1-.144-.34.434.434,0,0,1,.144-.339.712.712,0,0,1,.479-.129l2.014.005,1.856,4.579a.843.843,0,0,1,.432.073.465.465,0,0,1,.209.395.43.43,0,0,1-.141.334.692.692,0,0,1-.478.13h-1.255a.7.7,0,0,1-.479-.13.428.428,0,0,1-.144-.338.429.429,0,0,1,.144-.335.713.713,0,0,1,.479-.129h.228Zm-.387-.933-.75-1.846-.755,1.846Z" fill="#312783"/>
        <path id="Trazado_930" data-name="Trazado 930" d="M-758.145,133.322v3.647h2.01v-.882a.723.723,0,0,1,.129-.481.443.443,0,0,1,.339-.142.431.431,0,0,1,.334.142.706.706,0,0,1,.13.481V137.9h-4.416a.705.705,0,0,1-.48-.13.437.437,0,0,1-.143-.338.438.438,0,0,1,.143-.335.722.722,0,0,1,.48-.129h.542v-3.647h-.542a.722.722,0,0,1-.48-.129.444.444,0,0,1-.143-.34.444.444,0,0,1,.143-.339.722.722,0,0,1,.48-.129l2.02.005a.722.722,0,0,1,.48.127.433.433,0,0,1,.143.336.444.444,0,0,1-.143.34.722.722,0,0,1-.48.129Z" fill="#312783"/>
        <path id="Trazado_931" data-name="Trazado 931" d="M-750.037,133.322v2.642a1.977,1.977,0,0,1-.62,1.469,2.067,2.067,0,0,1-1.494.6,2.2,2.2,0,0,1-.813-.152,2.074,2.074,0,0,1-.682-.449,2.488,2.488,0,0,1-.47-.615,1.862,1.862,0,0,1-.168-.858v-2.642a.622.622,0,0,1-.437-.132.441.441,0,0,1-.141-.337.431.431,0,0,1,.141-.336.718.718,0,0,1,.482-.127l1.224-.005a.713.713,0,0,1,.479.129.434.434,0,0,1,.144.339.435.435,0,0,1-.144.34.713.713,0,0,1-.479.129h-.337v2.724a.979.979,0,0,0,.349.74,1.2,1.2,0,0,0,.838.319,1.274,1.274,0,0,0,.614-.154,1.229,1.229,0,0,0,.468-.45.859.859,0,0,0,.114-.455v-2.724h-.336a.714.714,0,0,1-.48-.129.435.435,0,0,1-.144-.34.434.434,0,0,1,.144-.339.714.714,0,0,1,.48-.129l1.223.005a.722.722,0,0,1,.48.127.433.433,0,0,1,.143.336.441.441,0,0,1-.141.337A.622.622,0,0,1-750.037,133.322Z" fill="#312783"/>
        <path id="Trazado_932" data-name="Trazado 932" d="M-748.663,136.969v-3.647a.637.637,0,0,1-.437-.135.43.43,0,0,1-.141-.334.434.434,0,0,1,.144-.339.713.713,0,0,1,.479-.129l1.951.005a2.456,2.456,0,0,1,.89.168,2.029,2.029,0,0,1,.7.427,2.969,2.969,0,0,1,.416.537,3.012,3.012,0,0,1,.326.677,2.723,2.723,0,0,1,.109.824v.445a2.592,2.592,0,0,1-.2,1.048,2.105,2.105,0,0,1-.526.746,2.652,2.652,0,0,1-.611.426,2.8,2.8,0,0,1-1.178.213h-1.874a.7.7,0,0,1-.479-.13.428.428,0,0,1-.144-.338.433.433,0,0,1,.144-.337A.6.6,0,0,1-748.663,136.969Zm.932,0h.991a1.744,1.744,0,0,0,.837-.159,1.446,1.446,0,0,0,.555-.532,1.665,1.665,0,0,0,.186-.837V135a1.689,1.689,0,0,0-.168-.773,1.693,1.693,0,0,0-.593-.713,1.634,1.634,0,0,0-.826-.192h-.982Z" fill="#312783"/>
      </g>
    </g>
  </g>
</svg>
