<svg xmlns="http://www.w3.org/2000/svg" width="220" height="190" viewBox="0 0 220 190">
  <g id="Grupo_286" data-name="Grupo 286" transform="translate(-2219 -1537)">
    <rect id="Rectángulo_91" data-name="Rectángulo 91" width="220" height="190" transform="translate(2219 1537)" fill="none"/>
    <g id="Grupo_270" data-name="Grupo 270" transform="translate(2932 1531.587)">
      <g id="Grupo_265" data-name="Grupo 265">
        <g id="Grupo_264" data-name="Grupo 264">
          <path id="Trazado_933" data-name="Trazado 933" d="M-631.876,78.8l-19.579,9.2v30.847h19.579Z" fill="#2c3667"/>
          <path id="Trazado_934" data-name="Trazado 934" d="M-713,78.8v40.045h19.727V87.96Z" fill="#2c3667"/>
          <path id="Trazado_935" data-name="Trazado 935" d="M-633.576,77.688l-38.567,18.027-39.9-18.766a.713.713,0,0,1,0-.591c.148-.3.591-.3.591-.3l39.158,18.471L-634.019,76.8a.524.524,0,0,1,.443.3A.713.713,0,0,1-633.576,77.688Z" fill="#969bb1"/>
          <path id="Trazado_936" data-name="Trazado 936" d="M-637.55,76.969-672.065,92.76-707.77,76.322a.615.615,0,0,1,0-.518c.133-.259.529-.259.529-.259L-672.2,91.724l34.25-15.532a.473.473,0,0,1,.4.259A.615.615,0,0,1-637.55,76.969Z" fill="#969bb1"/>
          <circle id="Elipse_13" data-name="Elipse 13" cx="5.911" cy="5.911" r="5.911" transform="translate(-708.715 69.413)" fill="#2c3667"/>
          <circle id="Elipse_14" data-name="Elipse 14" cx="5.911" cy="5.911" r="5.911" transform="translate(-648.278 69.487)" fill="#2c3667"/>
          <circle id="Elipse_15" data-name="Elipse 15" cx="5.098" cy="5.098" r="5.098" transform="translate(-667.931 79.756)" fill="#2c3667"/>
          <circle id="Elipse_16" data-name="Elipse 16" cx="5.098" cy="5.098" r="5.098" transform="translate(-687.584 79.83)" fill="#2c3667"/>
          <g id="Grupo_263" data-name="Grupo 263">
            <g id="Grupo_261" data-name="Grupo 261">
              <path id="Trazado_937" data-name="Trazado 937" d="M-670.207,96.672a.83.83,0,0,0,.355-.144,9.55,9.55,0,0,1,3.116,1.51.719.719,0,0,0-.161.559h-1.33s-.591,0-.591.443a1.02,1.02,0,0,0,.443.739v3.546a5.409,5.409,0,0,0-3.62-1.866v1.8c2.287.114,3.833,1.55,3.62,3.464a9.8,9.8,0,0,1-1.108,2.586c-.37.816-1.108,2.586-1.108,2.586s-.692.03-1.4.032v1.931c.207-.048.415-.111.665-.19l-.443,1.182a1.178,1.178,0,0,0,.295,1.625,5.328,5.328,0,0,0,2.808,1.035v.148a9.23,9.23,0,0,1-1.921.591,2.013,2.013,0,0,0-1.4-1.872v2.463h19.653V88.4Zm10.255,19.213c-3.694,2.808-9.6,1.182-11.083.739s-.147-2.512-.147-2.512l3.1-6.629V99.409h-.148a.222.222,0,0,1-.222-.221.223.223,0,0,1,.222-.222h4.581a.222.222,0,0,1,.221.222.221.221,0,0,1-.221.221h-.148v5.943l3.694,9.5C-659.8,115.59-659.952,115.885-659.952,115.885Zm-1.99-10.695a3.851,3.851,0,0,0-1.409.647l-.295-.886.059-3.753A11.156,11.156,0,0,1-661.942,105.19Z" fill="#2c3667"/>
            </g>
            <path id="Trazado_938" data-name="Trazado 938" d="M-664.681,105.246s1.7,8.053,2.217,10.787c.031.162.148.3.591.3a.779.779,0,0,0,.739-.739C-661.208,115.22-661.5,112.561-664.681,105.246Z" fill="#2c3667"/>
            <path id="Trazado_939" data-name="Trazado 939" d="M-670.6,96.852l-1.4.647v.956A1.993,1.993,0,0,0-670.6,96.852Z" fill="#2c3667"/>
            <rect id="Rectángulo_86" data-name="Rectángulo 86" width="0.591" height="5.024" transform="translate(-665.124 99.631)" fill="#2c3667"/>
            <path id="Trazado_940" data-name="Trazado 940" d="M-670.591,96.823l-.005.029.389-.18A.9.9,0,0,0-670.591,96.823Z" fill="#2c3667"/>
            <g id="Grupo_262" data-name="Grupo 262">
              <path id="Trazado_941" data-name="Trazado 941" d="M-692.387,88.369v30.472h19.653v-2.585h-.037a2.065,2.065,0,0,0-2.253,2,11.228,11.228,0,0,1-4.614-1.836,2.176,2.176,0,0,0,.624-1.526,2.18,2.18,0,0,0-2.18-2.18,2.171,2.171,0,0,0-1.374.489,11.141,11.141,0,0,1-1.438-3.818,2.267,2.267,0,0,0,2.258-2.175,2.259,2.259,0,0,0-2.188-2.171,11.155,11.155,0,0,1,1.486-3.64,2.482,2.482,0,0,0,1.441.454,2.277,2.277,0,0,0,2.364-2.179,2.088,2.088,0,0,0-.679-1.528,11.154,11.154,0,0,1,4.079-1.747v.024a2.278,2.278,0,0,0,2.364,2.18c.05,0,.1,0,.148-.006V97.432Z" fill="#2c3667"/>
              <path id="Trazado_942" data-name="Trazado 942" d="M-679.236,107.684a6.28,6.28,0,0,0,6.28,6.28c.079,0,.152,0,.222,0v-2.041c-.135,0-.26-.012-.369-.022v-.444c-1.33,0-2.143.37-2.586.074-.158-.105-.4-1.11-.517-1.256-.081-.1.589-.266.517-.369-.089-.126-.812-.013-.887-.148-.043-.078.06-.409,0-.591-.078-.239-.628.034-.665-.222-.03-.208,1.256-1.483,1.256-1.7,0-.409-.564-.22-.591-.591-.137-1.92,1.916-3.2,3.842-3.377v-1.865c-.073,0-.146,0-.222,0A6.28,6.28,0,0,0-679.236,107.684Z" fill="#2c3667"/>
            </g>
          </g>
        </g>
        <rect id="Rectángulo_87" data-name="Rectángulo 87" width="80.976" height="3.251" transform="translate(-712.926 121.427)" fill="#2c3667"/>
        <rect id="Rectángulo_88" data-name="Rectángulo 88" width="80.976" height="3.251" transform="translate(-712.926 127.337)" fill="#2c3667"/>
      </g>
      <rect id="Rectángulo_89" data-name="Rectángulo 89" width="127.966" height="1.625" transform="translate(-623.035 119.284)" fill="#231f20"/>
      <g id="Grupo_267" data-name="Grupo 267">
        <g id="Grupo_266" data-name="Grupo 266">
          <path id="Trazado_943" data-name="Trazado 943" d="M-591.459,70.775h4.057l3.914,15.875-5.318,1.711a29.941,29.941,0,0,0-5-8.049,9.858,9.858,0,0,0-7.061-3.263,8.81,8.81,0,0,0-5.19,1.711,11.481,11.481,0,0,0-3.831,5.038,19.809,19.809,0,0,0-1.415,7.8,20.785,20.785,0,0,0,3.245,11.724q3.244,4.911,8.506,4.911a11.194,11.194,0,0,0,6.432-2.123,23.7,23.7,0,0,0,6.662-7.066l4.431,3.644q-4.314,6.528-7.885,9.094a20.564,20.564,0,0,1-12.285,3.961,18.147,18.147,0,0,1-10.185-3,21.142,21.142,0,0,1-7.271-8.381,25.754,25.754,0,0,1-2.714-11.755,25.169,25.169,0,0,1,2.642-11.55,20.3,20.3,0,0,1,7.2-8.127,18.446,18.446,0,0,1,10.156-2.916,18.511,18.511,0,0,1,9.971,2.662Z" fill="#2c3667"/>
          <path id="Trazado_944" data-name="Trazado 944" d="M-579.076,70.669h16.1L-551.344,96.7V80.773a9.542,9.542,0,0,0-.2-2.558,2.046,2.046,0,0,0-.768-1.071,3.919,3.919,0,0,0-1.878-.3h-1.934V70.669h16.355V76.84h-1.81a3.939,3.939,0,0,0-1.937.351,1.858,1.858,0,0,0-.8.96,9.3,9.3,0,0,0-.227,2.622v34.5h-8.163L-567.443,82.4v22.99a8.992,8.992,0,0,0,.212,2.526,1.7,1.7,0,0,0,.764.863,4.078,4.078,0,0,0,1.908.32h1.9v6.171h-16.412V109.1h1.7a4.692,4.692,0,0,0,1.936-.272,1.917,1.917,0,0,0,.835-.943,5.015,5.015,0,0,0,.311-2.015V80.293a6.081,6.081,0,0,0-.283-2.158,2.038,2.038,0,0,0-.763-.991,3.162,3.162,0,0,0-1.612-.3h-2.121Z" fill="#2c3667"/>
          <path id="Trazado_945" data-name="Trazado 945" d="M-537.109,70.542h19.554V76.71h-1.924a3.72,3.72,0,0,0-1.881.351,2.033,2.033,0,0,0-.818,1.007,8.744,8.744,0,0,0-.259,2.668V96.968a20.963,20.963,0,0,0,.82,6.775,6.946,6.946,0,0,0,2.474,3.4,6.782,6.782,0,0,0,4.013,1.166,7.185,7.185,0,0,0,4.2-1.278,7.145,7.145,0,0,0,2.633-3.243,19.047,19.047,0,0,0,.791-6.5V79.394a3.6,3.6,0,0,0-.258-1.6,1.951,1.951,0,0,0-.919-.895,6.3,6.3,0,0,0-2.039-.191h-1.55V70.542h16.538V76.71h-1.292a6.45,6.45,0,0,0-2.383.255,2.267,2.267,0,0,0-1.005,1.119,8.575,8.575,0,0,0-.23,2.652V98.311a22.879,22.879,0,0,1-1.263,8.148,14.184,14.184,0,0,1-5.585,6.95,16.374,16.374,0,0,1-9.087,2.476,16.62,16.62,0,0,1-6.633-1.262,15.158,15.158,0,0,1-5.125-3.611,13.62,13.62,0,0,1-3.072-4.969,25.839,25.839,0,0,1-.876-7.732V81.087a12.274,12.274,0,0,0-.23-3.051,1.8,1.8,0,0,0-.746-1.007,4.264,4.264,0,0,0-2.01-.319h-1.838Z" fill="#2c3667"/>
        </g>
      </g>
      <g id="Grupo_269" data-name="Grupo 269">
        <g id="Grupo_268" data-name="Grupo 268">
          <path id="Trazado_946" data-name="Trazado 946" d="M-621.254,123.363h.505l.488,1.877-.663.2a3.485,3.485,0,0,0-.623-.951,1.251,1.251,0,0,0-.879-.386,1.134,1.134,0,0,0-.646.2,1.368,1.368,0,0,0-.478.6,2.242,2.242,0,0,0-.176.921,2.367,2.367,0,0,0,.4,1.385,1.238,1.238,0,0,0,1.06.58,1.449,1.449,0,0,0,.8-.25,2.881,2.881,0,0,0,.829-.835l.552.43a4.221,4.221,0,0,1-.982,1.075,2.657,2.657,0,0,1-1.53.468,2.346,2.346,0,0,1-1.268-.354,2.555,2.555,0,0,1-.906-.99,2.924,2.924,0,0,1-.338-1.39,2.85,2.85,0,0,1,.329-1.364,2.455,2.455,0,0,1,.9-.961,2.4,2.4,0,0,1,1.265-.344,2.408,2.408,0,0,1,1.242.314Z" fill="#2c3667"/>
          <path id="Trazado_947" data-name="Trazado 947" d="M-617.648,124.785a2.164,2.164,0,0,1,1.061.249,1.757,1.757,0,0,1,.7.679,2,2,0,0,1,.244,1.007,1.918,1.918,0,0,1-.541,1.414,1.951,1.951,0,0,1-1.446.543,1.978,1.978,0,0,1-1.467-.547,1.893,1.893,0,0,1-.527-1.41,1.986,1.986,0,0,1,.241-1.005,1.782,1.782,0,0,1,.7-.675A2.1,2.1,0,0,1-617.648,124.785Zm.014.815a.649.649,0,0,0-.381.126.825.825,0,0,0-.276.372,1.716,1.716,0,0,0-.1.626,1.841,1.841,0,0,0,.1.647.79.79,0,0,0,.265.379.619.619,0,0,0,.372.123.672.672,0,0,0,.538-.277,1.363,1.363,0,0,0,.224-.861,1.432,1.432,0,0,0-.208-.85A.635.635,0,0,0-617.634,125.6Z" fill="#2c3667"/>
          <path id="Trazado_948" data-name="Trazado 948" d="M-613.534,124.874v.5a2.993,2.993,0,0,1,.684-.39,1.662,1.662,0,0,1,.581-.1,1.184,1.184,0,0,1,.606.153.966.966,0,0,1,.383.381,1.426,1.426,0,0,1,.12.65v1.547a.72.72,0,0,0,.027.253.166.166,0,0,0,.083.082.906.906,0,0,0,.254.019h.173v.718H-612.7v-.718a2.574,2.574,0,0,0,.265-.011.176.176,0,0,0,.116-.086.72.72,0,0,0,.028-.256v-1.363a.7.7,0,0,0-.053-.342.3.3,0,0,0-.268-.13.865.865,0,0,0-.325.071,2.332,2.332,0,0,0-.466.289v1.475a.535.535,0,0,0,.049.3.343.343,0,0,0,.239.056H-613v.718h-2.052v-.718h.1a1.213,1.213,0,0,0,.3-.022.164.164,0,0,0,.089-.079.544.544,0,0,0,.03-.219v-1.73h-.523v-.718a4.538,4.538,0,0,0,1.188-.317Z" fill="#2c3667"/>
          <path id="Trazado_949" data-name="Trazado 949" d="M-607.718,124.875h.463l.287,1.034-.669.283a1.467,1.467,0,0,0-.48-.508,1.052,1.052,0,0,0-.571-.184.484.484,0,0,0-.28.066.2.2,0,0,0-.092.16.207.207,0,0,0,.066.146.8.8,0,0,0,.271.141l.973.365a2.9,2.9,0,0,1,.495.241.994.994,0,0,1,.356.356.986.986,0,0,1,.118.493,1.051,1.051,0,0,1-.368.829,1.57,1.57,0,0,1-1.075.38,1.612,1.612,0,0,1-.963-.294l-.1.205h-.471l-.435-1.221.669-.3a1.979,1.979,0,0,0,.619.649,1.283,1.283,0,0,0,.676.236.542.542,0,0,0,.322-.093.215.215,0,0,0,.1-.175.234.234,0,0,0-.078-.164,1.029,1.029,0,0,0-.343-.174l-.764-.279a2.117,2.117,0,0,1-.862-.5.936.936,0,0,1-.228-.631,1.016,1.016,0,0,1,.357-.788,1.451,1.451,0,0,1,1.005-.365,1.6,1.6,0,0,1,.91.253Z" fill="#2c3667"/>
          <path id="Trazado_950" data-name="Trazado 950" d="M-602.98,127.211l.485.513a2.842,2.842,0,0,1-.851.728,2,2,0,0,1-.935.225,1.808,1.808,0,0,1-1.357-.575,1.933,1.933,0,0,1-.552-1.39,1.98,1.98,0,0,1,.248-.98,1.793,1.793,0,0,1,.686-.7,1.964,1.964,0,0,1,.993-.251,1.826,1.826,0,0,1,.643.108,1.517,1.517,0,0,1,.508.309,1.55,1.55,0,0,1,.35.485,2.262,2.262,0,0,1,.182.59,3.945,3.945,0,0,1,.021.484h-2.379a1.142,1.142,0,0,0,.263.764.8.8,0,0,0,.628.292,1.1,1.1,0,0,0,.516-.15A2.092,2.092,0,0,0-602.98,127.211Zm-.707-1.075a.876.876,0,0,0-.1-.352.572.572,0,0,0-.2-.2.529.529,0,0,0-.272-.077.576.576,0,0,0-.287.078.618.618,0,0,0-.222.212.851.851,0,0,0-.108.343Z" fill="#2c3667"/>
          <path id="Trazado_951" data-name="Trazado 951" d="M-600.356,124.848v3.761a1.68,1.68,0,0,1-.16.818,1.193,1.193,0,0,1-.531.462,1.976,1.976,0,0,1-.881.182,1.725,1.725,0,0,1-.634-.1.9.9,0,0,1-.393-.277.584.584,0,0,1-.131-.357.415.415,0,0,1,.16-.33.544.544,0,0,1,.362-.136.557.557,0,0,1,.264.074,1.273,1.273,0,0,1,.32.279.3.3,0,0,0,.2.123.219.219,0,0,0,.189-.1.605.605,0,0,0,.07-.343V125.82h-.541v-.671a3.661,3.661,0,0,0,.708-.079,3.07,3.07,0,0,0,.653-.222Zm-.591-1.574a.658.658,0,0,1,.473.188.615.615,0,0,1,.2.458.614.614,0,0,1-.2.455.653.653,0,0,1-.473.191.649.649,0,0,1-.469-.189.613.613,0,0,1-.2-.457.615.615,0,0,1,.2-.458A.652.652,0,0,1-600.947,123.274Z" fill="#2c3667"/>
          <path id="Trazado_952" data-name="Trazado 952" d="M-597.566,124.785a2.152,2.152,0,0,1,1.058.249,1.758,1.758,0,0,1,.694.679,2.012,2.012,0,0,1,.244,1.007,1.921,1.921,0,0,1-.54,1.414,1.942,1.942,0,0,1-1.442.543,1.97,1.97,0,0,1-1.463-.547,1.9,1.9,0,0,1-.525-1.41,2,2,0,0,1,.24-1.005,1.776,1.776,0,0,1,.694-.675A2.09,2.09,0,0,1-597.566,124.785Zm.014.815a.646.646,0,0,0-.38.126.816.816,0,0,0-.275.372,1.718,1.718,0,0,0-.1.626,1.893,1.893,0,0,0,.1.647.8.8,0,0,0,.265.379.614.614,0,0,0,.371.123.669.669,0,0,0,.536-.277,1.363,1.363,0,0,0,.224-.861,1.432,1.432,0,0,0-.208-.85A.631.631,0,0,0-597.552,125.6Z" fill="#2c3667"/>
          <path id="Trazado_953" data-name="Trazado 953" d="M-592.447,123.852h2l1.443,2.815v-1.722a.883.883,0,0,0-.025-.277.225.225,0,0,0-.1-.116.549.549,0,0,0-.233-.033h-.24v-.667h2.029v.667h-.224a.557.557,0,0,0-.241.038.214.214,0,0,0-.1.1.911.911,0,0,0-.028.284v3.732h-1.012L-591,125.121v2.487a.87.87,0,0,0,.026.273.193.193,0,0,0,.1.094.575.575,0,0,0,.237.034h.235v.668h-2.036v-.668h.21a.674.674,0,0,0,.24-.029.223.223,0,0,0,.1-.1.478.478,0,0,0,.038-.218v-2.767a.574.574,0,0,0-.035-.234.226.226,0,0,0-.094-.107.443.443,0,0,0-.2-.033h-.263Z" fill="#2c3667"/>
          <path id="Trazado_954" data-name="Trazado 954" d="M-584.919,126.529v-.256a.866.866,0,0,0-.039-.315.316.316,0,0,0-.144-.143.53.53,0,0,0-.258-.057.568.568,0,0,0-.215.038.423.423,0,0,0-.154.1.834.834,0,0,0-.133.229.741.741,0,0,1-.231.308.547.547,0,0,1-.318.093.527.527,0,0,1-.376-.138.454.454,0,0,1-.147-.343.618.618,0,0,1,.151-.411,1.413,1.413,0,0,1,.6-.391,2.486,2.486,0,0,1,.9-.153,2.075,2.075,0,0,1,.848.156,1.076,1.076,0,0,1,.487.372,1.247,1.247,0,0,1,.138.659v1.238a1.047,1.047,0,0,0,.025.292.237.237,0,0,0,.108.113.357.357,0,0,0,.183.048.916.916,0,0,0,.269-.055v.674a1.97,1.97,0,0,1-.585.094,1.384,1.384,0,0,1-.563-.1.99.99,0,0,1-.39-.311,3.027,3.027,0,0,1-.651.32,1.834,1.834,0,0,1-.565.1,1.2,1.2,0,0,1-.828-.279.88.88,0,0,1-.316-.686.853.853,0,0,1,.11-.426,1.008,1.008,0,0,1,.326-.339,2.2,2.2,0,0,1,.67-.257A6.718,6.718,0,0,1-584.919,126.529Zm0,.574a3.944,3.944,0,0,0-.663.133.6.6,0,0,0-.276.17.329.329,0,0,0-.083.209.3.3,0,0,0,.108.232.426.426,0,0,0,.29.093.8.8,0,0,0,.274-.059,2.289,2.289,0,0,0,.35-.173Z" fill="#2c3667"/>
          <path id="Trazado_955" data-name="Trazado 955" d="M-579.533,127.261l.532.455a2.876,2.876,0,0,1-.888.732,2.174,2.174,0,0,1-.985.229,1.966,1.966,0,0,1-1.4-.532,1.711,1.711,0,0,1-.563-1.3,1.782,1.782,0,0,1,.262-.947,1.82,1.82,0,0,1,.722-.669,2.312,2.312,0,0,1,1.082-.239,2.057,2.057,0,0,1,1.219.336.916.916,0,0,1,.473.71.548.548,0,0,1-.074.283.545.545,0,0,1-.227.2.707.707,0,0,1-.322.077.563.563,0,0,1-.247-.053.578.578,0,0,1-.181-.134,1.335,1.335,0,0,1-.127-.218,1.781,1.781,0,0,0-.185-.3.443.443,0,0,0-.156-.114.5.5,0,0,0-.206-.041.634.634,0,0,0-.361.118.853.853,0,0,0-.282.358,1.255,1.255,0,0,0-.111.535,1.278,1.278,0,0,0,.13.583.945.945,0,0,0,.35.392.914.914,0,0,0,.484.134,1.1,1.1,0,0,0,.511-.134A2.06,2.06,0,0,0-579.533,127.261Z" fill="#2c3667"/>
          <path id="Trazado_956" data-name="Trazado 956" d="M-577,125.142V127.7a.7.7,0,0,0,.02.225.135.135,0,0,0,.072.064.733.733,0,0,0,.232.022h.18v.668h-2.065v-.668h.177a.763.763,0,0,0,.222-.019.13.13,0,0,0,.072-.064.446.446,0,0,0,.023-.18V126.1h-.494v-.65a3.83,3.83,0,0,0,.506-.059,3.3,3.3,0,0,0,.433-.107,2.044,2.044,0,0,0,.3-.138Zm-.542-1.543a.58.58,0,0,1,.433.185.624.624,0,0,1,.179.448.628.628,0,0,1-.179.452.58.58,0,0,1-.433.185.583.583,0,0,1-.433-.185.623.623,0,0,1-.178-.448.62.62,0,0,1,.183-.448A.581.581,0,0,1-577.538,123.6Z" fill="#2c3667"/>
          <path id="Trazado_957" data-name="Trazado 957" d="M-573.943,125.059a2.24,2.24,0,0,1,1.048.232,1.681,1.681,0,0,1,.687.631,1.771,1.771,0,0,1,.241.935,1.728,1.728,0,0,1-.534,1.315,1.993,1.993,0,0,1-1.428.505,2.022,2.022,0,0,1-1.448-.509,1.7,1.7,0,0,1-.52-1.311,1.762,1.762,0,0,1,.237-.933,1.711,1.711,0,0,1,.687-.628A2.179,2.179,0,0,1-573.943,125.059Zm.014.757a.668.668,0,0,0-.376.118.754.754,0,0,0-.272.346,1.49,1.49,0,0,0-.1.581,1.647,1.647,0,0,0,.1.6.751.751,0,0,0,.262.353.637.637,0,0,0,.367.114.679.679,0,0,0,.531-.258,1.208,1.208,0,0,0,.222-.8,1.274,1.274,0,0,0-.206-.79A.639.639,0,0,0-573.929,125.816Z" fill="#2c3667"/>
          <path id="Trazado_958" data-name="Trazado 958" d="M-569.836,125.142v.46a3.118,3.118,0,0,1,.693-.363,1.833,1.833,0,0,1,.59-.1,1.285,1.285,0,0,1,.614.142.931.931,0,0,1,.389.354,1.231,1.231,0,0,1,.122.6v1.439a.629.629,0,0,0,.027.235.165.165,0,0,0,.084.076,1.015,1.015,0,0,0,.258.017h.175v.668h-2.1v-.668a2.483,2.483,0,0,0,.269-.01.176.176,0,0,0,.118-.079.627.627,0,0,0,.029-.239v-1.267a.608.608,0,0,0-.054-.318.312.312,0,0,0-.272-.121.94.94,0,0,0-.33.066,2.5,2.5,0,0,0-.473.269v1.371a.454.454,0,0,0,.051.276.365.365,0,0,0,.242.052h.116v.668h-2.082v-.668h.1a1.346,1.346,0,0,0,.306-.02.16.16,0,0,0,.09-.073.458.458,0,0,0,.03-.2V126.1h-.53v-.667a4.988,4.988,0,0,0,1.2-.294Z" fill="#2c3667"/>
          <path id="Trazado_959" data-name="Trazado 959" d="M-564.228,126.529v-.256a.872.872,0,0,0-.038-.315.306.306,0,0,0-.138-.143.5.5,0,0,0-.249-.057.539.539,0,0,0-.208.038.4.4,0,0,0-.148.1.852.852,0,0,0-.128.229.74.74,0,0,1-.223.308.515.515,0,0,1-.307.093.5.5,0,0,1-.363-.138.464.464,0,0,1-.142-.343.634.634,0,0,1,.146-.411,1.363,1.363,0,0,1,.577-.391,2.322,2.322,0,0,1,.865-.153,1.938,1.938,0,0,1,.818.156,1.049,1.049,0,0,1,.471.372,1.292,1.292,0,0,1,.133.659v1.238a1.064,1.064,0,0,0,.024.292.232.232,0,0,0,.1.113.335.335,0,0,0,.176.048.856.856,0,0,0,.26-.055v.674a1.84,1.84,0,0,1-.564.094,1.292,1.292,0,0,1-.543-.1.959.959,0,0,1-.377-.311,2.89,2.89,0,0,1-.628.32,1.714,1.714,0,0,1-.545.1,1.136,1.136,0,0,1-.8-.279.891.891,0,0,1-.3-.686.881.881,0,0,1,.1-.426.989.989,0,0,1,.315-.339,2.071,2.071,0,0,1,.647-.257A6.245,6.245,0,0,1-564.228,126.529Zm0,.574a3.706,3.706,0,0,0-.64.133.58.58,0,0,0-.266.17.335.335,0,0,0-.079.209.3.3,0,0,0,.1.232.4.4,0,0,0,.28.093.744.744,0,0,0,.265-.059,2.169,2.169,0,0,0,.337-.173Z" fill="#2c3667"/>
          <path id="Trazado_960" data-name="Trazado 960" d="M-560.565,123.451v4.165a.934.934,0,0,0,.017.249.165.165,0,0,0,.1.1.961.961,0,0,0,.276.022h.119v.687h-2.107v-.687h.129a.772.772,0,0,0,.262-.027.168.168,0,0,0,.085-.085.744.744,0,0,0,.028-.262v-3.175h-.5v-.687a4.2,4.2,0,0,0,1.259-.3Z" fill="#2c3667"/>
          <path id="Trazado_961" data-name="Trazado 961" d="M-553.516,123.368v4.138a1.15,1.15,0,0,0,.021.3.145.145,0,0,0,.071.077.808.808,0,0,0,.267.025h.163v.686l-1.511.054v-.367a2.546,2.546,0,0,1-.574.312,1.485,1.485,0,0,1-.495.087,1.3,1.3,0,0,1-.736-.223,1.61,1.61,0,0,1-.55-.66,2.172,2.172,0,0,1-.214-.971,2.18,2.18,0,0,1,.217-.98,1.622,1.622,0,0,1,.569-.664,1.423,1.423,0,0,1,.783-.224,1.666,1.666,0,0,1,.427.055,2.052,2.052,0,0,1,.451.194v-.846h-.508v-.687a5.262,5.262,0,0,0,.7-.109,4.041,4.041,0,0,0,.582-.194Zm-1.112,4.206v-1.192a1.1,1.1,0,0,0-.032-.317.448.448,0,0,0-.19-.231.58.58,0,0,0-.329-.1.585.585,0,0,0-.349.116.771.771,0,0,0-.255.354,1.645,1.645,0,0,0-.094.594,1.342,1.342,0,0,0,.213.794.508.508,0,0,0,.436.234.646.646,0,0,0,.227-.04A2.541,2.541,0,0,0-554.628,127.574Z" fill="#2c3667"/>
          <path id="Trazado_962" data-name="Trazado 962" d="M-549.211,127.29l.5.485a2.907,2.907,0,0,1-.884.689,2.236,2.236,0,0,1-.971.213,1.973,1.973,0,0,1-1.41-.544,1.748,1.748,0,0,1-.573-1.315,1.751,1.751,0,0,1,.257-.928,1.778,1.778,0,0,1,.713-.658,2.186,2.186,0,0,1,1.031-.238,2.078,2.078,0,0,1,.669.1,1.628,1.628,0,0,1,.527.292,1.46,1.46,0,0,1,.363.46,1.99,1.99,0,0,1,.19.558,3.485,3.485,0,0,1,.022.458h-2.472a1.021,1.021,0,0,0,.274.723.87.87,0,0,0,.652.277,1.233,1.233,0,0,0,.536-.143A2.153,2.153,0,0,0-549.211,127.29Zm-.735-1.018a.778.778,0,0,0-.105-.333.57.57,0,0,0-.214-.193.586.586,0,0,0-.281-.073.651.651,0,0,0-.3.074.632.632,0,0,0-.23.2.736.736,0,0,0-.112.324Z" fill="#2c3667"/>
          <path id="Trazado_963" data-name="Trazado 963" d="M-545.9,123.664h2.444v.682h-.24a.513.513,0,0,0-.235.039.229.229,0,0,0-.1.111.843.843,0,0,0-.033.295v1.795a2.041,2.041,0,0,0,.1.748.779.779,0,0,0,.309.377.93.93,0,0,0,.5.129.988.988,0,0,0,.525-.142.817.817,0,0,0,.329-.358,1.878,1.878,0,0,0,.1-.719v-1.978a.35.35,0,0,0-.033-.177.23.23,0,0,0-.115-.1.884.884,0,0,0-.254-.021h-.194v-.682h2.067v.682h-.161a.9.9,0,0,0-.3.028.262.262,0,0,0-.126.124.843.843,0,0,0-.029.293v1.943a2.255,2.255,0,0,1-.158.9,1.615,1.615,0,0,1-.7.768,2.246,2.246,0,0,1-1.136.274,2.317,2.317,0,0,1-.829-.14,1.912,1.912,0,0,1-.64-.4,1.488,1.488,0,0,1-.384-.549,2.544,2.544,0,0,1-.11-.855v-1.9a1.175,1.175,0,0,0-.029-.338.206.206,0,0,0-.093-.111.6.6,0,0,0-.251-.035h-.23Z" fill="#2c3667"/>
          <path id="Trazado_964" data-name="Trazado 964" d="M-538.715,125.088v.467a3.208,3.208,0,0,1,.709-.368,1.876,1.876,0,0,1,.6-.1,1.337,1.337,0,0,1,.628.144.957.957,0,0,1,.4.36,1.251,1.251,0,0,1,.124.613v1.461a.613.613,0,0,0,.028.238.169.169,0,0,0,.086.078,1.118,1.118,0,0,0,.263.017h.18v.678h-2.15V128c.164,0,.255-.006.275-.01a.184.184,0,0,0,.121-.081.639.639,0,0,0,.029-.242V126.38a.61.61,0,0,0-.055-.323.32.32,0,0,0-.278-.122.976.976,0,0,0-.337.066,2.518,2.518,0,0,0-.484.274v1.391a.469.469,0,0,0,.052.281.382.382,0,0,0,.248.052h.118v.678h-2.128V128h.107a1.332,1.332,0,0,0,.313-.021.163.163,0,0,0,.091-.074.447.447,0,0,0,.031-.206v-1.633h-.542v-.678a5.094,5.094,0,0,0,1.232-.3Z" fill="#2c3667"/>
          <path id="Trazado_965" data-name="Trazado 965" d="M-533.582,125.047v2.625a.723.723,0,0,0,.021.231.142.142,0,0,0,.076.065.794.794,0,0,0,.248.023h.192v.686h-2.2v-.686h.188a.867.867,0,0,0,.237-.019.143.143,0,0,0,.077-.066.464.464,0,0,0,.024-.185v-1.694h-.526v-.667a4.352,4.352,0,0,0,.539-.061,3.733,3.733,0,0,0,.461-.11,2.3,2.3,0,0,0,.324-.142Zm-.577-1.584a.628.628,0,0,1,.461.19.626.626,0,0,1,.19.46.628.628,0,0,1-.19.463.628.628,0,0,1-.461.19.628.628,0,0,1-.461-.19.624.624,0,0,1-.19-.46.626.626,0,0,1,.2-.46A.63.63,0,0,1-534.159,123.463Z" fill="#2c3667"/>
          <path id="Trazado_966" data-name="Trazado 966" d="M-530.47,125.088h1.858v.694a1.8,1.8,0,0,0-.273.015.291.291,0,0,0-.124.086.8.8,0,0,0-.131.212l-1.144,2.582h-.941l-1.194-2.661a.52.52,0,0,0-.108-.154.235.235,0,0,0-.115-.065,1.164,1.164,0,0,0-.255-.015v-.694h2.144v.694h-.112a.575.575,0,0,0-.255.033.127.127,0,0,0-.067.111.542.542,0,0,0,.046.169l.543,1.4.566-1.4a.544.544,0,0,0,.049-.176.116.116,0,0,0-.074-.108.663.663,0,0,0-.248-.029h-.165Z" fill="#2c3667"/>
          <path id="Trazado_967" data-name="Trazado 967" d="M-525.1,127.285l.475.488a2.76,2.76,0,0,1-.833.69,2,2,0,0,1-.916.214,1.8,1.8,0,0,1-1.329-.546,1.806,1.806,0,0,1-.54-1.319,1.834,1.834,0,0,1,.242-.931,1.72,1.72,0,0,1,.672-.66,1.966,1.966,0,0,1,.972-.238,1.86,1.86,0,0,1,.631.1,1.484,1.484,0,0,1,.5.293,1.452,1.452,0,0,1,.343.461,2.09,2.09,0,0,1,.179.56,3.788,3.788,0,0,1,.02.459h-2.33a1.07,1.07,0,0,0,.258.726.8.8,0,0,0,.615.277,1.105,1.105,0,0,0,.505-.143A2.014,2.014,0,0,0-525.1,127.285Zm-.692-1.02a.811.811,0,0,0-.1-.334.553.553,0,0,0-.2-.194.519.519,0,0,0-.265-.073.572.572,0,0,0-.281.075.586.586,0,0,0-.218.2.774.774,0,0,0-.1.325Z" fill="#2c3667"/>
          <path id="Trazado_968" data-name="Trazado 968" d="M-522.474,125.088v.51a2.074,2.074,0,0,1,.507-.4.915.915,0,0,1,.412-.108.642.642,0,0,1,.321.08.571.571,0,0,1,.223.226.638.638,0,0,1,.083.316.6.6,0,0,1-.152.4.529.529,0,0,1-.427.179.716.716,0,0,1-.13-.01,2.482,2.482,0,0,1-.24-.071.612.612,0,0,0-.158-.028.824.824,0,0,0-.315.116v1.373a.6.6,0,0,0,.027.228.17.17,0,0,0,.09.078.929.929,0,0,0,.27.024h.161v.678h-2.255V128h.188a.881.881,0,0,0,.252-.021.146.146,0,0,0,.075-.074.66.66,0,0,0,.026-.235v-1.611h-.541v-.675a3.9,3.9,0,0,0,1.239-.3Z" fill="#2c3667"/>
          <path id="Trazado_969" data-name="Trazado 969" d="M-518.324,125.068h.466l.288.981-.673.269a1.44,1.44,0,0,0-.481-.482,1.106,1.106,0,0,0-.575-.175.5.5,0,0,0-.281.063.182.182,0,0,0-.092.152.191.191,0,0,0,.065.138.8.8,0,0,0,.273.134l.978.346a2.957,2.957,0,0,1,.5.23.97.97,0,0,1,.357.337.89.89,0,0,1,.119.468.978.978,0,0,1-.37.788,1.635,1.635,0,0,1-1.081.36,1.684,1.684,0,0,1-.967-.279l-.1.194h-.473l-.437-1.158.672-.283a1.914,1.914,0,0,0,.622.616,1.331,1.331,0,0,0,.68.225.566.566,0,0,0,.323-.089.2.2,0,0,0,.1-.166.214.214,0,0,0-.078-.155,1.086,1.086,0,0,0-.345-.166l-.769-.265a2.163,2.163,0,0,1-.866-.475.86.86,0,0,1-.229-.6.944.944,0,0,1,.359-.748,1.509,1.509,0,0,1,1.01-.346,1.678,1.678,0,0,1,.914.24Z" fill="#2c3667"/>
          <path id="Trazado_970" data-name="Trazado 970" d="M-515.116,125.047v2.625a.682.682,0,0,0,.022.231.141.141,0,0,0,.077.065.8.8,0,0,0,.249.023h.194v.686h-2.217v-.686h.19a.885.885,0,0,0,.239-.019.143.143,0,0,0,.077-.066.442.442,0,0,0,.025-.185v-1.694h-.531v-.667a4.435,4.435,0,0,0,.544-.061,3.743,3.743,0,0,0,.464-.11,2.21,2.21,0,0,0,.326-.142Zm-.581-1.584a.635.635,0,0,1,.465.19.624.624,0,0,1,.192.46.626.626,0,0,1-.192.463.635.635,0,0,1-.465.19.635.635,0,0,1-.464-.19.622.622,0,0,1-.192-.46.627.627,0,0,1,.2-.46A.641.641,0,0,1-515.7,123.463Z" fill="#2c3667"/>
          <path id="Trazado_971" data-name="Trazado 971" d="M-510.523,123.368v4.138a1.15,1.15,0,0,0,.021.3.141.141,0,0,0,.073.077.822.822,0,0,0,.27.025h.166v.686l-1.533.054v-.367a2.6,2.6,0,0,1-.582.312,1.519,1.519,0,0,1-.5.087,1.333,1.333,0,0,1-.747-.223,1.626,1.626,0,0,1-.558-.66,2.147,2.147,0,0,1-.217-.971,2.155,2.155,0,0,1,.221-.98,1.62,1.62,0,0,1,.576-.664,1.462,1.462,0,0,1,.794-.224,1.707,1.707,0,0,1,.433.055,2.113,2.113,0,0,1,.458.194v-.846h-.516v-.687a5.4,5.4,0,0,0,.71-.109,4.165,4.165,0,0,0,.59-.194Zm-1.128,4.206v-1.192a1.1,1.1,0,0,0-.032-.317.448.448,0,0,0-.192-.231.6.6,0,0,0-.335-.1.6.6,0,0,0-.353.116.775.775,0,0,0-.258.354,1.6,1.6,0,0,0-.1.594,1.329,1.329,0,0,0,.216.794.517.517,0,0,0,.442.234.659.659,0,0,0,.23-.04A2.561,2.561,0,0,0-511.651,127.574Z" fill="#2c3667"/>
          <path id="Trazado_972" data-name="Trazado 972" d="M-507.373,126.492v-.26a.887.887,0,0,0-.039-.32.319.319,0,0,0-.141-.146.509.509,0,0,0-.255-.058.559.559,0,0,0-.212.039.42.42,0,0,0-.152.1.893.893,0,0,0-.131.232.728.728,0,0,1-.227.313.521.521,0,0,1-.313.1.512.512,0,0,1-.371-.14.466.466,0,0,1-.145-.349.644.644,0,0,1,.148-.418,1.409,1.409,0,0,1,.59-.4,2.4,2.4,0,0,1,.884-.155,1.989,1.989,0,0,1,.836.159,1.061,1.061,0,0,1,.481.378,1.306,1.306,0,0,1,.136.67v1.259a1.114,1.114,0,0,0,.024.3.243.243,0,0,0,.106.114.344.344,0,0,0,.181.049.9.9,0,0,0,.265-.056v.686a1.921,1.921,0,0,1-.576.1,1.312,1.312,0,0,1-.555-.106.979.979,0,0,1-.385-.316,2.935,2.935,0,0,1-.642.325,1.762,1.762,0,0,1-.557.1,1.167,1.167,0,0,1-.816-.283.91.91,0,0,1-.311-.7.882.882,0,0,1,.108-.432,1.007,1.007,0,0,1,.321-.345,2.118,2.118,0,0,1,.661-.262A6.506,6.506,0,0,1-507.373,126.492Zm0,.584a3.763,3.763,0,0,0-.654.136.586.586,0,0,0-.272.172.343.343,0,0,0-.081.213.3.3,0,0,0,.106.236.413.413,0,0,0,.286.1.754.754,0,0,0,.27-.06,2.26,2.26,0,0,0,.345-.176Z" fill="#2c3667"/>
          <path id="Trazado_973" data-name="Trazado 973" d="M-501.638,123.368v4.138a1.223,1.223,0,0,0,.02.3.143.143,0,0,0,.07.077.771.771,0,0,0,.261.025h.16v.686l-1.478.054v-.367a2.457,2.457,0,0,1-.562.312,1.417,1.417,0,0,1-.483.087,1.253,1.253,0,0,1-.72-.223,1.612,1.612,0,0,1-.538-.66,2.225,2.225,0,0,1-.209-.971,2.219,2.219,0,0,1,.213-.98,1.6,1.6,0,0,1,.556-.664,1.369,1.369,0,0,1,.765-.224,1.59,1.59,0,0,1,.417.055,1.963,1.963,0,0,1,.442.194v-.846h-.5v-.687a5.021,5.021,0,0,0,.684-.109,3.877,3.877,0,0,0,.569-.194Zm-1.088,4.206v-1.192a1.159,1.159,0,0,0-.03-.317.454.454,0,0,0-.186-.231.56.56,0,0,0-.322-.1.562.562,0,0,0-.341.116.763.763,0,0,0-.249.354,1.669,1.669,0,0,0-.092.594,1.364,1.364,0,0,0,.208.794.494.494,0,0,0,.426.234.619.619,0,0,0,.222-.04A2.437,2.437,0,0,0-502.726,127.574Z" fill="#2c3667"/>
          <path id="Trazado_974" data-name="Trazado 974" d="M-497.33,127.29l.488.485a2.827,2.827,0,0,1-.857.689,2.12,2.12,0,0,1-.943.213,1.884,1.884,0,0,1-1.368-.544,1.772,1.772,0,0,1-.556-1.315,1.782,1.782,0,0,1,.25-.928,1.745,1.745,0,0,1,.691-.658,2.071,2.071,0,0,1,1-.238,1.959,1.959,0,0,1,.649.1,1.57,1.57,0,0,1,.511.292,1.461,1.461,0,0,1,.353.46,2.007,2.007,0,0,1,.183.558,3.321,3.321,0,0,1,.022.458h-2.4a1.038,1.038,0,0,0,.265.723.834.834,0,0,0,.633.277,1.165,1.165,0,0,0,.52-.143A2.093,2.093,0,0,0-497.33,127.29Zm-.713-1.018a.808.808,0,0,0-.1-.333.558.558,0,0,0-.207-.193.559.559,0,0,0-.274-.073.612.612,0,0,0-.289.074.61.61,0,0,0-.223.2.735.735,0,0,0-.109.324Z" fill="#2c3667"/>
          <path id="Trazado_975" data-name="Trazado 975" d="M-493.935,125.079h.462l.286.978-.666.268a1.447,1.447,0,0,0-.478-.481,1.094,1.094,0,0,0-.57-.174.5.5,0,0,0-.278.063.184.184,0,0,0-.092.152.19.19,0,0,0,.065.137.8.8,0,0,0,.27.134l.97.345a2.9,2.9,0,0,1,.493.229.953.953,0,0,1,.355.336.9.9,0,0,1,.118.467.977.977,0,0,1-.367.785,1.618,1.618,0,0,1-1.072.359,1.669,1.669,0,0,1-.959-.278l-.1.193h-.469l-.434-1.154.666-.282a1.923,1.923,0,0,0,.617.614,1.32,1.32,0,0,0,.674.224.566.566,0,0,0,.321-.088.2.2,0,0,0,.1-.166.218.218,0,0,0-.077-.155,1.065,1.065,0,0,0-.342-.165l-.762-.264a2.128,2.128,0,0,1-.858-.474.86.86,0,0,1-.228-.6.944.944,0,0,1,.356-.746,1.5,1.5,0,0,1,1-.345,1.663,1.663,0,0,1,.906.239Z" fill="#2c3667"/>
        </g>
      </g>
    </g>
  </g>
</svg>
