<svg xmlns="http://www.w3.org/2000/svg" width="381.431" height="86.801" viewBox="0 0 381.431 86.801">
  <g id="Grupo_90" data-name="Grupo 90" transform="translate(-695.821 -668.078)">
    <g id="Grupo_10" data-name="Grupo 10" transform="translate(695.821 668.078)">
      <g id="Grupo_8" data-name="Grupo 8" transform="translate(0 13.683)">
        <path id="Trazado_11" data-name="Trazado 11" d="M359.786,677.561h25.766c12.195,0,17.879,6.242,17.879,15.646,0,6.68-3.027,12.657-10.27,14.063v.177c8.619.791,12.1,7.822,12.1,14.327,0,10.9-5.5,18.545-19.712,18.545H359.786Zm17.055,24.61h4.126c3.484,0,5.409-2.986,5.409-6.326,0-3.516-1.925-6.505-5.409-6.505h-4.126Zm0,26.37h4.768c3.117,0,6.051-2.635,6.051-7.735,0-4.833-2.935-7.558-6.051-7.558h-4.768Z" transform="translate(-359.786 -676.332)" fill="#322f81"/>
        <path id="Trazado_12" data-name="Trazado 12" d="M423.854,677.109c17.422,0,23.381,9.141,23.381,32.609s-5.959,32.612-23.381,32.612-23.384-9.141-23.384-32.612S406.431,677.109,423.854,677.109Zm0,54.143c5.225,0,5.777-4.569,5.777-21.534s-.552-21.534-5.777-21.534-5.777,4.569-5.777,21.534S418.626,731.252,423.854,731.252Z" transform="translate(-289.823 -677.109)" fill="#322f81"/>
        <path id="Trazado_13" data-name="Trazado 13" d="M419.689,677.561h24.39l6.878,37.18h.182l6.878-37.18h24.39V740.32H466.454V693.558h-.185l-9.076,46.762H444.906l-9.078-46.762h-.182V740.32H419.689Z" transform="translate(-256.772 -676.332)" fill="#322f81"/>
        <path id="Trazado_14" data-name="Trazado 14" d="M459.515,677.561h21.458l15.954,62.759H478.77l-1.741-10.987H463.458l-1.743,10.987H443.561ZM470.336,690.4h-.185l-4.675,26.634h9.535Z" transform="translate(-215.721 -676.332)" fill="#322f81"/>
        <path id="Trazado_15" data-name="Trazado 15" d="M490.995,696.446v-1.5c0-3.69-1.558-6.766-4.86-6.766-3.666,0-5.317,2.725-5.317,5.537,0,12.393,27.874,6.329,27.874,29.269,0,13.362-8.162,19.34-23.2,19.34-14.121,0-22-4.659-22-17.67v-2.195h16.5v1.493c0,5.361,2.293,7.294,5.594,7.294,3.484,0,5.5-2.635,5.5-6.065,0-12.393-26.775-6.239-26.775-28.477,0-12.658,7.06-19.6,21.456-19.6,14.855,0,21.183,5.888,21.183,19.337Z" transform="translate(-181.453 -677.109)" fill="#322f81"/>
        <path id="Trazado_16" data-name="Trazado 16" d="M496.369,677.561h21.456l15.954,62.759H515.625l-1.743-10.987H500.31L498.57,740.32H480.413ZM507.188,690.4h-.182l-4.678,26.634h9.538Z" transform="translate(-152.347 -676.332)" fill="#322f81"/>
      </g>
      <g id="Grupo_9" data-name="Grupo 9" transform="translate(33.512)">
        <path id="Trazado_17" data-name="Trazado 17" d="M426.907,725.468c1.648,16.081-30.961,16.742-36.441-1.273s3.957-45.364-18.358-52.074C372.108,672.121,421.552,673.252,426.907,725.468Z" transform="translate(-372.108 -672.004)" fill="#3aa749"/>
        <path id="Trazado_18" data-name="Trazado 18" d="M376.06,672.078s45.818,11.458,48.766,52.577C424.826,724.655,450.971,687.67,376.06,672.078Z" transform="translate(-365.312 -672.078)" fill="#3aa749"/>
        <path id="Trazado_19" data-name="Trazado 19" d="M377.089,674.248a18.138,18.138,0,0,1,2.44,3.957,30.214,30.214,0,0,1,1.659,4.36,43.047,43.047,0,0,1,1.58,9.2c.139,1.555.122,3.117.114,4.675-.071,1.556-.136,3.119-.239,4.651a61.336,61.336,0,0,0,.166,9.22,31.734,31.734,0,0,0,2.032,8.915,18.311,18.311,0,0,0,5.216,7.359,17.322,17.322,0,0,0,3.848,2.437,23.467,23.467,0,0,0,4.349,1.461,36.868,36.868,0,0,0,9.206.764,34.813,34.813,0,0,1-9.293-.356,23.845,23.845,0,0,1-4.482-1.379,17.946,17.946,0,0,1-4.041-2.42,18.326,18.326,0,0,1-5.518-7.572,32.476,32.476,0,0,1-2.159-9.125,62.035,62.035,0,0,1-.092-9.347c.12-1.559.193-3.09.277-4.629.008-1.537.063-3.078-.033-4.615a42.716,42.716,0,0,0-1.33-9.122,29.685,29.685,0,0,0-1.463-4.381A19.781,19.781,0,0,0,377.089,674.248Z" transform="translate(-363.542 -668.346)" fill="#006f3c"/>
        <path id="Trazado_20" data-name="Trazado 20" d="M400.283,734.892c-.819-2.167-1.466-4.2-2.083-6.323-.607-2.108-1.156-4.232-1.607-6.383s-.813-4.327-1.058-6.527c-.111-1.1-.2-2.208-.239-3.326-.054-1.109-.046-2.162-.054-3.236-.024-4.275.06-8.5-.237-12.685a35.09,35.09,0,0,0-.922-6.193,11.155,11.155,0,0,0-2.9-5.472,11.586,11.586,0,0,1,3.718,5.2,36.2,36.2,0,0,1,1.806,6.225c.878,4.224,1.365,8.491,1.958,12.676.15,1.039.288,2.108.473,3.106.163,1,.381,1.991.615,2.981.492,1.98,1.091,3.941,1.77,5.877s1.455,3.851,2.282,5.738c.819,1.868,1.73,3.786,2.646,5.491l.019.032a3.4,3.4,0,0,1-5.994,3.229C400.4,735.172,400.335,735.023,400.283,734.892Z" transform="translate(-339.314 -650.291)" fill="#006f3c"/>
        <path id="Trazado_21" data-name="Trazado 21" d="M380.011,683.9c0,1.618.035,3.234.161,4.841.106,1.607.237,3.212.484,4.8a31.194,31.194,0,0,0,2.551,9.182,18.075,18.075,0,0,0,6.367,6.872,20.262,20.262,0,0,0,4.275,2.121,18.351,18.351,0,0,0,4.689,1.074,18.615,18.615,0,0,1-16.092-9.7,24.986,24.986,0,0,1-1.607-4.653,32.046,32.046,0,0,1-.827-4.822A47.214,47.214,0,0,1,380.011,683.9Z" transform="translate(-358.95 -651.755)" fill="#006f3c"/>
      </g>
    </g>
  </g>
</svg>
