<svg xmlns="http://www.w3.org/2000/svg" width="220" height="190" viewBox="0 0 220 190">
  <g id="Grupo_283" data-name="Grupo 283" transform="translate(-3104 -1537)">
    <rect id="Rectángulo_91" data-name="Rectángulo 91" width="220" height="190" transform="translate(3104 1537)" fill="none"/>
    <g id="Grupo_257" data-name="Grupo 257" transform="translate(3104 1537.5)">
      <g id="Grupo_252" data-name="Grupo 252">
        <g id="Grupo_251" data-name="Grupo 251">
          <path id="Trazado_805" data-name="Trazado 805" d="M64.36,98.523V73.911H79.313v4.923H70.135V83.2H78.69V88.12H70.135v10.4Z" fill="#6386c6"/>
        </g>
      </g>
      <g id="Grupo_254" data-name="Grupo 254">
        <g id="Grupo_253" data-name="Grupo 253">
          <path id="Trazado_806" data-name="Trazado 806" d="M98.36,72.1l7.432-24.849,6.72.014,7.5,24.849L114.1,72.1l-1.368-5.469H105.9l-1.73,5.469Zm10.911-20.386h-.065l-2.624,10.815h4.785Z" fill="#6386c6"/>
        </g>
      </g>
      <path id="Trazado_807" data-name="Trazado 807" d="M146.915,73.466a9.571,9.571,0,0,0-9.57,9.571v6.152a9.57,9.57,0,1,0,19.141,0V83.037A9.571,9.571,0,0,0,146.915,73.466Zm4.1,17.09a4.1,4.1,0,1,1-8.2,0v-8.2a4.1,4.1,0,1,1,8.2,0Z" fill="#6386c6"/>
      <path id="Trazado_808" data-name="Trazado 808" d="M73.047,110.584l3.47,6.774-1.67.855-2.459-4.8L70.2,114.531l2.156,4.209-1.65.845-2.156-4.209-3.983,2.04-1.01-1.972Z" fill="#6185c1"/>
      <path id="Trazado_809" data-name="Trazado 809" d="M71.888,128.14l-1.437-1.686,8.123-6.924,1.438,1.686Z" fill="#6185c1"/>
      <path id="Trazado_810" data-name="Trazado 810" d="M85.342,126.483l2.1,1.4L84.67,138.859l-2.013-1.34.629-2.217-3.271-2.178L78.2,134.549l-1.942-1.293Zm-3.8,5.446,2.276,1.515,1.2-4.244Z" fill="#6185c1"/>
      <path id="Trazado_811" data-name="Trazado 811" d="M100.339,133.452l-.564,1.8-3.048-.953-2.62,8.385-2.142-.67,2.619-8.384-3.062-.957.564-1.8Z" fill="#6185c1"/>
      <path id="Trazado_812" data-name="Trazado 812" d="M126.338,137.542a4.072,4.072,0,0,1-2.441,1.347l-2.169.486.838,3.745-2.162.484-2.331-10.417,4.472-1a3.7,3.7,0,0,1,2.647.254,3.217,3.217,0,0,1,1.477,2.288A3.311,3.311,0,0,1,126.338,137.542Zm-2.5-3.381a1.8,1.8,0,0,0-1.236-.087l-1.961.439.686,3.067,1.962-.439a1.7,1.7,0,0,0,1.074-.634,1.563,1.563,0,0,0,.148-1.28A1.469,1.469,0,0,0,123.837,134.161Z" fill="#6185c1"/>
      <path id="Trazado_813" data-name="Trazado 813" d="M127.959,129.505l2.213-1.212,8.439,7.548L136.49,137l-1.672-1.586-3.447,1.888.419,2.272-2.046,1.12Zm3.06,5.895,2.4-1.313-3.2-3.036Z" fill="#6185c1"/>
      <path id="Trazado_814" data-name="Trazado 814" d="M134.492,125.574l1.6-1.7,8.322,2.023L139,120.79l1.426-1.512L148.2,126.6l-1.53,1.622-8.491-2.034,5.51,5.2-1.426,1.512Z" fill="#6185c1"/>
      <path id="Trazado_815" data-name="Trazado 815" d="M153.094,119.581l-1.172,1.881-9.058-5.647,1.172-1.881Z" fill="#6185c1"/>
      <path id="Trazado_816" data-name="Trazado 816" d="M152.336,112.8a2.17,2.17,0,0,0,1.166-.031,2.368,2.368,0,0,0,1.238-1.585A4.088,4.088,0,0,0,155,109.89a1.243,1.243,0,0,0-.863-1.3.912.912,0,0,0-.926.178,5.076,5.076,0,0,0-.952,1.24l-.614,1.012a7.193,7.193,0,0,1-1.531,1.95,2.6,2.6,0,0,1-2.535.273,3.067,3.067,0,0,1-1.913-1.769,4.494,4.494,0,0,1,.106-3.241,4.747,4.747,0,0,1,1.789-2.468,3.178,3.178,0,0,1,2.865-.357l-.693,2.028a1.528,1.528,0,0,0-1.574.373,2.943,2.943,0,0,0-.683,1.17,2.525,2.525,0,0,0-.128,1.448,1.1,1.1,0,0,0,.748.812.913.913,0,0,0,.976-.215,6.421,6.421,0,0,0,.877-1.2l1.024-1.63a4.771,4.771,0,0,1,1.331-1.5,2.615,2.615,0,0,1,2.371-.2,3.065,3.065,0,0,1,1.933,1.857,4.773,4.773,0,0,1-.119,3.336,5.224,5.224,0,0,1-1.974,2.829,3.149,3.149,0,0,1-2.867.3Z" fill="#6185c1"/>
      <path id="Trazado_817" data-name="Trazado 817" d="M113.76,79.277c0,3.587-2.143,6.494-4.785,6.494s-4.786-2.907-4.786-6.494,4.534-7.862,4.534-7.862S113.76,75.69,113.76,79.277Z" fill="#5e89c0"/>
      <g id="Grupo_256" data-name="Grupo 256">
        <g id="Grupo_255" data-name="Grupo 255">
          <path id="Trazado_818" data-name="Trazado 818" d="M115.127,128.635a9.666,9.666,0,0,0,7.52-7.941c.242-1.587.854-7.253.382-10.494l21.15-55.791c-.44-.384-.882-.765-1.334-1.135l-22.174,55.482c-1.223,1.466-2.817,4.4-4.518,5.378-3.115,1.8-5.128,2.762-6.5,6.9a20.314,20.314,0,0,0-.6,3.4,23.036,23.036,0,0,0-.674-4.089c-1.367-4.143-3.38-5.108-6.495-6.906-1.7-.982-3.295-3.911-4.519-5.378l-21.82-54.6c-.456.378-.9.77-1.343,1.162L95.01,109.51c-.472,3.24.14,8.906.382,10.493a9.666,9.666,0,0,0,7.52,7.942c1.73.437,3.019,2.323,4.012,3.433v17.567c.793.035,1.59.061,2.392.061.688,0,1.37-.027,2.051-.053V131.779C112.324,130.657,113.539,129.036,115.127,128.635Z" fill="#6185c1"/>
          <path id="Trazado_819" data-name="Trazado 819" d="M98.379,102.05c1.054,5.857,5.122,11.807,10.6,11.89s9.437-5.362,10.593-11.2c.3-1.511.991-3.551.872-4.731l18.926-47.354c-.509-.352-1.03-.689-1.552-1.023L117.638,97.723a31.587,31.587,0,0,0-4.22,2.946c-4.593,3.645-2.17,6.244-4.1,6.214-2.6-.039.874-2.624-4.1-6.214A33.52,33.52,0,0,0,100.4,97.5L80.423,49.886q-.783.511-1.548,1.047L98.084,99A14.476,14.476,0,0,0,98.379,102.05Z" fill="#6185c1"/>
          <path id="Trazado_820" data-name="Trazado 820" d="M100.429,86.858c.058.39-.082,3.685,0,4.143,1.055,5.858,4.786,8.977,8.887,8.977,4.786,0,9.571-5.524,8.887-10.358a14.129,14.129,0,0,1,.044-3.557l15.871-38.6c-.583-.31-1.168-.619-1.764-.908L115.6,84.494c-.607.632-1.322,1.407-2.18,2.364-4.785,4.143-2.17,6.244-4.1,6.215-2.6-.04,1.368-2.072-4.1-6.215-.844-.639-1.574-1.261-2.2-1.8L85.855,46.773c-.589.292-1.174.592-1.75.905l16.152,37.873C100.3,85.932,100.356,86.363,100.429,86.858Z" fill="#6185c1"/>
        </g>
      </g>
      <path id="Trazado_821" data-name="Trazado 821" d="M110,34.5A60.5,60.5,0,1,0,170.5,95,60.5,60.5,0,0,0,110,34.5Zm-1.367,114.164A53.664,53.664,0,1,1,162.3,95,53.664,53.664,0,0,1,108.633,148.664Z" fill="#6389c7"/>
    </g>
  </g>
</svg>
