<svg id="Grupo_74" data-name="Grupo 74" xmlns="http://www.w3.org/2000/svg" width="218" height="75.384" viewBox="0 0 218 75.384">
  <g id="Grupo_72" data-name="Grupo 72">
    <path id="Trazado_227" data-name="Trazado 227" d="M604.093,1491.079l.308,1.583.171-.026a.5.5,0,0,1,.318.022.272.272,0,0,1,.112.151.326.326,0,0,1-.039.226.736.736,0,0,1-.274.1l-.729.129a.325.325,0,0,1-.288-.025.218.218,0,0,1-.108-.165.256.256,0,0,1,.034-.2c.044-.069.137-.1.269-.13l-.382-2.03-.078.019a.472.472,0,0,1-.3-.027.208.208,0,0,1-.108-.171.309.309,0,0,1,.039-.205.564.564,0,0,1,.269-.125l.6-.1,1.764,1.843-.288-1.566-.2.039a.568.568,0,0,1-.293-.027.3.3,0,0,1-.107-.176.274.274,0,0,1,.048-.2.449.449,0,0,1,.269-.12l.709-.125a.376.376,0,0,1,.288.022.226.226,0,0,1,.132.165.331.331,0,0,1-.048.213.518.518,0,0,1-.265.119l.455,2.543-.5.095Z" transform="translate(-603 -1440.575)" fill="#00a8e7"/>
    <path id="Trazado_228" data-name="Trazado 228" d="M609.431,1469.943l.258-.631,1.046,1.184c.053.072.087.134.053.2,0,.03-.044.059-.093.093h-.1c-.009-.012-.059-.034-.078-.063Z" transform="translate(-599.417 -1451.971)" fill="#00a8e7"/>
    <path id="Trazado_229" data-name="Trazado 229" d="M610.673,1470.6a.259.259,0,0,0-.234.022.439.439,0,0,0-.132.209l-1.652.011h-1.124l-.421,1.025a.4.4,0,0,0-.039.274.278.278,0,0,0,.146.147.219.219,0,0,0,.21-.012.386.386,0,0,0,.167-.22l.121-.3.85.767.758.718a.394.394,0,0,0-.034.277.285.285,0,0,0,.146.154.263.263,0,0,0,.215-.008.612.612,0,0,0,.167-.22l.249-.645a.332.332,0,0,0,.025-.277.175.175,0,0,0-.133-.126.25.25,0,0,0-.21,0c-.073.026-.121.108-.165.212l-.041.11-.259-.215.464-1.157h.343l-.05.12a.5.5,0,0,0-.033.27.334.334,0,0,0,.165.134.212.212,0,0,0,.192,0,.391.391,0,0,0,.165-.218l.274-.635a.505.505,0,0,0,.03-.263A.227.227,0,0,0,610.673,1470.6Zm-1.8,1.51-.274-.252-.542-.5.558-.008h.571Z" transform="translate(-600.738 -1451.263)" fill="#e5007d"/>
    <path id="Trazado_230" data-name="Trazado 230" d="M608.884,1474.54l.215-.5a1.652,1.652,0,0,0,.087-.455.863.863,0,0,0-.181-.388.876.876,0,0,0-.391-.274l-.24-.086a.9.9,0,0,0-.254-.064l.025-.528c.132.034.277.065.444.12l.24.1a1.47,1.47,0,0,1,.5.313,1.174,1.174,0,0,1,.27.423,1.015,1.015,0,0,1,.093.388,1.5,1.5,0,0,1-.118.652l-.377.951c-.053.117-.1.184-.174.217a.228.228,0,0,1-.21,0,.258.258,0,0,1-.142-.134c-.045-.064-.02-.156.019-.254l-.67-.257.03-.523Zm-.763-1.767c-.064,0-.117,0-.185,0a.974.974,0,0,0-.494.154.76.76,0,0,0-.269.394l-.21.489,1.085.431-.03.523-1.246-.472a.27.27,0,0,1-.157.189.159.159,0,0,1-.185,0c-.083-.02-.146-.059-.162-.132-.044-.061-.014-.146.016-.271l.409-.995a1.134,1.134,0,0,1,.279-.425,1.249,1.249,0,0,1,.377-.268,1.847,1.847,0,0,1,.357-.1,1.585,1.585,0,0,1,.416-.039h.025Z" transform="translate(-601.191 -1450.337)" fill="#00a8e7"/>
    <path id="Trazado_231" data-name="Trazado 231" d="M606.512,1474.873l1.91.744.185-.484a.583.583,0,0,1,.18-.229.343.343,0,0,1,.2,0c.073.034.132.083.137.149.043.066.025.156-.014.271l-.592,1.425a.369.369,0,0,1-.156.219.232.232,0,0,1-.221,0,.172.172,0,0,1-.131-.124.4.4,0,0,1,.019-.285l.206-.47-1.915-.74-.192.482a.418.418,0,0,1-.157.215.267.267,0,0,1-.213,0,.233.233,0,0,1-.153-.134.373.373,0,0,1,.03-.28l.587-1.436a.385.385,0,0,1,.151-.2.267.267,0,0,1,.21-.022.221.221,0,0,1,.151.156.507.507,0,0,1-.023.27Z" transform="translate(-601.557 -1449.379)" fill="#e5007d"/>
    <path id="Trazado_232" data-name="Trazado 232" d="M605.929,1477.836l1.481.572.078-.17a.408.408,0,0,1,.167-.229.236.236,0,0,1,.19,0c.073.03.128.069.137.142a.315.315,0,0,1-.009.274l-.254.628a.609.609,0,0,1-.181.223.338.338,0,0,1-.2,0,.224.224,0,0,1-.146-.145.535.535,0,0,1,.019-.246l-1.906-.741-.029.078a.325.325,0,0,1-.16.21.24.24,0,0,1-.21.006.2.2,0,0,1-.151-.137.489.489,0,0,1,.023-.271l.235-.544,2.443-.451-1.465-.578-.068.17a.379.379,0,0,1-.176.221.291.291,0,0,1-.206,0,.235.235,0,0,1-.132-.143.279.279,0,0,1,.025-.266l.24-.626a.794.794,0,0,1,.165-.223.3.3,0,0,1,.215-.006c.064.031.133.072.143.147a.281.281,0,0,1-.006.249l2.386.928-.19.464Z" transform="translate(-602.03 -1448.487)" fill="#00a8e7"/>
    <path id="Trazado_233" data-name="Trazado 233" d="M605.425,1478.131l1.383.523a1.115,1.115,0,0,1,.642.632,1.01,1.01,0,0,1,0,.878,1.035,1.035,0,0,1-.24.382,1.7,1.7,0,0,1-.363.263,2.54,2.54,0,0,1-.434.107,1.136,1.136,0,0,1-.489-.093l-1.383-.534a.358.358,0,0,1-.146.2.279.279,0,0,1-.22.006c-.054-.028-.123-.075-.137-.137a.425.425,0,0,1,.019-.274l.265-.626c.044-.122.092-.2.167-.223a.273.273,0,0,1,.2,0,.228.228,0,0,1,.148.145.453.453,0,0,1-.025.266l-.078.18,1.426.536a.519.519,0,0,0,.464-.033.6.6,0,0,0,.338-.353.67.67,0,0,0,.039-.343.657.657,0,0,0-.128-.331.476.476,0,0,0-.22-.148l-1.432-.545-.067.163a.268.268,0,0,1-.377.218.206.206,0,0,1-.142-.135.45.45,0,0,1,.023-.28l.27-.617a.464.464,0,0,1,.162-.216.238.238,0,0,1,.21-.014.286.286,0,0,1,.142.142A.348.348,0,0,1,605.425,1478.131Z" transform="translate(-602.431 -1447.292)" fill="#e5007d"/>
    <path id="Trazado_234" data-name="Trazado 234" d="M606.841,1490.08l.358,2.031.533-.082a.4.4,0,0,1,.293.012.26.26,0,0,1,.123.174.232.232,0,0,1-.05.205.438.438,0,0,1-.249.125l-1.613.269a.454.454,0,0,1-.293-.017.283.283,0,0,1-.117-.171.246.246,0,0,1,.062-.206.456.456,0,0,1,.26-.124l.528-.086-.367-2.031-.537.09a.441.441,0,0,1-.3-.022.241.241,0,0,1-.114-.178.2.2,0,0,1,.045-.2.361.361,0,0,1,.258-.112l1.593-.3a.409.409,0,0,1,.293.042.194.194,0,0,1,.123.176.242.242,0,0,1-.039.193.5.5,0,0,1-.269.12Z" transform="translate(-601.691 -1440.749)" fill="#e5007d"/>
    <path id="Trazado_235" data-name="Trazado 235" d="M609.1,1489.307a.386.386,0,0,1,.087-.124.308.308,0,0,1,.128-.042.256.256,0,0,1,.2.034.4.4,0,0,1,.128.268l.078.417a.419.419,0,0,1-.023.3.231.231,0,0,1-.182.1.381.381,0,0,1-.174-.021.352.352,0,0,1-.132-.2.279.279,0,0,0-.112-.146.574.574,0,0,0-.324-.137.886.886,0,0,0-.4,0,.83.83,0,0,0-.421.184.961.961,0,0,0-.3.385.911.911,0,0,0-.054.57l.064.343a.832.832,0,0,0,.4.575,1.1,1.1,0,0,0,.822.109,1.254,1.254,0,0,0,.489-.161.739.739,0,0,0,.215-.222c.048-.069.083-.115.112-.128a.157.157,0,0,1,.1-.041.213.213,0,0,1,.2.041.218.218,0,0,1,.107.182c.03.048,0,.146-.053.237a1.269,1.269,0,0,1-.352.341,1.739,1.739,0,0,1-.718.269,1.769,1.769,0,0,1-.88-.042,1.376,1.376,0,0,1-.621-.385,1.469,1.469,0,0,1-.352-.684l-.048-.349a1.485,1.485,0,0,1,.044-.78,1.381,1.381,0,0,1,.434-.645,1.478,1.478,0,0,1,.69-.31,1.6,1.6,0,0,1,.439-.02A1.047,1.047,0,0,1,609.1,1489.307Z" transform="translate(-600.74 -1440.927)" fill="#00a8e7"/>
    <path id="Trazado_236" data-name="Trazado 236" d="M612.621,1491.191a.474.474,0,0,0-.279,0l-1.412-2.185-.128-.188-1.138.21a.418.418,0,0,0-.255.108.261.261,0,0,0-.048.209c.029.073.048.126.121.16a.506.506,0,0,0,.29.034l.352-.068-.464,2.192c-.128.021-.245.059-.269.115a.29.29,0,0,0-.059.193.349.349,0,0,0,.117.184.619.619,0,0,0,.3.019l.713-.121a.438.438,0,0,0,.244-.114.229.229,0,0,0,.05-.2.221.221,0,0,0-.107-.179.422.422,0,0,0-.29-.014l-.121.014.073-.331.507-.107.768-.115.2.291-.133.025a.35.35,0,0,0-.269.111.258.258,0,0,0-.044.207.33.33,0,0,0,.118.171.429.429,0,0,0,.3.023l.69-.122a.5.5,0,0,0,.277-.115.278.278,0,0,0,.05-.207A.308.308,0,0,0,612.621,1491.191Zm-1.775-.6-.42.073.23-1.11.224.347.4.62Z" transform="translate(-599.474 -1441.103)" fill="#e5007d"/>
    <path id="Trazado_237" data-name="Trazado 237" d="M612.95,1491.094h0a.452.452,0,0,1,.3.023.264.264,0,0,1,.112.163.3.3,0,0,1-.044.217.667.667,0,0,1-.274.122l-.122.012.023-.537Zm.142-2.646-.043.532a.8.8,0,0,1,.441.047.355.355,0,0,1,.215.257.262.262,0,0,1-.043.2.789.789,0,0,1-.308.263,2.273,2.273,0,0,1-.333.136l-.039.523.2-.025a3.243,3.243,0,0,1,1.266.979l.273-.047a.413.413,0,0,0,.283-.114.263.263,0,0,0,.039-.2.235.235,0,0,0-.151-.187c-.048-.03-.107-.036-.263,0a4.884,4.884,0,0,0-.4-.4,4.157,4.157,0,0,0-.431-.311,1.078,1.078,0,0,0,.377-.43.671.671,0,0,0,.073-.462.878.878,0,0,0-.434-.606A1.072,1.072,0,0,0,613.092,1488.448Zm-.45,2.02.123.659.185-.032-.023.537-.68.12a.5.5,0,0,1-.293-.025.286.286,0,0,1-.117-.184.169.169,0,0,1,.053-.181.4.4,0,0,1,.26-.128l.092-.016-.375-2.021-.1.006a.421.421,0,0,1-.283-.028.2.2,0,0,1-.107-.177.235.235,0,0,1,.03-.195.458.458,0,0,1,.263-.119l1.207-.223c.078,0,.153,0,.215-.012l-.043.532h-.059l-.6.109.171.872h0l.4-.077h.058l-.039.523Z" transform="translate(-598.338 -1441.312)" fill="#00a8e7"/>
    <path id="Trazado_238" data-name="Trazado 238" d="M617.158,1490.391a.771.771,0,0,0-.26,0l-1.412-2.177-.122-.192-1.129.21a.531.531,0,0,0-.28.1.347.347,0,0,0-.033.218.231.231,0,0,0,.1.176.58.58,0,0,0,.3.026l.361-.068-.489,2.18a.386.386,0,0,0-.258.136.183.183,0,0,0-.044.182c.019.09.044.148.126.181a.471.471,0,0,0,.29.025l.693-.128a.413.413,0,0,0,.27-.117.229.229,0,0,0,.044-.2.234.234,0,0,0-.117-.173.361.361,0,0,0-.288-.022l-.128.022.073-.344.514-.085.786-.132.181.3-.137.017c-.126.022-.215.045-.254.113a.219.219,0,0,0-.064.2.252.252,0,0,0,.137.171.409.409,0,0,0,.274.036l.713-.132a.462.462,0,0,0,.269-.125.305.305,0,0,0,.048-.193A.488.488,0,0,0,617.158,1490.391Zm-1.755-.6-.44.072.244-1.095.235.349.386.6Z" transform="translate(-596.938 -1441.546)" fill="#e5007d"/>
    <path id="Trazado_239" data-name="Trazado 239" d="M618.853,1489.683l.132.681a2.57,2.57,0,0,1-.571.356,1.772,1.772,0,0,1-.534.167,2.174,2.174,0,0,1-.772.014,1.375,1.375,0,0,1-.469-.146,1.593,1.593,0,0,1-.62-.952l-.064-.375a1.443,1.443,0,0,1,1.241-1.736,1.49,1.49,0,0,1,.425-.04,1.226,1.226,0,0,1,.382.073.338.338,0,0,1,.19-.142.273.273,0,0,1,.215.056.451.451,0,0,1,.128.249l.05.335a.3.3,0,0,1-.03.269.255.255,0,0,1-.171.126.184.184,0,0,1-.162-.042c-.053-.012-.1-.043-.132-.146a.38.38,0,0,0-.117-.16.5.5,0,0,0-.263-.085,1.2,1.2,0,0,0-.4.018.959.959,0,0,0-.528.223.745.745,0,0,0-.249.377.784.784,0,0,0-.044.525l.053.391a.873.873,0,0,0,.381.59,1.2,1.2,0,0,0,.827.075,2.092,2.092,0,0,0,.64-.245l-.069-.374-.537.093a.464.464,0,0,1-.3-.032.23.23,0,0,1-.122-.17.247.247,0,0,1,.048-.195.413.413,0,0,1,.265-.118l1.079-.192a.286.286,0,0,1,.2.042c.073.025.1.09.117.173a.254.254,0,0,1-.044.2A.375.375,0,0,1,618.853,1489.683Z" transform="translate(-595.799 -1441.792)" fill="#00a8e7"/>
    <path id="Trazado_240" data-name="Trazado 240" d="M620.586,1487.734l.273,1.473a1,1,0,0,1-.21.874,1.089,1.089,0,0,1-.768.494,1.212,1.212,0,0,1-.923-.184,1.417,1.417,0,0,1-.327-.3.935.935,0,0,1-.185-.465l-.269-1.467a.8.8,0,0,1-.3-.015.24.24,0,0,1-.1-.175.263.263,0,0,1,.025-.208.442.442,0,0,1,.274-.121l.719-.125a.417.417,0,0,1,.272.027.222.222,0,0,1,.118.171.313.313,0,0,1-.05.21.439.439,0,0,1-.235.1l-.19.044.274,1.53a.625.625,0,0,0,.288.376.7.7,0,0,0,.489.078.739.739,0,0,0,.357-.142.646.646,0,0,0,.206-.3.363.363,0,0,0,.019-.262l-.283-1.533-.185.041a.49.49,0,0,1-.265-.041.2.2,0,0,1-.126-.168.2.2,0,0,1,.055-.2.558.558,0,0,1,.224-.124l.729-.115a.464.464,0,0,1,.3.02.3.3,0,0,1,.117.168.259.259,0,0,1-.044.21A.425.425,0,0,1,620.586,1487.734Z" transform="translate(-594.775 -1442.003)" fill="#e5007d"/>
    <path id="Trazado_241" data-name="Trazado 241" d="M623.31,1489.336c-.048-.042-.131-.042-.268-.02l-1.428-2.18-.126-.176-1.124.2c-.137.017-.226.052-.265.115a.208.208,0,0,0-.048.2.278.278,0,0,0,.117.171.5.5,0,0,0,.293.027l.352-.061-.474,2.184a.532.532,0,0,0-.279.108c-.03.064-.073.134-.03.215a.22.22,0,0,0,.107.166.481.481,0,0,0,.294.022l.7-.124a.449.449,0,0,0,.263-.112.268.268,0,0,0,.05-.217.388.388,0,0,0-.128-.167.478.478,0,0,0-.284-.02l-.137.016.087-.325.509-.1.782-.129.19.288-.121.025a.45.45,0,0,0-.288.115.257.257,0,0,0-.039.2.224.224,0,0,0,.112.181.65.65,0,0,0,.3.03l.7-.129a.472.472,0,0,0,.269-.121.289.289,0,0,0,.044-.2A.206.206,0,0,0,623.31,1489.336Zm-1.778-.607-.441.069.24-1.109.24.357.4.606Z" transform="translate(-593.522 -1442.138)" fill="#00a8e7"/>
    <path id="Trazado_242" data-name="Trazado 242" d="M624.894,1486.976l.385,2.024.358-.047a.423.423,0,0,1,.293.019.226.226,0,0,1,.107.171.247.247,0,0,1-.034.206.536.536,0,0,1-.283.111l-1.243.212a.355.355,0,0,1-.277-.012.22.22,0,0,1-.118-.181.192.192,0,0,1,.045-.184c.034-.071.126-.1.254-.134l.361-.047-.377-2.037-.572.089.089.492c.023.125.023.227-.034.271a.2.2,0,0,1-.182.123.166.166,0,0,1-.181-.047.43.43,0,0,1-.135-.262l-.176-1,2.742-.477.19,1.011a.5.5,0,0,1-.03.274.22.22,0,0,1-.181.109.182.182,0,0,1-.187-.047.285.285,0,0,1-.135-.249l-.084-.486Z" transform="translate(-591.761 -1442.523)" fill="#e5007d"/>
    <path id="Trazado_243" data-name="Trazado 243" d="M626.737,1488.691h0a.368.368,0,0,1,.288.027.239.239,0,0,1,.128.168.254.254,0,0,1-.05.2c-.044.068-.126.089-.263.115l-.132.039.03-.551Zm.123-2.65-.02.539a.683.683,0,0,1,.439.048.42.42,0,0,1,.216.246.307.307,0,0,1-.07.224.643.643,0,0,1-.272.237.942.942,0,0,1-.361.139l-.025.541.176-.042a3.5,3.5,0,0,1,1.294,1l.265-.062a.38.38,0,0,0,.274-.115c.039-.062.078-.118.039-.2a.218.218,0,0,0-.128-.181.4.4,0,0,0-.268-.009c-.182-.176-.313-.313-.406-.394a4.688,4.688,0,0,0-.434-.313,1.293,1.293,0,0,0,.377-.42.8.8,0,0,0,.069-.47.878.878,0,0,0-.436-.612A1.267,1.267,0,0,0,626.86,1486.041Zm-.441,2.016.128.673.19-.039-.03.551-.684.1c-.137.034-.23.034-.283-.014a.257.257,0,0,1-.123-.174.48.48,0,0,1,.044-.2.442.442,0,0,1,.274-.115l.084-.027-.381-2.035-.073.025c-.142.014-.235.014-.294-.034a.218.218,0,0,1-.122-.174.2.2,0,0,1,.048-.185c.044-.072.132-.1.265-.133l1.2-.206c.078-.009.151-.023.2-.029l-.02.539a.184.184,0,0,0-.059.009l-.6.09.146.879h0l.427-.084h.039l-.025.541Z" transform="translate(-590.663 -1442.651)" fill="#00a8e7"/>
    <path id="Trazado_244" data-name="Trazado 244" d="M628.84,1486.24l.372,2.034.556-.09a.5.5,0,0,1,.274.022.209.209,0,0,1,.123.17.3.3,0,0,1-.05.207.409.409,0,0,1-.263.121l-1.6.277a.342.342,0,0,1-.279-.03.215.215,0,0,1-.126-.159.2.2,0,0,1,.048-.21.371.371,0,0,1,.258-.125l.534-.09-.377-2.038-.532.1a.462.462,0,0,1-.3-.014.475.475,0,0,1-.117-.174.272.272,0,0,1,.044-.2.577.577,0,0,1,.269-.128l1.607-.266a.337.337,0,0,1,.274.012.23.23,0,0,1,.132.174.225.225,0,0,1-.048.207.483.483,0,0,1-.26.121Z" transform="translate(-589.427 -1442.885)" fill="#e5007d"/>
    <path id="Trazado_245" data-name="Trazado 245" d="M631.861,1485.77l.269,1.479a1.026,1.026,0,0,1-.2.873,1.222,1.222,0,0,1-.777.5,1.875,1.875,0,0,1-.478-.013,1.4,1.4,0,0,1-.441-.191,1.191,1.191,0,0,1-.328-.29,1,1,0,0,1-.185-.477l-.268-1.465a.421.421,0,0,1-.3-.014.311.311,0,0,1-.068-.386.4.4,0,0,1,.269-.117l.7-.12a.381.381,0,0,1,.268.017.24.24,0,0,1,.128.176.222.222,0,0,1-.048.207.335.335,0,0,1-.24.1l-.19.046.279,1.537a.517.517,0,0,0,.288.371.674.674,0,0,0,.494.085.626.626,0,0,0,.341-.14.981.981,0,0,0,.226-.3.385.385,0,0,0,.014-.269l-.288-1.525-.181.039a.4.4,0,0,1-.269-.033.213.213,0,0,1-.117-.177.175.175,0,0,1,.048-.187.284.284,0,0,1,.226-.121l.732-.134a.478.478,0,0,1,.29.026.207.207,0,0,1,.122.181.185.185,0,0,1-.053.188A.392.392,0,0,1,631.861,1485.77Z" transform="translate(-588.494 -1443.098)" fill="#00a8e7"/>
    <path id="Trazado_246" data-name="Trazado 246" d="M632.368,1486.17l.3,1.559.185-.034a.547.547,0,0,1,.283.029.279.279,0,0,1,.122.171.262.262,0,0,1-.034.2c-.048.07-.165.1-.274.132l-.722.118a.457.457,0,0,1-.3-.026c-.058-.02-.092-.086-.122-.176a.232.232,0,0,1,.064-.195.51.51,0,0,1,.263-.12l-.375-2.038-.089.022a.4.4,0,0,1-.288-.026.253.253,0,0,1-.123-.179.294.294,0,0,1,.045-.2.465.465,0,0,1,.268-.121l.612-.1,1.755,1.841-.3-1.559-.2.026a.462.462,0,0,1-.293-.026.3.3,0,0,1-.1-.162.236.236,0,0,1,.05-.2c.039-.065.135-.095.258-.137l.718-.108a.5.5,0,0,1,.3.015.311.311,0,0,1,.117.181.206.206,0,0,1-.057.2.544.544,0,0,1-.269.115l.484,2.546-.514.089Z" transform="translate(-587.256 -1443.318)" fill="#e5007d"/>
    <path id="Trazado_247" data-name="Trazado 247" d="M634.812,1486.565l.143.765.556-.093a.479.479,0,0,1,.284.026.209.209,0,0,1,.123.17.242.242,0,0,1-.048.2.4.4,0,0,1-.265.114l-1.168.2a.408.408,0,0,1-.288-.011.3.3,0,0,1-.118-.178.334.334,0,0,1,.05-.207.6.6,0,0,1,.263-.121l.084-.017-.372-2.029-.083.017a.466.466,0,0,1-.294-.03.2.2,0,0,1-.117-.182.18.18,0,0,1,.048-.179c.039-.067.128-.1.265-.128l2.5-.439.137.794a.389.389,0,0,1-.02.288.184.184,0,0,1-.171.1.25.25,0,0,1-.2-.039.4.4,0,0,1-.123-.261l-.053-.27-1.359.24.137.752.469-.092c-.028-.115-.028-.2.011-.244a.277.277,0,0,1,.2-.146.229.229,0,0,1,.2.048.347.347,0,0,1,.117.252l.109.52a.428.428,0,0,1-.036.284.24.24,0,0,1-.17.12.272.272,0,0,1-.24-.081c-.043-.017-.068-.09-.093-.234Z" transform="translate(-585.977 -1443.539)" fill="#00a8e7"/>
    <path id="Trazado_248" data-name="Trazado 248" d="M639.085,1486.791a.237.237,0,0,0-.142-.189c-.028-.028-.126-.028-.268-.008l-1.412-2.177-.123-.192-1.144.2a.473.473,0,0,0-.263.123.263.263,0,0,0-.039.207.218.218,0,0,0,.117.152.335.335,0,0,0,.29.033l.356-.065-.47,2.177c-.137.045-.22.072-.263.14a.184.184,0,0,0-.044.19.207.207,0,0,0,.1.17.454.454,0,0,0,.3.034l.694-.133a.377.377,0,0,0,.268-.111.221.221,0,0,0,.039-.207.209.209,0,0,0-.1-.168.61.61,0,0,0-.308-.02l-.118.02.059-.33.539-.1.761-.146.2.294-.123.04a.41.41,0,0,0-.263.107.247.247,0,0,0-.068.215.462.462,0,0,0,.117.169.5.5,0,0,0,.318.019l.685-.134a.35.35,0,0,0,.268-.11A.212.212,0,0,0,639.085,1486.791Zm-1.906-.8-.435.085.245-1.112.219.341.4.612Z" transform="translate(-584.799 -1443.661)" fill="#e5007d"/>
    <path id="Trazado_249" data-name="Trazado 249" d="M639.374,1484.2l.148,1.594a.245.245,0,0,1-.05.192c-.034.064-.1.084-.176.118a.282.282,0,0,1-.313-.226l-.444-1.524c-.011-.087-.02-.141-.045-.162a.448.448,0,0,1,.078-.352.437.437,0,0,1,.279-.172.579.579,0,0,1,.328.075.439.439,0,0,1,.171.3c.019.011.019.087.023.161Zm.382,2.58h0a.229.229,0,0,1-.048.21.394.394,0,0,1-.221.128.336.336,0,0,1-.243-.039.344.344,0,0,1-.128-.184.348.348,0,0,1,.064-.2.331.331,0,0,1,.22-.109.334.334,0,0,1,.24.03A.218.218,0,0,1,639.756,1486.781Z" transform="translate(-583.227 -1443.972)" fill="#00a8e7"/>
    <path id="Trazado_250" data-name="Trazado 250" d="M618.326,1472.11a.845.845,0,0,1-.48-1.132,1.165,1.165,0,0,1,1.2-.64,2.446,2.446,0,0,1,1.828,1.1c.508.687.884,1.791.279,2.292a1.71,1.71,0,0,1-1.355.291,2.624,2.624,0,0,0-.908.094c-.388.145-.93.533-1.193.039-.279-.489.048-.994.459-1.325C618.418,1472.637,618.77,1472.273,618.326,1472.11Z" transform="translate(-594.87 -1451.4)" fill="#e5007d"/>
    <path id="Trazado_251" data-name="Trazado 251" d="M610.373,1484.722c.391-1.822,5.713-7.351,7.987-8.51a3.077,3.077,0,0,1,3.519.49,3.149,3.149,0,0,0,2.219.9,9.478,9.478,0,0,0,2.3-1.173,2.4,2.4,0,0,1,2.234.1,10.411,10.411,0,0,0,1.862.816c.585.173,1.148-.281,1.545-.466a2.071,2.071,0,0,1,1.773.145,4.773,4.773,0,0,0,1.721.758,13.087,13.087,0,0,1,2.258-.108c.846.186,1.95.4,2.013.972a1,1,0,0,1-1.022,1.22c-.626.023-1.3-.461-1.725-.52a1.186,1.186,0,0,0-1.007.218c-.181.217-.967.843-1.49.537-.61-.361-1.036-.679-1.378-.88-.542-.284-1.207.241-1.632.657a1.953,1.953,0,0,1-1.981.271c-.738-.237-2.052-1.823-3.265-.8-.5.439-1.4,1.475-2.027,2.121a1.465,1.465,0,0,1-1.662.2,20.648,20.648,0,0,1-1.97-1.217c-.733-.7-1.814-1.014-3.069.188-.47.446-2.957,3.712-4.541,4.916C611.927,1486.4,610.1,1485.988,610.373,1484.722Z" transform="translate(-598.907 -1448.325)" fill="#f07d00"/>
    <path id="Trazado_252" data-name="Trazado 252" d="M618.576,1472.2s-3.837.611-4,.623c-.4.073-.572-.321-.034-.4.534-.1,3.779-.4,3.974-.4S619.3,1472.066,618.576,1472.2Z" transform="translate(-596.758 -1450.459)" fill="#fff100"/>
    <path id="Trazado_253" data-name="Trazado 253" d="M618.34,1473.164s-3.479,1.987-3.636,2.061c-.366.173-.674-.176-.185-.438.459-.283,3.494-1.716,3.67-1.823C618.433,1472.864,619.509,1472.423,618.34,1473.164Z" transform="translate(-596.723 -1450.06)" fill="#fff100"/>
    <path id="Trazado_254" data-name="Trazado 254" d="M618.759,1473.49s.21,3.318.21,3.466c-.011.341-.4.434-.436-.016s.02-3.245.02-3.4C618.554,1473.33,618.7,1472.691,618.759,1473.49Z" transform="translate(-594.351 -1449.861)" fill="#fff100"/>
    <path id="Trazado_255" data-name="Trazado 255" d="M618.286,1473.583l-1.735,2.741c-.131.2-.571.121-.347-.245.249-.355,1.784-2.462,1.907-2.569C618.243,1473.351,618.816,1472.658,618.286,1473.583Z" transform="translate(-595.678 -1449.854)" fill="#fff100"/>
    <path id="Trazado_256" data-name="Trazado 256" d="M618.472,1473.567s-.171,2.587-.171,2.685c-.03.212-.444.324-.421-.025.016-.364.367-2.51.377-2.647C618.3,1473.4,618.481,1472.688,618.472,1473.567Z" transform="translate(-594.71 -1449.839)" fill="#fff100"/>
    <path id="Trazado_257" data-name="Trazado 257" d="M618.044,1473.307s-1.867,1.833-1.961,1.9c-.137.141-.528-.025-.272-.288s1.964-1.635,2.076-1.716C618.044,1473.08,618.666,1472.656,618.044,1473.307Z" transform="translate(-595.909 -1449.942)" fill="#fff100"/>
    <path id="Trazado_258" data-name="Trazado 258" d="M618.141,1472.65s-2.654.79-2.756.824c-.386.1-.528-.338-.171-.462s2.493-.55,2.786-.567C618.152,1472.423,619.016,1472.305,618.141,1472.65Z" transform="translate(-596.309 -1450.245)" fill="#fff100"/>
    <path id="Trazado_259" data-name="Trazado 259" d="M618.482,1473.571s-.875,2.558-.925,2.672c-.137.349-.576.224-.478-.147.1-.335,1-2.287,1.138-2.552C618.3,1473.412,618.706,1472.672,618.482,1473.571Z" transform="translate(-595.164 -1449.842)" fill="#fff100"/>
    <path id="Trazado_260" data-name="Trazado 260" d="M619.18,1473.492s.6,2.652.626,2.772a.277.277,0,1,1-.533.154c-.093-.365-.319-2.508-.338-2.814C618.935,1473.458,618.926,1472.6,619.18,1473.492Z" transform="translate(-594.122 -1449.863)" fill="#fff100"/>
    <path id="Trazado_261" data-name="Trazado 261" d="M618.373,1471.533s-2.879-.621-3-.632c-.313-.042-.42.268-.03.353s2.831.408,2.973.438C618.51,1471.713,619.36,1471.786,618.373,1471.533Z" transform="translate(-596.263 -1451.088)" fill="#fff100"/>
    <path id="Trazado_262" data-name="Trazado 262" d="M618.488,1470.873s-.567-2.476-.61-2.583c-.093-.24-.489-.223-.411.127s.763,2.356.806,2.474C618.332,1471.046,618.639,1471.728,618.488,1470.873Z" transform="translate(-594.945 -1452.63)" fill="#fff100"/>
    <path id="Trazado_263" data-name="Trazado 263" d="M618.262,1471.365s-2.454-2.059-2.571-2.154c-.181-.146-.557.061-.24.338s2.523,1.855,2.658,1.94C618.28,1471.609,619.064,1472.091,618.262,1471.365Z" transform="translate(-596.131 -1452.053)" fill="#fff100"/>
    <path id="Trazado_264" data-name="Trazado 264" d="M618.349,1470.957s-.934-2.135-.973-2.226c-.171-.355-.548-.149-.425.142s1.119,2.01,1.177,2.111C618.217,1471.14,618.628,1471.69,618.349,1470.957Z" transform="translate(-595.241 -1452.399)" fill="#fff100"/>
    <path id="Trazado_265" data-name="Trazado 265" d="M618.785,1470.818s-.123-2.394-.146-2.493c-.039-.4-.475-.31-.459,0,.034.308.352,2.331.382,2.454C618.6,1470.954,618.81,1471.608,618.785,1470.818Z" transform="translate(-594.543 -1452.669)" fill="#fff100"/>
    <path id="Trazado_266" data-name="Trazado 266" d="M618.362,1471.488s-2.66-1.315-2.786-1.383c-.21-.1-.557.223-.185.4.347.2,2.708,1.1,2.85,1.151C618.444,1471.74,619.276,1471.985,618.362,1471.488Z" transform="translate(-596.188 -1451.54)" fill="#fff100"/>
    <path id="Trazado_267" data-name="Trazado 267" d="M618.335,1471.675s-3.06-.2-3.2-.2c-.441-.022-.43.534,0,.553.416.042,2.82-.054,3.147-.093C618.433,1471.909,619.38,1471.809,618.335,1471.675Z" transform="translate(-596.419 -1450.768)" fill="#fff100"/>
    <path id="Trazado_268" data-name="Trazado 268" d="M618.24,1471.178s-1.559-2.122-1.637-2.208c-.21-.308-.6-.055-.406.232.206.3,1.608,1.859,1.819,2.068C618.119,1471.362,618.725,1471.927,618.24,1471.178Z" transform="translate(-595.675 -1452.239)" fill="#fff100"/>
    <path id="Trazado_269" data-name="Trazado 269" d="M620.9,1471.95s3.851-.445,4.017-.459c.411-.039.445-.472-.083-.394-.528.051-3.754.614-3.935.677S619.557,1472.078,620.9,1471.95Z" transform="translate(-593.384 -1450.982)" fill="#fff100"/>
    <path id="Trazado_270" data-name="Trazado 270" d="M621.037,1472.53s4.257,1,4.438,1.048c.411.061.582-.349.064-.494s-4.2-.733-4.4-.772C620.871,1472.273,619.7,1472.135,621.037,1472.53Z" transform="translate(-593.301 -1450.33)" fill="#fff100"/>
    <path id="Trazado_271" data-name="Trazado 271" d="M619.438,1473.388s.729,3.258.763,3.393c.128.319.523.305.43-.135s-.933-3.109-.992-3.278C619.586,1473.167,619.253,1472.629,619.438,1473.388Z" transform="translate(-593.872 -1449.919)" fill="#fff100"/>
    <path id="Trazado_272" data-name="Trazado 272" d="M620.657,1473.141s2.356,2.085,2.454,2.18c.19.162.567-.025.249-.33-.3-.288-2.41-1.876-2.536-1.967C620.647,1472.906,619.889,1472.4,620.657,1473.141Z" transform="translate(-593.35 -1450.057)" fill="#fff100"/>
    <path id="Trazado_273" data-name="Trazado 273" d="M619.863,1473.353s.908,2.437.937,2.542c.069.182.514.182.386-.148s-1.065-2.307-1.134-2.428C619.97,1473.142,619.6,1472.506,619.863,1473.353Z" transform="translate(-593.656 -1449.959)" fill="#fff100"/>
    <path id="Trazado_274" data-name="Trazado 274" d="M620.809,1472.823a25.67,25.67,0,0,0,2.547,1.279c.171.09.512-.188.195-.36s-2.512-1.043-2.653-1.091C620.722,1472.574,620.036,1472.355,620.809,1472.823Z" transform="translate(-593.278 -1450.177)" fill="#fff100"/>
    <path id="Trazado_275" data-name="Trazado 275" d="M620.835,1472.191s2.968.073,3.08.073c.4,0,.409-.466.039-.484s-2.963.115-3.261.158C620.547,1471.959,619.882,1472.094,620.835,1472.191Z" transform="translate(-593.344 -1450.597)" fill="#fff100"/>
    <path id="Trazado_276" data-name="Trazado 276" d="M620.155,1473.22s1.565,2.232,1.632,2.334c.235.288.631.034.436-.271-.215-.308-1.632-1.944-1.853-2.165C620.278,1473.025,619.823,1472.734,620.155,1473.22Z" transform="translate(-593.509 -1449.946)" fill="#fff100"/>
    <path id="Trazado_277" data-name="Trazado 277" d="M620.384,1471.409s2.6-1.362,2.717-1.417c.279-.11.489.14.128.344-.357.179-2.614,1.157-2.737,1.215C620.311,1471.624,619.53,1471.911,620.384,1471.409Z" transform="translate(-593.533 -1451.607)" fill="#fff100"/>
    <path id="Trazado_278" data-name="Trazado 278" d="M618.932,1470.907s-.078-2.637-.078-2.745c.028-.267.43-.336.444.008.03.334-.151,2.575-.151,2.687C619.147,1471.027,619.028,1471.768,618.932,1470.907Z" transform="translate(-594.167 -1452.738)" fill="#fff100"/>
    <path id="Trazado_279" data-name="Trazado 279" d="M619.982,1471.309s1.979-2.726,2.062-2.846c.137-.2.573-.1.318.266s-2.087,2.529-2.185,2.647C620.035,1471.544,619.42,1472.227,619.982,1471.309Z" transform="translate(-593.668 -1452.499)" fill="#fff100"/>
    <path id="Trazado_280" data-name="Trazado 280" d="M619.248,1470.914s.357-2.36.357-2.457c.03-.383.5-.3.45.008-.02.308-.539,2.3-.562,2.41C619.449,1471.052,619.2,1471.7,619.248,1470.914Z" transform="translate(-593.95 -1452.59)" fill="#fff100"/>
    <path id="Trazado_281" data-name="Trazado 281" d="M620.223,1471.358s2.194-1.99,2.3-2.073c.156-.149.59.069.279.338-.279.276-2.273,1.781-2.4,1.876C620.223,1471.62,619.51,1472.068,620.223,1471.358Z" transform="translate(-593.577 -1452.013)" fill="#fff100"/>
    <path id="Trazado_282" data-name="Trazado 282" d="M620.611,1471.526s2.893-1.009,3.016-1.048c.406-.132.562.382.171.531s-2.728.71-3.06.752C620.562,1471.79,619.639,1471.937,620.611,1471.526Z" transform="translate(-593.432 -1451.333)" fill="#fff100"/>
    <path id="Trazado_283" data-name="Trazado 283" d="M619.575,1471.113s1.12-2.533,1.145-2.649c.146-.341.6-.215.484.128s-1.242,2.287-1.394,2.529C619.742,1471.237,619.326,1471.957,619.575,1471.113Z" transform="translate(-593.809 -1452.555)" fill="#fff100"/>
    <path id="Trazado_284" data-name="Trazado 284" d="M618.091,1464.49a11.283,11.283,0,0,1,3.569.027c-.293-.361-.587-.676-.827-.975a11.373,11.373,0,0,0-2.884.059c-.332.064-.654.125-1,.21-.2.365-.4.714-.592,1.09A10.349,10.349,0,0,1,618.091,1464.49Z" transform="translate(-595.556 -1455.221)" fill="#fff100"/>
    <path id="Trazado_285" data-name="Trazado 285" d="M623.95,1466c-.311-.386-.629-.748-.937-1.082a11.074,11.074,0,0,0-4.305-.176,12.118,12.118,0,0,0-2.527.686c-.23.4-.441.833-.66,1.244a10.929,10.929,0,0,1,3.334-1.059A11.178,11.178,0,0,1,623.95,1466Z" transform="translate(-596.024 -1454.59)" fill="#00adee"/>
    <path id="Trazado_286" data-name="Trazado 286" d="M619.246,1466.177a11.176,11.176,0,0,1,4.075.125h.068a14.112,14.112,0,0,1,1.844.561c-.347-.394-.69-.782-1.021-1.176a11.215,11.215,0,0,0-5.107-.372,11.516,11.516,0,0,0-3.354,1.045c-.22.444-.444.894-.679,1.337.142-.073.288-.168.434-.238A11.4,11.4,0,0,1,619.246,1466.177Z" transform="translate(-596.275 -1454.276)" fill="#2e3191"/>
    <path id="Trazado_287" data-name="Trazado 287" d="M626.612,1467.867c-.366-.433-.747-.877-1.113-1.3a11.643,11.643,0,0,0-1.844-.575h-.068a11.265,11.265,0,0,0-7.816,1.157c-.146.07-.293.165-.434.244-.249.486-.508.982-.743,1.482a10.949,10.949,0,0,1,5.055-2.108A11.434,11.434,0,0,1,626.612,1467.867Z" transform="translate(-596.54 -1453.962)" fill="#e5007d"/>
    <path id="Trazado_288" data-name="Trazado 288" d="M620.425,1465.9h0Z" transform="translate(-593.31 -1453.873)" fill="#e01f26"/>
    <path id="Trazado_289" data-name="Trazado 289" d="M619.09,1465.865a11.4,11.4,0,0,0-3.74,1.282,11.266,11.266,0,0,1,7.815-1.157A11.181,11.181,0,0,0,619.09,1465.865Z" transform="translate(-596.119 -1453.964)" fill="#e01f26"/>
    <path id="Trazado_290" data-name="Trazado 290" d="M620.057,1467.336c.1-.012.22-.034.332-.04a1.568,1.568,0,0,0,.24-.033h.03a11.559,11.559,0,0,1,6.316,1.141c.4.218.825.438,1.2.679-.386-.482-.827-1-1.271-1.524a11.363,11.363,0,0,0-6.96-1.112,10.975,10.975,0,0,0-5.083,2.121c-.251.523-.519,1.056-.783,1.592A11.662,11.662,0,0,1,620.057,1467.336Z" transform="translate(-596.827 -1453.646)" fill="#2e3191"/>
    <path id="Trazado_291" data-name="Trazado 291" d="M627.338,1468.084a11.559,11.559,0,0,0-6.316-1.141h-.03a1.565,1.565,0,0,1-.24.033,1.747,1.747,0,0,0-.288.033,11.675,11.675,0,0,0-6.011,2.826c-.324.671-.715,1.5-1.028,2.169a11.644,11.644,0,0,1,7.141-4.019,12.013,12.013,0,0,1,9.625,2.83c-.416-.553-1.007-1.288-1.652-2.051A11.568,11.568,0,0,0,627.338,1468.084Z" transform="translate(-597.191 -1453.326)" fill="#00a050"/>
    <path id="Trazado_292" data-name="Trazado 292" d="M618.315,1466.92h0Z" transform="translate(-594.484 -1453.303)" fill="#f09021"/>
    <path id="Trazado_293" data-name="Trazado 293" d="M622.777,1465.232c-.3-.364-.6-.707-.861-1.032a11.482,11.482,0,0,0-3.563-.027,10.649,10.649,0,0,0-1.778.411c-.21.391-.416.762-.631,1.159a11.275,11.275,0,0,1,2.527-.691A10.937,10.937,0,0,1,622.777,1465.232Z" transform="translate(-595.788 -1454.904)" fill="#00a050"/>
    <path id="Trazado_294" data-name="Trazado 294" d="M618.127,1464.174a11.489,11.489,0,0,1,3.563.027h-.023a11.276,11.276,0,0,0-3.569-.027,10.361,10.361,0,0,0-1.73.411h-.019A10.677,10.677,0,0,1,618.127,1464.174Z" transform="translate(-595.562 -1454.905)" fill="#fff100"/>
    <path id="Trazado_295" data-name="Trazado 295" d="M608.087,1488.636c2.014-1.333,6.149-2.261,8.617-2.812a90.5,90.5,0,0,1,12.141-1.836c6.369-.609,18.334-1.105,19.487-1.149,2.135-.069,1.168.506.928.515a217.472,217.472,0,0,0-22.987,3.088c-4.081.761-13.016,3.019-16.931,4.313C607.754,1491.285,606.709,1489.535,608.087,1488.636Z" transform="translate(-600.522 -1444.437)" fill="#fd0"/>
    <path id="Trazado_296" data-name="Trazado 296" d="M606.778,1497.821c-.607,2.179-.162,2.806.263,3.352.4.58,1.945,1.059,2.034-.632.122-2.108,4.429-13.612,5.514-16.724a118.445,118.445,0,0,1,12.277-23.88c.93-1.3,1.545-2.684-.215-.947-1.524,1.489-7.512,10.466-9.315,13.943C613.991,1479.432,609.418,1488.027,606.778,1497.821Z" transform="translate(-601.06 -1458.175)" fill="#00a8e7"/>
    <path id="Trazado_297" data-name="Trazado 297" d="M619.209,1462.408c-.2-.274-1.344-.428-.551.654s7.843,8.95,9.369,11.244c2.532,3.746,5.083,6.51,9.433,13.71,1.388,2.275,2.776,5.134,3.7,5.553.581.266,2.575.215,1.652-1.523-1.213-2.249-5.553-8.149-7.39-10.606-2.625-3.491-7.879-9.989-8.743-11.042C624.854,1468.18,619.629,1462.967,619.209,1462.408Z" transform="translate(-594.43 -1455.929)" fill="#c7d300"/>
    <path id="Trazado_298" data-name="Trazado 298" d="M785.37,1474.267l.053-1.159h.084a1.864,1.864,0,0,0,1.26-.448,1.4,1.4,0,0,0,.519-1.021h0a1.588,1.588,0,0,0-.391-1.02,1.725,1.725,0,0,0-1.3-.61l.039-1.157a2.926,2.926,0,0,1,1.33.384,2.553,2.553,0,0,1,1.074,1.057,2.807,2.807,0,0,1,.363,1.345,2.614,2.614,0,0,1-.357,1.28,2.718,2.718,0,0,1-1.056.984,3.3,3.3,0,0,1-1.481.364Zm.352-6.571.039-1.009.117-.095a.511.511,0,0,1,.3-.146.387.387,0,0,1,.274.106.4.4,0,0,1,.118.263c0,.114-.084.233-.24.363h0l-.606.519Zm5.112,1.31v.377a2.347,2.347,0,0,1,1.472-.531,2,2,0,0,1,1.568.63,1.853,1.853,0,0,1,.475,1.334v2.124a.81.81,0,0,1,.6.168.542.542,0,0,1,.181.408.505.505,0,0,1-.181.4.781.781,0,0,1-.6.167l-1.124,0a.756.756,0,0,1-.582-.171.484.484,0,0,1-.176-.408.478.478,0,0,1,.176-.4.764.764,0,0,1,.582-.172v-2.16a.722.722,0,0,0-.2-.539,1.086,1.086,0,0,0-.768-.229,1.653,1.653,0,0,0-.684.146,3.456,3.456,0,0,0-.738.64v2.141c.293,0,.478.042.547.12a.585.585,0,0,1,.235.456.5.5,0,0,1-.165.408.838.838,0,0,1-.617.167h-1.095a.813.813,0,0,1-.6-.167.538.538,0,0,1-.181-.408.629.629,0,0,1,.229-.461c.078-.081.26-.115.553-.115v-2.781a.891.891,0,0,1-.6-.146.546.546,0,0,1-.181-.416.562.562,0,0,1,.17-.425.881.881,0,0,1,.582-.162Zm-5.073-2.319-.039,1.009-.626.5a.446.446,0,0,1-.308.147.367.367,0,0,1-.259-.106.349.349,0,0,1-.1-.262.481.481,0,0,1,.219-.358l1.115-.933Zm-.128,2.165-.039,1.157a.209.209,0,0,0-.093-.017,1.709,1.709,0,0,0-1.261.493,1.568,1.568,0,0,0-.512,1.154,1.362,1.362,0,0,0,.512,1.013,1.845,1.845,0,0,0,1.183.456l-.053,1.159a3.141,3.141,0,0,1-1.33-.364,2.571,2.571,0,0,1-1.065-.984,2.544,2.544,0,0,1-.367-1.3,2.8,2.8,0,0,1,.367-1.352,2.634,2.634,0,0,1,1.065-1.043,2.955,2.955,0,0,1,1.461-.388c.045,0,.093.011.132.011Zm-18.841,5.367.058-1.163c.153-.034.313-.073.484-.128a3.606,3.606,0,0,0,.919-.438V1472h0a6.133,6.133,0,0,0-1.25-.143h-.084l.045-1.132.1-.017a8.4,8.4,0,0,1,1.187.112l-.023-.266a.422.422,0,0,0-.2-.412,1.439,1.439,0,0,0-.816-.168.712.712,0,0,0-.192.017l.055-1.167h.087a2.658,2.658,0,0,1,1.629.458,1.567,1.567,0,0,1,.576,1.263v2.368h.181a.867.867,0,0,1,.606.154.56.56,0,0,1,.176.409.54.54,0,0,1-.176.425.891.891,0,0,1-.606.154h-1.3v-.273a3.374,3.374,0,0,1-.937.341c-.181.047-.363.068-.523.094Zm8.343-5.025a.544.544,0,0,1,.416-.2.5.5,0,0,1,.385.174.84.84,0,0,1,.157.584v.733a.857.857,0,0,1-.157.6.55.55,0,0,1-.4.168.578.578,0,0,1-.375-.13.7.7,0,0,1-.192-.416.622.622,0,0,0-.307-.448,2.133,2.133,0,0,0-1.135-.269,1.77,1.77,0,0,0-1.275.465,1.62,1.62,0,0,0-.48,1.186,1.381,1.381,0,0,0,.47,1.066,2.433,2.433,0,0,0,1.524.4,3.771,3.771,0,0,0,1.133-.148,1.96,1.96,0,0,0,.5-.3.632.632,0,0,1,.42-.226.5.5,0,0,1,.4.179.521.521,0,0,1,.176.408.947.947,0,0,1-.514.713,3.816,3.816,0,0,1-2.2.516,3.213,3.213,0,0,1-2.034-.562,2.381,2.381,0,0,1-.978-2.015,2.765,2.765,0,0,1,.786-2.046,2.8,2.8,0,0,1,2.083-.794,3.991,3.991,0,0,1,.85.087,3.257,3.257,0,0,1,.747.274Zm5.146-.193.009,3.918h1.334a.99.99,0,0,1,.607.159.5.5,0,0,1,.156.428.511.511,0,0,1-.156.414.9.9,0,0,1-.607.157l-3.8-.008a.9.9,0,0,1-.592-.16.5.5,0,0,1-.17-.4.53.53,0,0,1,.17-.428.891.891,0,0,1,.592-.159h1.334l0-2.764h-.9a.861.861,0,0,1-.581-.163.535.535,0,0,1-.166-.421.493.493,0,0,1,.166-.408.737.737,0,0,1,.567-.17l2.043.008Zm-.171-2.18h0v1.2h-1.339v-1.2Zm-13.035,2-.055,1.167a5.481,5.481,0,0,0-1.109.171,1.6,1.6,0,0,1-.459.082.509.509,0,0,1-.382-.168.573.573,0,0,1-.151-.425.5.5,0,0,1,.19-.423,3.558,3.558,0,0,1,.425-.154,6.682,6.682,0,0,1,.846-.176,3.841,3.841,0,0,1,.695-.073Zm-.112,1.9-.045,1.132a1.93,1.93,0,0,0-1.1.349c-.195.142-.313.283-.313.445a.361.361,0,0,0,.167.262,1.292,1.292,0,0,0,.738.163,1.679,1.679,0,0,0,.439-.022l-.058,1.163a3.912,3.912,0,0,1-.4.027,2.12,2.12,0,0,1-1.47-.5,1.44,1.44,0,0,1-.582-1.075,1.772,1.772,0,0,1,.733-1.344,2.808,2.808,0,0,1,1.892-.6Zm-37.47,13.419.055-1.176a1.669,1.669,0,0,0,.562.089,3.076,3.076,0,0,0,.914-.162,2.837,2.837,0,0,0,.923-.445v-.477h0a5.7,5.7,0,0,0-1.243-.148,2.005,2.005,0,0,0-1.093.294l.069-1.3a4.108,4.108,0,0,1,1.084-.139,8.645,8.645,0,0,1,1.183.112v-.279a.541.541,0,0,0-.219-.413,1.461,1.461,0,0,0-.816-.161,5.141,5.141,0,0,0-1.2.174l.05-1.21c.1-.012.22-.039.322-.047a5.87,5.87,0,0,1,.768-.078,2.62,2.62,0,0,1,1.632.463,1.529,1.529,0,0,1,.587,1.272v2.359h.176a.827.827,0,0,1,.606.161.536.536,0,0,1,.185.419.565.565,0,0,1-.185.416.842.842,0,0,1-.606.148h-1.3v-.268a3.455,3.455,0,0,1-.93.349,4.777,4.777,0,0,1-.933.1,2.788,2.788,0,0,1-.592-.053Zm.533-9.952.059-1.138h.069a1.813,1.813,0,0,0,1.261-.475,1.358,1.358,0,0,0,.519-1h0a1.533,1.533,0,0,0-.388-1.021,1.659,1.659,0,0,0-1.3-.62l.05-1.158a2.984,2.984,0,0,1,1.334.391,2.717,2.717,0,0,1,1.07,1.043,2.809,2.809,0,0,1,.352,1.365,2.533,2.533,0,0,1-.352,1.269,2.621,2.621,0,0,1-1.065.984,3.187,3.187,0,0,1-1.481.364Zm5.3-5.257v.372a2.2,2.2,0,0,1,1.481-.526,2.106,2.106,0,0,1,1.579.626,1.956,1.956,0,0,1,.455,1.333l.009,2.138a.9.9,0,0,1,.592.142.524.524,0,0,1,.171.417.507.507,0,0,1-.171.419.813.813,0,0,1-.592.168H737.72a.828.828,0,0,1-.587-.168.625.625,0,0,1,0-.836.885.885,0,0,1,.587-.162l-.009-2.151a.642.642,0,0,0-.192-.554,1.176,1.176,0,0,0-.772-.219,1.648,1.648,0,0,0-.674.146,2.9,2.9,0,0,0-.747.644l.019,2.133a.836.836,0,0,1,.532.118.549.549,0,0,1,.246.455.517.517,0,0,1-.191.425.8.8,0,0,1-.587.156h-1.118a.761.761,0,0,1-.582-.167.5.5,0,0,1-.176-.414.563.563,0,0,1,.224-.462.9.9,0,0,1,.529-.111v-2.778a.838.838,0,0,1-.587-.146.565.565,0,0,1-.167-.431.539.539,0,0,1,.167-.413.886.886,0,0,1,.587-.154Zm9.134.21a.531.531,0,0,1,.4-.193.489.489,0,0,1,.409.182.907.907,0,0,1,.148.569v.752a.978.978,0,0,1-.142.587.6.6,0,0,1-.427.167.7.7,0,0,1-.385-.124,1.212,1.212,0,0,1-.182-.419.624.624,0,0,0-.313-.456,2.117,2.117,0,0,0-1.124-.269,1.661,1.661,0,0,0-1.26.476,1.588,1.588,0,0,0-.479,1.2,1.351,1.351,0,0,0,.45,1.057,2.422,2.422,0,0,0,1.525.382,4.059,4.059,0,0,0,1.144-.137,1.448,1.448,0,0,0,.5-.306.7.7,0,0,1,.43-.223.469.469,0,0,1,.382.18.615.615,0,0,1,.185.407c0,.254-.185.489-.512.723a3.849,3.849,0,0,1-2.2.51,3.277,3.277,0,0,1-2.038-.558,2.4,2.4,0,0,1-.987-2.03,2.734,2.734,0,0,1,2.868-2.84,4.945,4.945,0,0,1,.87.089,5.648,5.648,0,0,1,.743.276Zm5.059-.193v3.93h1.339a.863.863,0,0,1,.612.172.5.5,0,0,1,.165.411.529.529,0,0,1-.165.406.828.828,0,0,1-.612.172l-3.787-.006a.872.872,0,0,1-.6-.165.589.589,0,0,1-.178-.418.531.531,0,0,1,.178-.4.76.76,0,0,1,.581-.167h1.339V1470.1h-.9a.808.808,0,0,1-.582-.162.5.5,0,0,1-.176-.41.532.532,0,0,1,.176-.419.815.815,0,0,1,.582-.159Zm-.156-2.18h0V1468h-1.339l-.025-1.222Zm6.173.023v6.1h1.344a.9.9,0,0,1,.612.162.518.518,0,0,1,.17.411.475.475,0,0,1-.17.406.824.824,0,0,1-.607.172h-3.812a.8.8,0,0,1-.581-.172.585.585,0,0,1,0-.817.762.762,0,0,1,.581-.172l1.349.01,0-4.941h-.9a.949.949,0,0,1-.607-.17.616.616,0,0,1-.151-.419.59.59,0,0,1,.151-.42.971.971,0,0,1,.607-.158l2.023.011Zm6.021,2.174,0,3.935H762.9a.924.924,0,0,1,.592.15.6.6,0,0,1,.171.422.622.622,0,0,1-.171.425.908.908,0,0,1-.592.149h-3.817a.831.831,0,0,1-.587-.179.5.5,0,0,1-.16-.406.543.543,0,0,1,.16-.411.813.813,0,0,1,.587-.162h1.339v-2.772h-.9a.877.877,0,0,1-.581-.153.6.6,0,0,1-.171-.423.477.477,0,0,1,.171-.41.763.763,0,0,1,.581-.165Zm-.176-2.174h0v1.211h-1.344V1466.8Zm-23.494,9.972,0,6.11h1.348a.939.939,0,0,1,.592.156.533.533,0,0,1,.171.427.543.543,0,0,1-.171.414.875.875,0,0,1-.592.162l-3.8-.013a.837.837,0,0,1-.587-.156.529.529,0,0,1-.181-.416.512.512,0,0,1,.181-.419.805.805,0,0,1,.587-.161h1.33v-4.944h-.9a.827.827,0,0,1-.591-.167.574.574,0,0,1-.176-.411.621.621,0,0,1,.176-.425.893.893,0,0,1,.591-.159Zm-7.591-7.992-.05,1.158c-.039,0-.062-.013-.092,0a1.77,1.77,0,0,0-1.271.482,1.563,1.563,0,0,0-.494,1.159,1.356,1.356,0,0,0,.494,1,1.981,1.981,0,0,0,1.2.475l-.059,1.138a3.01,3.01,0,0,1-1.328-.364,2.818,2.818,0,0,1-1.081-.97,2.771,2.771,0,0,1-.357-1.311,2.868,2.868,0,0,1,.361-1.345,2.586,2.586,0,0,1,1.076-1.04,2.877,2.877,0,0,1,1.456-.386Zm-.533,10.129-.05,1.21-.1.03a2.088,2.088,0,0,1-.466.065.453.453,0,0,1-.366-.168.522.522,0,0,1-.167-.416.753.753,0,0,1,.048-.262.488.488,0,0,1,.167-.168,1.057,1.057,0,0,1,.4-.15c.176-.052.361-.092.532-.141Zm-.083,1.915-.069,1.3a.264.264,0,0,0-.079.051c-.215.15-.311.279-.311.436a.289.289,0,0,0,.146.266c.073.042.126.069.181.095l-.055,1.176a2.109,2.109,0,0,1-.88-.423,1.429,1.429,0,0,1-.557-1.087,1.7,1.7,0,0,1,.724-1.339,2.02,2.02,0,0,1,.9-.475Zm-12.709,2.994.064-1.4a.973.973,0,0,0,.162.157,1.961,1.961,0,0,0,2.521,0,1.347,1.347,0,0,0,.5-1.019h0a1.544,1.544,0,0,0-.382-1,1.867,1.867,0,0,0-2.659-.143l-.044.04.069-1.418a3.125,3.125,0,0,1,1.247-.274,2.9,2.9,0,0,1,1.461.409,2.44,2.44,0,0,1,1.074,1.034,2.829,2.829,0,0,1,.352,1.35,2.48,2.48,0,0,1-.352,1.28,2.608,2.608,0,0,1-1.054.989,3.211,3.211,0,0,1-1.476.364,3.505,3.505,0,0,1-1.476-.364l-.011-.014Zm.5-9.643.069-1.151h.243a6.665,6.665,0,0,0,1.658-.27,3.073,3.073,0,0,1,.586-.1.5.5,0,0,1,.372.147.61.61,0,0,1,.156.416.5.5,0,0,1-.16.386,2.784,2.784,0,0,1-1.067.4,7.179,7.179,0,0,1-1.616.176Zm.107-2.141.069-1.159h1.671a1.714,1.714,0,0,0-.674-.718,1.794,1.794,0,0,0-.948-.232l.069-1.158a2.825,2.825,0,0,1,1.1.241,2.678,2.678,0,0,1,.85.526,3.288,3.288,0,0,1,.66,1.036,2.785,2.785,0,0,1,.176.981v.483Zm8.064-2.918a.546.546,0,0,1,.811-.012.992.992,0,0,1,.156.6v.73a.919.919,0,0,1-.156.579.521.521,0,0,1-.406.176.6.6,0,0,1-.4-.129.881.881,0,0,1-.176-.416.7.7,0,0,0-.308-.464,2.362,2.362,0,0,0-1.134-.254,1.716,1.716,0,0,0-1.266.463,1.749,1.749,0,0,0-.489,1.207,1.437,1.437,0,0,0,.475,1.06,2.4,2.4,0,0,0,1.52.4,4.089,4.089,0,0,0,1.148-.157,1.681,1.681,0,0,0,.493-.313.668.668,0,0,1,.416-.2.546.546,0,0,1,.4.159.557.557,0,0,1,.187.424.988.988,0,0,1-.528.723,3.97,3.97,0,0,1-2.2.51,3.243,3.243,0,0,1-2.028-.57,2.365,2.365,0,0,1-.987-2.026,2.736,2.736,0,0,1,.791-2.027,2.841,2.841,0,0,1,2.082-.8,3.917,3.917,0,0,1,.866.08,4.284,4.284,0,0,1,.738.262Zm-2.253,9.819v.372a2.109,2.109,0,0,1,.674-.4,2.525,2.525,0,0,1,.791-.125,1.989,1.989,0,0,1,1.565.636,1.879,1.879,0,0,1,.484,1.319v2.127a.789.789,0,0,1,.581.167.506.506,0,0,1,.181.414.5.5,0,0,1-.181.427.884.884,0,0,1-.581.148L725.78,1484a.927.927,0,0,1-.606-.149.582.582,0,0,1-.162-.411.6.6,0,0,1,.162-.414.888.888,0,0,1,.585-.167v-2.168a.715.715,0,0,0-.185-.536,1.146,1.146,0,0,0-.777-.218,1.352,1.352,0,0,0-.66.143,3.014,3.014,0,0,0-.733.651v2.127a.817.817,0,0,1,.528.107.657.657,0,0,1,.24.457.614.614,0,0,1-.171.428.909.909,0,0,1-.6.149h-1.138a.885.885,0,0,1-.582-.149.588.588,0,0,1-.185-.428.582.582,0,0,1,.24-.457.873.873,0,0,1,.528-.107v-2.778a.9.9,0,0,1-.582-.154.547.547,0,0,1-.185-.416.575.575,0,0,1,.176-.428,1.007,1.007,0,0,1,.592-.154Zm-5.626-10.168-.069,1.158h-.054a1.961,1.961,0,0,0-.992.232,1.643,1.643,0,0,0-.42.349l.093-1.459a2.867,2.867,0,0,1,1.3-.28Zm-.117,2.108-.069,1.159H716.15l.059-1.159Zm-.107,2.149-.069,1.151a3.214,3.214,0,0,1-1.408-.388l.082-1.406a1.6,1.6,0,0,0,.43.374,2.056,2.056,0,0,0,.964.27Zm-.333,6.02-.069,1.418a1.567,1.567,0,0,0-.469,1.1,1.248,1.248,0,0,0,.366.857l-.064,1.4a2.5,2.5,0,0,1-1.045-.975,3.059,3.059,0,0,1-.3-.714l.087-1.445a2.472,2.472,0,0,1,.221-.484,2.637,2.637,0,0,1,1.07-1.048,1.785,1.785,0,0,1,.205-.109Zm-1.661,4.749a.559.559,0,0,0,.121-.364.532.532,0,0,0-.092-.316Zm.777-14.746-.093,1.459a2.329,2.329,0,0,0-.254.369h.235l-.059,1.159h-.21a1.453,1.453,0,0,0,.205.347l-.082,1.406a2.845,2.845,0,0,1-.518-.392,2.54,2.54,0,0,1-.807-1.9,2.445,2.445,0,0,1,.88-1.975,2.683,2.683,0,0,1,.7-.475Zm-.612,11.638-.087,1.445a2.276,2.276,0,0,1-.068-.567,2.83,2.83,0,0,1,.156-.878Zm-.136,2.428a.236.236,0,0,0-.089-.1.808.808,0,0,0-.59-.167l-1.35,0v-3.909h-2.038a.773.773,0,0,0-.576.148.509.509,0,0,0-.171.412.5.5,0,0,0,.176.416.8.8,0,0,0,.572.164h.919v2.769h-1.344a.832.832,0,0,0-.582.163.285.285,0,0,0-.092.132l-.044.525a1.211,1.211,0,0,0,.136.176.818.818,0,0,0,.582.154l3.814.012a.787.787,0,0,0,.59-.167.231.231,0,0,0,.059-.047l.029-.681Zm-4.687-9.3.044-.74a.527.527,0,0,1,.1.336.541.541,0,0,1-.146.4Zm.131-2.379a7.686,7.686,0,0,1,2.2,2.563h.567a.9.9,0,0,0,.576-.162.5.5,0,0,0,.181-.41.671.671,0,0,0-.224-.479.939.939,0,0,0-.532-.107c-.3-.443-.514-.78-.69-.99a6.152,6.152,0,0,0-.747-.8,3.16,3.16,0,0,0,.928-.786,1.715,1.715,0,0,0,.322-.99,1.964,1.964,0,0,0-.67-1.464,2.518,2.518,0,0,0-1.685-.587l-.064,1.134a1.608,1.608,0,0,1,.944.285.911.911,0,0,1,.352.6.621.621,0,0,1-.206.445,1.38,1.38,0,0,1-.674.421,2.173,2.173,0,0,1-.509.13l-.063,1.2Zm2.36,5.313h0v1.211h-1.344v-1.211Zm-2.14-9.53-.064,1.134h-1.33v1.9h.88a2.03,2.03,0,0,0,.357-.021l-.063,1.2a.1.1,0,0,0-.058-.034h-1.115v1.439h.411a.891.891,0,0,1,.606.157c.025.019.044.061.069.078l-.044.74a.018.018,0,0,0-.011.016,1.018,1.018,0,0,1-.62.168l-1.7-.008a.917.917,0,0,1-.585-.16.553.553,0,0,1-.176-.419.538.538,0,0,1,.176-.414.863.863,0,0,1,.585-.157h.167v-4.488h-.176a.826.826,0,0,1-.587-.158.555.555,0,0,1-.165-.4.565.565,0,0,1,.165-.424.824.824,0,0,1,.587-.154h2.536a1.353,1.353,0,0,1,.157.006Zm-.831,15.925-.044.525a.822.822,0,0,1-.034-.235.5.5,0,0,1,.078-.29Zm-9.267.855.073-1.245a4.136,4.136,0,0,0,.626-.33v-.483h0c-.21-.039-.4-.068-.578-.092l.064-1.16c.156.013.318.053.494.067v-.269a.48.48,0,0,0-.205-.408.553.553,0,0,0-.259-.1l.053-1.156a2.1,2.1,0,0,1,.958.4,1.529,1.529,0,0,1,.578,1.254v2.368h.195a.942.942,0,0,1,.607.156.688.688,0,0,1,.19.431.531.531,0,0,1-.19.41.894.894,0,0,1-.607.149h-1.3v-.268a3.684,3.684,0,0,1-.7.28Zm.522-9.849.055-1.152a1.5,1.5,0,0,0,.249.014,7.183,7.183,0,0,0,1.661-.267,3.339,3.339,0,0,1,.587-.12.559.559,0,0,1,.381.164.678.678,0,0,1,.156.416.547.547,0,0,1-.165.388,2.547,2.547,0,0,1-1.06.386,8.037,8.037,0,0,1-1.638.171Zm.118-2.135.064-1.146H703.5a1.739,1.739,0,0,0-.676-.733,1.927,1.927,0,0,0-.937-.245l.069-1.14a3.039,3.039,0,0,1,1.1.245,3.2,3.2,0,0,1,.88.531,4.274,4.274,0,0,1,.64,1.027,2.811,2.811,0,0,1,.166.982v.491l-2.962-.011Zm6.853,7.116a.628.628,0,0,1,.42-.209.5.5,0,0,1,.391.179.913.913,0,0,1,.146.587v.738a.9.9,0,0,1-.146.586.526.526,0,0,1-.406.183.585.585,0,0,1-.377-.137.708.708,0,0,1-.181-.411.674.674,0,0,0-.322-.447,1.991,1.991,0,0,0-1.129-.285,1.761,1.761,0,0,0-1.271.47,1.662,1.662,0,0,0-.475,1.2,1.434,1.434,0,0,0,.455,1.076,2.518,2.518,0,0,0,1.526.377,3.464,3.464,0,0,0,1.138-.15,1.27,1.27,0,0,0,.489-.3.641.641,0,0,1,.435-.215.513.513,0,0,1,.4.169.617.617,0,0,1,.17.411.946.946,0,0,1-.5.732,4.107,4.107,0,0,1-2.21.5,3.317,3.317,0,0,1-2.032-.565,2.389,2.389,0,0,1-.987-2.03,2.724,2.724,0,0,1,.8-2.031,2.846,2.846,0,0,1,2.077-.786,3.233,3.233,0,0,1,.866.087A2.646,2.646,0,0,1,708.634,1479.123Zm-6.677-10.38-.069,1.14h-.043a2.053,2.053,0,0,0-1,.245,1.821,1.821,0,0,0-.679.733h1.682l-.064,1.146h-1.643a1.62,1.62,0,0,0,.617.73,2.091,2.091,0,0,0,.962.253l-.055,1.152a2.969,2.969,0,0,1-1.934-.761,2.753,2.753,0,0,1-.818-1.921,2.42,2.42,0,0,1,.889-1.956,2.926,2.926,0,0,1,2-.766,1.228,1.228,0,0,0,.157.006Zm-.548,10.07-.053,1.156a1.918,1.918,0,0,0-.573-.067,5.346,5.346,0,0,0-1.28.2,2.164,2.164,0,0,1-.469.061.492.492,0,0,1-.382-.165.708.708,0,0,1-.1-.676.631.631,0,0,1,.167-.173,2.127,2.127,0,0,1,.4-.149,8.522,8.522,0,0,1,.846-.176,3.965,3.965,0,0,1,.782-.069,2.947,2.947,0,0,1,.665.057Zm-.082,1.869-.064,1.16a4,4,0,0,0-.679-.045,2.084,2.084,0,0,0-1.184.33c-.194.151-.3.29-.3.447a.305.305,0,0,0,.156.258,1.23,1.23,0,0,0,.738.192,3.143,3.143,0,0,0,.919-.162,1.873,1.873,0,0,0,.3-.115l-.073,1.245c-.073.012-.157.047-.24.061a3.96,3.96,0,0,1-.919.115,2.176,2.176,0,0,1-1.476-.484,1.427,1.427,0,0,1-.562-1.092,1.733,1.733,0,0,1,.7-1.322,2.891,2.891,0,0,1,2-.621,4.478,4.478,0,0,1,.674.034Zm-7.166,3.228.054-.994c.055.027.087.046.1.066a.533.533,0,0,1,.185.433.554.554,0,0,1-.167.4.636.636,0,0,1-.171.1Zm.153-2.937,1.9,3h1.113l-.019-5.628a.916.916,0,0,0,.6-.152.58.58,0,0,0,.161-.43.594.594,0,0,0-.161-.411.9.9,0,0,0-.6-.156h-1.53a.861.861,0,0,0-.586.156.515.515,0,0,0-.176.411.527.527,0,0,0,.176.423.851.851,0,0,0,.586.159h.411v3.451l-1.755-2.809-.121,1.986Zm.38-6.836.05-1.147h.078a1.722,1.722,0,0,0,1.227-.391,1.33,1.33,0,0,0,.45-1.018h0a1.662,1.662,0,0,0-.5-1.2,1.554,1.554,0,0,0-1.081-.5l.048-1.146a2.2,2.2,0,0,1,.69.134,3,3,0,0,1,.841.411v-1.42h-.192a.755.755,0,0,1-.586-.162.513.513,0,0,1-.187-.4.575.575,0,0,1,.187-.437.912.912,0,0,1,.586-.148h1.3l.016,6.109h.2a1.014,1.014,0,0,1,.606.157.615.615,0,0,1,.171.408.682.682,0,0,1-.171.427.952.952,0,0,1-.606.159H696.5v-.288a3.36,3.36,0,0,1-.8.355,4.044,4.044,0,0,1-.875.1C694.786,1474.142,694.738,1474.142,694.693,1474.137Zm.274-5.4-.048,1.146H694.8a1.591,1.591,0,0,0-1.179.5,1.607,1.607,0,0,0-.484,1.176,1.371,1.371,0,0,0,.445,1.045,1.694,1.694,0,0,0,1.159.391l-.05,1.147a2.675,2.675,0,0,1-1.915-.746,2.568,2.568,0,0,1-.762-1.864,2.725,2.725,0,0,1,.811-1.982,2.7,2.7,0,0,1,1.968-.821c.075,0,.123.012.171.012Zm-.533,10.25-.121,1.986-1-1.618v3.472h.42a.942.942,0,0,1,.484.089l-.054.994a1,1,0,0,1-.43.054h-1.524a.919.919,0,0,1-.6-.15.55.55,0,0,1-.171-.416.528.528,0,0,1,.171-.417.805.805,0,0,1,.6-.154l-.016-4.487h-.174a.947.947,0,0,1-.612-.153.608.608,0,0,1-.16-.423.575.575,0,0,1,.16-.421,1.017,1.017,0,0,1,.612-.159l1.289.013,1.129,1.79Zm-9,4.977.386-7.258h.26l.009,6.1.181.008a.987.987,0,0,1,.606.156.562.562,0,0,1,.176.411.585.585,0,0,1-.176.434.968.968,0,0,1-.606.15Zm.514-9.827.059-1.156h.082a1.845,1.845,0,0,0,1.275-.458,1.4,1.4,0,0,0,.5-1.009h0a1.6,1.6,0,0,0-.388-1.031,1.8,1.8,0,0,0-1.309-.612l.054-1.148a2.883,2.883,0,0,1,1.33.388,2.6,2.6,0,0,1,1.07,1.042,2.917,2.917,0,0,1,.357,1.361,2.561,2.561,0,0,1-1.417,2.257,3.206,3.206,0,0,1-1.472.364Zm.279-5.412-.054,1.148a.449.449,0,0,1-.083-.005,1.7,1.7,0,0,0-1.261.49,1.545,1.545,0,0,0-.508,1.159,1.319,1.319,0,0,0,.508,1,1.853,1.853,0,0,0,1.179.465l-.059,1.156a3.456,3.456,0,0,1-1.32-.364,2.931,2.931,0,0,1-.9-.722l.18-3.385a2.782,2.782,0,0,1,.734-.574,2.9,2.9,0,0,1,1.451-.375c.039,0,.089.01.137.01Zm-.406,7.982-.386,7.258h-.459l-.023-.282a2.937,2.937,0,0,1-.788.342,3.137,3.137,0,0,1-.875.12.918.918,0,0,1-.146-.008l.069-1.149h.073a1.707,1.707,0,0,0,1.232-.4,1.307,1.307,0,0,0,.436-1.01h0a1.655,1.655,0,0,0-.484-1.208,1.624,1.624,0,0,0-1.095-.484l.048-1.151a2.668,2.668,0,0,1,.7.134,3.351,3.351,0,0,1,.827.408v-1.422h-.192a.863.863,0,0,1-.592-.152.636.636,0,0,1-.165-.414.67.67,0,0,1,.165-.426.942.942,0,0,1,.592-.153Zm-1.915-7.042-.18,3.385c-.059-.09-.107-.172-.167-.265a2.606,2.606,0,0,1-.366-1.293,2.793,2.793,0,0,1,.366-1.351,3.549,3.549,0,0,1,.347-.477Zm-.484,9.068-.048,1.151h-.089a1.581,1.581,0,0,0-1.188.484,1.543,1.543,0,0,0-.483,1.193,1.361,1.361,0,0,0,.42,1.026,1.753,1.753,0,0,0,1.177.4l-.069,1.149a2.765,2.765,0,0,1-1.892-.738,2.458,2.458,0,0,1-.727-1.373l.073-1.322a2.863,2.863,0,0,1,.694-1.165,2.7,2.7,0,0,1,1.97-.818.722.722,0,0,1,.16.011Zm-2.987,4.962a.636.636,0,0,0,.089-.314.775.775,0,0,0-.059-.262l-.03.576Zm.519-9.741.265-4.983a2.484,2.484,0,0,1,.448.364,1.891,1.891,0,0,1,.459,1.331v2.119a.881.881,0,0,1,.6.174.529.529,0,0,1,.181.41.5.5,0,0,1-.181.414.8.8,0,0,1-.6.17h-1.172Zm.265-4.983-.265,4.983a1.088,1.088,0,0,1-.533-.17.548.548,0,0,1-.181-.414.538.538,0,0,1,.181-.41.812.812,0,0,1,.581-.174v-2.146a.781.781,0,0,0-.195-.559,1.227,1.227,0,0,0-.763-.226,1.788,1.788,0,0,0-.684.159,2.573,2.573,0,0,0-.724.647v2.124a.878.878,0,0,1,.539.12.593.593,0,0,1,.224.464.541.541,0,0,1-.171.414.919.919,0,0,1-.592.159h-1.124l.274-5.08h.85v.365a2.119,2.119,0,0,1,.665-.4,2.459,2.459,0,0,1,.8-.13,2.217,2.217,0,0,1,1.12.268Zm-.621,11.733-.073,1.322a2,2,0,0,1-.05-.489,2.73,2.73,0,0,1,.123-.833Zm-.132,2.415a.389.389,0,0,0-.126-.15.81.81,0,0,0-.592-.163h-.187v-2.365a1.536,1.536,0,0,0-.592-1.264,2.477,2.477,0,0,0-1.626-.459h-.069l-.07,1.166h.187a1.6,1.6,0,0,1,.825.146.548.548,0,0,1,.215.424v.281a6.112,6.112,0,0,0-1.182-.126h-.078l-.064,1.147h.087a7.019,7.019,0,0,1,1.237.145h0v.481a3.065,3.065,0,0,1-.908.445c-.181.047-.329.089-.48.115l-.05,1.168a3.51,3.51,0,0,0,.509-.093,2.921,2.921,0,0,0,.928-.335v.274h1.316a.93.93,0,0,0,.615-.161,1.179,1.179,0,0,1,.073-.1Zm-2.678-14.256-.274,5.08H677.5a.975.975,0,0,1-.581-.159.54.54,0,0,1-.171-.42.715.715,0,0,1,.229-.47.8.8,0,0,1,.523-.107v-2.772a.788.788,0,0,1-.581-.159.516.516,0,0,1-.171-.413.551.551,0,0,1,.171-.43.9.9,0,0,1,.581-.15Zm-.513,9.854-.07,1.166a6.485,6.485,0,0,0-1.109.188,2.208,2.208,0,0,1-.464.073.506.506,0,0,1-.367-.168.626.626,0,0,1-.16-.428.49.49,0,0,1,.053-.245.386.386,0,0,1,.162-.176,1.793,1.793,0,0,1,.4-.154c.288-.073.558-.142.866-.193.254-.025.464-.059.694-.063Zm-.1,1.892-.064,1.147a2.089,2.089,0,0,0-1.1.343.585.585,0,0,0-.294.438.3.3,0,0,0,.142.265,1.352,1.352,0,0,0,.754.181,2.621,2.621,0,0,0,.435-.039l-.05,1.168a2.766,2.766,0,0,1-.414.027,2.257,2.257,0,0,1-1.476-.489,1.444,1.444,0,0,1-.567-1.083,1.8,1.8,0,0,1,.727-1.344,2.951,2.951,0,0,1,1.907-.613Zm-6.834,3.516.059-1.155.087.013a1.817,1.817,0,0,0,1.229-.4,1.337,1.337,0,0,0,.439-1.019h0a1.589,1.589,0,0,0-.489-1.193,1.553,1.553,0,0,0-1.1-.513l.073-1.138a2.836,2.836,0,0,1,.679.137,3.1,3.1,0,0,1,.841.416l-.016-1.43h-.174a.9.9,0,0,1-.592-.152.538.538,0,0,1-.171-.417.547.547,0,0,1,.171-.422.849.849,0,0,1,.586-.162l1.311.008,0,6.107.2-.008a.841.841,0,0,1,.6.168.533.533,0,0,1,.165.408.517.517,0,0,1-.165.42.9.9,0,0,1-.6.162h-1.319v-.292a2.663,2.663,0,0,1-.807.343,3.334,3.334,0,0,1-.861.129.93.93,0,0,1-.146-.008Zm.528-10.205.075-1.138h.517v-2.773h-.375l.073-1.157h1.412v.719a6.269,6.269,0,0,1,1.129-.7,1.959,1.959,0,0,1,.743-.168,1.719,1.719,0,0,1,1.065.41.8.8,0,0,1,.352.587.56.56,0,0,1-.171.411.517.517,0,0,1-.4.173.694.694,0,0,1-.43-.215.6.6,0,0,0-.411-.213,1.571,1.571,0,0,0-.684.3,13.885,13.885,0,0,0-1.188.9v1.725h1.623a.868.868,0,0,1,.6.159.647.647,0,0,1,.176.423.563.563,0,0,1-.176.409.917.917,0,0,1-.6.146Zm.29-5.068-.073,1.157h-.05a.73.73,0,0,1-.567-.162.494.494,0,0,1-.185-.411.53.53,0,0,1,.185-.43.8.8,0,0,1,.567-.154Zm-.215,3.93-.075,1.138h-.087a.931.931,0,0,1-.587-.146.6.6,0,0,1-.167-.422.622.622,0,0,1,.167-.416.907.907,0,0,1,.587-.154Zm-.308,5.936-.073,1.138h-.089a1.626,1.626,0,0,0-1.193.5,1.658,1.658,0,0,0-.473,1.185,1.348,1.348,0,0,0,.43,1.037,1.644,1.644,0,0,0,1.163.4l-.059,1.155a2.749,2.749,0,0,1-1.886-.755,2.469,2.469,0,0,1-.783-1.663l.05-.7a2.777,2.777,0,0,1,.747-1.473,2.736,2.736,0,0,1,2-.814Zm-3.046,4.83c.011-.047.016-.121.034-.178a1.033,1.033,0,0,0-.023-.131l-.011.308Zm.494-9.628.059-1.211.092-.017a2.626,2.626,0,0,1,.582-.111.545.545,0,0,1,.386.157.5.5,0,0,1,.137.41.434.434,0,0,1-.151.38,2.071,2.071,0,0,1-1.056.392Zm.112-1.94.133-2.671a1.3,1.3,0,0,1,.2.168,3.357,3.357,0,0,1,.645,1.008,2.551,2.551,0,0,1,.171,1.009v.486Zm.133-2.671-.133,2.671-1.8-.027.039-1.137H668.1a1.643,1.643,0,0,0-.674-.735,1.9,1.9,0,0,0-.939-.235l.053-1.148a2.829,2.829,0,0,1,1.126.238,2.89,2.89,0,0,1,.659.372Zm-.185,3.4-.059,1.211a6.654,6.654,0,0,1-1.593.179h-.22l.058-1.138h.245a6.359,6.359,0,0,0,1.57-.252Zm-.42,8.3-.05.7v-.188a2.722,2.722,0,0,1,.05-.514Zm-.122,2.235-.011.308a.494.494,0,0,1-.16.243.917.917,0,0,1-.592.149h-1.09l.059-1.146h1.031a.863.863,0,0,1,.592.15A.438.438,0,0,1,667.592,1483.239Zm-1.057-14.541-.053,1.148h-.059a1.974,1.974,0,0,0-.983.235,1.764,1.764,0,0,0-.679.735h1.661l-.039,1.137h-1.646a1.548,1.548,0,0,0,.61.734,2.27,2.27,0,0,0,.972.274l-.058,1.138a2.945,2.945,0,0,1-1.935-.76,2.656,2.656,0,0,1-.811-1.931,2.468,2.468,0,0,1,.889-1.96,2.92,2.92,0,0,1,2.009-.757.7.7,0,0,0,.122.008Zm-.737,14.1-.059,1.146h-2.713a.928.928,0,0,1-.587-.171.522.522,0,0,1-.176-.41.544.544,0,0,1,.176-.416.842.842,0,0,1,.587-.162h1.344l0-2.772h-.9a.812.812,0,0,1-.576-.154.52.52,0,0,1-.176-.417.568.568,0,0,1,.16-.425.856.856,0,0,1,.592-.154h2.024l.009,3.935Zm-11.282-.268.185-3.349v2.384a2.517,2.517,0,0,1-.185.965Zm.22-4.231.055-1.157a.821.821,0,0,1,.5.159.565.565,0,0,1,.157.427.532.532,0,0,1-.157.4.9.9,0,0,1-.557.17Zm.215-4.2.059-1.151h.082a1.79,1.79,0,0,0,1.232-.4,1.332,1.332,0,0,0,.436-1.021h0a1.643,1.643,0,0,0-.484-1.19,1.558,1.558,0,0,0-1.095-.493l.059-1.155a2.645,2.645,0,0,1,1.838.827,2.733,2.733,0,0,1,.807,1.99,2.464,2.464,0,0,1-.768,1.858,2.791,2.791,0,0,1-2.024.739Zm6.149-5.25,0,3.919,1.355.013a.959.959,0,0,1,.6.156.571.571,0,0,1,.165.411.58.58,0,0,1-.165.43.9.9,0,0,1-.6.151h-3.813a.9.9,0,0,1-.581-.159.6.6,0,0,1-.18-.422.581.581,0,0,1,.18-.42.856.856,0,0,1,.581-.159H660l-.014-2.768h-.92a.9.9,0,0,1-.581-.159.554.554,0,0,1-.162-.424.512.512,0,0,1,.162-.408.892.892,0,0,1,.581-.168l2.034.008Zm-.156-2.175h0v1.2h-1.339v-1.2Zm-3.553,12.189v.369a2,2,0,0,1,.679-.4,2.239,2.239,0,0,1,.791-.132,2.048,2.048,0,0,1,1.574.631,1.926,1.926,0,0,1,.45,1.325l.016,2.133a.851.851,0,0,1,.595.162.606.606,0,0,1,0,.825.87.87,0,0,1-.595.154H659.78a.823.823,0,0,1-.59-.154.583.583,0,0,1,0-.825.8.8,0,0,1,.587-.162v-2.168a.685.685,0,0,0-.21-.542,1.149,1.149,0,0,0-.763-.223,1.586,1.586,0,0,0-.679.139,3.053,3.053,0,0,0-.729.653v2.127c.283,0,.464.039.519.112a.627.627,0,0,1,.254.479.5.5,0,0,1-.181.41.835.835,0,0,1-.592.154h-1.12a.9.9,0,0,1-.606-.162.576.576,0,0,1-.151-.4.59.59,0,0,1,.229-.484.836.836,0,0,1,.528-.107l-.009-2.769a.969.969,0,0,1-.6-.15.653.653,0,0,1-.167-.433.6.6,0,0,1,.167-.416.921.921,0,0,1,.6-.146Zm7.932-2.172h0v1.21H663.98v-1.21Zm-10.083-8.005-.059,1.155h-.089a1.668,1.668,0,0,0-1.2.478,1.65,1.65,0,0,0-.464,1.183,1.3,1.3,0,0,0,.435,1.036,1.673,1.673,0,0,0,1.149.411l-.059,1.151a3.677,3.677,0,0,1-.727-.107,3.4,3.4,0,0,1-.8-.371v.3h-1.32a.932.932,0,0,1-.595-.16.572.572,0,0,1,0-.835.808.808,0,0,1,.595-.162h.191V1467.8h-.191a.839.839,0,0,1-.6-.159.163.163,0,0,1-.087-.107l.019-.657a.232.232,0,0,1,.069-.061.868.868,0,0,1,.6-.149h1.311v2.563a2.79,2.79,0,0,1,.825-.4,2.613,2.613,0,0,1,.861-.148Zm-.45,8.461-.055,1.157H654.7v.881l-.185,3.349a2.952,2.952,0,0,1-.562.833,2.5,2.5,0,0,1-1.808.748,2.626,2.626,0,0,1-.987-.192,2.7,2.7,0,0,1-.587-.347l.117-2.409v.491a1.3,1.3,0,0,0,.421.917,1.466,1.466,0,0,0,1.017.377,1.279,1.279,0,0,0,.738-.184,1.44,1.44,0,0,0,.573-.553,1.163,1.163,0,0,0,.126-.557v-3.354h-.4a.759.759,0,0,1-.553-.17.541.541,0,0,1-.176-.417.52.52,0,0,1,.176-.411.8.8,0,0,1,.553-.163l1.52,0Zm-3.944,1.157h.258a.79.79,0,0,0,.539-.17.548.548,0,0,0,.17-.417.522.522,0,0,0-.17-.411.768.768,0,0,0-.539-.163H650.9l-.053,1.162Zm.308-6.032a2.26,2.26,0,0,0,.14-.8,2.423,2.423,0,0,0-.062-.587Zm.282-5.388-.019.657a.513.513,0,0,1-.087-.308.562.562,0,0,1,.106-.349Zm-.2,4-.078,1.391a2.644,2.644,0,0,1-.206.475,2.778,2.778,0,0,1-1.06.989,3.21,3.21,0,0,1-1.487.36h-.142l.064-1.15h.078a1.8,1.8,0,0,0,1.266-.467,1.353,1.353,0,0,0,.5-1.009h0a1.5,1.5,0,0,0-.384-1.014,1.711,1.711,0,0,0-1.291-.622l.053-1.147a2.906,2.906,0,0,1,1.316.385,2.567,2.567,0,0,1,1.07,1.042,2.687,2.687,0,0,1,.3.769Zm-.333,6.261-.053,1.162h-.158v2.864l-.117,2.409a2.911,2.911,0,0,1-.224-.209,3.089,3.089,0,0,1-.567-.751,2.349,2.349,0,0,1-.2-1.048l-.009-3.278a.889.889,0,0,1-.592-.157.516.516,0,0,1-.176-.417.508.508,0,0,1,.176-.416.832.832,0,0,1,.592-.159Zm-6.52-5.322v1.54a6.487,6.487,0,0,1-1.275.568,3.743,3.743,0,0,1-1.174.157,4.57,4.57,0,0,1-1.584-.265,2.125,2.125,0,0,1-.9-.515,2.679,2.679,0,0,1-.617-.906,3.2,3.2,0,0,1-.3-1.347v-.833a3.293,3.293,0,0,1,.7-2.057,2.979,2.979,0,0,1,2.493-1.225,5.647,5.647,0,0,1,.873.1,3.736,3.736,0,0,1,.8.291.611.611,0,0,1,.425-.2.487.487,0,0,1,.4.173.8.8,0,0,1,.153.571v.762a.91.91,0,0,1-.153.586.5.5,0,0,1-.4.171.46.46,0,0,1-.343-.124.671.671,0,0,1-.185-.365.775.775,0,0,0-.167-.388,1.3,1.3,0,0,0-.512-.283,2.627,2.627,0,0,0-.85-.137,2.329,2.329,0,0,0-1.154.279,1.955,1.955,0,0,0-.656.723,2.261,2.261,0,0,0-.307,1.12l.019.833a1.8,1.8,0,0,0,.519,1.4,2.456,2.456,0,0,0,1.671.483,3.16,3.16,0,0,0,1.423-.31v-.807h-1.14a.8.8,0,0,1-.6-.173.579.579,0,0,1,0-.822.823.823,0,0,1,.6-.176h2.239a.668.668,0,0,1,.386.176.565.565,0,0,1,.181.408.6.6,0,0,1-.562.587Zm4.164-3.134-.053,1.147H648.4a1.779,1.779,0,0,0-1.271.486,1.613,1.613,0,0,0-.494,1.149,1.376,1.376,0,0,0,.5,1.009,1.82,1.82,0,0,0,1.188.467l-.064,1.15a3.288,3.288,0,0,1-1.324-.352,2.673,2.673,0,0,1-1.062-1,2.526,2.526,0,0,1-.357-1.3,2.737,2.737,0,0,1,.363-1.361,2.7,2.7,0,0,1,1.056-1.037,2.929,2.929,0,0,1,1.456-.367Zm-7.287,15.2-1.949-3.9a.747.747,0,0,1-.572-.16.492.492,0,0,1-.182-.417.471.471,0,0,1,.182-.411.774.774,0,0,1,.572-.163h1.266a.83.83,0,0,1,.582.163.613.613,0,0,1,.185.411.518.518,0,0,1-.185.417.8.8,0,0,1-.582.165l1.319,2.632,1.306-2.632a.854.854,0,0,1-.607-.165.559.559,0,0,1-.151-.417.545.545,0,0,1,.151-.4.84.84,0,0,1,.6-.162h1.266a.881.881,0,0,1,.582.162.521.521,0,0,1,.17.422.53.53,0,0,1-.165.406.816.816,0,0,1-.587.159l-2.551,5.165h.836a.834.834,0,0,1,.366.575.553.553,0,0,1-.2.423.81.81,0,0,1-.59.147h-2.8a.946.946,0,0,1-.606-.154.614.614,0,0,1,0-.841.949.949,0,0,1,.606-.15h1.12Z" transform="translate(-583.207 -1453.568)" fill="#009ee3"/>
    <path id="Trazado_299" data-name="Trazado 299" d="M764.127,1490.967l.048-.671a1.578,1.578,0,0,0,.254-.056c.123-.013.21.009.24.126.039.1-.151.226.039.226.176.019-.009.143-.137.194a.817.817,0,0,1-.444.181Zm.053-.825.016-.437c.273-.039.444-.1.473-.095.073.034.02.322-.1.4a2.436,2.436,0,0,1-.391.128Zm.089-1.742a3.146,3.146,0,0,0,2.1.536,1.359,1.359,0,0,0,1.247,1.967c1.564.189,1.714-.269,1.837-.444a.808.808,0,0,0,.087-.479c-.019-.112.03-.4-.087-.446-.142-.044-.757.017-1.07,0-.279-.013-.861-.064-.768-.408s1.33-.632,1.511-.725c.1-.021.332-.129.341-.308a1.925,1.925,0,0,0-.288-.8.979.979,0,0,0-.992-.5,6.653,6.653,0,0,0-1.266.671,3.882,3.882,0,0,1-1.349-.091c-.4-.124-1.017-.26-.367-.855a7.869,7.869,0,0,1,3.9-1.833c.3-.034.167-.529.073-.7a4,4,0,0,0-.318-.673c-.068-.013-.068-.125-.5-.073a7.607,7.607,0,0,0-3.441,1.571c-.19.184-.343.34-.489.51l-.156,3.078Zm29.164,1.8a3.154,3.154,0,0,0-.165,1.3.773.773,0,0,0,.873.553c.427-.059.621-.235.607-.6a3.069,3.069,0,0,0-.4-1.309c-.19-.136-.654-.458-.914.051Zm1.062-3.212c-.059.079-.26.118-.3-.04a3.392,3.392,0,0,1-.153-.891c.03-.851,2.954-7.06,3.334-7.662.431-.617.221-.908.45-1.127.219-.235.6-.154.733.231a3.22,3.22,0,0,1,0,1.761c-.224.317-.934,1.481-1.1,1.771-.142.285-2.136,4.176-2.273,4.534a12.217,12.217,0,0,1-.693,1.425Zm-23.016-2.942c-.059.058.156.121.258.37.1.27-.176.626.073.794s.66-.134.763.227a.872.872,0,0,1-.107.948,9.087,9.087,0,0,0-1.047,2.652c.048.45,0,.853.357.8s.651.3.861-.382,1.413-2.963,1.452-3.1.5-.945.894-1.04c.367-.115.734.307.617,1.014-.132.7-.132,2.892.562,3.331.919.575,1.739.2,2.942-1.078-.073.725-.092,1.6.166,1.7s.754.078.777-.309a12.449,12.449,0,0,1,2.038-5.575l2.776-.013s-.1.592-.157.9.612.871.788.882-.093.21-.5.673-1.222,2.442-.265,2.828a8.376,8.376,0,0,0,3.743-.013c.7-.183.852-.36.729-.408-.107-.054-.279.034-.195-.148s.142-.282.014-.288c-.1-.006-.269-.046-.215-.1s.523-.229.366-.346a.449.449,0,0,0-.382-.1c-.121.017-2.468.2-2.649.148-.171-.039-.474-.2-.069-.537.4-.318,1.663-1.014,1.711-1.29a.988.988,0,0,0-.19-.737c-.107-.154-.568-.7-.621-.811s.331-.357.514-.4,1.856-.262,2.1-.262c.224,0,.494.039.489-.18-.02-.251-.219-.343-.084-.469.1-.13.461-.232.392-.45a.694.694,0,0,0-.7-.4c-.313.042-3.167.3-3.167.3l-3.8-.123a19.59,19.59,0,0,1,1.945-2.868c.118-.135-.019-.338-.078-.629a3.906,3.906,0,0,0-.142-.71c-.069-.12-.249-.582-.48-.411-.2.181-2.8,4.64-2.8,4.64s-2.2-.087-2.552-.161-1.06-.384-1.1-.047-.167,1.49.786,1.647a10.07,10.07,0,0,0,2.107.034,8.91,8.91,0,0,1-1.09,1.877c-.547.6-1.324,1.84-2.238,1.949-.221.028-.466,0-.466-.28a13.15,13.15,0,0,0,0-2.846c-.195-.453-.537-1.406-1.2-1.45a2.652,2.652,0,0,0-1.937,1c-.064.084-.439-1.009-1.255-1.009A.893.893,0,0,0,771.478,1484.047Zm-7.054,1.274-.156,3.078a1.509,1.509,0,0,1-.382-.614,2.212,2.212,0,0,1,.537-2.465Zm-.229,4.383a1.906,1.906,0,0,1-1.56-.235c-.7-.607-.537-1.7-.464-2.276a10.662,10.662,0,0,1,1.862-3.818c.909-1.068.445-1.388.338-1.609s-.386-.913-.651-.752a11.4,11.4,0,0,0-2.59,4.863s-.587-1.006-1.384-.916a1.96,1.96,0,0,0-.66.251l-.092,1.783a1.71,1.71,0,0,1,1.236-.48.393.393,0,0,0,.025.283c.078.156.22.235.245.355.025.1.1.447-.083.615h0c-.143.1-.852.973-1.551,1.532l-.087,1.876a11.292,11.292,0,0,0,2.351-2.138s.416,1.7,1.76,1.883a4.581,4.581,0,0,0,1.236.045l.048-.671c-.053,0-.117-.008-.137-.047s.039-.083.142-.107Zm-5.109-4.492-.092,1.783a6.194,6.194,0,0,0-1.563,2.2c-.367.928-.054.856.747.548a2.717,2.717,0,0,0,.688-.445l-.087,1.876a1.373,1.373,0,0,1-.3.148c-.562.229-1.661.288-1.974-.363a3.578,3.578,0,0,1-.224-.541l.1-2.135c.112-.257.245-.54.391-.828a6.648,6.648,0,0,1,2.315-2.247Zm-2.448-1.813.123-2.37a1.591,1.591,0,0,1,.131.665A3.948,3.948,0,0,1,756.638,1483.4Zm.123-2.37-.123,2.37a2.749,2.749,0,0,1-1.392,1.288,4.189,4.189,0,0,1-3.5.274,2.266,2.266,0,0,1-.4-2.427c.313-.3.371-.33.537.073.146.4.24.986.982.964a4.088,4.088,0,0,0,2.708-1.071c.357-.469.078-.88-.694-.794a10.262,10.262,0,0,0-2.151.783c-.268.087-.048-.235-.014-.285.02-.033.023-.142-.034-.161-.084-.026.274-.377.381-.464s-.493.21-.543.216c-.034.033-.244-.045,0-.263.274-.218,1.456-.718,1.467-.752,0-.054-.445-.137-.274-.176s1.472-.681,2.052-.424a1.639,1.639,0,0,1,.994.849Zm-.382,7.257-.1,2.135a3.162,3.162,0,0,1,.1-2.135Zm-9.864,3.756c1.032.211,2.157.257,4.175-1.064.073.878,1.593,1.305,2.591,1.1,1.017-.189,1.339-.081,1.431-.257a1.283,1.283,0,0,0,.137-.514c.03-.185.03-.7-.112-.678-.16.007-1,.069-1.314.109-.294.04-1.437-.041-1.7-.484a7.9,7.9,0,0,0,1.633-3.167c.1-.741-.128-.609-.157-.7-.014-.1-.092-1.067-.551-.7a7.582,7.582,0,0,0-1.638,2.219,4.638,4.638,0,0,0-.361,1.4,4.834,4.834,0,0,1-3.026,1.348c.581-.349,1.286-.989,1.325-1.442a7.337,7.337,0,0,0,.062-1.968c-.16-.394-.478-1.489-1.255-1.186a4.831,4.831,0,0,0-.953.489l-.1,1.877a4.127,4.127,0,0,1,.723-.548c.553-.319.582-.346.475.075a7.7,7.7,0,0,1-1.271,1.673Zm.285-5.5-.1,1.877a14.336,14.336,0,0,0-1.275,1.225c-.03.472.268.558.547.541h0a2.39,2.39,0,0,0,.655-.567l-.114,2.426c-.083-.02-.16-.031-.238-.055-1.844-.319-1.8-1.537-1.8-1.537s-1.707,1.587-2.239,1.922a2.705,2.705,0,0,1-2.9-.054,2.654,2.654,0,0,1-.568-2.387c-.263-.034-.547-.146-.83-1.076a2.193,2.193,0,0,1,.987-2.375,6.277,6.277,0,0,1,2.356-.967c1-.081.962.8,1.036.983s-.21.3-.386.3a3.344,3.344,0,0,0-1.431.355c-1.11.581-1.2,1.092-1.286,1.339-.058.26.293.221.6.182s1.711-.97,2.013-.982.421.358.543.686a.671.671,0,0,1-.279.828c-.352.209-1.35.492-1.721.69s-.327.494-.4.844c-.055.336.137.456.425.482s1.392-.061,2.98-1.551a27.35,27.35,0,0,1,3.423-3.132Zm-14.024,5.727.137-2.51c.123-.054.226-.115.347-.181a2.9,2.9,0,0,0,1.408-1.719c.01-.245.053-.945-.768-.548a7.021,7.021,0,0,0-.889.609l.087-1.863c.084-.018.137-.031.162-.073.108-.129.146-.21.445-.16a2.518,2.518,0,0,1,2.018,2c.43,2.065-1.75,3.258-2.541,3.326a4.77,4.77,0,0,0,2.8.758c.747-.054,1.106-.235,1.008.1s.073.386.142.59c.082.182.107.235-.192.423a2.23,2.23,0,0,1-1.842.274A6.577,6.577,0,0,1,732.777,1492.268Zm.322-6.212-.087,1.863a20.98,20.98,0,0,0-1.627,1.658c-.294.229-.054.349.254.4h0a1.764,1.764,0,0,0,1.275-.22l-.137,2.51a16.67,16.67,0,0,1-2.1-1.59c-.786,1.084-1.344,2.807-1.52,2.926s-.263.046-.357.115a.507.507,0,0,1-.142.053l.192-3.163a16.335,16.335,0,0,1,2.326-3.2,4.211,4.211,0,0,1,1.925-1.352Zm-4.086,1.187.441-.763a4.37,4.37,0,0,0,.434-3.167,2.319,2.319,0,0,0-.606-1.2Zm.269-5.129-.269,5.129c-.684,1.135-1.54,2.276-3.021,2.306-1.8.028-1.744-.752-1.822-.808s-2.292,4.394-2.557,4.875-.553.449-.953.279c-.171-.073-.123-.54-.171-.694-.03-.154-.332-.223-.274-.565s3.021-5.838,3.149-5.937c.121-.12.288.2.386.053s.1-.452.371-.322a3.322,3.322,0,0,1,.831.738,3.877,3.877,0,0,1-.4.9,2.936,2.936,0,0,0,1.716-.15,5.082,5.082,0,0,0,2.4-3.356c.3-1.456-.123-1.85-.523-1.918-.64-.107-1.809,1.232-2.605,2.427-.6.946-.818,1.523-.989,1.777-.1.15-.547-.437-.669-.477s-.254-.12-.311-.008-.181.154-.181.095a2.162,2.162,0,0,1,.019-.271,29.941,29.941,0,0,1,2.727-3.932c.978-.99,1.341-1.188,2.054-.93a2.9,2.9,0,0,1,1.09.791Zm-.434,8.5a12.982,12.982,0,0,0-.929,1.819c-.171.442.176.456.322.66a2.115,2.115,0,0,1,.254.589c.05.121.1.121.162.1l.192-3.163Zm-28.427,3.507.073-1.358c1.017.035,3.113-.66,3.606-1.434.089-.63,1.247-2.463,2-2.6.558-.1.539.562.539.562s.43.322.366.64a7.96,7.96,0,0,1-1.57,2.482c-.631.51.171.947,1,.853a3.392,3.392,0,0,0,2.952-2.138c.22-.824-.137-1.425-.582-1.5a1.743,1.743,0,0,0-.962.064c-.215.115-.793.274-.425,0,.386-.276.61-.318.386-.361s-.431.073-.582.073c-.167.012-.523-.056-.386-.2a3.449,3.449,0,0,1,.793-.493c.279-.126.723-.3.537-.307s-.792.346-.582.141c.171-.188.4-.445.642-.458s.034-.176.419-.083,1.09-.017,1.428.984.66,1.027.655,2.158a3.444,3.444,0,0,1-2.5,3.339c-2.015.722-4.145.535-4.111-1.388a6.765,6.765,0,0,1-3.69,1.015Zm.112-2.259a11.624,11.624,0,0,0,1.492-2.158,9.211,9.211,0,0,0,1.4-4.318c-.039-.511-.352-.061-.352-.365,0-.325-.034-.97-.557-.819a4.018,4.018,0,0,0-1.627,1.269l-.128,2.307a9.06,9.06,0,0,1,.754-1.095h0c.571-.6.763-.579.434.338a12.4,12.4,0,0,1-1.266,2.379l-.146,2.462Zm12.121.437a5.344,5.344,0,0,0-.771.992,4.448,4.448,0,0,0-.48,1.591,3.235,3.235,0,0,0,.3,1.571c.283.369.743.58.777-.127a6.458,6.458,0,0,1,1.437-2.952c.5-.438-.087-.418-.21-.484-.107-.079-.4-.567-.581-.617S712.962,1492.087,712.654,1492.295Zm-11.769-6.828-.128,2.307a10.677,10.677,0,0,0-1.436,3.282,11.531,11.531,0,0,0,1.358-1.66l-.146,2.462c-.146.207-.343.442-.553.732a.7.7,0,0,0,.514.169l-.073,1.358c-.738-.033-1.33-.221-1.549-.631-.411.41-3.108,1.811-3.6,1.4a5.976,5.976,0,0,1-1.663.631l.089-1.813a1.155,1.155,0,0,1,.215-.029c.4-.086,1.335-2.009,1.4-2.583h0c.069-.57-.156-.758-.562-.347-.259.26-.61.639-.964,1.015l.139-2.432a1.83,1.83,0,0,1,.912-.508c.5-.047,1.062.593,1.521,1.417a5.07,5.07,0,0,1-.123,2.944,4.348,4.348,0,0,0,2.048-1.241,4.348,4.348,0,0,1,.322-3.114,15.018,15.018,0,0,1,2.273-3.362Zm-6.954,3.863c.42-.508,2.1-2.632,2.413-2.874.372-.283,0-.626-.132-.732s-.263-.23-.107-.4c.128-.17-.126-.719-.5-.411a11.347,11.347,0,0,0-1.545,1.816Zm-9.787,4.348c.514-.174.187.1-.009.252l.009-.252Zm-.019.459a1.548,1.548,0,0,0,.4.112c.059.008.553-.165.43.05a2.611,2.611,0,0,1-.874.684l.043-.846Zm9.936-7.412c-1.568,2.184-3.538,5.422-3.757,5.878a1.594,1.594,0,0,0-.132.941,15.311,15.311,0,0,1-2.024.5c-.43.069-1.349-.027-1.451-.329-.025-.1.489-.523.576-.558a5.119,5.119,0,0,0,.489-.244,2.9,2.9,0,0,0,1.067-.3c.43-.237.273-.5-.045-.8-.3-.318-.624-.816-1.074-.729a6.4,6.4,0,0,1-2.3.574c-.693-.042-.419-.227.235-.707a13.54,13.54,0,0,1,2.635-1.353,3.248,3.248,0,0,1,.87,0c.195-.008.273-.12.22-.227a4.9,4.9,0,0,0-.587-.618c-.117-.14.192-.082.142-.171s-.234-.455-.953-.536c-.576-.061-2.576,1.183-3.641,1.922l-.157,2.974a3.432,3.432,0,0,0,1.485.21,1.867,1.867,0,0,0,.47,1.9,2.828,2.828,0,0,0,2.038.451,4.6,4.6,0,0,0,2.306-.936.428.428,0,0,0,.089-.15.86.86,0,0,0,.3.05,1.709,1.709,0,0,0,.617-.247c-.132.428-.107.69.718,1.14a2.143,2.143,0,0,0,1.417.148l.089-1.813c-.459.066-1.207.1-1.451-.157,0,0,.773-.928,1.543-1.788l.139-2.432-.016.027.016-.027Zm-16,3.253c.058-.013.684.056.761.3.089.216.308.318.4.4s.249.221,0,.455a4.6,4.6,0,0,0-1.964,2.522c-.294.82.009,1.009.3.916a3.862,3.862,0,0,0,2.156-1.285,3.215,3.215,0,0,1,.757-1.875,5.96,5.96,0,0,1,1.261-1.489c.249-.073.434.231.6.533s.439.159.439.673a6.11,6.11,0,0,1-1.495,2.835c.205.332,2.1.017,2.8-.269l.072-.012-.009.252-.1.073c-.039.045,0,.085.089.134l-.043.846a3.616,3.616,0,0,1-.857.344c-.855.238-2.809.35-3.142-.2a4.961,4.961,0,0,1-2.927,1.146,1.146,1.146,0,0,1-.69-.291l.235-4.425a4.07,4.07,0,0,1,1.359-1.576Zm6.271,0a5.23,5.23,0,0,0-.612.473c-.532.444-.151.528-.2.858s-.269,1.294.586,1.618l.068.025.157-2.974Zm-7.566.5a3.88,3.88,0,0,0,.391-.551,4.586,4.586,0,0,0,.3-3.129,1.462,1.462,0,0,0-.459-.613Zm-.3,5.5a1.981,1.981,0,0,1-.551-1.036l.092-1.742a9.291,9.291,0,0,1,.694-1.647l-.235,4.425Zm.528-9.794-.229,4.293c-.185.223-.411.462-.651.7l.157-2.92c.03-.115.064-.207.083-.313h0a1.1,1.1,0,0,0-.025-.769l.084-1.447C676.589,1485.87,676.808,1486.026,676.994,1486.185Zm-1.079,8.758a3.288,3.288,0,0,1,.078-1.635l.014-.107-.092,1.742Zm.5-9.215a4.051,4.051,0,0,1-.47-.347c-.391-.377-1.9-.36-3.152.761a13.957,13.957,0,0,0-3.094,4.449c-.4,1.118-1.812,4.853-1.951,5.177-.165.308.114.364.148.433a.556.556,0,0,1,.073.343,1.132,1.132,0,0,0,.19.826c.23.364.294.095.484.068s.567-.358.546-.456a1.806,1.806,0,0,1,.329-1.19c.512-.822,1.364-2.591,1.364-2.591.435.257.3.713,1.744.33a10.681,10.681,0,0,0,3.49-2.354l.157-2.92a6.49,6.49,0,0,1-1.378,2.026,6.8,6.8,0,0,1-1.706,1.31,4.009,4.009,0,0,1-1.369.311,9.59,9.59,0,0,0,1.071-1.763,5.406,5.406,0,0,0-.788-.962,7.276,7.276,0,0,1,1.624-2.017c.83-.584,1.749-.733,2.091-.484a1.457,1.457,0,0,1,.512.5l.084-1.447Zm-20.719,12.24.08-1.471a5.661,5.661,0,0,0,3.968-.2c.674-.308.548.09.514.176-.05.1.195.291.352.308.165,0,.4.193.268.364-.16.188-2.667,1.657-4.417,1.124a8.061,8.061,0,0,1-.763-.3Zm.157-3.08.112-2.03c.112-.121.206-.236.3-.341a9.161,9.161,0,0,0,1.487-2.733c.279-.941.4-1.292.215-1.557s-.441-.6-.852-.358a6.234,6.234,0,0,0-.919.805l.107-2.1a.48.48,0,0,1,.123-.05c.391-.1.083-.4.4-.357a5.085,5.085,0,0,1,1.481.9c.381.323.884,1.372.542,3.183A9.529,9.529,0,0,1,655.851,1494.889Zm.448-8.31-.107,2.1a8.193,8.193,0,0,0-1.52,2.247,5.955,5.955,0,0,0-.533,3.457h0l-.014-.026a14.117,14.117,0,0,0,1.837-1.493l-.112,2.03a7.321,7.321,0,0,1-1.032.773,2.236,2.236,0,0,0,.955.836l-.08,1.471a5.743,5.743,0,0,1-1.95-1.669,20.216,20.216,0,0,1-4.536,2.073c-1.9.36-1.892-.308-2.15-.785s-.132-.906-.265-1a.376.376,0,0,1-.092-.419c.058-.09.318-.973.318-.973a8,8,0,0,1-2.738-.033c-.626-.318-.827-.436-1.012-1.14a2.834,2.834,0,0,1,.3-2.725,12.935,12.935,0,0,1,5.791-4.129c.846-.167,1.222-.442,1.721-.179a14.229,14.229,0,0,1,1.359,1.141.662.662,0,0,1,.416.765,4.329,4.329,0,0,1-1.1,1.938c-.4.344-.571.391-.752.2-.087-.1-.318-.344-.274-.512.02-.174.078-.5-.073-.575-.128-.073-.425-.271-.342-.342s.157-.051.245-.092a3.026,3.026,0,0,0,.656-.819c.053-.171.093-.312-.567-.272a8.558,8.558,0,0,0-4.34,2.135c-1.545,1.506-2.043,2.46-2.015,2.856s.846.3,1.417.311a5.937,5.937,0,0,0,2.8-.9c.537-.525,1.149-.92,1.188-.979s.288,0,.547.132.3.439.489.439.61.305.5.562a2.408,2.408,0,0,1-.762.917,5.864,5.864,0,0,0-1.236.523,6.239,6.239,0,0,0-1.149,1.95c-.117.609.489.442.811.365a19.237,19.237,0,0,0,4.189-1.828,8.228,8.228,0,0,1,.718-5.063C655.078,1487.64,655.86,1486.794,656.3,1486.579Z" transform="translate(-580.684 -1447.612)" fill="#e5007d"/>
  </g>
  <g id="Grupo_73" data-name="Grupo 73" transform="translate(70.846 58.572)">
    <path id="Trazado_300" data-name="Trazado 300" d="M649.993,1497.666v2.753h.333a.707.707,0,0,1,.475.127.43.43,0,0,1,.142.336.418.418,0,0,1-.142.332.69.69,0,0,1-.475.129h-1.212a.7.7,0,0,1-.476-.129.466.466,0,0,1,0-.668.629.629,0,0,1,.433-.127v-3.614a.567.567,0,0,1-.369-.148.469.469,0,0,1,.019-.652.72.72,0,0,1,.476-.128l1.014,0,1.257,2.781,1.235-2.786,1.023,0a.705.705,0,0,1,.475.126.419.419,0,0,1,.143.333.424.424,0,0,1-.128.316.568.568,0,0,1-.364.148v3.614a.617.617,0,0,1,.433.131.437.437,0,0,1,.14.333.42.42,0,0,1-.143.332.691.691,0,0,1-.475.129h-1.216a.692.692,0,0,1-.472-.129.464.464,0,0,1,0-.668.709.709,0,0,1,.472-.127h.338v-2.753l-1.059,2.379h-.8Z" transform="translate(-648.497 -1495.741)" fill="#312783"/>
    <path id="Trazado_301" data-name="Trazado 301" d="M655.124,1496.805v3.614h.933a.71.71,0,0,1,.475.127.436.436,0,0,1,.142.336.424.424,0,0,1-.142.332.694.694,0,0,1-.475.129h-2.79a.7.7,0,0,1-.475-.129.464.464,0,0,1,0-.668.712.712,0,0,1,.475-.127h.933v-3.614h-.933a.712.712,0,0,1-.475-.128.47.47,0,0,1,0-.673.714.714,0,0,1,.475-.128l2.79,0a.708.708,0,0,1,.475.126.423.423,0,0,1,.142.333.433.433,0,0,1-.142.336.711.711,0,0,1-.475.128Z" transform="translate(-646.183 -1495.741)" fill="#312783"/>
    <path id="Trazado_302" data-name="Trazado 302" d="M657.359,1497.625v2.794h.335a.7.7,0,0,1,.473.127.432.432,0,0,1,.143.336.42.42,0,0,1-.143.332.687.687,0,0,1-.473.129h-1.213a.7.7,0,0,1-.476-.129.466.466,0,0,1,0-.665.617.617,0,0,1,.433-.131v-3.614h-.143a.715.715,0,0,1-.476-.128.47.47,0,0,1,0-.673.717.717,0,0,1,.476-.128l1.067,0,2.362,3.7v-2.781h-.333a.708.708,0,0,1-.475-.128.467.467,0,0,1,0-.673.709.709,0,0,1,.475-.128l1.212,0a.716.716,0,0,1,.476.126.428.428,0,0,1,.142.333.435.435,0,0,1-.14.333.61.61,0,0,1-.428.131v4.539h-.914Z" transform="translate(-644.498 -1495.741)" fill="#312783"/>
    <path id="Trazado_303" data-name="Trazado 303" d="M662.237,1496.805v3.614h.933a.707.707,0,0,1,.475.127.432.432,0,0,1,.143.336.42.42,0,0,1-.143.332.69.69,0,0,1-.475.129h-2.789a.7.7,0,0,1-.476-.129.465.465,0,0,1,0-.668.718.718,0,0,1,.476-.127h.933v-3.614h-.933a.718.718,0,0,1-.476-.128.47.47,0,0,1,0-.673.72.72,0,0,1,.476-.128l2.789,0a.7.7,0,0,1,.475.126.42.42,0,0,1,.143.333.429.429,0,0,1-.143.336.707.707,0,0,1-.475.128Z" transform="translate(-642.22 -1495.741)" fill="#312783"/>
    <path id="Trazado_304" data-name="Trazado 304" d="M664.048,1501.158a.8.8,0,0,1-.2.185.376.376,0,0,1-.182.041.446.446,0,0,1-.341-.142.708.708,0,0,1-.128-.471v-.622a.707.707,0,0,1,.128-.475.477.477,0,0,1,.614-.058.555.555,0,0,1,.17.287.763.763,0,0,0,.122.272,1.416,1.416,0,0,0,.464.285,1.842,1.842,0,0,0,.73.143,1.688,1.688,0,0,0,1.014-.288.515.515,0,0,0,.252-.433.506.506,0,0,0-.121-.322.878.878,0,0,0-.4-.249,6.164,6.164,0,0,0-.807-.185,4.358,4.358,0,0,1-1.145-.338,1.524,1.524,0,0,1-.612-.559,1.434,1.434,0,0,1-.226-.78,1.523,1.523,0,0,1,.554-1.16,2.077,2.077,0,0,1,1.442-.5,2.587,2.587,0,0,1,.659.081,1.767,1.767,0,0,1,.553.24.53.53,0,0,1,.361-.176.415.415,0,0,1,.33.143.68.68,0,0,1,.129.47v.693a.7.7,0,0,1-.129.477.425.425,0,0,1-.33.142.449.449,0,0,1-.3-.1.521.521,0,0,1-.15-.307.848.848,0,0,0-.126-.328.988.988,0,0,0-.391-.288,1.476,1.476,0,0,0-.6-.117,1.245,1.245,0,0,0-.791.231.644.644,0,0,0-.291.486.543.543,0,0,0,.12.332.776.776,0,0,0,.349.249,6.664,6.664,0,0,0,.863.2,5.544,5.544,0,0,1,1.09.307,1.511,1.511,0,0,1,.634.523,1.427,1.427,0,0,1,.252.847,1.364,1.364,0,0,1-.481,1.094,2.436,2.436,0,0,1-1.632.541,3.01,3.01,0,0,1-1.451-.369Z" transform="translate(-640.305 -1495.79)" fill="#312783"/>
    <path id="Trazado_305" data-name="Trazado 305" d="M669.476,1496.805v3.614h.621a.707.707,0,0,1,.475.127.432.432,0,0,1,.143.336.42.42,0,0,1-.143.332.691.691,0,0,1-.475.129h-2.163a.69.69,0,0,1-.475-.129.461.461,0,0,1,0-.668.707.707,0,0,1,.475-.127h.617v-3.614h-1v.875a.717.717,0,0,1-.128.476.442.442,0,0,1-.336.14.429.429,0,0,1-.33-.14.7.7,0,0,1-.129-.476v-1.8l4.785,0v1.8a.7.7,0,0,1-.129.476.466.466,0,0,1-.666,0,.718.718,0,0,1-.128-.476v-.875Z" transform="translate(-638.395 -1495.741)" fill="#312783"/>
    <path id="Trazado_306" data-name="Trazado 306" d="M671.719,1499.063v1.357h2.357v-.5a.71.71,0,0,1,.128-.475.434.434,0,0,1,.336-.142.421.421,0,0,1,.33.142.692.692,0,0,1,.129.475v1.424h-4.349a.7.7,0,0,1-.475-.129.434.434,0,0,1-.142-.335.429.429,0,0,1,.145-.333.709.709,0,0,1,.472-.127h.145v-3.614h-.145a.713.713,0,0,1-.475-.128.47.47,0,0,1,0-.673.715.715,0,0,1,.475-.128l4.147,0v1.406a.71.71,0,0,1-.126.472.466.466,0,0,1-.668,0,.685.685,0,0,1-.129-.474v-.482h-2.155v1.334h.811a1,1,0,0,1,.068-.464.44.44,0,0,1,.4-.221.425.425,0,0,1,.332.144.707.707,0,0,1,.128.475v1.064a.775.775,0,0,1-.072.4.447.447,0,0,1-.388.212.439.439,0,0,1-.4-.221,1.007,1.007,0,0,1-.068-.469Z" transform="translate(-636.498 -1495.741)" fill="#312783"/>
    <path id="Trazado_307" data-name="Trazado 307" d="M675.273,1499.257v1.162h.333a.718.718,0,0,1,.477.127.441.441,0,0,1,.142.336.429.429,0,0,1-.142.332.7.7,0,0,1-.477.129h-1.4a.691.691,0,0,1-.475-.129.428.428,0,0,1-.142-.335.433.433,0,0,1,.143-.333.714.714,0,0,1,.473-.127h.145v-3.614H674.2a.708.708,0,0,1-.475-.128.47.47,0,0,1,0-.673.709.709,0,0,1,.475-.128l2.091,0a2.193,2.193,0,0,1,1.517.484,1.532,1.532,0,0,1,.539,1.179,1.315,1.315,0,0,1-.252.785,2.195,2.195,0,0,1-.763.631,5.747,5.747,0,0,1,.628.657q.205.257.559.8a.984.984,0,0,1,.464.073.448.448,0,0,1,.2.391.427.427,0,0,1-.14.332.686.686,0,0,1-.473.129h-.526a5.922,5.922,0,0,0-1.861-2.087Zm0-.925h.721a1.978,1.978,0,0,0,.716-.121,1.37,1.37,0,0,0,.572-.343.568.568,0,0,0,.145-.355.622.622,0,0,0-.279-.484,1.278,1.278,0,0,0-.816-.224h-1.059Z" transform="translate(-634.518 -1495.741)" fill="#312783"/>
    <path id="Trazado_308" data-name="Trazado 308" d="M680.02,1496.805v3.614h.933a.707.707,0,0,1,.475.127.432.432,0,0,1,.143.336.42.42,0,0,1-.143.332.691.691,0,0,1-.475.129h-2.789a.7.7,0,0,1-.476-.129.468.468,0,0,1,0-.668.717.717,0,0,1,.476-.127h.933v-3.614h-.933a.718.718,0,0,1-.476-.128.474.474,0,0,1,0-.673.719.719,0,0,1,.476-.128l2.789,0a.706.706,0,0,1,.475.126.42.42,0,0,1,.143.333.429.429,0,0,1-.143.336.708.708,0,0,1-.475.128Z" transform="translate(-632.312 -1495.741)" fill="#312783"/>
    <path id="Trazado_309" data-name="Trazado 309" d="M685.914,1498.662a2.855,2.855,0,0,1-.782,2.049,2.438,2.438,0,0,1-1.809.816,2.4,2.4,0,0,1-1.668-.681,3.064,3.064,0,0,1,0-4.375,2.4,2.4,0,0,1,3.477.138A2.852,2.852,0,0,1,685.914,1498.662Zm-.923,0a1.972,1.972,0,0,0-.509-1.394,1.484,1.484,0,0,0-2.312,0,2.155,2.155,0,0,0,0,2.782,1.489,1.489,0,0,0,2.312,0A1.967,1.967,0,0,0,684.99,1498.662Z" transform="translate(-630.535 -1495.79)" fill="#312783"/>
    <path id="Trazado_310" data-name="Trazado 310" d="M688.387,1500.419v-3.614a.641.641,0,0,1-.433-.133.464.464,0,0,1,0-.668.709.709,0,0,1,.475-.128l1.932,0a2.453,2.453,0,0,1,.883.167,2.026,2.026,0,0,1,.69.424,3.354,3.354,0,0,1,.735,1.2,2.683,2.683,0,0,1,.109.816v.441a2.561,2.561,0,0,1-.2,1.039,2.07,2.07,0,0,1-.521.739,2.641,2.641,0,0,1-.6.422,2.777,2.777,0,0,1-1.168.212h-1.856a.691.691,0,0,1-.475-.129.424.424,0,0,1-.143-.335.43.43,0,0,1,.143-.334A.594.594,0,0,1,688.387,1500.419Zm.923,0h.983a1.722,1.722,0,0,0,.83-.157,1.439,1.439,0,0,0,.55-.528,1.644,1.644,0,0,0,.184-.828v-.438A1.789,1.789,0,0,0,691.1,1497a1.618,1.618,0,0,0-.819-.192h-.973Z" transform="translate(-626.592 -1495.741)" fill="#312783"/>
    <path id="Trazado_311" data-name="Trazado 311" d="M693.059,1499.063v1.357h2.357v-.5a.709.709,0,0,1,.128-.475.434.434,0,0,1,.336-.142.42.42,0,0,1,.33.142.691.691,0,0,1,.129.475v1.424h-4.349a.7.7,0,0,1-.475-.129.433.433,0,0,1-.142-.335.429.429,0,0,1,.145-.333.709.709,0,0,1,.472-.127h.145v-3.614h-.145a.713.713,0,0,1-.475-.128.47.47,0,0,1,0-.673.714.714,0,0,1,.475-.128l4.147,0v1.406a.71.71,0,0,1-.126.472.467.467,0,0,1-.668,0,.687.687,0,0,1-.129-.474v-.482h-2.155v1.334h.811a1,1,0,0,1,.068-.464.44.44,0,0,1,.4-.221.422.422,0,0,1,.331.144.707.707,0,0,1,.128.475v1.064a.773.773,0,0,1-.072.4.446.446,0,0,1-.388.212.439.439,0,0,1-.4-.221,1.007,1.007,0,0,1-.068-.469Z" transform="translate(-624.608 -1495.741)" fill="#312783"/>
    <path id="Trazado_312" data-name="Trazado 312" d="M697.118,1496.805v3.614h1.992v-.874a.718.718,0,0,1,.128-.477.437.437,0,0,1,.336-.142.425.425,0,0,1,.33.142.7.7,0,0,1,.129.477v1.8h-4.375a.7.7,0,0,1-.476-.129.468.468,0,0,1,0-.668.717.717,0,0,1,.476-.127h.536v-3.614h-.536a.717.717,0,0,1-.476-.128.473.473,0,0,1,0-.673.719.719,0,0,1,.476-.128l2,0a.716.716,0,0,1,.476.126.427.427,0,0,1,.14.333.437.437,0,0,1-.14.336.718.718,0,0,1-.476.128Z" transform="translate(-622.565 -1495.741)" fill="#312783"/>
    <path id="Trazado_313" data-name="Trazado 313" d="M704,1499.469v.95h.933a.713.713,0,0,1,.475.127.441.441,0,0,1,.142.336.429.429,0,0,1-.142.332.7.7,0,0,1-.475.129h-2a.7.7,0,0,1-.476-.129.433.433,0,0,1-.142-.335.428.428,0,0,1,.145-.333.714.714,0,0,1,.473-.127h.143v-3.614h-.143a.718.718,0,0,1-.476-.128.47.47,0,0,1,0-.673.719.719,0,0,1,.476-.128l2.127,0a2.1,2.1,0,0,1,1.485.51,1.689,1.689,0,0,1,.361,2.014,1.78,1.78,0,0,1-.467.534,2.569,2.569,0,0,1-.666.4,2.51,2.51,0,0,1-.9.133Zm0-.925h.855a1.537,1.537,0,0,0,.959-.271.816.816,0,0,0,.353-.657.725.725,0,0,0-.288-.567,1.217,1.217,0,0,0-.816-.244H704Z" transform="translate(-618.516 -1495.741)" fill="#312783"/>
    <path id="Trazado_314" data-name="Trazado 314" d="M710.811,1498.662a2.855,2.855,0,0,1-.782,2.049,2.44,2.44,0,0,1-1.809.816,2.4,2.4,0,0,1-1.668-.681,3.06,3.06,0,0,1,0-4.375,2.4,2.4,0,0,1,3.477.138A2.853,2.853,0,0,1,710.811,1498.662Zm-.925,0a1.972,1.972,0,0,0-.509-1.394,1.482,1.482,0,0,0-2.311,0,2.155,2.155,0,0,0,0,2.782,1.488,1.488,0,0,0,2.311,0A1.967,1.967,0,0,0,709.886,1498.662Z" transform="translate(-616.665 -1495.79)" fill="#312783"/>
    <path id="Trazado_315" data-name="Trazado 315" d="M709.727,1500.419v-3.614a.64.64,0,0,1-.433-.133.464.464,0,0,1,0-.668.709.709,0,0,1,.475-.128l1.932,0a2.454,2.454,0,0,1,.883.167,2.013,2.013,0,0,1,.69.424,3.349,3.349,0,0,1,.735,1.2,2.679,2.679,0,0,1,.109.816v.441a2.558,2.558,0,0,1-.2,1.039,2.084,2.084,0,0,1-.52.739,2.675,2.675,0,0,1-.606.422,2.777,2.777,0,0,1-1.168.212h-1.856a.691.691,0,0,1-.475-.129.424.424,0,0,1-.143-.335.43.43,0,0,1,.143-.334A.594.594,0,0,1,709.727,1500.419Zm.923,0h.983a1.724,1.724,0,0,0,.83-.157,1.44,1.44,0,0,0,.55-.528,1.642,1.642,0,0,0,.184-.828v-.438a1.79,1.79,0,0,0-.754-1.471,1.618,1.618,0,0,0-.819-.192h-.973Z" transform="translate(-614.702 -1495.741)" fill="#312783"/>
    <path id="Trazado_316" data-name="Trazado 316" d="M714.4,1499.063v1.357h2.358v-.5a.709.709,0,0,1,.128-.475.433.433,0,0,1,.336-.142.42.42,0,0,1,.33.142.692.692,0,0,1,.129.475v1.424h-4.349a.7.7,0,0,1-.475-.129.433.433,0,0,1-.142-.335.428.428,0,0,1,.145-.333.708.708,0,0,1,.472-.127h.145v-3.614h-.145a.713.713,0,0,1-.475-.128.47.47,0,0,1,0-.673.715.715,0,0,1,.475-.128l4.147,0v1.406a.711.711,0,0,1-.126.472.467.467,0,0,1-.668,0,.686.686,0,0,1-.129-.474v-.482H714.4v1.334h.811a1,1,0,0,1,.068-.464.44.44,0,0,1,.4-.221.428.428,0,0,1,.333.144.708.708,0,0,1,.128.475v1.064a.771.771,0,0,1-.073.4.445.445,0,0,1-.388.212.439.439,0,0,1-.4-.221,1.006,1.006,0,0,1-.068-.469Z" transform="translate(-612.719 -1495.741)" fill="#312783"/>
    <path id="Trazado_317" data-name="Trazado 317" d="M717.953,1499.257v1.162h.333a.718.718,0,0,1,.476.127.441.441,0,0,1,.142.336.429.429,0,0,1-.142.332.7.7,0,0,1-.476.129h-1.4a.691.691,0,0,1-.475-.129.428.428,0,0,1-.142-.335.432.432,0,0,1,.143-.333.714.714,0,0,1,.474-.127h.145v-3.614h-.145a.708.708,0,0,1-.475-.128.469.469,0,0,1,0-.673.709.709,0,0,1,.475-.128l2.091,0a2.192,2.192,0,0,1,1.517.484,1.533,1.533,0,0,1,.539,1.179,1.315,1.315,0,0,1-.252.785,2.173,2.173,0,0,1-.761.631,5.887,5.887,0,0,1,.626.657c.139.172.324.439.559.8a.98.98,0,0,1,.464.073.445.445,0,0,1,.2.391.428.428,0,0,1-.14.332.686.686,0,0,1-.473.129h-.526a5.921,5.921,0,0,0-1.861-2.087Zm0-.925h.721a1.979,1.979,0,0,0,.716-.121,1.369,1.369,0,0,0,.571-.343.568.568,0,0,0,.145-.355.622.622,0,0,0-.279-.484,1.278,1.278,0,0,0-.816-.224h-1.059Z" transform="translate(-610.739 -1495.741)" fill="#312783"/>
    <path id="Trazado_318" data-name="Trazado 318" d="M652.722,1503.277a.63.63,0,0,1,.185-.176.444.444,0,0,1,.22-.059.424.424,0,0,1,.33.14.687.687,0,0,1,.129.473v.785a.686.686,0,0,1-.129.473.416.416,0,0,1-.33.143.422.422,0,0,1-.3-.1.714.714,0,0,1-.167-.388.55.55,0,0,0-.126-.293,1.284,1.284,0,0,0-.515-.325,1.925,1.925,0,0,0-.665-.122,1.625,1.625,0,0,0-.761.181,1.651,1.651,0,0,0-.613.586,1.713,1.713,0,0,0-.265.964v.6a1.448,1.448,0,0,0,.484,1.114,1.909,1.909,0,0,0,1.344.447,2.382,2.382,0,0,0,.871-.14,1.323,1.323,0,0,0,.442-.321,1.177,1.177,0,0,1,.224-.187.4.4,0,0,1,.185-.042.447.447,0,0,1,.324.139.452.452,0,0,1,.14.33.627.627,0,0,1-.19.4,1.886,1.886,0,0,1-.707.5,3.3,3.3,0,0,1-1.285.243,3.2,3.2,0,0,1-1.478-.338,2.347,2.347,0,0,1-.906-.855,2.311,2.311,0,0,1-.374-1.272v-.626a2.8,2.8,0,0,1,.336-1.347,2.383,2.383,0,0,1,.93-.961,2.516,2.516,0,0,1,1.263-.338,2.951,2.951,0,0,1,.749.092A2.363,2.363,0,0,1,652.722,1503.277Z" transform="translate(-648.333 -1491.827)" fill="#312783"/>
    <path id="Trazado_319" data-name="Trazado 319" d="M655.124,1503.918v3.614h.933a.71.71,0,0,1,.475.128.432.432,0,0,1,.142.336.42.42,0,0,1-.142.33.7.7,0,0,1-.475.129h-2.79a.7.7,0,0,1-.475-.129.462.462,0,0,1,0-.666.712.712,0,0,1,.475-.128h.933v-3.614h-.933a.715.715,0,0,1-.475-.128.47.47,0,0,1,0-.673.711.711,0,0,1,.475-.128l2.79,0a.712.712,0,0,1,.475.128.423.423,0,0,1,.142.333.436.436,0,0,1-.142.337.713.713,0,0,1-.475.128Z" transform="translate(-646.183 -1491.779)" fill="#312783"/>
    <path id="Trazado_320" data-name="Trazado 320" d="M660.566,1503.918v2.617a1.966,1.966,0,0,1-.615,1.456,2.055,2.055,0,0,1-1.481.6,2.162,2.162,0,0,1-.8-.151,2.051,2.051,0,0,1-.676-.444,2.461,2.461,0,0,1-.465-.61,1.83,1.83,0,0,1-.167-.85v-2.617a.615.615,0,0,1-.433-.131.437.437,0,0,1-.14-.333.427.427,0,0,1,.14-.333.713.713,0,0,1,.478-.128l1.211,0a.706.706,0,0,1,.475.128.47.47,0,0,1,0,.673.71.71,0,0,1-.475.128h-.333v2.7a.968.968,0,0,0,.346.733,1.183,1.183,0,0,0,.83.318,1.261,1.261,0,0,0,.609-.154,1.222,1.222,0,0,0,.464-.446.855.855,0,0,0,.112-.451v-2.7h-.333a.71.71,0,0,1-.475-.128.47.47,0,0,1,0-.673.706.706,0,0,1,.475-.128l1.213,0a.714.714,0,0,1,.475.128.428.428,0,0,1,.142.333.437.437,0,0,1-.14.333A.612.612,0,0,1,660.566,1503.918Z" transform="translate(-644.437 -1491.779)" fill="#312783"/>
    <path id="Trazado_321" data-name="Trazado 321" d="M659.934,1507.532v-3.614a.631.631,0,0,1-.433-.134.463.463,0,0,1,0-.666.7.7,0,0,1,.473-.128l1.934,0a2.411,2.411,0,0,1,.881.168,2,2,0,0,1,.691.424,2.9,2.9,0,0,1,.411.531,3.046,3.046,0,0,1,.324.672,2.693,2.693,0,0,1,.107.816v.442a2.553,2.553,0,0,1-.2,1.037,2.079,2.079,0,0,1-.521.74,2.636,2.636,0,0,1-.606.422,2.748,2.748,0,0,1-1.167.212h-1.857a.687.687,0,0,1-.473-.129.421.421,0,0,1-.143-.335.426.426,0,0,1,.143-.333A.6.6,0,0,1,659.934,1507.532Zm.923,0h.983a1.709,1.709,0,0,0,.828-.159,1.423,1.423,0,0,0,.55-.526,1.652,1.652,0,0,0,.185-.83v-.436a1.8,1.8,0,0,0-.754-1.473,1.621,1.621,0,0,0-.819-.19h-.973Z" transform="translate(-642.444 -1491.779)" fill="#312783"/>
    <path id="Trazado_322" data-name="Trazado 322" d="M666.806,1506.969h-2.244l-.226.563h.226a.717.717,0,0,1,.477.128.442.442,0,0,1,.14.336.429.429,0,0,1-.14.33.7.7,0,0,1-.477.129h-1.244a.7.7,0,0,1-.476-.129.465.465,0,0,1,.008-.673.714.714,0,0,1,.492-.121l1.45-3.614h-.6a.71.71,0,0,1-.475-.128.466.466,0,0,1,0-.673.706.706,0,0,1,.475-.128l2,0,1.837,4.539a.839.839,0,0,1,.428.072.461.461,0,0,1,.207.393.423.423,0,0,1-.139.33.687.687,0,0,1-.473.129H666.8a.692.692,0,0,1-.475-.129.462.462,0,0,1,0-.666.707.707,0,0,1,.475-.128h.226Zm-.383-.923-.743-1.83-.749,1.83Z" transform="translate(-640.583 -1491.779)" fill="#312783"/>
    <path id="Trazado_323" data-name="Trazado 323" d="M667.047,1507.532v-3.614a.631.631,0,0,1-.433-.134.463.463,0,0,1,0-.666.706.706,0,0,1,.475-.128l1.933,0a2.426,2.426,0,0,1,.883.168,2.01,2.01,0,0,1,.69.424,2.977,2.977,0,0,1,.413.531,3.031,3.031,0,0,1,.322.672,2.689,2.689,0,0,1,.108.816v.442a2.551,2.551,0,0,1-.2,1.037,2.08,2.08,0,0,1-.522.74,2.657,2.657,0,0,1-.6.422,2.753,2.753,0,0,1-1.168.212h-1.856a.692.692,0,0,1-.475-.129.422.422,0,0,1-.143-.335.427.427,0,0,1,.143-.333A.6.6,0,0,1,667.047,1507.532Zm.924,0h.982a1.721,1.721,0,0,0,.83-.159,1.434,1.434,0,0,0,.55-.526,1.652,1.652,0,0,0,.184-.83v-.436a1.655,1.655,0,0,0-.167-.766,1.679,1.679,0,0,0-.587-.707,1.619,1.619,0,0,0-.819-.19h-.973Z" transform="translate(-638.481 -1491.779)" fill="#312783"/>
    <path id="Trazado_324" data-name="Trazado 324" d="M673.919,1506.969h-2.244l-.226.563h.226a.717.717,0,0,1,.477.128.437.437,0,0,1,.142.336.425.425,0,0,1-.142.33.7.7,0,0,1-.477.129h-1.244a.7.7,0,0,1-.475-.129.464.464,0,0,1,.006-.673.714.714,0,0,1,.492-.121l1.451-3.614h-.6a.71.71,0,0,1-.475-.128.466.466,0,0,1,0-.673.706.706,0,0,1,.475-.128l2,0,1.839,4.539a.843.843,0,0,1,.428.072.465.465,0,0,1,.207.393.424.424,0,0,1-.14.33.688.688,0,0,1-.473.129h-1.244a.688.688,0,0,1-.474-.129.459.459,0,0,1,0-.666.7.7,0,0,1,.474-.128h.226Zm-.383-.923-.743-1.83-.749,1.83Z" transform="translate(-636.62 -1491.779)" fill="#312783"/>
    <path id="Trazado_325" data-name="Trazado 325" d="M675.143,1504.737v2.795h.333a.708.708,0,0,1,.475.128.427.427,0,0,1,.142.336.415.415,0,0,1-.142.33.693.693,0,0,1-.475.129h-1.213a.7.7,0,0,1-.475-.129.461.461,0,0,1,0-.664.616.616,0,0,1,.433-.131v-3.614h-.145a.72.72,0,0,1-.477-.128.47.47,0,0,1,0-.673.717.717,0,0,1,.477-.128l1.068,0,2.361,3.7v-2.779h-.333a.709.709,0,0,1-.475-.128.47.47,0,0,1,0-.673.706.706,0,0,1,.475-.128l1.213,0a.715.715,0,0,1,.475.128.428.428,0,0,1,.142.333.437.437,0,0,1-.14.333.605.605,0,0,1-.428.131v4.537h-.914Z" transform="translate(-634.591 -1491.779)" fill="#312783"/>
    <path id="Trazado_326" data-name="Trazado 326" d="M682.357,1505.773a2.859,2.859,0,0,1-.78,2.049,2.445,2.445,0,0,1-1.811.818,2.415,2.415,0,0,1-1.668-.68,3.064,3.064,0,0,1,0-4.375,2.4,2.4,0,0,1,3.479.138A2.856,2.856,0,0,1,682.357,1505.773Zm-.923,0a1.974,1.974,0,0,0-.509-1.394,1.484,1.484,0,0,0-2.312,0,2.158,2.158,0,0,0,0,2.784,1.488,1.488,0,0,0,2.312,0A1.968,1.968,0,0,0,681.433,1505.773Z" transform="translate(-632.517 -1491.827)" fill="#312783"/>
    <path id="Trazado_327" data-name="Trazado 327" d="M686.212,1506.581v.951h.933a.717.717,0,0,1,.476.128.437.437,0,0,1,.142.336.425.425,0,0,1-.142.33.7.7,0,0,1-.476.129h-2a.7.7,0,0,1-.475-.129.461.461,0,0,1,0-.666.713.713,0,0,1,.473-.128h.145v-3.614h-.145a.715.715,0,0,1-.475-.128.47.47,0,0,1,0-.673.711.711,0,0,1,.475-.128l2.127,0a2.1,2.1,0,0,1,1.486.511,1.694,1.694,0,0,1,.363,2.014,1.761,1.761,0,0,1-.467.536,2.625,2.625,0,0,1-.668.4,2.506,2.506,0,0,1-.9.132Zm0-.923h.857a1.529,1.529,0,0,0,.958-.272.807.807,0,0,0,.353-.655.73.73,0,0,0-.286-.569,1.227,1.227,0,0,0-.817-.243h-1.064Z" transform="translate(-628.423 -1491.779)" fill="#312783"/>
    <path id="Trazado_328" data-name="Trazado 328" d="M691.7,1506.969h-2.244l-.226.563h.226a.712.712,0,0,1,.475.128.438.438,0,0,1,.142.336.425.425,0,0,1-.142.33.7.7,0,0,1-.475.129h-1.244a.7.7,0,0,1-.477-.129.462.462,0,0,1,.008-.673.712.712,0,0,1,.49-.121l1.451-3.614h-.6a.7.7,0,0,1-.473-.128.467.467,0,0,1,0-.673.7.7,0,0,1,.473-.128l2,0,1.839,4.539a.84.84,0,0,1,.428.072.461.461,0,0,1,.207.393.423.423,0,0,1-.14.33.683.683,0,0,1-.472.129H691.7a.692.692,0,0,1-.475-.129.459.459,0,0,1,0-.666.707.707,0,0,1,.475-.128h.226Zm-.383-.923-.744-1.83-.747,1.83Z" transform="translate(-626.713 -1491.779)" fill="#312783"/>
    <path id="Trazado_329" data-name="Trazado 329" d="M693.056,1506.369v1.163h.335a.712.712,0,0,1,.475.128.437.437,0,0,1,.142.336.425.425,0,0,1-.142.33.7.7,0,0,1-.475.129h-1.4a.692.692,0,0,1-.475-.129.457.457,0,0,1,0-.666.711.711,0,0,1,.473-.128h.143v-3.614h-.143a.709.709,0,0,1-.475-.128.466.466,0,0,1,0-.673.706.706,0,0,1,.475-.128l2.09,0a2.211,2.211,0,0,1,1.518.484,1.536,1.536,0,0,1,.537,1.179,1.318,1.318,0,0,1-.252.786,2.181,2.181,0,0,1-.761.629,5.936,5.936,0,0,1,.626.659c.138.171.324.438.559.8a.981.981,0,0,1,.464.072.449.449,0,0,1,.2.393.427.427,0,0,1-.138.33.69.69,0,0,1-.473.129h-.528a5.925,5.925,0,0,0-1.861-2.087Zm0-.923h.721a1.992,1.992,0,0,0,.718-.121,1.411,1.411,0,0,0,.57-.343.575.575,0,0,0,.146-.357.625.625,0,0,0-.28-.484,1.278,1.278,0,0,0-.816-.222h-1.059Z" transform="translate(-624.61 -1491.779)" fill="#312783"/>
    <path id="Trazado_330" data-name="Trazado 330" d="M698.816,1506.969h-2.244l-.226.563h.226a.716.716,0,0,1,.476.128.436.436,0,0,1,.14.336.424.424,0,0,1-.14.33.7.7,0,0,1-.476.129h-1.244a.7.7,0,0,1-.476-.129.465.465,0,0,1,.008-.673.713.713,0,0,1,.492-.121l1.45-3.614h-.6a.71.71,0,0,1-.475-.128.467.467,0,0,1,0-.673.707.707,0,0,1,.475-.128l2,0,1.837,4.539a.839.839,0,0,1,.428.072.463.463,0,0,1,.209.393.423.423,0,0,1-.14.33.687.687,0,0,1-.473.129h-1.244a.692.692,0,0,1-.475-.129.462.462,0,0,1,0-.666.706.706,0,0,1,.475-.128h.226Zm-.383-.923-.743-1.83-.749,1.83Z" transform="translate(-622.749 -1491.779)" fill="#312783"/>
    <path id="Trazado_331" data-name="Trazado 331" d="M704.231,1503.918v3.614h1.992v-.875a.721.721,0,0,1,.128-.477.444.444,0,0,1,.336-.14.435.435,0,0,1,.332.14.712.712,0,0,1,.128.477v1.8h-4.376a.7.7,0,0,1-.475-.129.462.462,0,0,1,0-.666.712.712,0,0,1,.475-.128h.537v-3.614h-.537a.715.715,0,0,1-.475-.128.469.469,0,0,1,0-.673.712.712,0,0,1,.475-.128l2,0a.719.719,0,0,1,.476.128.428.428,0,0,1,.142.333.441.441,0,0,1-.142.337.72.72,0,0,1-.476.128Z" transform="translate(-618.602 -1491.779)" fill="#312783"/>
    <path id="Trazado_332" data-name="Trazado 332" d="M709.486,1506.969h-2.244l-.226.563h.226a.717.717,0,0,1,.476.128.436.436,0,0,1,.14.336.424.424,0,0,1-.14.33.7.7,0,0,1-.476.129H706a.7.7,0,0,1-.476-.129.465.465,0,0,1,.008-.673.713.713,0,0,1,.492-.121l1.451-3.614h-.6a.71.71,0,0,1-.475-.128.467.467,0,0,1,0-.673.706.706,0,0,1,.475-.128l2,0,1.837,4.539a.841.841,0,0,1,.428.072.463.463,0,0,1,.208.393.424.424,0,0,1-.14.33.688.688,0,0,1-.474.129h-1.244a.692.692,0,0,1-.475-.129.463.463,0,0,1,0-.666.707.707,0,0,1,.475-.128h.226Zm-.383-.923-.743-1.83-.749,1.83Z" transform="translate(-616.805 -1491.779)" fill="#312783"/>
    <path id="Trazado_333" data-name="Trazado 333" d="M713.842,1508.269a.774.774,0,0,1-.2.185.355.355,0,0,1-.181.04.448.448,0,0,1-.341-.14.713.713,0,0,1-.128-.472v-.623a.708.708,0,0,1,.128-.475.438.438,0,0,1,.341-.142.423.423,0,0,1,.271.086.532.532,0,0,1,.17.285.765.765,0,0,0,.121.274,1.46,1.46,0,0,0,.466.284,1.809,1.809,0,0,0,.729.145,1.67,1.67,0,0,0,1.014-.29.491.491,0,0,0,.131-.755.884.884,0,0,0-.4-.249,6.09,6.09,0,0,0-.807-.185,4.3,4.3,0,0,1-1.145-.338,1.528,1.528,0,0,1-.613-.559,1.448,1.448,0,0,1-.226-.778,1.522,1.522,0,0,1,.554-1.162,2.086,2.086,0,0,1,1.442-.5,2.614,2.614,0,0,1,.66.079,1.855,1.855,0,0,1,.553.24.525.525,0,0,1,.36-.176.418.418,0,0,1,.331.144.68.68,0,0,1,.129.47v.694a.7.7,0,0,1-.129.475.427.427,0,0,1-.331.141.458.458,0,0,1-.3-.1.524.524,0,0,1-.148-.307.829.829,0,0,0-.126-.329.979.979,0,0,0-.392-.289,1.463,1.463,0,0,0-.6-.117,1.229,1.229,0,0,0-.79.232.634.634,0,0,0-.291.484.539.539,0,0,0,.12.332.757.757,0,0,0,.349.251,6.79,6.79,0,0,0,.861.2,5.4,5.4,0,0,1,1.091.307,1.506,1.506,0,0,1,.634.521,1.431,1.431,0,0,1,.252.847,1.364,1.364,0,0,1-.483,1.1,2.442,2.442,0,0,1-1.63.54,3.021,3.021,0,0,1-1.451-.37Z" transform="translate(-612.562 -1491.827)" fill="#312783"/>
    <path id="Trazado_334" data-name="Trazado 334" d="M720.156,1506.969h-2.244l-.226.563h.226a.717.717,0,0,1,.476.128.436.436,0,0,1,.14.336.424.424,0,0,1-.14.33.7.7,0,0,1-.476.129h-1.244a.7.7,0,0,1-.477-.129.465.465,0,0,1,.008-.673.713.713,0,0,1,.492-.121l1.451-3.614h-.6a.71.71,0,0,1-.475-.128.467.467,0,0,1,0-.673.706.706,0,0,1,.475-.128l2,0,1.839,4.539a.836.836,0,0,1,.427.072.463.463,0,0,1,.209.393.424.424,0,0,1-.14.33.688.688,0,0,1-.474.129h-1.244a.692.692,0,0,1-.475-.129.463.463,0,0,1,0-.666.707.707,0,0,1,.475-.128h.226Zm-.383-.923-.743-1.83-.749,1.83Z" transform="translate(-610.86 -1491.779)" fill="#312783"/>
    <path id="Trazado_335" data-name="Trazado 335" d="M722.014,1503.918v3.614h1.993v-.875a.721.721,0,0,1,.128-.477.442.442,0,0,1,.336-.14.431.431,0,0,1,.33.14.7.7,0,0,1,.129.477v1.8h-4.376a.7.7,0,0,1-.476-.129.462.462,0,0,1,0-.666.717.717,0,0,1,.476-.128h.536v-3.614h-.536a.72.72,0,0,1-.476-.128.47.47,0,0,1,0-.673.716.716,0,0,1,.476-.128l2,0a.722.722,0,0,1,.476.128.432.432,0,0,1,.14.333.445.445,0,0,1-.14.337.723.723,0,0,1-.476.128Z" transform="translate(-608.695 -1491.779)" fill="#312783"/>
    <path id="Trazado_336" data-name="Trazado 336" d="M728.141,1503.918v2.617a1.964,1.964,0,0,1-.613,1.456,2.054,2.054,0,0,1-1.481.6,2.155,2.155,0,0,1-.8-.151,2.05,2.05,0,0,1-.676-.444,2.5,2.5,0,0,1-.467-.61,1.848,1.848,0,0,1-.167-.85v-2.617a.611.611,0,0,1-.431-.131.437.437,0,0,1-.14-.333.427.427,0,0,1,.14-.333.708.708,0,0,1,.477-.128l1.213,0a.706.706,0,0,1,.475.128.47.47,0,0,1,0,.673.709.709,0,0,1-.475.128h-.333v2.7a.968.968,0,0,0,.346.733,1.183,1.183,0,0,0,.83.318,1.261,1.261,0,0,0,.609-.154,1.221,1.221,0,0,0,.464-.446.854.854,0,0,0,.112-.451v-2.7h-.333a.71.71,0,0,1-.475-.128.467.467,0,0,1,0-.673.707.707,0,0,1,.475-.128l1.211,0a.719.719,0,0,1,.476.128.428.428,0,0,1,.142.333.437.437,0,0,1-.14.333A.615.615,0,0,1,728.141,1503.918Z" transform="translate(-606.787 -1491.779)" fill="#312783"/>
    <path id="Trazado_337" data-name="Trazado 337" d="M727.51,1507.532v-3.614a.626.626,0,0,1-.431-.134.426.426,0,0,1-.14-.33.432.432,0,0,1,.142-.336.709.709,0,0,1,.475-.128l1.934,0a2.412,2.412,0,0,1,.881.168,2.015,2.015,0,0,1,.691.424,2.966,2.966,0,0,1,.411.531,3.037,3.037,0,0,1,.324.672,2.687,2.687,0,0,1,.108.816v.442a2.553,2.553,0,0,1-.2,1.037,2.082,2.082,0,0,1-.522.74,2.628,2.628,0,0,1-.606.422,2.751,2.751,0,0,1-1.166.212h-1.858a.7.7,0,0,1-.475-.129.426.426,0,0,1-.142-.335.431.431,0,0,1,.142-.333A.6.6,0,0,1,727.51,1507.532Zm.925,0h.981a1.717,1.717,0,0,0,.83-.159,1.423,1.423,0,0,0,.55-.526,1.651,1.651,0,0,0,.185-.83v-.436a1.793,1.793,0,0,0-.755-1.473,1.612,1.612,0,0,0-.818-.19h-.973Z" transform="translate(-604.794 -1491.779)" fill="#312783"/>
  </g>
</svg>
