<svg xmlns="http://www.w3.org/2000/svg" width="339.139" height="80" viewBox="0 0 339.139 80">
  <g id="Grupo_7" data-name="Grupo 7" transform="translate(-400 -24.61)">
    <g id="Grupo_6" data-name="Grupo 6" transform="translate(400 38.19)">
      <g id="Grupo_5" data-name="Grupo 5">
        <path id="Trazado_4" data-name="Trazado 4" d="M443.4,36.474c5.807,0,11.439-.045,17.067.068.564.012,1.4.9,1.6,1.5,2.379,7.151,4.768,14.3,6.929,21.5,1.438,4.793,2.511,9.658,4.049,14.56.368-1.719.6-3.466,1.13-5.15,2.521-7.984,5.117-15.951,7.705-23.92.769-2.366,1.674-4.706,2.383-7.083.312-1.05.8-1.505,2.228-1.488,5.394.068,10.79.027,16.641.027-1.048,2.854-1.868,5.233-2.8,7.583C494.5,58.844,488.621,73.61,482.817,88.395c-.529,1.349-1.2,1.92-3.086,1.862-4.76-.147-9.536-.149-14.3-.029-1.794.045-2.5-.469-2.976-1.783Q456.224,71.3,449.877,54.173c-2-5.423-4.04-10.838-6.053-16.261C443.669,37.5,443.574,37.067,443.4,36.474Z" transform="translate(-359.311 -36.458)" fill="#1e3f76"/>
        <path id="Trazado_5" data-name="Trazado 5" d="M417.188,69.787v20.27H400.145a5.463,5.463,0,0,1-.14-.837C400,78.688,400,68.156,400,57.434c.75-.043,1.426-.112,2.1-.114,6.041-.006,12.086.078,18.123-.033,2.714-.05,5.679.023,6.991-2.691,1.083-2.244-.045-4.423-2.9-5a26.076,26.076,0,0,0-4.939-.492c-6.347-.056-12.695-.023-19.212-.023,0-4.183,0-8.281,0-12.381.126-.07.256-.2.384-.2,9.131.1,18.292-.11,27.387.42,9.833.575,16.225,6.359,17.323,14.7.975,7.386-4.408,15.081-12.617,17.065-3.865.934-8.13.787-12.218,1.1C419.485,69.847,418.532,69.787,417.188,69.787Z" transform="translate(-400 -36.423)" fill="#1e3f76"/>
        <path id="Trazado_6" data-name="Trazado 6" d="M525.313,80.059c-1.271,0-2.515.014-3.757,0-5.078-.064-10.16-.076-15.235-.221-9.674-.279-15.824-5.32-16.467-13.458-.5-6.295-.1-12.636-.1-19.084h16.972c0,1.4,0,2.8,0,4.2.012,3.681-.058,7.364.068,11.044.107,3.083,1.315,4.251,5.07,4.553,3.46.279,6.969.18,10.457.24.94.016,1.881,0,2.988,0Z" transform="translate(-315.995 -26.299)" fill="#1e3f76"/>
        <path id="Trazado_7" data-name="Trazado 7" d="M475.725,47.276h16.916V100.85H475.725Z" transform="translate(-329.008 -47.19)" fill="#1e3f76"/>
        <path id="Trazado_8" data-name="Trazado 8" d="M488.058,36.5h40.593V48.974H488.058Z" transform="translate(-317.446 -36.416)" fill="#1e3f76"/>
        <path id="Trazado_9" data-name="Trazado 9" d="M424.507,48.679H461.75V61.017H424.507Z" transform="translate(-377.025 -25)" fill="#1e3f76"/>
      </g>
    </g>
    <text id="Programa_de_Vinculación_e_Innovación_Tecnológica" data-name="Programa de
Vinculación e
Innovación
Tecnológica" transform="translate(618.139 40.61)" fill="#1c1c1b" font-size="17" font-family="Montserrat-Bold, Montserrat" font-weight="700"><tspan x="0" y="0">Programa de</tspan><tspan x="0" y="20">Vinculación e</tspan><tspan x="0" y="40">Innovación</tspan><tspan x="0" y="60">Tecnológica</tspan></text>
  </g>
</svg>
