<svg xmlns="http://www.w3.org/2000/svg" width="220" height="190" viewBox="0 0 220 190">
  <g id="Grupo_284" data-name="Grupo 284" transform="translate(-2809 -1537)">
    <rect id="Rectángulo_91" data-name="Rectángulo 91" width="220" height="190" transform="translate(2809 1537)" fill="none"/>
    <g id="Grupo_281" data-name="Grupo 281" transform="translate(3049 1527.611)">
      <g id="Grupo_277" data-name="Grupo 277" opacity="0.23" style="mix-blend-mode: multiply;isolation: isolate">
        <text id="INTA" transform="translate(-234.821 40.317)" font-size="86.283" font-family="CourierNewPS-BoldMT, Courier New" font-weight="700"><tspan x="0" y="72">INTA</tspan></text>
        <path id="Trazado_1021" data-name="Trazado 1021" d="M-224.256,118.68v5.632h1.454a1.1,1.1,0,0,1,.74.2.671.671,0,0,1,.222.523.662.662,0,0,1-.222.516,1.091,1.091,0,0,1-.74.2h-4.347a1.1,1.1,0,0,1-.741-.2.673.673,0,0,1-.221-.523.664.664,0,0,1,.221-.516,1.1,1.1,0,0,1,.741-.2h1.454V118.68h-1.454a1.1,1.1,0,0,1-.741-.2.672.672,0,0,1-.221-.523.675.675,0,0,1,.221-.523,1.1,1.1,0,0,1,.741-.2l4.347.007a1.108,1.108,0,0,1,.74.2.659.659,0,0,1,.222.519.669.669,0,0,1-.222.523,1.091,1.091,0,0,1-.74.2Z"/>
        <path id="Trazado_1022" data-name="Trazado 1022" d="M-218.148,119.376v.484a2.733,2.733,0,0,1,.867-.506,3.059,3.059,0,0,1,1.029-.168,2.638,2.638,0,0,1,2.022.793,2.335,2.335,0,0,1,.59,1.658v2.675a.973.973,0,0,1,.674.2.678.678,0,0,1,.218.523.664.664,0,0,1-.221.516,1.1,1.1,0,0,1-.741.2h-1.3a1.094,1.094,0,0,1-.741-.2.673.673,0,0,1-.221-.523.665.665,0,0,1,.218-.516.971.971,0,0,1,.674-.2v-2.718a.86.86,0,0,0-.253-.688,1.5,1.5,0,0,0-.99-.281,1.892,1.892,0,0,0-.874.193,3.9,3.9,0,0,0-.952.819v2.675a1.539,1.539,0,0,1,.716.105.682.682,0,0,1,.345.618.662.662,0,0,1-.222.516,1.092,1.092,0,0,1-.741.2h-1.635a1.092,1.092,0,0,1-.741-.2.671.671,0,0,1-.222-.523.69.69,0,0,1,.337-.611,1.6,1.6,0,0,1,.724-.105v-3.5a.957.957,0,0,1-.674-.2.676.676,0,0,1-.218-.519.664.664,0,0,1,.221-.516,1.094,1.094,0,0,1,.741-.2Z"/>
        <path id="Trazado_1023" data-name="Trazado 1023" d="M-206.851,121.061a2.9,2.9,0,0,0-.737-.327,2.991,2.991,0,0,0-.808-.109,2.739,2.739,0,0,0-1.327.274c-.145.08-.218.166-.218.26s.1.213.295.316a4,4,0,0,0,1,.218,11.758,11.758,0,0,1,1.994.393,2.422,2.422,0,0,1,1.137.772,1.73,1.73,0,0,1,.4,1.082,1.57,1.57,0,0,1-.681,1.292,4.038,4.038,0,0,1-2.535.751,5.723,5.723,0,0,1-1.155-.109,4.231,4.231,0,0,1-.972-.319.811.811,0,0,1-.225.14.632.632,0,0,1-.246.049.688.688,0,0,1-.537-.221,1.1,1.1,0,0,1-.2-.741V124.3a1.1,1.1,0,0,1,.2-.741.675.675,0,0,1,.523-.221.664.664,0,0,1,.436.144.963.963,0,0,1,.274.495,2.2,2.2,0,0,0,.793.424,3.567,3.567,0,0,0,1.067.145,3.16,3.16,0,0,0,1.538-.309c.173-.1.26-.211.26-.323,0-.188-.124-.342-.372-.464a5.483,5.483,0,0,0-1.538-.309,4.349,4.349,0,0,1-2.317-.7,1.617,1.617,0,0,1-.583-1.264,1.572,1.572,0,0,1,.653-1.285,3.618,3.618,0,0,1,2.317-.7,4.684,4.684,0,0,1,.959.1,3.977,3.977,0,0,1,.881.291,1.3,1.3,0,0,1,.249-.147.548.548,0,0,1,.214-.049.629.629,0,0,1,.492.221,1.108,1.108,0,0,1,.2.74v.352a1.258,1.258,0,0,1-.112.639.707.707,0,0,1-.611.323.7.7,0,0,1-.456-.162A.734.734,0,0,1-206.851,121.061Z"/>
        <path id="Trazado_1024" data-name="Trazado 1024" d="M-200.476,120.815V123.7a.755.755,0,0,0,.189.611,1.772,1.772,0,0,0,1.054.232,4.457,4.457,0,0,0,2.036-.471,1.355,1.355,0,0,1,.562-.182.663.663,0,0,1,.488.21.706.706,0,0,1,.207.513.631.631,0,0,1-.225.484,3.347,3.347,0,0,1-1.358.608,6.7,6.7,0,0,1-1.71.277,3.01,3.01,0,0,1-2.012-.579,1.81,1.81,0,0,1-.671-1.422v-3.167h-.519a1.1,1.1,0,0,1-.741-.2.675.675,0,0,1-.221-.523.664.664,0,0,1,.221-.516,1.092,1.092,0,0,1,.741-.2h.519v-1.3a1.1,1.1,0,0,1,.2-.74.672.672,0,0,1,.524-.221.664.664,0,0,1,.516.221,1.1,1.1,0,0,1,.2.74v1.3h2.661a1.1,1.1,0,0,1,.741.2.673.673,0,0,1,.221.523.667.667,0,0,1-.221.516,1.1,1.1,0,0,1-.741.2Z"/>
        <path id="Trazado_1025" data-name="Trazado 1025" d="M-191.124,119.376v4.936h1.727a1.1,1.1,0,0,1,.741.2.673.673,0,0,1,.221.523.664.664,0,0,1-.221.516,1.1,1.1,0,0,1-.741.2h-4.894a1.092,1.092,0,0,1-.741-.2.67.67,0,0,1-.221-.523.661.661,0,0,1,.221-.516,1.1,1.1,0,0,1,.741-.2h1.727v-3.5h-1.158a1.1,1.1,0,0,1-.738-.2.667.667,0,0,1-.224-.523.661.661,0,0,1,.221-.516,1.092,1.092,0,0,1,.741-.2Zm-.2-2.732v1.524h-1.713v-1.524Z"/>
        <path id="Trazado_1026" data-name="Trazado 1026" d="M-183.907,120.815V123.7a.752.752,0,0,0,.19.611,1.766,1.766,0,0,0,1.053.232,4.457,4.457,0,0,0,2.036-.471,1.355,1.355,0,0,1,.562-.182.663.663,0,0,1,.488.21.706.706,0,0,1,.207.513.631.631,0,0,1-.225.484,3.347,3.347,0,0,1-1.358.608,6.7,6.7,0,0,1-1.71.277,3.01,3.01,0,0,1-2.012-.579,1.809,1.809,0,0,1-.67-1.422v-3.167h-.52a1.1,1.1,0,0,1-.741-.2.675.675,0,0,1-.221-.523.664.664,0,0,1,.221-.516,1.094,1.094,0,0,1,.741-.2h.52v-1.3a1.091,1.091,0,0,1,.2-.74.668.668,0,0,1,.523-.221.664.664,0,0,1,.516.221,1.1,1.1,0,0,1,.2.74v1.3h2.661a1.093,1.093,0,0,1,.741.2.673.673,0,0,1,.221.523.667.667,0,0,1-.221.516,1.1,1.1,0,0,1-.741.2Z"/>
        <path id="Trazado_1027" data-name="Trazado 1027" d="M-172.21,119.376v4.936a.963.963,0,0,1,.674.2.682.682,0,0,1,.218.52.664.664,0,0,1-.221.516,1.1,1.1,0,0,1-.741.2h-1.37v-.33a6.879,6.879,0,0,1-1.179.422,4.435,4.435,0,0,1-1.067.14,2.424,2.424,0,0,1-1.229-.3,2.192,2.192,0,0,1-.822-.825,1.884,1.884,0,0,1-.217-.948v-3.1h-.246a1.1,1.1,0,0,1-.741-.2.675.675,0,0,1-.221-.523.664.664,0,0,1,.221-.516,1.094,1.094,0,0,1,.741-.2h1.685v4.283a.9.9,0,0,0,.221.67.943.943,0,0,0,.678.215,2.9,2.9,0,0,0,.937-.173,6.565,6.565,0,0,0,1.239-.621v-2.935h-.519a1.1,1.1,0,0,1-.741-.2.675.675,0,0,1-.221-.523.664.664,0,0,1,.221-.516,1.1,1.1,0,0,1,.741-.2Z"/>
        <path id="Trazado_1028" data-name="Trazado 1028" d="M-167.338,120.815V123.7a.752.752,0,0,0,.19.611,1.766,1.766,0,0,0,1.053.232,4.454,4.454,0,0,0,2.036-.471,1.355,1.355,0,0,1,.562-.182.663.663,0,0,1,.488.21.706.706,0,0,1,.207.513.633.633,0,0,1-.224.484,3.359,3.359,0,0,1-1.359.608,6.7,6.7,0,0,1-1.71.277,3.01,3.01,0,0,1-2.012-.579,1.809,1.809,0,0,1-.67-1.422v-3.167h-.52a1.1,1.1,0,0,1-.741-.2.675.675,0,0,1-.221-.523.664.664,0,0,1,.221-.516,1.1,1.1,0,0,1,.741-.2h.52v-1.3a1.091,1.091,0,0,1,.2-.74.67.67,0,0,1,.523-.221.661.661,0,0,1,.516.221,1.1,1.1,0,0,1,.2.74v1.3h2.661a1.092,1.092,0,0,1,.741.2.67.67,0,0,1,.221.523.664.664,0,0,1-.221.516,1.1,1.1,0,0,1-.741.2Z"/>
        <path id="Trazado_1029" data-name="Trazado 1029" d="M-154.959,122.683a3.111,3.111,0,0,1-.46,1.6,3.249,3.249,0,0,1-1.37,1.236,4.149,4.149,0,0,1-1.9.46,4.13,4.13,0,0,1-1.882-.453,3.27,3.27,0,0,1-1.369-1.232,3.106,3.106,0,0,1-.471-1.629,3.376,3.376,0,0,1,.478-1.7,3.371,3.371,0,0,1,1.373-1.31,3.923,3.923,0,0,1,1.871-.477,3.953,3.953,0,0,1,1.892.488,3.337,3.337,0,0,1,1.373,1.313A3.421,3.421,0,0,1-154.959,122.683Zm-1.44.007a1.925,1.925,0,0,0-.5-1.278,2.257,2.257,0,0,0-1.791-.787,2.265,2.265,0,0,0-1.629.625,1.945,1.945,0,0,0-.653,1.447,1.687,1.687,0,0,0,.66,1.26,2.355,2.355,0,0,0,1.622.587,2.364,2.364,0,0,0,1.629-.587A1.692,1.692,0,0,0-156.4,122.69Z"/>
        <path id="Trazado_1030" data-name="Trazado 1030" d="M-147.059,119.958v4.354h.52a1.1,1.1,0,0,1,.74.2.671.671,0,0,1,.222.523.662.662,0,0,1-.222.516,1.091,1.091,0,0,1-.74.2h-1.889a1.092,1.092,0,0,1-.741-.2.67.67,0,0,1-.221-.523.673.673,0,0,1,.217-.513.964.964,0,0,1,.675-.2V118.68h-.225a1.092,1.092,0,0,1-.741-.2.669.669,0,0,1-.221-.523.671.671,0,0,1,.221-.523,1.1,1.1,0,0,1,.741-.2l1.664.007,3.679,5.772V118.68h-.519a1.094,1.094,0,0,1-.741-.2.672.672,0,0,1-.221-.523.675.675,0,0,1,.221-.523,1.1,1.1,0,0,1,.741-.2l1.889.007a1.108,1.108,0,0,1,.74.2.659.659,0,0,1,.222.519.682.682,0,0,1-.218.52.946.946,0,0,1-.667.2v7.071h-1.426Z"/>
        <path id="Trazado_1031" data-name="Trazado 1031" d="M-135.678,119.376v4.936h1.727a1.1,1.1,0,0,1,.741.2.67.67,0,0,1,.221.523.661.661,0,0,1-.221.516,1.092,1.092,0,0,1-.741.2h-4.894a1.091,1.091,0,0,1-.74-.2.671.671,0,0,1-.222-.523.662.662,0,0,1,.222-.516,1.1,1.1,0,0,1,.74-.2h1.728v-3.5h-1.159a1.1,1.1,0,0,1-.737-.2.668.668,0,0,1-.225-.523.664.664,0,0,1,.221-.516,1.1,1.1,0,0,1,.741-.2Zm-.2-2.732v1.524h-1.714v-1.524Z"/>
        <path id="Trazado_1032" data-name="Trazado 1032" d="M-126.208,119.635a.78.78,0,0,1,.534-.245.654.654,0,0,1,.509.221,1.085,1.085,0,0,1,.2.734v.926a1.085,1.085,0,0,1-.2.738.677.677,0,0,1-.523.217.759.759,0,0,1-.5-.168.957.957,0,0,1-.231-.516.85.85,0,0,0-.408-.58,2.823,2.823,0,0,0-1.453-.337,2.244,2.244,0,0,0-1.633.6,2.019,2.019,0,0,0-.614,1.51,1.634,1.634,0,0,0,.59,1.33,3.083,3.083,0,0,0,1.959.489,4.889,4.889,0,0,0,1.467-.183,1.824,1.824,0,0,0,.639-.383.871.871,0,0,1,.548-.27.69.69,0,0,1,.509.218.705.705,0,0,1,.214.512q0,.479-.653.906a5.173,5.173,0,0,1-2.837.639,4.3,4.3,0,0,1-2.612-.695,3.009,3.009,0,0,1-1.264-2.556,3.416,3.416,0,0,1,1.026-2.545,3.651,3.651,0,0,1,2.675-1.008,5.235,5.235,0,0,1,1.109.112A3.887,3.887,0,0,1-126.208,119.635Z"/>
        <path id="Trazado_1033" data-name="Trazado 1033" d="M-118.288,125.751v-.337a4.674,4.674,0,0,1-1.194.432,5.554,5.554,0,0,1-1.187.144,2.81,2.81,0,0,1-1.882-.614,1.774,1.774,0,0,1-.723-1.359,2.205,2.205,0,0,1,.924-1.682,3.848,3.848,0,0,1,2.552-.776,9.439,9.439,0,0,1,1.51.141v-.344a.626.626,0,0,0-.278-.527,1.913,1.913,0,0,0-1.057-.2,7.237,7.237,0,0,0-1.657.253,2.687,2.687,0,0,1-.589.091.656.656,0,0,1-.489-.207.732.732,0,0,1-.2-.53.67.67,0,0,1,.071-.316.553.553,0,0,1,.2-.214,2.3,2.3,0,0,1,.527-.193,9.779,9.779,0,0,1,1.088-.235,6.429,6.429,0,0,1,1-.088,3.31,3.31,0,0,1,2.082.579,1.9,1.9,0,0,1,.741,1.584v2.963h.246a1.1,1.1,0,0,1,.741.2.673.673,0,0,1,.221.523.664.664,0,0,1-.221.516,1.1,1.1,0,0,1-.741.2Zm0-2.577a8.4,8.4,0,0,0-1.594-.168,2.629,2.629,0,0,0-1.51.428q-.393.274-.393.555a.382.382,0,0,0,.189.33,1.735,1.735,0,0,0,.962.232,4.017,4.017,0,0,0,1.177-.2,4.339,4.339,0,0,0,1.169-.555Z"/>
        <path id="Trazado_1034" data-name="Trazado 1034" d="M-111.943,119.376v.9a7.908,7.908,0,0,1,1.429-.87,2.562,2.562,0,0,1,.979-.218,2.18,2.18,0,0,1,1.363.52.954.954,0,0,1,.449.716.711.711,0,0,1-.214.523.7.7,0,0,1-.516.214.864.864,0,0,1-.562-.267.841.841,0,0,0-.526-.267,1.988,1.988,0,0,0-.9.38,14.3,14.3,0,0,0-1.5,1.137v2.17h2.051a1.1,1.1,0,0,1,.74.2.67.67,0,0,1,.221.523.661.661,0,0,1-.221.516,1.091,1.091,0,0,1-.74.2h-4.347a1.1,1.1,0,0,1-.741-.2.673.673,0,0,1-.221-.523.664.664,0,0,1,.221-.516,1.1,1.1,0,0,1,.741-.2h.857v-3.5h-.52a1.1,1.1,0,0,1-.741-.2.675.675,0,0,1-.221-.523.664.664,0,0,1,.221-.516,1.1,1.1,0,0,1,.741-.2Z"/>
        <path id="Trazado_1035" data-name="Trazado 1035" d="M-102.409,125.751v-.337a4.674,4.674,0,0,1-1.194.432,5.561,5.561,0,0,1-1.187.144,2.81,2.81,0,0,1-1.882-.614,1.774,1.774,0,0,1-.723-1.359,2.205,2.205,0,0,1,.924-1.682,3.848,3.848,0,0,1,2.552-.776,9.449,9.449,0,0,1,1.51.141v-.344a.626.626,0,0,0-.278-.527,1.914,1.914,0,0,0-1.057-.2,7.237,7.237,0,0,0-1.657.253,2.7,2.7,0,0,1-.59.091.654.654,0,0,1-.488-.207.732.732,0,0,1-.2-.53.682.682,0,0,1,.07-.316.563.563,0,0,1,.2-.214,2.3,2.3,0,0,1,.527-.193,9.779,9.779,0,0,1,1.088-.235,6.429,6.429,0,0,1,1-.088,3.31,3.31,0,0,1,2.082.579,1.9,1.9,0,0,1,.741,1.584v2.963h.246a1.1,1.1,0,0,1,.741.2.673.673,0,0,1,.221.523.664.664,0,0,1-.221.516,1.1,1.1,0,0,1-.741.2Zm0-2.577a8.4,8.4,0,0,0-1.594-.168,2.629,2.629,0,0,0-1.51.428q-.393.274-.393.555a.382.382,0,0,0,.189.33,1.735,1.735,0,0,0,.962.232,4.006,4.006,0,0,0,1.176-.2,4.332,4.332,0,0,0,1.17-.555Z"/>
        <path id="Trazado_1036" data-name="Trazado 1036" d="M-93.254,119.8v-.428h1.685a1.1,1.1,0,0,1,.741.2.673.673,0,0,1,.221.523.667.667,0,0,1-.221.516,1.1,1.1,0,0,1-.741.2h-.246v5.238a2.646,2.646,0,0,1-.319,1.324,2.739,2.739,0,0,1-.98.972,2.772,2.772,0,0,1-1.488.408h-1.629a1.091,1.091,0,0,1-.741-.2.661.661,0,0,1-.221-.516.671.671,0,0,1,.221-.523,1.1,1.1,0,0,1,.741-.2h1.586a1.4,1.4,0,0,0,1.026-.358,1.218,1.218,0,0,0,.365-.906v-.7a3.94,3.94,0,0,1-.973.463,3.385,3.385,0,0,1-1.014.155,3.352,3.352,0,0,1-2.458-.98,3.268,3.268,0,0,1-.99-2.419,3.279,3.279,0,0,1,.99-2.426,3.355,3.355,0,0,1,2.458-.979,3.385,3.385,0,0,1,1.042.158A3.377,3.377,0,0,1-93.254,119.8Zm-.007,2.759a1.877,1.877,0,0,0-.587-1.376,1.926,1.926,0,0,0-1.407-.583,1.928,1.928,0,0,0-1.408.583,1.877,1.877,0,0,0-.587,1.376,1.873,1.873,0,0,0,.587,1.38,1.932,1.932,0,0,0,1.408.579,1.93,1.93,0,0,0,1.407-.579A1.873,1.873,0,0,0-93.261,122.563Z"/>
        <path id="Trazado_1037" data-name="Trazado 1037" d="M-83.84,119.376v4.936a.963.963,0,0,1,.674.2.681.681,0,0,1,.217.52.661.661,0,0,1-.221.516,1.092,1.092,0,0,1-.741.2H-85.28v-.33a6.908,6.908,0,0,1-1.179.422,4.443,4.443,0,0,1-1.068.14,2.427,2.427,0,0,1-1.229-.3,2.19,2.19,0,0,1-.821-.825,1.883,1.883,0,0,1-.218-.948v-3.1h-.246a1.1,1.1,0,0,1-.74-.2.672.672,0,0,1-.222-.523.662.662,0,0,1,.222-.516,1.091,1.091,0,0,1,.74-.2h1.686v4.283a.893.893,0,0,0,.221.67.939.939,0,0,0,.677.215,2.9,2.9,0,0,0,.938-.173,6.565,6.565,0,0,0,1.239-.621v-2.935H-85.8a1.1,1.1,0,0,1-.741-.2.671.671,0,0,1-.221-.523.661.661,0,0,1,.221-.516,1.092,1.092,0,0,1,.741-.2Zm-4.052-1.889a.742.742,0,0,1-.221.544.733.733,0,0,1-.537.221.737.737,0,0,1-.541-.225.735.735,0,0,1-.225-.54.723.723,0,0,1,.225-.537.742.742,0,0,1,.541-.222.73.73,0,0,1,.537.222A.731.731,0,0,1-87.892,117.487Zm3,0a.737.737,0,0,1-.224.544.745.745,0,0,1-.541.221.723.723,0,0,1-.537-.225.743.743,0,0,1-.221-.54.731.731,0,0,1,.221-.537.728.728,0,0,1,.537-.222.742.742,0,0,1,.541.222A.726.726,0,0,1-84.887,117.487Z"/>
        <path id="Trazado_1038" data-name="Trazado 1038" d="M-75.346,123.294h-5.9a1.843,1.843,0,0,0,.8.9,2.991,2.991,0,0,0,1.549.345,8.924,8.924,0,0,0,2.127-.345,3.722,3.722,0,0,1,.759-.14.645.645,0,0,1,.484.2.708.708,0,0,1,.2.512.627.627,0,0,1-.211.478,3.366,3.366,0,0,1-1.369.5,9.892,9.892,0,0,1-2.092.235,3.866,3.866,0,0,1-2.764-.976,3.171,3.171,0,0,1-1.035-2.4,3.087,3.087,0,0,1,1.12-2.469,3.869,3.869,0,0,1,2.58-.951,4.113,4.113,0,0,1,1.612.309,3.429,3.429,0,0,1,1.092.667,4.218,4.218,0,0,1,.835,1.285,3.162,3.162,0,0,1,.225,1.236Zm-1.594-1.44a2.25,2.25,0,0,0-.864-.923,2.513,2.513,0,0,0-1.271-.306,2.5,2.5,0,0,0-1.264.306,2.3,2.3,0,0,0-.87.923Z"/>
        <path id="Trazado_1039" data-name="Trazado 1039" d="M-71.549,119.376v.484a2.727,2.727,0,0,1,.868-.506,3.049,3.049,0,0,1,1.028-.168,2.638,2.638,0,0,1,2.022.793,2.33,2.33,0,0,1,.59,1.658v2.675a.971.971,0,0,1,.674.2.678.678,0,0,1,.218.523.664.664,0,0,1-.221.516,1.1,1.1,0,0,1-.741.2h-1.3a1.1,1.1,0,0,1-.741-.2.673.673,0,0,1-.221-.523.669.669,0,0,1,.218-.516.971.971,0,0,1,.674-.2v-2.718a.86.86,0,0,0-.253-.688,1.5,1.5,0,0,0-.99-.281,1.892,1.892,0,0,0-.874.193,3.9,3.9,0,0,0-.952.819v2.675a1.547,1.547,0,0,1,.717.105.683.683,0,0,1,.344.618.664.664,0,0,1-.221.516,1.1,1.1,0,0,1-.741.2h-1.636a1.092,1.092,0,0,1-.741-.2.67.67,0,0,1-.221-.523.688.688,0,0,1,.337-.611,1.589,1.589,0,0,1,.723-.105v-3.5a.957.957,0,0,1-.674-.2.679.679,0,0,1-.218-.519.664.664,0,0,1,.221-.516,1.1,1.1,0,0,1,.741-.2Z"/>
        <path id="Trazado_1040" data-name="Trazado 1040" d="M-60.6,121.061a2.9,2.9,0,0,0-.737-.327,2.991,2.991,0,0,0-.808-.109,2.739,2.739,0,0,0-1.327.274c-.145.08-.217.166-.217.26s.1.213.3.316a3.979,3.979,0,0,0,1,.218,11.758,11.758,0,0,1,1.994.393,2.416,2.416,0,0,1,1.137.772,1.731,1.731,0,0,1,.4,1.082,1.573,1.573,0,0,1-.681,1.292,4.04,4.04,0,0,1-2.535.751,5.726,5.726,0,0,1-1.156-.109,4.231,4.231,0,0,1-.972-.319.811.811,0,0,1-.225.14.63.63,0,0,1-.245.049.689.689,0,0,1-.538-.221,1.1,1.1,0,0,1-.2-.741V124.3a1.1,1.1,0,0,1,.2-.741.675.675,0,0,1,.524-.221.663.663,0,0,1,.435.144.963.963,0,0,1,.274.495,2.211,2.211,0,0,0,.793.424,3.57,3.57,0,0,0,1.068.145,3.155,3.155,0,0,0,1.537-.309c.173-.1.26-.211.26-.323,0-.188-.124-.342-.372-.464a5.483,5.483,0,0,0-1.538-.309,4.349,4.349,0,0,1-2.317-.7,1.617,1.617,0,0,1-.583-1.264,1.572,1.572,0,0,1,.653-1.285,3.618,3.618,0,0,1,2.317-.7,4.684,4.684,0,0,1,.959.1,3.977,3.977,0,0,1,.881.291,1.3,1.3,0,0,1,.249-.147.553.553,0,0,1,.215-.049.628.628,0,0,1,.491.221,1.108,1.108,0,0,1,.2.74v.352a1.255,1.255,0,0,1-.113.639.707.707,0,0,1-.611.323.7.7,0,0,1-.456-.162A.734.734,0,0,1-60.6,121.061Z"/>
        <path id="Trazado_1041" data-name="Trazado 1041" d="M-50.6,123.294h-5.905a1.84,1.84,0,0,0,.8.9,2.984,2.984,0,0,0,1.548.345,8.938,8.938,0,0,0,2.128-.345,3.7,3.7,0,0,1,.758-.14.645.645,0,0,1,.484.2.708.708,0,0,1,.2.512.627.627,0,0,1-.211.478,3.366,3.366,0,0,1-1.369.5,9.892,9.892,0,0,1-2.092.235,3.866,3.866,0,0,1-2.764-.976,3.171,3.171,0,0,1-1.035-2.4,3.087,3.087,0,0,1,1.12-2.469,3.869,3.869,0,0,1,2.58-.951,4.113,4.113,0,0,1,1.612.309,3.429,3.429,0,0,1,1.092.667,4.218,4.218,0,0,1,.835,1.285,3.162,3.162,0,0,1,.225,1.236Zm-1.594-1.44a2.25,2.25,0,0,0-.864-.923,2.51,2.51,0,0,0-1.271-.306,2.5,2.5,0,0,0-1.264.306,2.3,2.3,0,0,0-.87.923Z"/>
        <path id="Trazado_1042" data-name="Trazado 1042" d="M-36.8,116.644v7.668h.246a1.1,1.1,0,0,1,.737.2.667.667,0,0,1,.225.523.662.662,0,0,1-.222.516,1.091,1.091,0,0,1-.74.2h-1.686V125.4a4.271,4.271,0,0,1-1.028.436,4.2,4.2,0,0,1-1.113.147,3.638,3.638,0,0,1-2.612-.938,3.081,3.081,0,0,1-.99-2.334,3.384,3.384,0,0,1,1.039-2.493,3.462,3.462,0,0,1,2.535-1.032,3.6,3.6,0,0,1,1.1.172,4.412,4.412,0,0,1,1.067.516v-1.79h-.245a1.091,1.091,0,0,1-.741-.2.664.664,0,0,1-.221-.516.675.675,0,0,1,.221-.523,1.1,1.1,0,0,1,.741-.2Zm-1.44,6.109a2.042,2.042,0,0,0-.625-1.51,2.1,2.1,0,0,0-1.53-.618,2.089,2.089,0,0,0-1.524.618,2.018,2.018,0,0,0-.625,1.489,1.676,1.676,0,0,0,.562,1.3,2.276,2.276,0,0,0,1.587.51,2.3,2.3,0,0,0,1.587-.51A1.645,1.645,0,0,0-38.239,122.753Z"/>
        <path id="Trazado_1043" data-name="Trazado 1043" d="M-28.465,123.294h-5.9a1.85,1.85,0,0,0,.8.9,2.989,2.989,0,0,0,1.548.345A8.938,8.938,0,0,0-29.9,124.2a3.716,3.716,0,0,1,.758-.14.647.647,0,0,1,.485.2.708.708,0,0,1,.2.512.631.631,0,0,1-.211.478,3.373,3.373,0,0,1-1.369.5,9.9,9.9,0,0,1-2.093.235,3.865,3.865,0,0,1-2.763-.976,3.172,3.172,0,0,1-1.036-2.4,3.09,3.09,0,0,1,1.12-2.469,3.871,3.871,0,0,1,2.581-.951,4.108,4.108,0,0,1,1.611.309,3.429,3.429,0,0,1,1.092.667,4.22,4.22,0,0,1,.836,1.285,3.163,3.163,0,0,1,.224,1.236Zm-1.593-1.44a2.263,2.263,0,0,0-.864-.923,2.515,2.515,0,0,0-1.271-.306,2.5,2.5,0,0,0-1.264.306,2.3,2.3,0,0,0-.871.923Z"/>
        <path id="Trazado_1044" data-name="Trazado 1044" d="M-217.782,134.081v5.632h.969a1.1,1.1,0,0,1,.74.2.671.671,0,0,1,.222.523.662.662,0,0,1-.222.516,1.091,1.091,0,0,1-.74.2h-3.371a1.09,1.09,0,0,1-.74-.2.671.671,0,0,1-.222-.523.662.662,0,0,1,.222-.516,1.1,1.1,0,0,1,.74-.2h.962v-5.632h-1.559v1.363a1.091,1.091,0,0,1-.2.74.671.671,0,0,1-.523.222.662.662,0,0,1-.516-.222,1.091,1.091,0,0,1-.2-.74v-2.809l7.457.007v2.8a1.1,1.1,0,0,1-.2.74.671.671,0,0,1-.523.222.662.662,0,0,1-.516-.222,1.091,1.091,0,0,1-.2-.74v-1.363Z"/>
        <path id="Trazado_1045" data-name="Trazado 1045" d="M-206.842,138.7h-5.906a1.845,1.845,0,0,0,.8.9,2.989,2.989,0,0,0,1.548.345,8.939,8.939,0,0,0,2.128-.345,3.715,3.715,0,0,1,.758-.14.647.647,0,0,1,.485.2.707.707,0,0,1,.2.512.63.63,0,0,1-.21.478,3.373,3.373,0,0,1-1.369.495,9.9,9.9,0,0,1-2.093.235,3.863,3.863,0,0,1-2.763-.976,3.169,3.169,0,0,1-1.036-2.4,3.087,3.087,0,0,1,1.12-2.468,3.872,3.872,0,0,1,2.581-.951,4.109,4.109,0,0,1,1.611.309,3.418,3.418,0,0,1,1.092.667,4.207,4.207,0,0,1,.836,1.285,3.18,3.18,0,0,1,.225,1.236Zm-1.6-1.44a2.247,2.247,0,0,0-.863-.923,2.515,2.515,0,0,0-1.271-.306,2.5,2.5,0,0,0-1.264.306,2.3,2.3,0,0,0-.871.923Z"/>
        <path id="Trazado_1046" data-name="Trazado 1046" d="M-199.258,135.036a.78.78,0,0,1,.533-.245.654.654,0,0,1,.509.221,1.078,1.078,0,0,1,.2.733v.927a1.079,1.079,0,0,1-.2.738.675.675,0,0,1-.523.217.756.756,0,0,1-.5-.168.95.95,0,0,1-.232-.516.849.849,0,0,0-.407-.58,2.827,2.827,0,0,0-1.454-.337,2.24,2.24,0,0,0-1.632.6,2.015,2.015,0,0,0-.615,1.51,1.634,1.634,0,0,0,.59,1.33,3.083,3.083,0,0,0,1.959.489,4.9,4.9,0,0,0,1.468-.183,1.842,1.842,0,0,0,.639-.383.869.869,0,0,1,.547-.27.689.689,0,0,1,.509.218.706.706,0,0,1,.215.512q0,.479-.653.906a5.175,5.175,0,0,1-2.837.639,4.3,4.3,0,0,1-2.612-.7,3.007,3.007,0,0,1-1.264-2.556,3.419,3.419,0,0,1,1.025-2.545,3.651,3.651,0,0,1,2.675-1.008,5.244,5.244,0,0,1,1.11.112A3.9,3.9,0,0,1-199.258,135.036Z"/>
        <path id="Trazado_1047" data-name="Trazado 1047" d="M-194.933,134.776v.485a2.733,2.733,0,0,1,.867-.506,3.059,3.059,0,0,1,1.029-.168,2.638,2.638,0,0,1,2.022.793,2.334,2.334,0,0,1,.59,1.657v2.676a.973.973,0,0,1,.674.2.678.678,0,0,1,.218.523.664.664,0,0,1-.221.516,1.1,1.1,0,0,1-.741.2h-1.3a1.092,1.092,0,0,1-.741-.2.67.67,0,0,1-.221-.523.665.665,0,0,1,.218-.516.969.969,0,0,1,.674-.2v-2.718a.863.863,0,0,0-.253-.688,1.5,1.5,0,0,0-.99-.281,1.9,1.9,0,0,0-.875.193,3.935,3.935,0,0,0-.951.818v2.676a1.539,1.539,0,0,1,.716.1.681.681,0,0,1,.344.618.661.661,0,0,1-.221.516,1.092,1.092,0,0,1-.741.2h-1.636a1.1,1.1,0,0,1-.741-.2.673.673,0,0,1-.221-.523.688.688,0,0,1,.337-.611,1.6,1.6,0,0,1,.724-.1v-3.5a.957.957,0,0,1-.674-.2.676.676,0,0,1-.218-.519.661.661,0,0,1,.221-.516,1.091,1.091,0,0,1,.741-.2Z"/>
        <path id="Trazado_1048" data-name="Trazado 1048" d="M-181.711,138.084a3.111,3.111,0,0,1-.46,1.6,3.247,3.247,0,0,1-1.369,1.236,4.156,4.156,0,0,1-1.9.46,4.133,4.133,0,0,1-1.882-.453,3.276,3.276,0,0,1-1.369-1.232,3.114,3.114,0,0,1-.47-1.629,3.374,3.374,0,0,1,.477-1.7,3.371,3.371,0,0,1,1.373-1.31,3.928,3.928,0,0,1,1.871-.477,3.957,3.957,0,0,1,1.893.488,3.335,3.335,0,0,1,1.372,1.313A3.421,3.421,0,0,1-181.711,138.084Zm-1.44.007a1.923,1.923,0,0,0-.5-1.278,2.256,2.256,0,0,0-1.791-.787,2.268,2.268,0,0,0-1.629.625,1.948,1.948,0,0,0-.653,1.447,1.687,1.687,0,0,0,.66,1.26,2.355,2.355,0,0,0,1.622.587,2.364,2.364,0,0,0,1.629-.587A1.692,1.692,0,0,0-183.151,138.091Z"/>
        <path id="Trazado_1049" data-name="Trazado 1049" d="M-175.777,132.045v7.668h1.727a1.1,1.1,0,0,1,.741.2.67.67,0,0,1,.221.523.661.661,0,0,1-.221.516,1.092,1.092,0,0,1-.741.2h-4.894a1.1,1.1,0,0,1-.741-.2.673.673,0,0,1-.221-.523.664.664,0,0,1,.221-.516,1.1,1.1,0,0,1,.741-.2h1.727v-6.229h-1.158a1.094,1.094,0,0,1-.737-.2.665.665,0,0,1-.225-.523.667.667,0,0,1,.221-.516,1.1,1.1,0,0,1,.741-.2Z"/>
        <path id="Trazado_1050" data-name="Trazado 1050" d="M-164.732,138.084a3.1,3.1,0,0,1-.46,1.6,3.241,3.241,0,0,1-1.369,1.236,4.149,4.149,0,0,1-1.9.46,4.127,4.127,0,0,1-1.882-.453,3.279,3.279,0,0,1-1.37-1.232,3.114,3.114,0,0,1-.47-1.629,3.366,3.366,0,0,1,.478-1.7,3.368,3.368,0,0,1,1.372-1.31,3.929,3.929,0,0,1,1.872-.477,3.953,3.953,0,0,1,1.892.488,3.337,3.337,0,0,1,1.373,1.313A3.42,3.42,0,0,1-164.732,138.084Zm-1.439.007a1.924,1.924,0,0,0-.5-1.278,2.255,2.255,0,0,0-1.79-.787,2.265,2.265,0,0,0-1.629.625,1.945,1.945,0,0,0-.653,1.447,1.684,1.684,0,0,0,.66,1.26,2.352,2.352,0,0,0,1.622.587,2.364,2.364,0,0,0,1.629-.587A1.692,1.692,0,0,0-166.171,138.091Z"/>
        <path id="Trazado_1051" data-name="Trazado 1051" d="M-158.862,135.205v-.429h1.686a1.09,1.09,0,0,1,.74.2.67.67,0,0,1,.221.523.664.664,0,0,1-.221.516,1.1,1.1,0,0,1-.74.2h-.246v5.238a2.646,2.646,0,0,1-.32,1.324,2.736,2.736,0,0,1-.979.972,2.778,2.778,0,0,1-1.489.408h-1.629a1.1,1.1,0,0,1-.741-.2.664.664,0,0,1-.221-.516.675.675,0,0,1,.221-.523,1.1,1.1,0,0,1,.741-.2h1.587a1.4,1.4,0,0,0,1.025-.358,1.218,1.218,0,0,0,.365-.906v-.7a3.917,3.917,0,0,1-.972.463,3.391,3.391,0,0,1-1.015.155,3.354,3.354,0,0,1-2.458-.98,3.268,3.268,0,0,1-.99-2.419,3.279,3.279,0,0,1,.99-2.426,3.357,3.357,0,0,1,2.458-.979,3.391,3.391,0,0,1,1.043.158A3.372,3.372,0,0,1-158.862,135.205Zm-.007,2.759a1.876,1.876,0,0,0-.586-1.376,1.928,1.928,0,0,0-1.408-.583,1.928,1.928,0,0,0-1.408.583,1.876,1.876,0,0,0-.586,1.376,1.872,1.872,0,0,0,.586,1.38,1.932,1.932,0,0,0,1.408.579,1.932,1.932,0,0,0,1.408-.579A1.872,1.872,0,0,0-158.869,137.964Z"/>
        <path id="Trazado_1052" data-name="Trazado 1052" d="M-150.779,134.776v4.937h1.727a1.1,1.1,0,0,1,.741.2.67.67,0,0,1,.221.523.661.661,0,0,1-.221.516,1.092,1.092,0,0,1-.741.2h-4.894a1.1,1.1,0,0,1-.741-.2.673.673,0,0,1-.221-.523.664.664,0,0,1,.221-.516,1.1,1.1,0,0,1,.741-.2h1.728v-3.5h-1.159a1.1,1.1,0,0,1-.737-.2.668.668,0,0,1-.225-.523.664.664,0,0,1,.221-.516,1.093,1.093,0,0,1,.741-.2Zm-.281-2.3-1.58,1.285a.7.7,0,0,1-.4.19.458.458,0,0,1-.333-.133.44.44,0,0,1-.137-.33.609.609,0,0,1,.28-.45l1.587-1.285a.711.711,0,0,1,.4-.189.458.458,0,0,1,.333.133.432.432,0,0,1,.137.323A.609.609,0,0,1-151.06,132.48Z"/>
        <path id="Trazado_1053" data-name="Trazado 1053" d="M-142.17,141.152v-.337a4.674,4.674,0,0,1-1.194.432,5.553,5.553,0,0,1-1.187.144,2.812,2.812,0,0,1-1.882-.614,1.774,1.774,0,0,1-.723-1.359,2.205,2.205,0,0,1,.924-1.682,3.848,3.848,0,0,1,2.552-.776,9.449,9.449,0,0,1,1.51.141v-.344a.626.626,0,0,0-.278-.527,1.912,1.912,0,0,0-1.056-.2,7.236,7.236,0,0,0-1.658.253,2.688,2.688,0,0,1-.589.091.656.656,0,0,1-.489-.207.732.732,0,0,1-.2-.53.67.67,0,0,1,.071-.316.553.553,0,0,1,.2-.214,2.32,2.32,0,0,1,.527-.193,9.827,9.827,0,0,1,1.088-.235,6.429,6.429,0,0,1,1-.088,3.31,3.31,0,0,1,2.082.579,1.9,1.9,0,0,1,.741,1.584v2.963h.246a1.1,1.1,0,0,1,.741.2.673.673,0,0,1,.221.523.664.664,0,0,1-.221.516,1.1,1.1,0,0,1-.741.2Zm0-2.577a8.392,8.392,0,0,0-1.594-.168,2.629,2.629,0,0,0-1.51.428q-.393.274-.393.555a.382.382,0,0,0,.189.33,1.735,1.735,0,0,0,.962.232,4.006,4.006,0,0,0,1.176-.2,4.331,4.331,0,0,0,1.17-.555Z"/>
        <path id="Trazado_1054" data-name="Trazado 1054" d="M-128.439,138.835h-3.5l-.351.878h.351a1.1,1.1,0,0,1,.741.2.67.67,0,0,1,.221.523.661.661,0,0,1-.221.516,1.092,1.092,0,0,1-.741.2h-1.938a1.091,1.091,0,0,1-.74-.2.671.671,0,0,1-.222-.523.672.672,0,0,1,.232-.527,1.108,1.108,0,0,1,.766-.189l2.261-5.632h-.941a1.092,1.092,0,0,1-.741-.2.669.669,0,0,1-.222-.523.671.671,0,0,1,.222-.523,1.1,1.1,0,0,1,.741-.2l3.11.007,2.865,7.071a1.31,1.31,0,0,1,.667.112.719.719,0,0,1,.323.611.665.665,0,0,1-.218.516,1.078,1.078,0,0,1-.737.2h-1.938a1.1,1.1,0,0,1-.741-.2.673.673,0,0,1-.221-.523.664.664,0,0,1,.221-.516,1.1,1.1,0,0,1,.741-.2h.351Zm-.6-1.439-1.158-2.851-1.166,2.851Z"/>
        <path id="Trazado_1055" data-name="Trazado 1055" d="M-120.589,135.205v-.429h1.686a1.09,1.09,0,0,1,.74.2.671.671,0,0,1,.222.523.665.665,0,0,1-.222.516,1.1,1.1,0,0,1-.74.2h-.246v5.238a2.646,2.646,0,0,1-.32,1.324,2.736,2.736,0,0,1-.979.972,2.776,2.776,0,0,1-1.489.408h-1.629a1.09,1.09,0,0,1-.74-.2.662.662,0,0,1-.222-.516.672.672,0,0,1,.222-.523,1.1,1.1,0,0,1,.74-.2h1.587a1.4,1.4,0,0,0,1.025-.358,1.214,1.214,0,0,0,.365-.906v-.7a3.917,3.917,0,0,1-.972.463,3.386,3.386,0,0,1-1.015.155,3.351,3.351,0,0,1-2.457-.98,3.268,3.268,0,0,1-.99-2.419,3.279,3.279,0,0,1,.99-2.426,3.354,3.354,0,0,1,2.457-.979,3.391,3.391,0,0,1,1.043.158A3.359,3.359,0,0,1-120.589,135.205Zm-.007,2.759a1.876,1.876,0,0,0-.586-1.376,1.928,1.928,0,0,0-1.408-.583,1.93,1.93,0,0,0-1.408.583,1.88,1.88,0,0,0-.586,1.376,1.876,1.876,0,0,0,.586,1.38,1.934,1.934,0,0,0,1.408.579,1.932,1.932,0,0,0,1.408-.579A1.872,1.872,0,0,0-120.6,137.964Z"/>
        <path id="Trazado_1056" data-name="Trazado 1056" d="M-113.517,134.776v.9a7.908,7.908,0,0,1,1.429-.87,2.563,2.563,0,0,1,.98-.218,2.178,2.178,0,0,1,1.362.52.954.954,0,0,1,.449.716.711.711,0,0,1-.214.523.7.7,0,0,1-.516.214.864.864,0,0,1-.562-.267.839.839,0,0,0-.527-.267,1.985,1.985,0,0,0-.9.38,14.163,14.163,0,0,0-1.5,1.137v2.17h2.05a1.1,1.1,0,0,1,.741.2.671.671,0,0,1,.222.523.662.662,0,0,1-.222.516,1.092,1.092,0,0,1-.741.2h-4.346a1.1,1.1,0,0,1-.741-.2.673.673,0,0,1-.221-.523.664.664,0,0,1,.221-.516,1.1,1.1,0,0,1,.741-.2h.857v-3.5h-.52a1.1,1.1,0,0,1-.741-.2.675.675,0,0,1-.221-.523.664.664,0,0,1,.221-.516,1.1,1.1,0,0,1,.741-.2Z"/>
        <path id="Trazado_1057" data-name="Trazado 1057" d="M-101.454,138.084a3.1,3.1,0,0,1-.46,1.6,3.241,3.241,0,0,1-1.369,1.236,4.149,4.149,0,0,1-1.9.46,4.13,4.13,0,0,1-1.882-.453,3.27,3.27,0,0,1-1.369-1.232,3.106,3.106,0,0,1-.471-1.629,3.376,3.376,0,0,1,.478-1.7,3.371,3.371,0,0,1,1.373-1.31,3.923,3.923,0,0,1,1.871-.477,3.953,3.953,0,0,1,1.892.488,3.337,3.337,0,0,1,1.373,1.313A3.42,3.42,0,0,1-101.454,138.084Zm-1.439.007a1.919,1.919,0,0,0-.5-1.278,2.255,2.255,0,0,0-1.79-.787,2.265,2.265,0,0,0-1.629.625,1.945,1.945,0,0,0-.653,1.447,1.687,1.687,0,0,0,.66,1.26,2.355,2.355,0,0,0,1.622.587,2.364,2.364,0,0,0,1.629-.587A1.692,1.692,0,0,0-102.893,138.091Z"/>
        <path id="Trazado_1058" data-name="Trazado 1058" d="M-98.954,140.359v2.359h.864a1.1,1.1,0,0,1,.741.2.675.675,0,0,1,.221.523.664.664,0,0,1-.221.516,1.1,1.1,0,0,1-.741.2h-2.549a1.091,1.091,0,0,1-.741-.2.664.664,0,0,1-.221-.516.668.668,0,0,1,.225-.523,1.1,1.1,0,0,1,.737-.2h.246v-6.5h-.246a1.1,1.1,0,0,1-.741-.2.675.675,0,0,1-.221-.523.664.664,0,0,1,.221-.516,1.091,1.091,0,0,1,.741-.2h1.685v.492a3.979,3.979,0,0,1,1.046-.513,3.725,3.725,0,0,1,1.11-.168,3.5,3.5,0,0,1,2.514,1,3.106,3.106,0,0,1,1.039,2.293,2.831,2.831,0,0,1-1.229,2.352,3.745,3.745,0,0,1-2.31.773,3.8,3.8,0,0,1-1.1-.162A4.637,4.637,0,0,1-98.954,140.359Zm4.269-2.472a1.8,1.8,0,0,0-.238-.769,2,2,0,0,0-.734-.779,2.135,2.135,0,0,0-1.162-.313,2.057,2.057,0,0,0-1.707.808,1.772,1.772,0,0,0-.428,1.067,1.529,1.529,0,0,0,.614,1.12,2.211,2.211,0,0,0,1.521.544,2.215,2.215,0,0,0,1.523-.54A1.534,1.534,0,0,0-94.685,137.887Z"/>
        <path id="Trazado_1059" data-name="Trazado 1059" d="M-84.6,138.7h-5.9a1.845,1.845,0,0,0,.8.9,2.984,2.984,0,0,0,1.548.345,8.939,8.939,0,0,0,2.128-.345,3.715,3.715,0,0,1,.758-.14.647.647,0,0,1,.485.2.707.707,0,0,1,.2.512.63.63,0,0,1-.21.478,3.38,3.38,0,0,1-1.37.495,9.885,9.885,0,0,1-2.092.235,3.861,3.861,0,0,1-2.763-.976,3.169,3.169,0,0,1-1.036-2.4,3.087,3.087,0,0,1,1.12-2.468,3.872,3.872,0,0,1,2.581-.951,4.109,4.109,0,0,1,1.611.309,3.429,3.429,0,0,1,1.092.667,4.226,4.226,0,0,1,.836,1.285,3.181,3.181,0,0,1,.224,1.236Zm-1.594-1.44a2.254,2.254,0,0,0-.863-.923,2.515,2.515,0,0,0-1.271-.306,2.5,2.5,0,0,0-1.264.306,2.3,2.3,0,0,0-.871.923Z"/>
        <path id="Trazado_1060" data-name="Trazado 1060" d="M-77.944,135.036a.78.78,0,0,1,.534-.245.656.656,0,0,1,.509.221,1.084,1.084,0,0,1,.2.733v.927a1.085,1.085,0,0,1-.2.738.679.679,0,0,1-.524.217.758.758,0,0,1-.5-.168.957.957,0,0,1-.232-.516.849.849,0,0,0-.407-.58,2.827,2.827,0,0,0-1.454-.337,2.243,2.243,0,0,0-1.632.6,2.014,2.014,0,0,0-.614,1.51,1.633,1.633,0,0,0,.589,1.33,3.087,3.087,0,0,0,1.959.489,4.891,4.891,0,0,0,1.468-.183,1.824,1.824,0,0,0,.639-.383.869.869,0,0,1,.548-.27.692.692,0,0,1,.509.218.705.705,0,0,1,.214.512q0,.479-.653.906a5.175,5.175,0,0,1-2.837.639,4.3,4.3,0,0,1-2.612-.7A3.007,3.007,0,0,1-83.7,138.14a3.419,3.419,0,0,1,1.025-2.545A3.653,3.653,0,0,1-80,134.587a5.241,5.241,0,0,1,1.109.112A3.887,3.887,0,0,1-77.944,135.036Z"/>
        <path id="Trazado_1061" data-name="Trazado 1061" d="M-69.1,134.776v4.937a.963.963,0,0,1,.674.2.682.682,0,0,1,.218.52.664.664,0,0,1-.221.516,1.1,1.1,0,0,1-.741.2h-1.369v-.33a6.919,6.919,0,0,1-1.18.422,4.435,4.435,0,0,1-1.067.14,2.424,2.424,0,0,1-1.229-.3,2.181,2.181,0,0,1-.822-.826,1.877,1.877,0,0,1-.217-.947v-3.1H-75.3a1.1,1.1,0,0,1-.741-.2.675.675,0,0,1-.221-.523.664.664,0,0,1,.221-.516,1.093,1.093,0,0,1,.741-.2h1.685v4.284a.9.9,0,0,0,.221.67.941.941,0,0,0,.678.215,2.892,2.892,0,0,0,.937-.173,6.6,6.6,0,0,0,1.24-.621v-2.935h-.52a1.1,1.1,0,0,1-.741-.2.675.675,0,0,1-.221-.523.664.664,0,0,1,.221-.516,1.093,1.093,0,0,1,.741-.2Z"/>
        <path id="Trazado_1062" data-name="Trazado 1062" d="M-61.913,141.152v-.337a4.653,4.653,0,0,1-1.193.432,5.568,5.568,0,0,1-1.187.144,2.808,2.808,0,0,1-1.882-.614,1.774,1.774,0,0,1-.723-1.359,2.207,2.207,0,0,1,.923-1.682,3.851,3.851,0,0,1,2.553-.776,9.427,9.427,0,0,1,1.509.141v-.344a.625.625,0,0,0-.277-.527,1.914,1.914,0,0,0-1.057-.2,7.236,7.236,0,0,0-1.657.253,2.7,2.7,0,0,1-.59.091.654.654,0,0,1-.488-.207.732.732,0,0,1-.2-.53.67.67,0,0,1,.07-.316.563.563,0,0,1,.2-.214,2.305,2.305,0,0,1,.526-.193,9.844,9.844,0,0,1,1.089-.235,6.409,6.409,0,0,1,1-.088,3.31,3.31,0,0,1,2.082.579,1.9,1.9,0,0,1,.741,1.584v2.963h.245a1.1,1.1,0,0,1,.741.2.67.67,0,0,1,.221.523.661.661,0,0,1-.221.516,1.092,1.092,0,0,1-.741.2Zm0-2.577a8.392,8.392,0,0,0-1.594-.168,2.628,2.628,0,0,0-1.509.428q-.395.274-.394.555a.383.383,0,0,0,.19.33,1.735,1.735,0,0,0,.962.232,4.017,4.017,0,0,0,1.176-.2,4.325,4.325,0,0,0,1.169-.555Z"/>
        <path id="Trazado_1063" data-name="Trazado 1063" d="M-55.481,134.776v.9a7.908,7.908,0,0,1,1.429-.87,2.562,2.562,0,0,1,.979-.218,2.18,2.18,0,0,1,1.363.52.954.954,0,0,1,.449.716.711.711,0,0,1-.214.523.7.7,0,0,1-.516.214.864.864,0,0,1-.562-.267.841.841,0,0,0-.527-.267,1.985,1.985,0,0,0-.9.38,14.163,14.163,0,0,0-1.5,1.137v2.17h2.05a1.1,1.1,0,0,1,.741.2.67.67,0,0,1,.221.523.661.661,0,0,1-.221.516,1.092,1.092,0,0,1-.741.2h-4.346a1.094,1.094,0,0,1-.741-.2.673.673,0,0,1-.221-.523.664.664,0,0,1,.221-.516,1.1,1.1,0,0,1,.741-.2h.856v-3.5h-.519a1.1,1.1,0,0,1-.741-.2.675.675,0,0,1-.221-.523.664.664,0,0,1,.221-.516,1.093,1.093,0,0,1,.741-.2Z"/>
        <path id="Trazado_1064" data-name="Trazado 1064" d="M-46.444,134.776v4.937h1.727a1.1,1.1,0,0,1,.741.2.67.67,0,0,1,.221.523.661.661,0,0,1-.221.516,1.092,1.092,0,0,1-.741.2h-4.894a1.1,1.1,0,0,1-.741-.2.673.673,0,0,1-.221-.523.664.664,0,0,1,.221-.516,1.1,1.1,0,0,1,.741-.2h1.727v-3.5h-1.158a1.1,1.1,0,0,1-.737-.2.668.668,0,0,1-.225-.523.664.664,0,0,1,.221-.516,1.091,1.091,0,0,1,.741-.2Zm-.2-2.731v1.524h-1.713v-1.524Z"/>
        <path id="Trazado_1065" data-name="Trazado 1065" d="M-37.836,141.152v-.337a4.653,4.653,0,0,1-1.193.432,5.561,5.561,0,0,1-1.187.144,2.81,2.81,0,0,1-1.882-.614,1.774,1.774,0,0,1-.723-1.359,2.207,2.207,0,0,1,.923-1.682,3.853,3.853,0,0,1,2.553-.776,9.427,9.427,0,0,1,1.509.141v-.344a.625.625,0,0,0-.277-.527,1.914,1.914,0,0,0-1.057-.2,7.236,7.236,0,0,0-1.657.253,2.7,2.7,0,0,1-.59.091.654.654,0,0,1-.488-.207.732.732,0,0,1-.2-.53.67.67,0,0,1,.07-.316.563.563,0,0,1,.2-.214,2.3,2.3,0,0,1,.527-.193,9.777,9.777,0,0,1,1.088-.235,6.419,6.419,0,0,1,1-.088,3.31,3.31,0,0,1,2.082.579,1.9,1.9,0,0,1,.741,1.584v2.963h.246a1.1,1.1,0,0,1,.741.2.673.673,0,0,1,.221.523.664.664,0,0,1-.221.516,1.1,1.1,0,0,1-.741.2Zm0-2.577a8.384,8.384,0,0,0-1.594-.168,2.628,2.628,0,0,0-1.509.428c-.263.183-.393.368-.393.555a.382.382,0,0,0,.189.33,1.735,1.735,0,0,0,.962.232,4.011,4.011,0,0,0,1.176-.2,4.311,4.311,0,0,0,1.169-.555Z"/>
      </g>
      <g id="Grupo_280" data-name="Grupo 280">
        <g id="Grupo_279" data-name="Grupo 279">
          <text id="INTA-2" data-name="INTA" transform="translate(-235.285 39.389)" fill="#129c4e" font-size="86.283" font-family="CourierNewPS-BoldMT, Courier New" font-weight="700"><tspan x="0" y="72">INTA</tspan></text>
          <g id="Grupo_278" data-name="Grupo 278">
            <path id="Trazado_1066" data-name="Trazado 1066" d="M-224.72,117.753v5.631h1.454a1.1,1.1,0,0,1,.741.2.675.675,0,0,1,.221.523.664.664,0,0,1-.221.516,1.1,1.1,0,0,1-.741.2h-4.347a1.1,1.1,0,0,1-.741-.2.672.672,0,0,1-.221-.523.667.667,0,0,1,.221-.516,1.1,1.1,0,0,1,.741-.2h1.454v-5.631h-1.454a1.1,1.1,0,0,1-.741-.2.675.675,0,0,1-.221-.524.675.675,0,0,1,.221-.523,1.1,1.1,0,0,1,.741-.2l4.347.007a1.113,1.113,0,0,1,.741.2.662.662,0,0,1,.221.519.675.675,0,0,1-.221.524,1.1,1.1,0,0,1-.741.2Z" fill="#129c4e"/>
            <path id="Trazado_1067" data-name="Trazado 1067" d="M-218.612,118.448v.484a2.73,2.73,0,0,1,.867-.5,3.035,3.035,0,0,1,1.029-.169,2.638,2.638,0,0,1,2.022.794,2.326,2.326,0,0,1,.59,1.657v2.675a.971.971,0,0,1,.674.2.679.679,0,0,1,.218.523.664.664,0,0,1-.221.516,1.1,1.1,0,0,1-.741.2h-1.3a1.1,1.1,0,0,1-.741-.2.672.672,0,0,1-.221-.523.668.668,0,0,1,.218-.516.971.971,0,0,1,.674-.2v-2.717a.862.862,0,0,0-.253-.689,1.5,1.5,0,0,0-.99-.28,1.883,1.883,0,0,0-.874.193,3.871,3.871,0,0,0-.952.818v2.675a1.539,1.539,0,0,1,.716.1.682.682,0,0,1,.345.618.662.662,0,0,1-.222.516,1.092,1.092,0,0,1-.741.2h-1.635a1.092,1.092,0,0,1-.741-.2.669.669,0,0,1-.222-.523.691.691,0,0,1,.337-.611,1.6,1.6,0,0,1,.724-.1v-3.5a.961.961,0,0,1-.674-.2.678.678,0,0,1-.218-.52.664.664,0,0,1,.221-.516,1.1,1.1,0,0,1,.741-.2Z" fill="#129c4e"/>
            <path id="Trazado_1068" data-name="Trazado 1068" d="M-207.315,120.133a2.9,2.9,0,0,0-.737-.327,2.99,2.99,0,0,0-.808-.108,2.74,2.74,0,0,0-1.327.273c-.145.08-.218.167-.218.26s.1.213.295.316a3.956,3.956,0,0,0,1.005.218,11.759,11.759,0,0,1,1.994.393,2.411,2.411,0,0,1,1.137.773,1.727,1.727,0,0,1,.4,1.081,1.57,1.57,0,0,1-.68,1.292,4.041,4.041,0,0,1-2.536.751,5.723,5.723,0,0,1-1.155-.109,4.232,4.232,0,0,1-.972-.319.788.788,0,0,1-.225.14.632.632,0,0,1-.246.049.688.688,0,0,1-.537-.221,1.1,1.1,0,0,1-.2-.741v-.484a1.1,1.1,0,0,1,.2-.741.675.675,0,0,1,.523-.221.664.664,0,0,1,.436.144.963.963,0,0,1,.274.495,2.228,2.228,0,0,0,.793.425,3.6,3.6,0,0,0,1.067.144,3.16,3.16,0,0,0,1.538-.309c.173-.1.26-.211.26-.323q0-.281-.372-.464a5.559,5.559,0,0,0-1.538-.309,4.349,4.349,0,0,1-2.317-.7,1.616,1.616,0,0,1-.583-1.264,1.572,1.572,0,0,1,.653-1.285,3.618,3.618,0,0,1,2.317-.7,4.755,4.755,0,0,1,.959.095,3.977,3.977,0,0,1,.881.291,1.3,1.3,0,0,1,.249-.147.552.552,0,0,1,.214-.049.632.632,0,0,1,.492.221,1.11,1.11,0,0,1,.2.741v.351a1.255,1.255,0,0,1-.112.639.707.707,0,0,1-.611.323.7.7,0,0,1-.456-.162A.731.731,0,0,1-207.315,120.133Z" fill="#129c4e"/>
            <path id="Trazado_1069" data-name="Trazado 1069" d="M-200.94,119.887v2.886a.755.755,0,0,0,.189.611,1.764,1.764,0,0,0,1.054.232,4.457,4.457,0,0,0,2.036-.471,1.371,1.371,0,0,1,.562-.182.663.663,0,0,1,.488.21.706.706,0,0,1,.207.513.631.631,0,0,1-.225.484,3.333,3.333,0,0,1-1.358.608,6.7,6.7,0,0,1-1.71.277,3.01,3.01,0,0,1-2.012-.579,1.809,1.809,0,0,1-.671-1.422v-3.167h-.519a1.1,1.1,0,0,1-.741-.2.673.673,0,0,1-.221-.523.664.664,0,0,1,.221-.516,1.093,1.093,0,0,1,.741-.2h.519v-1.3a1.1,1.1,0,0,1,.2-.741.675.675,0,0,1,.524-.221.667.667,0,0,1,.516.221,1.1,1.1,0,0,1,.2.741v1.3h2.661a1.1,1.1,0,0,1,.741.2.673.673,0,0,1,.221.523.664.664,0,0,1-.221.516,1.1,1.1,0,0,1-.741.2Z" fill="#129c4e"/>
            <path id="Trazado_1070" data-name="Trazado 1070" d="M-191.588,118.448v4.936h1.727a1.1,1.1,0,0,1,.741.2.675.675,0,0,1,.221.523.664.664,0,0,1-.221.516,1.1,1.1,0,0,1-.741.2h-4.894a1.092,1.092,0,0,1-.741-.2.672.672,0,0,1-.221-.523.667.667,0,0,1,.221-.516,1.1,1.1,0,0,1,.741-.2h1.727v-3.5h-1.158a1.1,1.1,0,0,1-.738-.2.666.666,0,0,1-.224-.523.664.664,0,0,1,.221-.516,1.092,1.092,0,0,1,.741-.2Zm-.2-2.732v1.524H-193.5v-1.524Z" fill="#129c4e"/>
            <path id="Trazado_1071" data-name="Trazado 1071" d="M-184.371,119.887v2.886a.752.752,0,0,0,.19.611,1.759,1.759,0,0,0,1.053.232,4.457,4.457,0,0,0,2.036-.471,1.371,1.371,0,0,1,.562-.182.663.663,0,0,1,.488.21.706.706,0,0,1,.207.513.631.631,0,0,1-.225.484,3.333,3.333,0,0,1-1.358.608,6.7,6.7,0,0,1-1.71.277,3.01,3.01,0,0,1-2.012-.579,1.808,1.808,0,0,1-.67-1.422v-3.167h-.52a1.1,1.1,0,0,1-.741-.2.673.673,0,0,1-.221-.523.664.664,0,0,1,.221-.516,1.1,1.1,0,0,1,.741-.2h.52v-1.3a1.092,1.092,0,0,1,.2-.741.673.673,0,0,1,.523-.221.666.666,0,0,1,.516.221,1.1,1.1,0,0,1,.2.741v1.3h2.661a1.092,1.092,0,0,1,.741.2.67.67,0,0,1,.221.523.661.661,0,0,1-.221.516,1.1,1.1,0,0,1-.741.2Z" fill="#129c4e"/>
            <path id="Trazado_1072" data-name="Trazado 1072" d="M-172.674,118.448v4.936a.958.958,0,0,1,.674.2.681.681,0,0,1,.218.519.664.664,0,0,1-.221.516,1.1,1.1,0,0,1-.741.2h-1.369v-.33a6.886,6.886,0,0,1-1.18.422,4.428,4.428,0,0,1-1.067.14,2.424,2.424,0,0,1-1.229-.3,2.2,2.2,0,0,1-.822-.825,1.883,1.883,0,0,1-.217-.948v-3.1h-.246a1.1,1.1,0,0,1-.741-.2.673.673,0,0,1-.221-.523.664.664,0,0,1,.221-.516,1.1,1.1,0,0,1,.741-.2h1.685v4.283a.9.9,0,0,0,.221.67.943.943,0,0,0,.678.215,2.916,2.916,0,0,0,.937-.172,6.674,6.674,0,0,0,1.24-.622v-2.935h-.52a1.1,1.1,0,0,1-.741-.2.673.673,0,0,1-.221-.523.664.664,0,0,1,.221-.516,1.1,1.1,0,0,1,.741-.2Z" fill="#129c4e"/>
            <path id="Trazado_1073" data-name="Trazado 1073" d="M-167.8,119.887v2.886a.752.752,0,0,0,.19.611,1.761,1.761,0,0,0,1.053.232,4.454,4.454,0,0,0,2.036-.471,1.371,1.371,0,0,1,.562-.182.663.663,0,0,1,.488.21.706.706,0,0,1,.207.513.633.633,0,0,1-.224.484,3.346,3.346,0,0,1-1.359.608,6.689,6.689,0,0,1-1.71.277,3.01,3.01,0,0,1-2.012-.579,1.808,1.808,0,0,1-.67-1.422v-3.167h-.52a1.1,1.1,0,0,1-.74-.2.671.671,0,0,1-.222-.523.662.662,0,0,1,.222-.516,1.091,1.091,0,0,1,.74-.2h.52v-1.3a1.092,1.092,0,0,1,.2-.741.673.673,0,0,1,.523-.221.664.664,0,0,1,.516.221,1.1,1.1,0,0,1,.2.741v1.3h2.662a1.091,1.091,0,0,1,.74.2.67.67,0,0,1,.221.523.661.661,0,0,1-.221.516,1.1,1.1,0,0,1-.74.2Z" fill="#129c4e"/>
            <path id="Trazado_1074" data-name="Trazado 1074" d="M-155.423,121.755a3.111,3.111,0,0,1-.46,1.6,3.231,3.231,0,0,1-1.37,1.236,4.149,4.149,0,0,1-1.9.46,4.13,4.13,0,0,1-1.882-.453,3.27,3.27,0,0,1-1.369-1.232,3.106,3.106,0,0,1-.471-1.629,3.375,3.375,0,0,1,.478-1.7,3.369,3.369,0,0,1,1.373-1.309,3.915,3.915,0,0,1,1.871-.478,3.953,3.953,0,0,1,1.892.488,3.338,3.338,0,0,1,1.373,1.313A3.424,3.424,0,0,1-155.423,121.755Zm-1.44.007a1.927,1.927,0,0,0-.5-1.278,2.256,2.256,0,0,0-1.791-.786,2.261,2.261,0,0,0-1.629.625,1.945,1.945,0,0,0-.653,1.446,1.689,1.689,0,0,0,.66,1.261,2.359,2.359,0,0,0,1.622.586,2.368,2.368,0,0,0,1.629-.586A1.694,1.694,0,0,0-156.863,121.762Z" fill="#129c4e"/>
          </g>
          <path id="Trazado_1075" data-name="Trazado 1075" d="M-147.523,119.031v4.353h.52a1.1,1.1,0,0,1,.741.2.675.675,0,0,1,.221.523.664.664,0,0,1-.221.516,1.1,1.1,0,0,1-.741.2h-1.889a1.092,1.092,0,0,1-.741-.2.668.668,0,0,1-.221-.523.668.668,0,0,1,.218-.512.957.957,0,0,1,.674-.2v-5.631h-.225a1.1,1.1,0,0,1-.741-.2.675.675,0,0,1-.221-.524.675.675,0,0,1,.221-.523,1.1,1.1,0,0,1,.741-.2l1.664.007,3.679,5.772v-4.332h-.519a1.1,1.1,0,0,1-.741-.2.675.675,0,0,1-.221-.524.675.675,0,0,1,.221-.523,1.1,1.1,0,0,1,.741-.2l1.889.007a1.108,1.108,0,0,1,.74.2.659.659,0,0,1,.222.519.682.682,0,0,1-.218.52.946.946,0,0,1-.667.2v7.07h-1.425Z" fill="#129c4e"/>
          <path id="Trazado_1076" data-name="Trazado 1076" d="M-136.142,118.448v4.936h1.728a1.1,1.1,0,0,1,.74.2.672.672,0,0,1,.222.523.662.662,0,0,1-.222.516,1.091,1.091,0,0,1-.74.2h-4.9a1.09,1.09,0,0,1-.74-.2.669.669,0,0,1-.222-.523.665.665,0,0,1,.222-.516,1.1,1.1,0,0,1,.74-.2h1.728v-3.5h-1.159a1.1,1.1,0,0,1-.737-.2.667.667,0,0,1-.225-.523.664.664,0,0,1,.221-.516,1.1,1.1,0,0,1,.741-.2Zm-.2-2.732v1.524h-1.714v-1.524Z" fill="#129c4e"/>
          <path id="Trazado_1077" data-name="Trazado 1077" d="M-126.672,118.708a.779.779,0,0,1,.534-.246.657.657,0,0,1,.509.221,1.081,1.081,0,0,1,.2.734v.927a1.078,1.078,0,0,1-.2.737.678.678,0,0,1-.523.218.755.755,0,0,1-.5-.169.946.946,0,0,1-.232-.516.846.846,0,0,0-.408-.579,2.813,2.813,0,0,0-1.453-.337,2.248,2.248,0,0,0-1.633.6,2.019,2.019,0,0,0-.614,1.51,1.637,1.637,0,0,0,.59,1.331,3.09,3.09,0,0,0,1.959.488,4.9,4.9,0,0,0,1.468-.183,1.826,1.826,0,0,0,.638-.382.868.868,0,0,1,.548-.271.689.689,0,0,1,.509.218.706.706,0,0,1,.215.512q0,.479-.654.906a5.173,5.173,0,0,1-2.837.639,4.3,4.3,0,0,1-2.612-.695,3.007,3.007,0,0,1-1.264-2.556,3.416,3.416,0,0,1,1.026-2.545,3.651,3.651,0,0,1,2.675-1.008,5.244,5.244,0,0,1,1.11.112A3.855,3.855,0,0,1-126.672,118.708Z" fill="#129c4e"/>
          <path id="Trazado_1078" data-name="Trazado 1078" d="M-118.752,124.823v-.337a4.637,4.637,0,0,1-1.194.432,5.554,5.554,0,0,1-1.187.144,2.807,2.807,0,0,1-1.881-.614,1.773,1.773,0,0,1-.724-1.359,2.207,2.207,0,0,1,.924-1.682,3.848,3.848,0,0,1,2.552-.775,9.426,9.426,0,0,1,1.51.14v-.344a.628.628,0,0,0-.278-.527,1.923,1.923,0,0,0-1.056-.2,7.234,7.234,0,0,0-1.658.252,2.7,2.7,0,0,1-.589.092.653.653,0,0,1-.489-.208.732.732,0,0,1-.2-.53.67.67,0,0,1,.071-.316.568.568,0,0,1,.2-.214,2.319,2.319,0,0,1,.527-.193,9.828,9.828,0,0,1,1.088-.235,6.43,6.43,0,0,1,1-.088,3.31,3.31,0,0,1,2.082.579,1.9,1.9,0,0,1,.741,1.584v2.963h.246a1.1,1.1,0,0,1,.741.2.675.675,0,0,1,.221.523.664.664,0,0,1-.221.516,1.1,1.1,0,0,1-.741.2Zm0-2.576a8.317,8.317,0,0,0-1.594-.169,2.629,2.629,0,0,0-1.51.428q-.393.275-.393.555a.382.382,0,0,0,.189.33,1.726,1.726,0,0,0,.962.232,4.017,4.017,0,0,0,1.177-.2,4.31,4.31,0,0,0,1.169-.555Z" fill="#129c4e"/>
          <path id="Trazado_1079" data-name="Trazado 1079" d="M-112.407,118.448v.9a7.867,7.867,0,0,1,1.429-.871,2.563,2.563,0,0,1,.98-.218,2.178,2.178,0,0,1,1.362.52.956.956,0,0,1,.449.716.711.711,0,0,1-.214.523.7.7,0,0,1-.516.214.864.864,0,0,1-.562-.267A.842.842,0,0,0-110,119.7a1.983,1.983,0,0,0-.9.379,14.445,14.445,0,0,0-1.5,1.137v2.17h2.051a1.1,1.1,0,0,1,.74.2.671.671,0,0,1,.221.523.661.661,0,0,1-.221.516,1.091,1.091,0,0,1-.74.2H-114.7a1.1,1.1,0,0,1-.741-.2.672.672,0,0,1-.221-.523.667.667,0,0,1,.221-.516,1.1,1.1,0,0,1,.741-.2h.857v-3.5h-.52a1.1,1.1,0,0,1-.741-.2.673.673,0,0,1-.221-.523.664.664,0,0,1,.221-.516,1.1,1.1,0,0,1,.741-.2Z" fill="#129c4e"/>
          <path id="Trazado_1080" data-name="Trazado 1080" d="M-102.873,124.823v-.337a4.637,4.637,0,0,1-1.194.432,5.554,5.554,0,0,1-1.187.144,2.81,2.81,0,0,1-1.882-.614,1.774,1.774,0,0,1-.723-1.359,2.207,2.207,0,0,1,.924-1.682,3.848,3.848,0,0,1,2.552-.775,9.436,9.436,0,0,1,1.51.14v-.344a.628.628,0,0,0-.278-.527,1.924,1.924,0,0,0-1.057-.2,7.226,7.226,0,0,0-1.657.252,2.7,2.7,0,0,1-.589.092.652.652,0,0,1-.489-.208.732.732,0,0,1-.2-.53.67.67,0,0,1,.071-.316.56.56,0,0,1,.2-.214,2.3,2.3,0,0,1,.527-.193,9.779,9.779,0,0,1,1.088-.235,6.43,6.43,0,0,1,1-.088,3.31,3.31,0,0,1,2.082.579,1.9,1.9,0,0,1,.741,1.584v2.963h.246a1.1,1.1,0,0,1,.741.2.675.675,0,0,1,.221.523.664.664,0,0,1-.221.516,1.1,1.1,0,0,1-.741.2Zm0-2.576a8.325,8.325,0,0,0-1.594-.169,2.629,2.629,0,0,0-1.51.428q-.393.275-.393.555a.382.382,0,0,0,.189.33,1.726,1.726,0,0,0,.962.232,4.017,4.017,0,0,0,1.177-.2,4.31,4.31,0,0,0,1.169-.555Z" fill="#129c4e"/>
          <path id="Trazado_1081" data-name="Trazado 1081" d="M-93.718,118.876v-.428h1.685a1.093,1.093,0,0,1,.741.2.673.673,0,0,1,.221.523.664.664,0,0,1-.221.516,1.1,1.1,0,0,1-.741.2h-.246v5.238a2.646,2.646,0,0,1-.319,1.324,2.75,2.75,0,0,1-.98.973,2.78,2.78,0,0,1-1.488.407h-1.629a1.1,1.1,0,0,1-.741-.2.664.664,0,0,1-.221-.516.672.672,0,0,1,.221-.524,1.1,1.1,0,0,1,.741-.2h1.587a1.4,1.4,0,0,0,1.025-.358,1.216,1.216,0,0,0,.365-.906v-.7a3.981,3.981,0,0,1-.973.464,3.384,3.384,0,0,1-1.014.154,3.355,3.355,0,0,1-2.458-.979,3.27,3.27,0,0,1-.99-2.419,3.276,3.276,0,0,1,.99-2.426,3.356,3.356,0,0,1,2.458-.98,3.41,3.41,0,0,1,1.042.158A3.364,3.364,0,0,1-93.718,118.876Zm-.007,2.76a1.879,1.879,0,0,0-.587-1.377,1.925,1.925,0,0,0-1.407-.582,1.927,1.927,0,0,0-1.408.582,1.879,1.879,0,0,0-.587,1.377,1.876,1.876,0,0,0,.587,1.38,1.936,1.936,0,0,0,1.408.579,1.934,1.934,0,0,0,1.407-.579A1.876,1.876,0,0,0-93.725,121.636Z" fill="#129c4e"/>
          <path id="Trazado_1082" data-name="Trazado 1082" d="M-84.3,118.448v4.936a.958.958,0,0,1,.674.2.681.681,0,0,1,.218.519.662.662,0,0,1-.222.516,1.09,1.09,0,0,1-.74.2h-1.37v-.33a6.908,6.908,0,0,1-1.179.422,4.442,4.442,0,0,1-1.068.14,2.42,2.42,0,0,1-1.228-.3,2.185,2.185,0,0,1-.822-.825,1.883,1.883,0,0,1-.218-.948v-3.1H-90.5a1.1,1.1,0,0,1-.741-.2.67.67,0,0,1-.221-.523.661.661,0,0,1,.221-.516,1.092,1.092,0,0,1,.741-.2h1.685v4.283a.893.893,0,0,0,.221.67.94.94,0,0,0,.678.215,2.921,2.921,0,0,0,.937-.172,6.64,6.64,0,0,0,1.239-.622v-2.935h-.519a1.1,1.1,0,0,1-.741-.2.673.673,0,0,1-.221-.523.664.664,0,0,1,.221-.516,1.092,1.092,0,0,1,.741-.2Zm-4.052-1.889a.738.738,0,0,1-.221.544.731.731,0,0,1-.537.221.736.736,0,0,1-.541-.224.737.737,0,0,1-.225-.541.723.723,0,0,1,.225-.537.741.741,0,0,1,.541-.221.727.727,0,0,1,.537.221A.727.727,0,0,1-88.356,116.559Zm3.006,0a.734.734,0,0,1-.225.544.745.745,0,0,1-.541.221.724.724,0,0,1-.537-.224.745.745,0,0,1-.221-.541.731.731,0,0,1,.221-.537.729.729,0,0,1,.537-.221.741.741,0,0,1,.541.221A.723.723,0,0,1-85.35,116.559Z" fill="#129c4e"/>
          <path id="Trazado_1083" data-name="Trazado 1083" d="M-75.81,122.366h-5.9a1.842,1.842,0,0,0,.8.906,3,3,0,0,0,1.548.344,8.98,8.98,0,0,0,2.128-.344,3.668,3.668,0,0,1,.758-.141.645.645,0,0,1,.484.2.709.709,0,0,1,.2.512.627.627,0,0,1-.211.478,3.366,3.366,0,0,1-1.369.5,9.892,9.892,0,0,1-2.092.235,3.861,3.861,0,0,1-2.763-.976,3.167,3.167,0,0,1-1.036-2.4,3.085,3.085,0,0,1,1.12-2.468,3.867,3.867,0,0,1,2.58-.952,4.113,4.113,0,0,1,1.612.309,3.429,3.429,0,0,1,1.092.667,4.218,4.218,0,0,1,.835,1.285,3.162,3.162,0,0,1,.225,1.236Zm-1.594-1.44a2.256,2.256,0,0,0-.864-.923,2.52,2.52,0,0,0-1.271-.305A2.505,2.505,0,0,0-80.8,120a2.3,2.3,0,0,0-.871.923Z" fill="#129c4e"/>
          <path id="Trazado_1084" data-name="Trazado 1084" d="M-72.013,118.448v.484a2.746,2.746,0,0,1,.868-.5,3.029,3.029,0,0,1,1.028-.169,2.642,2.642,0,0,1,2.023.794,2.33,2.33,0,0,1,.589,1.657v2.675a.976.976,0,0,1,.675.2.682.682,0,0,1,.217.523.664.664,0,0,1-.221.516,1.093,1.093,0,0,1-.741.2h-1.3a1.09,1.09,0,0,1-.74-.2.669.669,0,0,1-.222-.523.671.671,0,0,1,.218-.516.973.973,0,0,1,.674-.2v-2.717a.862.862,0,0,0-.253-.689,1.5,1.5,0,0,0-.99-.28,1.883,1.883,0,0,0-.874.193,3.889,3.889,0,0,0-.952.818v2.675a1.547,1.547,0,0,1,.717.1.683.683,0,0,1,.344.618.664.664,0,0,1-.221.516,1.1,1.1,0,0,1-.741.2H-73.55a1.092,1.092,0,0,1-.741-.2.668.668,0,0,1-.221-.523.689.689,0,0,1,.337-.611,1.589,1.589,0,0,1,.723-.1v-3.5a.963.963,0,0,1-.674-.2.682.682,0,0,1-.218-.52.662.662,0,0,1,.222-.516,1.091,1.091,0,0,1,.74-.2Z" fill="#129c4e"/>
          <path id="Trazado_1085" data-name="Trazado 1085" d="M-61.061,120.133a2.9,2.9,0,0,0-.737-.327,2.983,2.983,0,0,0-.807-.108,2.741,2.741,0,0,0-1.328.273c-.145.08-.217.167-.217.26s.1.213.3.316a3.933,3.933,0,0,0,1,.218,11.759,11.759,0,0,1,1.994.393,2.414,2.414,0,0,1,1.138.773,1.733,1.733,0,0,1,.4,1.081A1.569,1.569,0,0,1-60,124.3a4.04,4.04,0,0,1-2.535.751,5.708,5.708,0,0,1-1.155-.109,4.224,4.224,0,0,1-.973-.319.8.8,0,0,1-.224.14.639.639,0,0,1-.246.049.689.689,0,0,1-.538-.221,1.1,1.1,0,0,1-.2-.741v-.484a1.1,1.1,0,0,1,.2-.741.675.675,0,0,1,.524-.221.663.663,0,0,1,.435.144.963.963,0,0,1,.274.495,2.228,2.228,0,0,0,.793.425,3.6,3.6,0,0,0,1.068.144,3.155,3.155,0,0,0,1.537-.309c.173-.1.26-.211.26-.323q0-.281-.372-.464a5.559,5.559,0,0,0-1.538-.309,4.352,4.352,0,0,1-2.317-.7,1.616,1.616,0,0,1-.583-1.264,1.572,1.572,0,0,1,.653-1.285,3.621,3.621,0,0,1,2.318-.7,4.753,4.753,0,0,1,.958.095,3.96,3.96,0,0,1,.881.291,1.3,1.3,0,0,1,.249-.147.552.552,0,0,1,.215-.049.631.631,0,0,1,.491.221,1.109,1.109,0,0,1,.2.741v.351a1.253,1.253,0,0,1-.113.639.706.706,0,0,1-.61.323.7.7,0,0,1-.457-.162A.731.731,0,0,1-61.061,120.133Z" fill="#129c4e"/>
          <path id="Trazado_1086" data-name="Trazado 1086" d="M-51.064,122.366h-5.905a1.842,1.842,0,0,0,.8.906,3,3,0,0,0,1.548.344,8.98,8.98,0,0,0,2.128-.344,3.668,3.668,0,0,1,.758-.141.645.645,0,0,1,.484.2.709.709,0,0,1,.2.512.627.627,0,0,1-.211.478,3.366,3.366,0,0,1-1.369.5,9.892,9.892,0,0,1-2.092.235,3.861,3.861,0,0,1-2.763-.976,3.167,3.167,0,0,1-1.036-2.4,3.085,3.085,0,0,1,1.12-2.468,3.867,3.867,0,0,1,2.58-.952,4.113,4.113,0,0,1,1.612.309,3.429,3.429,0,0,1,1.092.667,4.218,4.218,0,0,1,.835,1.285,3.162,3.162,0,0,1,.225,1.236Zm-1.594-1.44a2.256,2.256,0,0,0-.864-.923,2.519,2.519,0,0,0-1.27-.305,2.506,2.506,0,0,0-1.264.305,2.3,2.3,0,0,0-.871.923Z" fill="#129c4e"/>
          <path id="Trazado_1087" data-name="Trazado 1087" d="M-37.263,115.716v7.668h.246a1.1,1.1,0,0,1,.737.2.668.668,0,0,1,.225.523.662.662,0,0,1-.222.516,1.09,1.09,0,0,1-.74.2H-38.7v-.351a4.3,4.3,0,0,1-1.029.436,4.2,4.2,0,0,1-1.113.147,3.643,3.643,0,0,1-2.612-.937,3.084,3.084,0,0,1-.99-2.335,3.386,3.386,0,0,1,1.039-2.493,3.462,3.462,0,0,1,2.535-1.032,3.6,3.6,0,0,1,1.1.172,4.418,4.418,0,0,1,1.068.516v-1.79h-.246a1.093,1.093,0,0,1-.741-.2.664.664,0,0,1-.221-.515.675.675,0,0,1,.221-.524,1.1,1.1,0,0,1,.741-.2Zm-1.439,6.109a2.044,2.044,0,0,0-.625-1.509,2.1,2.1,0,0,0-1.531-.618,2.087,2.087,0,0,0-1.524.618,2.016,2.016,0,0,0-.625,1.488,1.68,1.68,0,0,0,.562,1.3,2.281,2.281,0,0,0,1.587.509,2.3,2.3,0,0,0,1.587-.509A1.649,1.649,0,0,0-38.7,121.825Z" fill="#129c4e"/>
          <path id="Trazado_1088" data-name="Trazado 1088" d="M-28.928,122.366h-5.906a1.852,1.852,0,0,0,.8.906,3,3,0,0,0,1.549.344,8.981,8.981,0,0,0,2.127-.344,3.662,3.662,0,0,1,.759-.141.647.647,0,0,1,.484.2.709.709,0,0,1,.2.512.631.631,0,0,1-.211.478,3.373,3.373,0,0,1-1.369.5,9.894,9.894,0,0,1-2.093.235,3.865,3.865,0,0,1-2.763-.976,3.171,3.171,0,0,1-1.036-2.4,3.088,3.088,0,0,1,1.12-2.468,3.867,3.867,0,0,1,2.581-.952,4.117,4.117,0,0,1,1.612.309,3.411,3.411,0,0,1,1.091.667,4.22,4.22,0,0,1,.836,1.285,3.162,3.162,0,0,1,.225,1.236Zm-1.594-1.44a2.262,2.262,0,0,0-.864-.923,2.523,2.523,0,0,0-1.271-.305,2.509,2.509,0,0,0-1.264.305,2.3,2.3,0,0,0-.871.923Z" fill="#129c4e"/>
          <path id="Trazado_1089" data-name="Trazado 1089" d="M-218.246,133.154v5.631h.969a1.1,1.1,0,0,1,.74.2.672.672,0,0,1,.222.523.662.662,0,0,1-.222.516,1.09,1.09,0,0,1-.74.2h-3.371a1.091,1.091,0,0,1-.74-.2.669.669,0,0,1-.222-.523.665.665,0,0,1,.222-.516,1.1,1.1,0,0,1,.74-.2h.962v-5.631h-1.559v1.362a1.1,1.1,0,0,1-.2.741.673.673,0,0,1-.523.221.666.666,0,0,1-.516-.221,1.1,1.1,0,0,1-.2-.741v-2.809l7.457.007v2.8a1.1,1.1,0,0,1-.2.741.673.673,0,0,1-.523.221.664.664,0,0,1-.516-.221,1.1,1.1,0,0,1-.2-.741v-1.362Z" fill="#129c4e"/>
          <path id="Trazado_1090" data-name="Trazado 1090" d="M-207.306,137.767h-5.906a1.856,1.856,0,0,0,.8.906,3,3,0,0,0,1.548.344,8.98,8.98,0,0,0,2.128-.344,3.662,3.662,0,0,1,.759-.141.647.647,0,0,1,.484.2.709.709,0,0,1,.2.512.63.63,0,0,1-.21.478,3.373,3.373,0,0,1-1.369.495,9.9,9.9,0,0,1-2.093.235,3.865,3.865,0,0,1-2.763-.976,3.167,3.167,0,0,1-1.036-2.4,3.088,3.088,0,0,1,1.12-2.468,3.867,3.867,0,0,1,2.581-.952,4.108,4.108,0,0,1,1.611.309,3.417,3.417,0,0,1,1.092.667,4.22,4.22,0,0,1,.836,1.285,3.181,3.181,0,0,1,.225,1.236Zm-1.6-1.44a2.247,2.247,0,0,0-.863-.923,2.525,2.525,0,0,0-1.271-.305,2.509,2.509,0,0,0-1.264.305,2.3,2.3,0,0,0-.871.923Z" fill="#129c4e"/>
          <path id="Trazado_1091" data-name="Trazado 1091" d="M-199.722,134.109a.777.777,0,0,1,.533-.246.657.657,0,0,1,.509.221,1.081,1.081,0,0,1,.2.734v.927a1.078,1.078,0,0,1-.2.737.676.676,0,0,1-.523.218.758.758,0,0,1-.5-.169.953.953,0,0,1-.232-.516.845.845,0,0,0-.407-.579,2.817,2.817,0,0,0-1.454-.337,2.245,2.245,0,0,0-1.632.6,2.016,2.016,0,0,0-.615,1.51,1.637,1.637,0,0,0,.59,1.331,3.092,3.092,0,0,0,1.959.488,4.9,4.9,0,0,0,1.468-.183,1.83,1.83,0,0,0,.639-.382.866.866,0,0,1,.548-.271.692.692,0,0,1,.509.218.709.709,0,0,1,.214.512q0,.479-.653.906a5.175,5.175,0,0,1-2.837.639,4.3,4.3,0,0,1-2.612-.695,3.005,3.005,0,0,1-1.264-2.556,3.419,3.419,0,0,1,1.025-2.545,3.653,3.653,0,0,1,2.675-1.008,5.245,5.245,0,0,1,1.11.112A3.862,3.862,0,0,1-199.722,134.109Z" fill="#129c4e"/>
          <path id="Trazado_1092" data-name="Trazado 1092" d="M-195.4,133.849v.484a2.73,2.73,0,0,1,.867-.5,3.035,3.035,0,0,1,1.029-.169,2.638,2.638,0,0,1,2.022.794,2.33,2.33,0,0,1,.59,1.657v2.675a.973.973,0,0,1,.674.2.679.679,0,0,1,.218.523.664.664,0,0,1-.221.516,1.1,1.1,0,0,1-.741.2h-1.3a1.092,1.092,0,0,1-.741-.2.672.672,0,0,1-.221-.523.668.668,0,0,1,.218-.516.971.971,0,0,1,.674-.2v-2.717a.865.865,0,0,0-.253-.689,1.5,1.5,0,0,0-.99-.28,1.879,1.879,0,0,0-.874.193,3.871,3.871,0,0,0-.952.818v2.675a1.539,1.539,0,0,1,.716.1.681.681,0,0,1,.344.618.661.661,0,0,1-.221.516,1.092,1.092,0,0,1-.741.2h-1.636a1.091,1.091,0,0,1-.74-.2.669.669,0,0,1-.222-.523.691.691,0,0,1,.337-.611,1.6,1.6,0,0,1,.724-.1v-3.5a.961.961,0,0,1-.674-.2.678.678,0,0,1-.218-.52.664.664,0,0,1,.221-.516,1.094,1.094,0,0,1,.741-.2Z" fill="#129c4e"/>
          <path id="Trazado_1093" data-name="Trazado 1093" d="M-182.175,137.156a3.1,3.1,0,0,1-.46,1.6A3.234,3.234,0,0,1-184,140a4.153,4.153,0,0,1-1.9.46,4.126,4.126,0,0,1-1.881-.453,3.267,3.267,0,0,1-1.37-1.232,3.114,3.114,0,0,1-.47-1.629,3.374,3.374,0,0,1,.477-1.7,3.375,3.375,0,0,1,1.373-1.309,3.918,3.918,0,0,1,1.871-.478,3.954,3.954,0,0,1,1.893.488,3.344,3.344,0,0,1,1.373,1.313A3.433,3.433,0,0,1-182.175,137.156Zm-1.44.007a1.927,1.927,0,0,0-.5-1.278,2.255,2.255,0,0,0-1.791-.786,2.264,2.264,0,0,0-1.629.625,1.945,1.945,0,0,0-.653,1.446,1.689,1.689,0,0,0,.66,1.261,2.359,2.359,0,0,0,1.622.586,2.368,2.368,0,0,0,1.629-.586A1.694,1.694,0,0,0-183.615,137.163Z" fill="#129c4e"/>
          <path id="Trazado_1094" data-name="Trazado 1094" d="M-176.241,131.117v7.668h1.728a1.1,1.1,0,0,1,.74.2.671.671,0,0,1,.221.523.661.661,0,0,1-.221.516,1.091,1.091,0,0,1-.74.2h-4.9a1.09,1.09,0,0,1-.74-.2.669.669,0,0,1-.222-.523.665.665,0,0,1,.222-.516,1.1,1.1,0,0,1,.74-.2h1.728v-6.228h-1.159a1.094,1.094,0,0,1-.737-.2.665.665,0,0,1-.225-.523.667.667,0,0,1,.221-.516,1.1,1.1,0,0,1,.741-.2Z" fill="#129c4e"/>
          <path id="Trazado_1095" data-name="Trazado 1095" d="M-165.2,137.156a3.1,3.1,0,0,1-.46,1.6A3.228,3.228,0,0,1-167.025,140a4.149,4.149,0,0,1-1.9.46,4.127,4.127,0,0,1-1.882-.453,3.264,3.264,0,0,1-1.369-1.232,3.106,3.106,0,0,1-.471-1.629,3.365,3.365,0,0,1,.478-1.7,3.366,3.366,0,0,1,1.372-1.309,3.919,3.919,0,0,1,1.872-.478,3.953,3.953,0,0,1,1.892.488,3.344,3.344,0,0,1,1.373,1.313A3.423,3.423,0,0,1-165.2,137.156Zm-1.439.007a1.923,1.923,0,0,0-.5-1.278,2.254,2.254,0,0,0-1.79-.786,2.261,2.261,0,0,0-1.629.625,1.941,1.941,0,0,0-.653,1.446,1.689,1.689,0,0,0,.66,1.261,2.357,2.357,0,0,0,1.622.586,2.368,2.368,0,0,0,1.629-.586A1.694,1.694,0,0,0-166.635,137.163Z" fill="#129c4e"/>
          <path id="Trazado_1096" data-name="Trazado 1096" d="M-159.326,134.277v-.428h1.686a1.091,1.091,0,0,1,.74.2.67.67,0,0,1,.221.523.661.661,0,0,1-.221.516,1.1,1.1,0,0,1-.74.2h-.246v5.238a2.646,2.646,0,0,1-.32,1.324,2.746,2.746,0,0,1-.979.973,2.784,2.784,0,0,1-1.489.407H-162.3a1.1,1.1,0,0,1-.741-.2.667.667,0,0,1-.221-.516.675.675,0,0,1,.221-.524,1.1,1.1,0,0,1,.741-.2h1.587a1.4,1.4,0,0,0,1.025-.358,1.213,1.213,0,0,0,.365-.906v-.7a3.957,3.957,0,0,1-.972.464,3.417,3.417,0,0,1-1.015.154,3.354,3.354,0,0,1-2.458-.98,3.265,3.265,0,0,1-.989-2.418,3.279,3.279,0,0,1,.989-2.427,3.361,3.361,0,0,1,2.458-.979,3.421,3.421,0,0,1,1.043.158A3.358,3.358,0,0,1-159.326,134.277Zm-.007,2.76a1.878,1.878,0,0,0-.586-1.377,1.927,1.927,0,0,0-1.408-.582,1.927,1.927,0,0,0-1.408.582,1.878,1.878,0,0,0-.586,1.377,1.871,1.871,0,0,0,.586,1.379,1.933,1.933,0,0,0,1.408.58,1.933,1.933,0,0,0,1.408-.58A1.871,1.871,0,0,0-159.333,137.037Z" fill="#129c4e"/>
          <path id="Trazado_1097" data-name="Trazado 1097" d="M-151.243,133.849v4.936h1.727a1.1,1.1,0,0,1,.741.2.671.671,0,0,1,.221.523.661.661,0,0,1-.221.516,1.092,1.092,0,0,1-.741.2h-4.894a1.1,1.1,0,0,1-.741-.2.672.672,0,0,1-.221-.523.667.667,0,0,1,.221-.516,1.1,1.1,0,0,1,.741-.2h1.728v-3.5h-1.159a1.1,1.1,0,0,1-.737-.2.667.667,0,0,1-.225-.523.664.664,0,0,1,.221-.516,1.1,1.1,0,0,1,.741-.2Zm-.281-2.3-1.58,1.285a.706.706,0,0,1-.4.189.458.458,0,0,1-.333-.133.44.44,0,0,1-.137-.33.608.608,0,0,1,.281-.45l1.586-1.285a.711.711,0,0,1,.4-.189.458.458,0,0,1,.333.133.432.432,0,0,1,.137.323A.61.61,0,0,1-151.524,131.553Z" fill="#129c4e"/>
          <path id="Trazado_1098" data-name="Trazado 1098" d="M-142.634,140.224v-.337a4.674,4.674,0,0,1-1.194.432,5.554,5.554,0,0,1-1.187.144,2.812,2.812,0,0,1-1.882-.614,1.774,1.774,0,0,1-.723-1.359,2.207,2.207,0,0,1,.924-1.682,3.848,3.848,0,0,1,2.552-.776,9.437,9.437,0,0,1,1.51.141v-.344a.628.628,0,0,0-.278-.527,1.923,1.923,0,0,0-1.056-.2,7.211,7.211,0,0,0-1.657.252,2.717,2.717,0,0,1-.59.092.65.65,0,0,1-.488-.208.727.727,0,0,1-.2-.53.669.669,0,0,1,.07-.316.56.56,0,0,1,.2-.214,2.32,2.32,0,0,1,.527-.193,9.83,9.83,0,0,1,1.088-.235,6.431,6.431,0,0,1,1-.088,3.306,3.306,0,0,1,2.082.579,1.9,1.9,0,0,1,.741,1.584v2.963h.246a1.1,1.1,0,0,1,.741.2.675.675,0,0,1,.221.523.664.664,0,0,1-.221.516,1.1,1.1,0,0,1-.741.2Zm0-2.577a8.392,8.392,0,0,0-1.594-.168,2.633,2.633,0,0,0-1.51.428q-.393.274-.393.555a.382.382,0,0,0,.189.33,1.73,1.73,0,0,0,.963.232,4.017,4.017,0,0,0,1.176-.2,4.31,4.31,0,0,0,1.169-.555Z" fill="#129c4e"/>
          <path id="Trazado_1099" data-name="Trazado 1099" d="M-128.9,137.907h-3.5l-.351.878h.351a1.1,1.1,0,0,1,.741.2.672.672,0,0,1,.222.523.662.662,0,0,1-.222.516,1.092,1.092,0,0,1-.741.2h-1.938a1.091,1.091,0,0,1-.74-.2.668.668,0,0,1-.221-.523.668.668,0,0,1,.231-.526,1.109,1.109,0,0,1,.766-.19l2.261-5.631h-.941a1.1,1.1,0,0,1-.741-.2.672.672,0,0,1-.221-.524.671.671,0,0,1,.221-.523,1.1,1.1,0,0,1,.741-.2l3.11.007,2.865,7.071a1.318,1.318,0,0,1,.667.112.717.717,0,0,1,.323.611.665.665,0,0,1-.218.516,1.076,1.076,0,0,1-.737.2h-1.938a1.1,1.1,0,0,1-.741-.2.672.672,0,0,1-.221-.523.667.667,0,0,1,.221-.516,1.1,1.1,0,0,1,.741-.2h.351Zm-.6-1.439-1.159-2.851-1.166,2.851Z" fill="#129c4e"/>
          <path id="Trazado_1100" data-name="Trazado 1100" d="M-121.052,134.277v-.428h1.685a1.091,1.091,0,0,1,.74.2.671.671,0,0,1,.222.523.662.662,0,0,1-.222.516,1.1,1.1,0,0,1-.74.2h-.246v5.238a2.646,2.646,0,0,1-.32,1.324,2.746,2.746,0,0,1-.979.973,2.781,2.781,0,0,1-1.489.407h-1.629a1.1,1.1,0,0,1-.74-.2.665.665,0,0,1-.222-.516.673.673,0,0,1,.222-.524,1.1,1.1,0,0,1,.74-.2h1.587a1.4,1.4,0,0,0,1.025-.358,1.213,1.213,0,0,0,.366-.906v-.7a3.981,3.981,0,0,1-.973.464,3.417,3.417,0,0,1-1.015.154,3.351,3.351,0,0,1-2.457-.98,3.266,3.266,0,0,1-.99-2.418,3.28,3.28,0,0,1,.99-2.427,3.358,3.358,0,0,1,2.457-.979A3.421,3.421,0,0,1-122,133.8,3.377,3.377,0,0,1-121.052,134.277Zm-.008,2.76a1.878,1.878,0,0,0-.586-1.377,1.927,1.927,0,0,0-1.408-.582,1.925,1.925,0,0,0-1.407.582,1.879,1.879,0,0,0-.587,1.377,1.872,1.872,0,0,0,.587,1.379,1.931,1.931,0,0,0,1.407.58,1.933,1.933,0,0,0,1.408-.58A1.871,1.871,0,0,0-121.06,137.037Z" fill="#129c4e"/>
          <path id="Trazado_1101" data-name="Trazado 1101" d="M-113.981,133.849v.9a7.908,7.908,0,0,1,1.429-.87,2.562,2.562,0,0,1,.98-.218,2.178,2.178,0,0,1,1.362.52.956.956,0,0,1,.449.716.711.711,0,0,1-.214.523.7.7,0,0,1-.516.214.864.864,0,0,1-.562-.267.842.842,0,0,0-.526-.266,1.983,1.983,0,0,0-.9.379,14.445,14.445,0,0,0-1.5,1.137v2.17h2.05a1.1,1.1,0,0,1,.741.2.672.672,0,0,1,.222.523.662.662,0,0,1-.222.516,1.092,1.092,0,0,1-.741.2h-4.346a1.1,1.1,0,0,1-.741-.2.672.672,0,0,1-.221-.523.667.667,0,0,1,.221-.516,1.1,1.1,0,0,1,.741-.2h.857v-3.5h-.52a1.1,1.1,0,0,1-.741-.2.673.673,0,0,1-.221-.523.664.664,0,0,1,.221-.516,1.1,1.1,0,0,1,.741-.2Z" fill="#129c4e"/>
          <path id="Trazado_1102" data-name="Trazado 1102" d="M-101.918,137.156a3.1,3.1,0,0,1-.46,1.6A3.228,3.228,0,0,1-103.747,140a4.149,4.149,0,0,1-1.9.46,4.13,4.13,0,0,1-1.882-.453,3.264,3.264,0,0,1-1.369-1.232,3.106,3.106,0,0,1-.471-1.629,3.376,3.376,0,0,1,.478-1.7,3.369,3.369,0,0,1,1.373-1.309,3.912,3.912,0,0,1,1.871-.478,3.953,3.953,0,0,1,1.892.488,3.338,3.338,0,0,1,1.373,1.313A3.423,3.423,0,0,1-101.918,137.156Zm-1.439.007a1.923,1.923,0,0,0-.5-1.278,2.254,2.254,0,0,0-1.79-.786,2.261,2.261,0,0,0-1.629.625,1.945,1.945,0,0,0-.653,1.446,1.689,1.689,0,0,0,.66,1.261,2.359,2.359,0,0,0,1.622.586,2.368,2.368,0,0,0,1.629-.586A1.694,1.694,0,0,0-103.357,137.163Z" fill="#129c4e"/>
          <path id="Trazado_1103" data-name="Trazado 1103" d="M-99.418,139.431v2.359h.864a1.1,1.1,0,0,1,.741.2.675.675,0,0,1,.221.524.667.667,0,0,1-.221.516,1.1,1.1,0,0,1-.741.2H-101.1a1.1,1.1,0,0,1-.741-.2.667.667,0,0,1-.221-.516.669.669,0,0,1,.225-.524,1.1,1.1,0,0,1,.737-.2h.246v-6.5h-.246a1.1,1.1,0,0,1-.741-.2.673.673,0,0,1-.221-.523.664.664,0,0,1,.221-.516,1.094,1.094,0,0,1,.741-.2h1.685v.491a3.944,3.944,0,0,1,1.046-.512,3.694,3.694,0,0,1,1.11-.169,3.494,3.494,0,0,1,2.514,1,3.1,3.1,0,0,1,1.039,2.292,2.833,2.833,0,0,1-1.229,2.353,3.739,3.739,0,0,1-2.31.772,3.825,3.825,0,0,1-1.1-.161A4.671,4.671,0,0,1-99.418,139.431Zm4.269-2.472a1.8,1.8,0,0,0-.238-.769,2,2,0,0,0-.734-.779,2.135,2.135,0,0,0-1.162-.312,2.053,2.053,0,0,0-1.706.807,1.767,1.767,0,0,0-.429,1.067,1.526,1.526,0,0,0,.615,1.12,2.208,2.208,0,0,0,1.52.545,2.22,2.22,0,0,0,1.524-.541A1.536,1.536,0,0,0-95.149,136.959Z" fill="#129c4e"/>
          <path id="Trazado_1104" data-name="Trazado 1104" d="M-85.065,137.767h-5.9a1.851,1.851,0,0,0,.8.906,3,3,0,0,0,1.548.344,8.98,8.98,0,0,0,2.128-.344,3.667,3.667,0,0,1,.758-.141.647.647,0,0,1,.485.2.709.709,0,0,1,.2.512.63.63,0,0,1-.21.478,3.38,3.38,0,0,1-1.369.495,9.9,9.9,0,0,1-2.093.235,3.861,3.861,0,0,1-2.763-.976,3.167,3.167,0,0,1-1.036-2.4,3.088,3.088,0,0,1,1.12-2.468,3.867,3.867,0,0,1,2.581-.952,4.108,4.108,0,0,1,1.611.309,3.429,3.429,0,0,1,1.092.667,4.22,4.22,0,0,1,.836,1.285,3.181,3.181,0,0,1,.224,1.236Zm-1.594-1.44a2.26,2.26,0,0,0-.863-.923,2.525,2.525,0,0,0-1.271-.305,2.509,2.509,0,0,0-1.264.305,2.3,2.3,0,0,0-.871.923Z" fill="#129c4e"/>
          <path id="Trazado_1105" data-name="Trazado 1105" d="M-78.408,134.109a.777.777,0,0,1,.534-.246.658.658,0,0,1,.509.221,1.087,1.087,0,0,1,.2.734v.927a1.083,1.083,0,0,1-.2.737.679.679,0,0,1-.523.218.759.759,0,0,1-.5-.169.961.961,0,0,1-.232-.516.845.845,0,0,0-.407-.579,2.815,2.815,0,0,0-1.453-.337,2.248,2.248,0,0,0-1.633.6,2.015,2.015,0,0,0-.614,1.51,1.636,1.636,0,0,0,.589,1.331,3.1,3.1,0,0,0,1.96.488,4.889,4.889,0,0,0,1.467-.183,1.821,1.821,0,0,0,.639-.382.866.866,0,0,1,.548-.271.692.692,0,0,1,.509.218.705.705,0,0,1,.214.512q0,.479-.653.906a5.175,5.175,0,0,1-2.837.639,4.3,4.3,0,0,1-2.612-.695,3.005,3.005,0,0,1-1.264-2.556,3.419,3.419,0,0,1,1.025-2.545,3.653,3.653,0,0,1,2.676-1.008,5.242,5.242,0,0,1,1.109.112A3.848,3.848,0,0,1-78.408,134.109Z" fill="#129c4e"/>
          <path id="Trazado_1106" data-name="Trazado 1106" d="M-69.568,133.849v4.936a.958.958,0,0,1,.674.2.681.681,0,0,1,.218.519.664.664,0,0,1-.221.516,1.1,1.1,0,0,1-.741.2h-1.369v-.33a6.916,6.916,0,0,1-1.18.422,4.435,4.435,0,0,1-1.067.14,2.424,2.424,0,0,1-1.229-.3,2.192,2.192,0,0,1-.822-.825,1.883,1.883,0,0,1-.217-.948v-3.1h-.246a1.1,1.1,0,0,1-.741-.2.673.673,0,0,1-.221-.523.664.664,0,0,1,.221-.516,1.094,1.094,0,0,1,.741-.2h1.685v4.283a.9.9,0,0,0,.221.67.943.943,0,0,0,.678.215,2.916,2.916,0,0,0,.937-.172,6.676,6.676,0,0,0,1.24-.622v-2.935h-.52a1.1,1.1,0,0,1-.741-.2.673.673,0,0,1-.221-.523.664.664,0,0,1,.221-.516,1.1,1.1,0,0,1,.741-.2Z" fill="#129c4e"/>
          <path id="Trazado_1107" data-name="Trazado 1107" d="M-62.377,140.224v-.337a4.653,4.653,0,0,1-1.193.432,5.562,5.562,0,0,1-1.187.144,2.81,2.81,0,0,1-1.882-.614,1.774,1.774,0,0,1-.723-1.359,2.208,2.208,0,0,1,.923-1.682,3.853,3.853,0,0,1,2.553-.776,9.426,9.426,0,0,1,1.509.141v-.344a.627.627,0,0,0-.277-.527,1.924,1.924,0,0,0-1.057-.2,7.226,7.226,0,0,0-1.657.252,2.708,2.708,0,0,1-.59.092.651.651,0,0,1-.488-.208.732.732,0,0,1-.2-.53.669.669,0,0,1,.07-.316.571.571,0,0,1,.2-.214,2.3,2.3,0,0,1,.527-.193,9.78,9.78,0,0,1,1.088-.235,6.421,6.421,0,0,1,1-.088,3.31,3.31,0,0,1,2.082.579,1.9,1.9,0,0,1,.741,1.584v2.963h.246a1.1,1.1,0,0,1,.74.2.672.672,0,0,1,.222.523.662.662,0,0,1-.222.516,1.09,1.09,0,0,1-.74.2Zm0-2.577a8.384,8.384,0,0,0-1.594-.168,2.628,2.628,0,0,0-1.509.428c-.263.183-.393.368-.393.555a.382.382,0,0,0,.189.33,1.726,1.726,0,0,0,.962.232,4.017,4.017,0,0,0,1.176-.2,4.282,4.282,0,0,0,1.169-.555Z" fill="#129c4e"/>
          <path id="Trazado_1108" data-name="Trazado 1108" d="M-55.945,133.849v.9a7.908,7.908,0,0,1,1.429-.87,2.562,2.562,0,0,1,.98-.218,2.18,2.18,0,0,1,1.362.52.956.956,0,0,1,.449.716.711.711,0,0,1-.214.523.7.7,0,0,1-.516.214.864.864,0,0,1-.562-.267.842.842,0,0,0-.527-.266,1.985,1.985,0,0,0-.9.379,14.445,14.445,0,0,0-1.5,1.137v2.17h2.05a1.1,1.1,0,0,1,.741.2.671.671,0,0,1,.221.523.661.661,0,0,1-.221.516,1.092,1.092,0,0,1-.741.2h-4.346a1.093,1.093,0,0,1-.741-.2.672.672,0,0,1-.221-.523.667.667,0,0,1,.221-.516,1.1,1.1,0,0,1,.741-.2h.857v-3.5h-.52a1.1,1.1,0,0,1-.741-.2.673.673,0,0,1-.221-.523.664.664,0,0,1,.221-.516,1.093,1.093,0,0,1,.741-.2Z" fill="#129c4e"/>
          <path id="Trazado_1109" data-name="Trazado 1109" d="M-46.908,133.849v4.936h1.727a1.1,1.1,0,0,1,.741.2.671.671,0,0,1,.221.523.661.661,0,0,1-.221.516,1.092,1.092,0,0,1-.741.2h-4.894a1.1,1.1,0,0,1-.741-.2.672.672,0,0,1-.221-.523.667.667,0,0,1,.221-.516,1.1,1.1,0,0,1,.741-.2h1.728v-3.5h-1.159a1.1,1.1,0,0,1-.737-.2.667.667,0,0,1-.225-.523.664.664,0,0,1,.221-.516,1.094,1.094,0,0,1,.741-.2Zm-.2-2.732v1.524h-1.713v-1.524Z" fill="#129c4e"/>
          <path id="Trazado_1110" data-name="Trazado 1110" d="M-38.3,140.224v-.337a4.653,4.653,0,0,1-1.193.432,5.562,5.562,0,0,1-1.187.144,2.81,2.81,0,0,1-1.882-.614,1.774,1.774,0,0,1-.723-1.359,2.207,2.207,0,0,1,.924-1.682,3.848,3.848,0,0,1,2.552-.776,9.426,9.426,0,0,1,1.509.141v-.344a.627.627,0,0,0-.277-.527,1.924,1.924,0,0,0-1.057-.2,7.226,7.226,0,0,0-1.657.252,2.708,2.708,0,0,1-.59.092.651.651,0,0,1-.488-.208.732.732,0,0,1-.2-.53.682.682,0,0,1,.07-.316.571.571,0,0,1,.2-.214,2.3,2.3,0,0,1,.527-.193,9.781,9.781,0,0,1,1.088-.235,6.431,6.431,0,0,1,1-.088,3.31,3.31,0,0,1,2.082.579,1.9,1.9,0,0,1,.741,1.584v2.963h.246a1.1,1.1,0,0,1,.741.2.675.675,0,0,1,.221.523.664.664,0,0,1-.221.516,1.1,1.1,0,0,1-.741.2Zm0-2.577a8.382,8.382,0,0,0-1.593-.168,2.629,2.629,0,0,0-1.51.428q-.393.274-.393.555a.382.382,0,0,0,.189.33,1.726,1.726,0,0,0,.962.232,4.006,4.006,0,0,0,1.176-.2,4.282,4.282,0,0,0,1.169-.555Z" fill="#129c4e"/>
        </g>
      </g>
    </g>
  </g>
</svg>
