<svg xmlns="http://www.w3.org/2000/svg" width="220" height="190" viewBox="0 0 220 190">
  <g id="Grupo_285" data-name="Grupo 285" transform="translate(-2514 -1537)">
    <rect id="Rectángulo_91" data-name="Rectángulo 91" width="220" height="190" transform="translate(2514 1537)" fill="none"/>
    <g id="Grupo_276" data-name="Grupo 276" transform="translate(2991 1532.401)">
      <g id="Grupo_272" data-name="Grupo 272">
        <g id="Grupo_271" data-name="Grupo 271">
          <path id="Trazado_976" data-name="Trazado 976" d="M-393.156,70.627V84.316h3.534a2.659,2.659,0,0,1,1.8.487,1.631,1.631,0,0,1,.538,1.271,1.612,1.612,0,0,1-.538,1.255,2.665,2.665,0,0,1-1.8.486h-10.566a2.665,2.665,0,0,1-1.8-.486,1.635,1.635,0,0,1-.538-1.272,1.615,1.615,0,0,1,.538-1.254,2.659,2.659,0,0,1,1.8-.487h3.533V70.627h-3.533a2.665,2.665,0,0,1-1.8-.486,1.638,1.638,0,0,1-.538-1.272,1.637,1.637,0,0,1,.538-1.272,2.659,2.659,0,0,1,1.8-.487l10.566.018a2.7,2.7,0,0,1,1.8.477,1.61,1.61,0,0,1,.538,1.264,1.635,1.635,0,0,1-.538,1.272,2.665,2.665,0,0,1-1.8.486Z" fill="#00abdb"/>
          <path id="Trazado_977" data-name="Trazado 977" d="M-376.754,80.715v3.6h3.533a2.662,2.662,0,0,1,1.8.487,1.634,1.634,0,0,1,.537,1.271,1.615,1.615,0,0,1-.537,1.255,2.668,2.668,0,0,1-1.8.486H-380.8a2.663,2.663,0,0,1-1.8-.486,1.632,1.632,0,0,1-.538-1.272,1.6,1.6,0,0,1,.546-1.254,2.666,2.666,0,0,1,1.792-.487h.547V70.627h-.547a2.663,2.663,0,0,1-1.8-.486,1.635,1.635,0,0,1-.538-1.272A1.633,1.633,0,0,1-382.6,67.6a2.658,2.658,0,0,1,1.8-.487l8.057.018a7.911,7.911,0,0,1,5.625,1.937,6.216,6.216,0,0,1,2.073,4.719,6.281,6.281,0,0,1-.7,2.9,6.583,6.583,0,0,1-1.767,2.023,9.6,9.6,0,0,1-2.526,1.5,9.535,9.535,0,0,1-3.406.5Zm0-3.5h3.243a5.792,5.792,0,0,0,3.627-1.034,3.055,3.055,0,0,0,1.34-2.483,2.756,2.756,0,0,0-1.084-2.15,4.641,4.641,0,0,0-3.1-.922h-4.028Z" fill="#00abdb"/>
          <path id="Trazado_978" data-name="Trazado 978" d="M-359.669,86.928a3.124,3.124,0,0,1-.743.7,1.432,1.432,0,0,1-.691.153,1.652,1.652,0,0,1-1.289-.538,2.632,2.632,0,0,1-.486-1.783V83.1a2.665,2.665,0,0,1,.486-1.8,1.652,1.652,0,0,1,1.289-.538,1.633,1.633,0,0,1,1.032.324,2.06,2.06,0,0,1,.641,1.084,2.9,2.9,0,0,0,.46,1.033,5.425,5.425,0,0,0,1.759,1.075,6.892,6.892,0,0,0,2.765.546,6.365,6.365,0,0,0,3.84-1.092,1.953,1.953,0,0,0,.956-1.638,1.913,1.913,0,0,0-.461-1.221,3.335,3.335,0,0,0-1.5-.947,23.394,23.394,0,0,0-3.055-.7A16.482,16.482,0,0,1-359,77.949a5.785,5.785,0,0,1-2.321-2.116,5.47,5.47,0,0,1-.854-2.953,5.75,5.75,0,0,1,2.1-4.4,7.864,7.864,0,0,1,5.462-1.885,9.958,9.958,0,0,1,2.5.3,7.007,7.007,0,0,1,2.091.913,1.985,1.985,0,0,1,1.365-.666,1.618,1.618,0,0,1,1.255.538,2.638,2.638,0,0,1,.486,1.784V72.1a2.665,2.665,0,0,1-.486,1.8,1.615,1.615,0,0,1-1.255.538,1.714,1.714,0,0,1-1.126-.392,1.971,1.971,0,0,1-.564-1.161,3.229,3.229,0,0,0-.477-1.246,3.762,3.762,0,0,0-1.486-1.093A5.555,5.555,0,0,0-354.6,70.1a4.679,4.679,0,0,0-3,.878,2.427,2.427,0,0,0-1.1,1.835,2.071,2.071,0,0,0,.453,1.255,2.925,2.925,0,0,0,1.323.948,25.434,25.434,0,0,0,3.268.767,20.873,20.873,0,0,1,4.131,1.161,5.7,5.7,0,0,1,2.4,1.981,5.4,5.4,0,0,1,.956,3.209,5.17,5.17,0,0,1-1.826,4.147,9.246,9.246,0,0,1-6.179,2.048,11.369,11.369,0,0,1-2.825-.35A11.68,11.68,0,0,1-359.669,86.928Z" fill="#00abdb"/>
          <path id="Trazado_979" data-name="Trazado 979" d="M-330.108,82.182h-8.5l-.853,2.134h.853a2.662,2.662,0,0,1,1.8.487,1.635,1.635,0,0,1,.538,1.271,1.615,1.615,0,0,1-.538,1.255,2.668,2.668,0,0,1-1.8.486h-4.711a2.666,2.666,0,0,1-1.8-.486,1.635,1.635,0,0,1-.538-1.272,1.625,1.625,0,0,1,.564-1.28,2.693,2.693,0,0,1,1.86-.461l5.5-13.689h-2.287a2.663,2.663,0,0,1-1.8-.486,1.635,1.635,0,0,1-.538-1.272,1.634,1.634,0,0,1,.538-1.272,2.658,2.658,0,0,1,1.8-.487l7.562.018,6.964,17.188a3.171,3.171,0,0,1,1.622.274,1.744,1.744,0,0,1,.785,1.484,1.628,1.628,0,0,1-.529,1.255,2.632,2.632,0,0,1-1.792.486h-4.712a2.668,2.668,0,0,1-1.8-.486,1.635,1.635,0,0,1-.537-1.272,1.614,1.614,0,0,1,.537-1.254,2.662,2.662,0,0,1,1.8-.487h.854Zm-1.45-3.5-2.817-6.93-2.833,6.93Z" fill="#00abdb"/>
        </g>
      </g>
      <g id="Grupo_275" data-name="Grupo 275">
        <g id="Grupo_273" data-name="Grupo 273">
          <path id="Trazado_980" data-name="Trazado 980" d="M-472.577,108.118v5.838h1.507a1.139,1.139,0,0,1,.768.207.7.7,0,0,1,.229.543.689.689,0,0,1-.229.535,1.139,1.139,0,0,1-.768.207h-4.506a1.139,1.139,0,0,1-.768-.207.7.7,0,0,1-.229-.543.689.689,0,0,1,.229-.535,1.139,1.139,0,0,1,.768-.207h1.507v-5.838h-1.507a1.138,1.138,0,0,1-.768-.208.7.7,0,0,1-.229-.542.7.7,0,0,1,.229-.543,1.139,1.139,0,0,1,.768-.207l4.506.007a1.151,1.151,0,0,1,.768.2.686.686,0,0,1,.229.539.7.7,0,0,1-.229.542,1.138,1.138,0,0,1-.768.208Z" fill="#ed008f"/>
          <path id="Trazado_981" data-name="Trazado 981" d="M-466.587,109.442v4.514h.539a1.139,1.139,0,0,1,.768.207.7.7,0,0,1,.229.543.689.689,0,0,1-.229.535,1.139,1.139,0,0,1-.768.207h-1.958a1.139,1.139,0,0,1-.768-.207A.7.7,0,0,1-469,114.7a.7.7,0,0,1,.225-.531.994.994,0,0,1,.7-.211v-5.838h-.233a1.138,1.138,0,0,1-.768-.208.7.7,0,0,1-.229-.542.7.7,0,0,1,.229-.543,1.139,1.139,0,0,1,.768-.207l1.725.007,3.815,5.984v-4.491h-.539a1.138,1.138,0,0,1-.768-.208.7.7,0,0,1-.229-.542.7.7,0,0,1,.229-.543,1.139,1.139,0,0,1,.768-.207l1.958.007a1.151,1.151,0,0,1,.768.2.687.687,0,0,1,.23.539.705.705,0,0,1-.226.538.983.983,0,0,1-.692.212v7.33h-1.477Z" fill="#ed008f"/>
          <path id="Trazado_982" data-name="Trazado 982" d="M-458.3,115.07a1.33,1.33,0,0,1-.317.3.6.6,0,0,1-.295.065.7.7,0,0,1-.549-.229,1.119,1.119,0,0,1-.208-.761v-1a1.133,1.133,0,0,1,.208-.768.7.7,0,0,1,.549-.229.7.7,0,0,1,.441.138.873.873,0,0,1,.273.462,1.245,1.245,0,0,0,.2.441,2.314,2.314,0,0,0,.75.458,2.926,2.926,0,0,0,1.179.233,2.712,2.712,0,0,0,1.638-.466.832.832,0,0,0,.408-.7.817.817,0,0,0-.2-.52,1.419,1.419,0,0,0-.64-.4,10.111,10.111,0,0,0-1.3-.3,7.039,7.039,0,0,1-1.849-.545,2.468,2.468,0,0,1-.99-.9,2.33,2.33,0,0,1-.364-1.26,2.45,2.45,0,0,1,.895-1.874,3.354,3.354,0,0,1,2.33-.8,4.239,4.239,0,0,1,1.066.127,3,3,0,0,1,.892.389.846.846,0,0,1,.582-.283.686.686,0,0,1,.535.229,1.119,1.119,0,0,1,.208.761v1.121a1.133,1.133,0,0,1-.208.768.69.69,0,0,1-.535.229.732.732,0,0,1-.48-.168.839.839,0,0,1-.241-.495,1.378,1.378,0,0,0-.2-.531,1.6,1.6,0,0,0-.634-.466,2.362,2.362,0,0,0-.975-.189,1.993,1.993,0,0,0-1.278.375,1.033,1.033,0,0,0-.469.782.88.88,0,0,0,.193.535,1.239,1.239,0,0,0,.564.4,10.744,10.744,0,0,0,1.394.328,8.906,8.906,0,0,1,1.762.495,2.442,2.442,0,0,1,1.022.844,2.306,2.306,0,0,1,.408,1.369,2.206,2.206,0,0,1-.779,1.769,3.944,3.944,0,0,1-2.635.873,4.84,4.84,0,0,1-1.205-.149A4.953,4.953,0,0,1-458.3,115.07Z" fill="#ed008f"/>
          <path id="Trazado_983" data-name="Trazado 983" d="M-446.274,108.118v5.838h1a1.139,1.139,0,0,1,.768.207.7.7,0,0,1,.229.543.689.689,0,0,1-.229.535,1.139,1.139,0,0,1-.768.207h-3.494a1.135,1.135,0,0,1-.768-.207.7.7,0,0,1-.23-.543.69.69,0,0,1,.23-.535,1.135,1.135,0,0,1,.768-.207h1v-5.838h-1.616v1.412a1.133,1.133,0,0,1-.208.768.7.7,0,0,1-.542.229.688.688,0,0,1-.535-.229,1.138,1.138,0,0,1-.208-.768v-2.912l7.731.007v2.9a1.139,1.139,0,0,1-.207.768.7.7,0,0,1-.543.229.689.689,0,0,1-.535-.229,1.139,1.139,0,0,1-.207-.768v-1.412Z" fill="#ed008f"/>
          <path id="Trazado_984" data-name="Trazado 984" d="M-437.648,108.118v5.838h1.506a1.139,1.139,0,0,1,.768.207.7.7,0,0,1,.23.543.69.69,0,0,1-.23.535,1.139,1.139,0,0,1-.768.207h-4.506a1.139,1.139,0,0,1-.768-.207.7.7,0,0,1-.229-.543.693.693,0,0,1,.229-.535,1.139,1.139,0,0,1,.768-.207h1.507v-5.838h-1.507a1.138,1.138,0,0,1-.768-.208.7.7,0,0,1-.229-.542.7.7,0,0,1,.229-.543,1.139,1.139,0,0,1,.768-.207l4.506.007a1.151,1.151,0,0,1,.768.2.687.687,0,0,1,.23.539.7.7,0,0,1-.23.542,1.138,1.138,0,0,1-.768.208Z" fill="#ed008f"/>
          <path id="Trazado_985" data-name="Trazado 985" d="M-428.553,108.118v5.838h1.005a1.139,1.139,0,0,1,.768.207.7.7,0,0,1,.229.543.689.689,0,0,1-.229.535,1.139,1.139,0,0,1-.768.207h-3.494a1.139,1.139,0,0,1-.768-.207.7.7,0,0,1-.23-.543.69.69,0,0,1,.23-.535,1.139,1.139,0,0,1,.768-.207h1v-5.838h-1.616v1.412a1.139,1.139,0,0,1-.207.768.7.7,0,0,1-.543.229.689.689,0,0,1-.535-.229,1.139,1.139,0,0,1-.207-.768v-2.912l7.731.007v2.9a1.138,1.138,0,0,1-.208.768.7.7,0,0,1-.542.229.686.686,0,0,1-.535-.229,1.133,1.133,0,0,1-.208-.768v-1.412Z" fill="#ed008f"/>
          <path id="Trazado_986" data-name="Trazado 986" d="M-417.263,108.118v4.229a3.157,3.157,0,0,1-.994,2.351,3.3,3.3,0,0,1-2.391.968,3.465,3.465,0,0,1-1.3-.243,3.327,3.327,0,0,1-1.092-.717,3.991,3.991,0,0,1-.754-.987,2.971,2.971,0,0,1-.269-1.372v-4.229a1,1,0,0,1-.7-.212.7.7,0,0,1-.225-.538.693.693,0,0,1,.225-.539,1.15,1.15,0,0,1,.772-.2l1.958-.007a1.139,1.139,0,0,1,.768.207.7.7,0,0,1,.229.543.7.7,0,0,1-.229.542,1.138,1.138,0,0,1-.768.208h-.539v4.36a1.568,1.568,0,0,0,.557,1.183,1.912,1.912,0,0,0,1.343.513,2.037,2.037,0,0,0,.983-.247,1.977,1.977,0,0,0,.75-.721,1.377,1.377,0,0,0,.182-.728v-4.36h-.539a1.138,1.138,0,0,1-.768-.208.7.7,0,0,1-.229-.542.7.7,0,0,1,.229-.543,1.139,1.139,0,0,1,.768-.207l1.958.007a1.151,1.151,0,0,1,.768.2.687.687,0,0,1,.23.539.705.705,0,0,1-.226.538A.994.994,0,0,1-417.263,108.118Z" fill="#ed008f"/>
          <path id="Trazado_987" data-name="Trazado 987" d="M-411.345,108.118v5.838h1a1.139,1.139,0,0,1,.768.207.7.7,0,0,1,.229.543.689.689,0,0,1-.229.535,1.139,1.139,0,0,1-.768.207h-3.494a1.139,1.139,0,0,1-.768-.207.7.7,0,0,1-.229-.543.689.689,0,0,1,.229-.535,1.139,1.139,0,0,1,.768-.207h1v-5.838h-1.616v1.412a1.139,1.139,0,0,1-.207.768.7.7,0,0,1-.543.229.689.689,0,0,1-.535-.229,1.139,1.139,0,0,1-.207-.768v-2.912l7.731.007v2.9a1.133,1.133,0,0,1-.208.768.7.7,0,0,1-.542.229.688.688,0,0,1-.535-.229,1.138,1.138,0,0,1-.208-.768v-1.412Z" fill="#ed008f"/>
          <path id="Trazado_988" data-name="Trazado 988" d="M-399.277,111.037a4.6,4.6,0,0,1-1.263,3.308,3.928,3.928,0,0,1-2.922,1.321,3.891,3.891,0,0,1-2.694-1.1,4.567,4.567,0,0,1-1.485-3.53,4.592,4.592,0,0,1,1.485-3.538,3.891,3.891,0,0,1,2.694-1.1,3.928,3.928,0,0,1,2.922,1.321A4.608,4.608,0,0,1-399.277,111.037Zm-1.492,0a3.19,3.19,0,0,0-.823-2.253,2.487,2.487,0,0,0-1.87-.892,2.476,2.476,0,0,0-1.864.9,3.2,3.2,0,0,0-.823,2.25,3.18,3.18,0,0,0,.823,2.245,2.48,2.48,0,0,0,1.864.892,2.493,2.493,0,0,0,1.87-.888A3.178,3.178,0,0,0-400.769,111.037Z" fill="#ed008f"/>
        </g>
        <g id="Grupo_274" data-name="Grupo 274">
          <path id="Trazado_989" data-name="Trazado 989" d="M-389.082,113.956v-5.838a1.032,1.032,0,0,1-.7-.215.692.692,0,0,1-.226-.535.7.7,0,0,1,.229-.543,1.139,1.139,0,0,1,.768-.207l3.123.007a3.9,3.9,0,0,1,1.423.27,3.229,3.229,0,0,1,1.118.684,4.851,4.851,0,0,1,.666.859,4.789,4.789,0,0,1,.52,1.085,4.291,4.291,0,0,1,.175,1.317v.714a4.153,4.153,0,0,1-.32,1.677,3.384,3.384,0,0,1-.841,1.194,4.288,4.288,0,0,1-.979.681,4.46,4.46,0,0,1-1.886.342h-3a1.139,1.139,0,0,1-.768-.207.7.7,0,0,1-.229-.543.7.7,0,0,1,.229-.538A.973.973,0,0,1-389.082,113.956Zm1.492,0H-386a2.785,2.785,0,0,0,1.339-.255,2.31,2.31,0,0,0,.888-.852,2.655,2.655,0,0,0,.3-1.339V110.8a2.7,2.7,0,0,0-.27-1.238,2.669,2.669,0,0,0-.95-1.139,2.58,2.58,0,0,0-1.321-.309h-1.572Z" fill="#ed008f"/>
          <path id="Trazado_990" data-name="Trazado 990" d="M-378.674,111.765v2.191h3.808v-.808a1.139,1.139,0,0,1,.207-.768.7.7,0,0,1,.542-.23.687.687,0,0,1,.535.23,1.133,1.133,0,0,1,.208.768v2.3H-380.4a1.139,1.139,0,0,1-.768-.207.7.7,0,0,1-.229-.543.683.683,0,0,1,.233-.535,1.139,1.139,0,0,1,.764-.207h.233v-5.838h-.233a1.138,1.138,0,0,1-.768-.208.7.7,0,0,1-.229-.542.7.7,0,0,1,.229-.543,1.139,1.139,0,0,1,.768-.207l6.7.007V108.9a1.135,1.135,0,0,1-.2.76.683.683,0,0,1-.538.23.707.707,0,0,1-.543-.226,1.123,1.123,0,0,1-.207-.764v-.779h-3.48v2.154h1.311a1.611,1.611,0,0,1,.109-.749.716.716,0,0,1,.641-.357.689.689,0,0,1,.535.229,1.139,1.139,0,0,1,.207.768v1.718a1.263,1.263,0,0,1-.116.655.723.723,0,0,1-.626.342.715.715,0,0,1-.641-.356,1.641,1.641,0,0,1-.109-.757Z" fill="#ed008f"/>
        </g>
        <path id="Trazado_991" data-name="Trazado 991" d="M-360.8,112.42v1.536h1.507a1.139,1.139,0,0,1,.768.207.7.7,0,0,1,.229.543.689.689,0,0,1-.229.535,1.139,1.139,0,0,1-.768.207h-3.232a1.139,1.139,0,0,1-.768-.207.7.7,0,0,1-.229-.543.683.683,0,0,1,.233-.535,1.139,1.139,0,0,1,.764-.207h.233v-5.838h-.233a1.138,1.138,0,0,1-.768-.208.7.7,0,0,1-.229-.542.7.7,0,0,1,.229-.543,1.139,1.139,0,0,1,.768-.207l3.436.007a3.375,3.375,0,0,1,2.4.827,2.65,2.65,0,0,1,.884,2.012,2.676,2.676,0,0,1-.3,1.238,2.8,2.8,0,0,1-.754.862,4.1,4.1,0,0,1-1.077.641,4.073,4.073,0,0,1-1.452.215Zm0-1.493h1.383a2.469,2.469,0,0,0,1.547-.44,1.3,1.3,0,0,0,.572-1.059,1.174,1.174,0,0,0-.462-.917,1.987,1.987,0,0,0-1.322-.393H-360.8Z" fill="#ed008f"/>
        <path id="Trazado_992" data-name="Trazado 992" d="M-352.356,112.078v1.878h.539a1.139,1.139,0,0,1,.768.207.7.7,0,0,1,.229.543.689.689,0,0,1-.229.535,1.139,1.139,0,0,1-.768.207h-2.264a1.139,1.139,0,0,1-.768-.207.7.7,0,0,1-.23-.543.686.686,0,0,1,.233-.535,1.142,1.142,0,0,1,.765-.207h.233v-5.838h-.233a1.138,1.138,0,0,1-.768-.208.7.7,0,0,1-.23-.542.7.7,0,0,1,.23-.543,1.139,1.139,0,0,1,.768-.207l3.377.007a3.536,3.536,0,0,1,2.45.783,2.466,2.466,0,0,1,.87,1.9,2.138,2.138,0,0,1-.408,1.271,3.54,3.54,0,0,1-1.23,1.015,9.534,9.534,0,0,1,1.012,1.063q.335.415.9,1.3a1.588,1.588,0,0,1,.749.116.726.726,0,0,1,.328.634.694.694,0,0,1-.226.535,1.121,1.121,0,0,1-.764.207h-.852q-1.812-2.8-3.006-3.37Zm0-1.493h1.165a3.2,3.2,0,0,0,1.157-.2,2.234,2.234,0,0,0,.921-.553.916.916,0,0,0,.237-.576,1.012,1.012,0,0,0-.452-.782,2.075,2.075,0,0,0-1.317-.36h-1.711Z" fill="#ed008f"/>
        <path id="Trazado_993" data-name="Trazado 993" d="M-338.023,111.037a4.6,4.6,0,0,1-1.263,3.308,3.931,3.931,0,0,1-2.923,1.321,3.891,3.891,0,0,1-2.694-1.1,4.567,4.567,0,0,1-1.485-3.53A4.592,4.592,0,0,1-344.9,107.5a3.891,3.891,0,0,1,2.694-1.1,3.931,3.931,0,0,1,2.923,1.321A4.612,4.612,0,0,1-338.023,111.037Zm-1.493,0a3.194,3.194,0,0,0-.822-2.253,2.489,2.489,0,0,0-1.871-.892,2.48,2.48,0,0,0-1.864.9,3.2,3.2,0,0,0-.822,2.25,3.184,3.184,0,0,0,.822,2.245,2.483,2.483,0,0,0,1.864.892,2.5,2.5,0,0,0,1.871-.888A3.182,3.182,0,0,0-339.516,111.037Z" fill="#ed008f"/>
        <path id="Trazado_994" data-name="Trazado 994" d="M-332.371,108.118v5.838h1.005a1.139,1.139,0,0,1,.768.207.7.7,0,0,1,.229.543.689.689,0,0,1-.229.535,1.139,1.139,0,0,1-.768.207h-3.494a1.135,1.135,0,0,1-.768-.207.7.7,0,0,1-.23-.543.69.69,0,0,1,.23-.535,1.135,1.135,0,0,1,.768-.207h1v-5.838h-1.616v1.412a1.133,1.133,0,0,1-.208.768.7.7,0,0,1-.542.229.688.688,0,0,1-.535-.229,1.138,1.138,0,0,1-.208-.768v-2.912l7.731.007v2.9a1.139,1.139,0,0,1-.207.768.7.7,0,0,1-.543.229.689.689,0,0,1-.535-.229,1.139,1.139,0,0,1-.207-.768v-1.412Z" fill="#ed008f"/>
        <path id="Trazado_995" data-name="Trazado 995" d="M-326.538,111.765v2.191h3.807v-.808a1.133,1.133,0,0,1,.208-.768.7.7,0,0,1,.542-.23.689.689,0,0,1,.535.23,1.139,1.139,0,0,1,.207.768v2.3h-7.024a1.139,1.139,0,0,1-.768-.207.7.7,0,0,1-.23-.543.686.686,0,0,1,.233-.535,1.142,1.142,0,0,1,.765-.207h.233v-5.838h-.233a1.138,1.138,0,0,1-.768-.208.7.7,0,0,1-.23-.542.7.7,0,0,1,.23-.543,1.139,1.139,0,0,1,.768-.207l6.7.007V108.9a1.135,1.135,0,0,1-.2.76.686.686,0,0,1-.539.23.7.7,0,0,1-.542-.226,1.123,1.123,0,0,1-.207-.764v-.779h-3.48v2.154h1.31a1.624,1.624,0,0,1,.109-.749.717.717,0,0,1,.641-.357.688.688,0,0,1,.535.229,1.138,1.138,0,0,1,.208.768v1.718a1.25,1.25,0,0,1-.117.655.722.722,0,0,1-.626.342.716.716,0,0,1-.641-.356,1.654,1.654,0,0,1-.109-.757Z" fill="#ed008f"/>
        <path id="Trazado_996" data-name="Trazado 996" d="M-313.548,107a1,1,0,0,1,.3-.284.7.7,0,0,1,.354-.1.7.7,0,0,1,.535.226,1.121,1.121,0,0,1,.207.764v1.267a1.139,1.139,0,0,1-.207.768.689.689,0,0,1-.535.229.679.679,0,0,1-.481-.167,1.144,1.144,0,0,1-.269-.626.9.9,0,0,0-.2-.473,2.072,2.072,0,0,0-.834-.525,3.089,3.089,0,0,0-1.073-.2,2.632,2.632,0,0,0-1.231.291,2.7,2.7,0,0,0-.99.946,2.782,2.782,0,0,0-.429,1.558v.968a2.343,2.343,0,0,0,.782,1.8,3.085,3.085,0,0,0,2.173.721,3.841,3.841,0,0,0,1.4-.226,2.151,2.151,0,0,0,.714-.516,1.723,1.723,0,0,1,.364-.3.616.616,0,0,1,.3-.07.72.72,0,0,1,.524.226.727.727,0,0,1,.226.531,1.031,1.031,0,0,1-.306.656,3.038,3.038,0,0,1-1.143.8,5.319,5.319,0,0,1-2.074.393,5.149,5.149,0,0,1-2.388-.546,3.778,3.778,0,0,1-1.463-1.379,3.733,3.733,0,0,1-.6-2.056v-1.012a4.509,4.509,0,0,1,.542-2.173,3.835,3.835,0,0,1,1.5-1.554,4.063,4.063,0,0,1,2.038-.546,4.7,4.7,0,0,1,1.212.149A3.777,3.777,0,0,1-313.548,107Z" fill="#ed008f"/>
        <path id="Trazado_997" data-name="Trazado 997" d="M-304.43,107a1,1,0,0,1,.3-.284.7.7,0,0,1,.353-.1.694.694,0,0,1,.535.226,1.116,1.116,0,0,1,.208.764v1.267a1.133,1.133,0,0,1-.208.768.686.686,0,0,1-.535.229.678.678,0,0,1-.48-.167,1.144,1.144,0,0,1-.27-.626.911.911,0,0,0-.2-.473,2.072,2.072,0,0,0-.834-.525,3.1,3.1,0,0,0-1.074-.2,2.631,2.631,0,0,0-1.23.291,2.687,2.687,0,0,0-.99.946,2.782,2.782,0,0,0-.429,1.558v.968a2.34,2.34,0,0,0,.782,1.8,3.085,3.085,0,0,0,2.173.721,3.845,3.845,0,0,0,1.4-.226,2.138,2.138,0,0,0,.713-.516,1.775,1.775,0,0,1,.364-.3.622.622,0,0,1,.3-.07.722.722,0,0,1,.524.226.73.73,0,0,1,.226.531,1.031,1.031,0,0,1-.306.656,3.038,3.038,0,0,1-1.143.8,5.324,5.324,0,0,1-2.075.393,5.145,5.145,0,0,1-2.387-.546,3.772,3.772,0,0,1-1.463-1.379,3.735,3.735,0,0,1-.605-2.056v-1.012a4.51,4.51,0,0,1,.543-2.173,3.828,3.828,0,0,1,1.5-1.554,4.061,4.061,0,0,1,2.038-.546,4.7,4.7,0,0,1,1.212.149A3.777,3.777,0,0,1-304.43,107Z" fill="#ed008f"/>
        <path id="Trazado_998" data-name="Trazado 998" d="M-297.421,108.118v5.838h1.507a1.139,1.139,0,0,1,.768.207.7.7,0,0,1,.23.543.69.69,0,0,1-.23.535,1.139,1.139,0,0,1-.768.207h-4.506a1.139,1.139,0,0,1-.768-.207.7.7,0,0,1-.229-.543.689.689,0,0,1,.229-.535,1.139,1.139,0,0,1,.768-.207h1.507v-5.838h-1.507a1.138,1.138,0,0,1-.768-.208.7.7,0,0,1-.229-.542.7.7,0,0,1,.229-.543,1.139,1.139,0,0,1,.768-.207l4.506.007a1.151,1.151,0,0,1,.768.2.687.687,0,0,1,.23.539.7.7,0,0,1-.23.542,1.138,1.138,0,0,1-.768.208Z" fill="#ed008f"/>
        <path id="Trazado_999" data-name="Trazado 999" d="M-285.374,111.037a4.6,4.6,0,0,1-1.263,3.308,3.929,3.929,0,0,1-2.922,1.321,3.891,3.891,0,0,1-2.694-1.1,4.567,4.567,0,0,1-1.485-3.53,4.592,4.592,0,0,1,1.485-3.538,3.891,3.891,0,0,1,2.694-1.1,3.929,3.929,0,0,1,2.922,1.321A4.608,4.608,0,0,1-285.374,111.037Zm-1.492,0a3.19,3.19,0,0,0-.823-2.253,2.487,2.487,0,0,0-1.87-.892,2.477,2.477,0,0,0-1.864.9,3.2,3.2,0,0,0-.823,2.25,3.18,3.18,0,0,0,.823,2.245,2.48,2.48,0,0,0,1.864.892,2.493,2.493,0,0,0,1.87-.888A3.179,3.179,0,0,0-286.866,111.037Zm-1.449-6.9-1.638,1.332a.731.731,0,0,1-.415.2.476.476,0,0,1-.345-.138.457.457,0,0,1-.142-.342.631.631,0,0,1,.291-.466l1.645-1.332a.733.733,0,0,1,.415-.2.479.479,0,0,1,.346.139.453.453,0,0,1,.142.335A.634.634,0,0,1-288.315,104.136Z" fill="#ed008f"/>
        <path id="Trazado_1000" data-name="Trazado 1000" d="M-262.863,111.743v2.213h1a1.135,1.135,0,0,1,.768.207.7.7,0,0,1,.23.543.69.69,0,0,1-.23.535,1.135,1.135,0,0,1-.768.207h-3.5a1.127,1.127,0,0,1-.761-.207.7.7,0,0,1-.229-.543.689.689,0,0,1,.229-.535,1.127,1.127,0,0,1,.761-.207h1v-2.213l-2.468-3.625a1.042,1.042,0,0,1-.724-.212.7.7,0,0,1-.23-.538.7.7,0,0,1,.23-.543,1.135,1.135,0,0,1,.768-.207l1.354.007a1.151,1.151,0,0,1,.768.2.689.689,0,0,1,.229.539.806.806,0,0,1-.59.75l1.412,2.082,1.384-2.082a1,1,0,0,1-.466-.313.719.719,0,0,1-.139-.437.687.687,0,0,1,.23-.539,1.173,1.173,0,0,1,.768-.211l1.4.007a1.151,1.151,0,0,1,.768.2.689.689,0,0,1,.229.539.692.692,0,0,1-.233.542,1.127,1.127,0,0,1-.757.208Z" fill="#ed008f"/>
        <path id="Trazado_1001" data-name="Trazado 1001" d="M-453.669,132.8a1.319,1.319,0,0,1-.317.3.616.616,0,0,1-.3.065.7.7,0,0,1-.549-.229,1.119,1.119,0,0,1-.208-.761v-1a1.133,1.133,0,0,1,.208-.768.7.7,0,0,1,.549-.23.7.7,0,0,1,.441.139.886.886,0,0,1,.273.462,1.23,1.23,0,0,0,.2.44,2.3,2.3,0,0,0,.75.459,2.943,2.943,0,0,0,1.179.233,2.712,2.712,0,0,0,1.638-.466.832.832,0,0,0,.408-.7.815.815,0,0,0-.2-.52,1.425,1.425,0,0,0-.64-.4,10.154,10.154,0,0,0-1.3-.3,7,7,0,0,1-1.849-.546,2.458,2.458,0,0,1-.99-.9,2.332,2.332,0,0,1-.364-1.26,2.45,2.45,0,0,1,.9-1.874,3.354,3.354,0,0,1,2.329-.805,4.24,4.24,0,0,1,1.067.128,3.009,3.009,0,0,1,.892.389.848.848,0,0,1,.582-.284.689.689,0,0,1,.535.23,1.123,1.123,0,0,1,.207.76v1.121a1.135,1.135,0,0,1-.207.768.689.689,0,0,1-.535.23.733.733,0,0,1-.481-.168.845.845,0,0,1-.24-.495,1.36,1.36,0,0,0-.2-.531,1.6,1.6,0,0,0-.633-.466,2.365,2.365,0,0,0-.975-.189,1.993,1.993,0,0,0-1.278.375,1.031,1.031,0,0,0-.469.782.885.885,0,0,0,.192.535,1.248,1.248,0,0,0,.565.4,10.88,10.88,0,0,0,1.394.328,8.8,8.8,0,0,1,1.761.495,2.437,2.437,0,0,1,1.023.844,2.306,2.306,0,0,1,.408,1.369,2.206,2.206,0,0,1-.779,1.769,3.944,3.944,0,0,1-2.635.873,4.88,4.88,0,0,1-1.2-.149A4.939,4.939,0,0,1-453.669,132.8Z" fill="#ed008f"/>
        <path id="Trazado_1002" data-name="Trazado 1002" d="M-440.548,130.782h-3.625l-.364.91h.364a1.139,1.139,0,0,1,.768.207.7.7,0,0,1,.229.542.687.687,0,0,1-.229.535,1.133,1.133,0,0,1-.768.208h-2.009a1.133,1.133,0,0,1-.768-.208.7.7,0,0,1-.23-.542.692.692,0,0,1,.241-.546,1.143,1.143,0,0,1,.793-.2l2.344-5.839h-.975a1.137,1.137,0,0,1-.768-.207.7.7,0,0,1-.23-.542.7.7,0,0,1,.23-.543,1.137,1.137,0,0,1,.768-.207l3.224.007,2.97,7.331a1.368,1.368,0,0,1,.692.116.744.744,0,0,1,.335.633.691.691,0,0,1-.226.535,1.116,1.116,0,0,1-.764.208h-2.009a1.133,1.133,0,0,1-.768-.208.7.7,0,0,1-.23-.542.689.689,0,0,1,.23-.535,1.139,1.139,0,0,1,.768-.207h.364Zm-.619-1.493-1.2-2.955-1.208,2.955Z" fill="#ed008f"/>
        <path id="Trazado_1003" data-name="Trazado 1003" d="M-435.635,127.178v4.514h.539a1.139,1.139,0,0,1,.768.207.7.7,0,0,1,.229.542.69.69,0,0,1-.229.535,1.133,1.133,0,0,1-.768.208h-1.959a1.133,1.133,0,0,1-.768-.208.7.7,0,0,1-.229-.542.7.7,0,0,1,.226-.531.992.992,0,0,1,.7-.211v-5.839h-.233a1.137,1.137,0,0,1-.768-.207.7.7,0,0,1-.23-.542.7.7,0,0,1,.23-.543,1.137,1.137,0,0,1,.768-.207l1.725.007,3.814,5.984v-4.492h-.538a1.137,1.137,0,0,1-.768-.207.7.7,0,0,1-.23-.542.7.7,0,0,1,.23-.543,1.137,1.137,0,0,1,.768-.207l1.958.007a1.151,1.151,0,0,1,.768.2.686.686,0,0,1,.229.539.7.7,0,0,1-.225.538.985.985,0,0,1-.692.211v7.331H-431.8Z" fill="#ed008f"/>
        <path id="Trazado_1004" data-name="Trazado 1004" d="M-282.439,109.442v4.514h.539a1.139,1.139,0,0,1,.768.207.7.7,0,0,1,.229.543.689.689,0,0,1-.229.535,1.139,1.139,0,0,1-.768.207h-1.958a1.139,1.139,0,0,1-.768-.207.7.7,0,0,1-.229-.543.7.7,0,0,1,.225-.531,1,1,0,0,1,.7-.211v-5.838h-.233a1.138,1.138,0,0,1-.768-.208.7.7,0,0,1-.229-.542.7.7,0,0,1,.229-.543,1.139,1.139,0,0,1,.768-.207l1.725.007,3.815,5.984v-4.491h-.539a1.138,1.138,0,0,1-.768-.208.7.7,0,0,1-.229-.542.7.7,0,0,1,.229-.543,1.139,1.139,0,0,1,.768-.207l1.958.007a1.147,1.147,0,0,1,.768.2.687.687,0,0,1,.23.539.7.7,0,0,1-.226.538.98.98,0,0,1-.691.212v7.33H-278.6Z" fill="#ed008f"/>
        <path id="Trazado_1005" data-name="Trazado 1005" d="M-424.418,125.853v5.839h1.507a1.139,1.139,0,0,1,.768.207.7.7,0,0,1,.229.542.686.686,0,0,1-.229.535,1.133,1.133,0,0,1-.768.208h-4.506a1.133,1.133,0,0,1-.768-.208.7.7,0,0,1-.23-.542.689.689,0,0,1,.23-.535,1.139,1.139,0,0,1,.768-.207h1.507v-5.839h-1.507a1.139,1.139,0,0,1-.768-.207.7.7,0,0,1-.23-.542.7.7,0,0,1,.23-.543,1.139,1.139,0,0,1,.768-.207l4.506.007a1.151,1.151,0,0,1,.768.2.686.686,0,0,1,.229.539.7.7,0,0,1-.229.542,1.139,1.139,0,0,1-.768.207Z" fill="#ed008f"/>
        <path id="Trazado_1006" data-name="Trazado 1006" d="M-419.9,131.692v-5.839a1.027,1.027,0,0,1-.7-.214.694.694,0,0,1-.226-.535.7.7,0,0,1,.229-.543,1.139,1.139,0,0,1,.768-.207l3.123.007a3.923,3.923,0,0,1,1.424.269,3.25,3.25,0,0,1,1.117.685,4.814,4.814,0,0,1,.666.859,4.8,4.8,0,0,1,.52,1.084,4.3,4.3,0,0,1,.175,1.318v.713a4.154,4.154,0,0,1-.32,1.678,3.383,3.383,0,0,1-.841,1.194,4.32,4.32,0,0,1-.979.681,4.455,4.455,0,0,1-1.885.342h-3a1.133,1.133,0,0,1-.768-.208.7.7,0,0,1-.229-.542.7.7,0,0,1,.229-.539A.978.978,0,0,1-419.9,131.692Zm1.492,0h1.587a2.785,2.785,0,0,0,1.339-.255,2.309,2.309,0,0,0,.888-.852,2.655,2.655,0,0,0,.3-1.339v-.706a2.71,2.71,0,0,0-.269-1.238,2.683,2.683,0,0,0-.95-1.139,2.584,2.584,0,0,0-1.322-.31h-1.572Z" fill="#ed008f"/>
        <path id="Trazado_1007" data-name="Trazado 1007" d="M-406.134,130.782h-3.625l-.364.91h.364a1.139,1.139,0,0,1,.768.207.7.7,0,0,1,.23.542.687.687,0,0,1-.23.535,1.133,1.133,0,0,1-.768.208h-2.009a1.133,1.133,0,0,1-.768-.208.7.7,0,0,1-.229-.542.694.694,0,0,1,.24-.546,1.146,1.146,0,0,1,.794-.2l2.344-5.839h-.976a1.139,1.139,0,0,1-.768-.207.7.7,0,0,1-.229-.542.7.7,0,0,1,.229-.543,1.139,1.139,0,0,1,.768-.207l3.225.007,2.97,7.331a1.363,1.363,0,0,1,.691.116.742.742,0,0,1,.335.633.693.693,0,0,1-.225.535,1.12,1.12,0,0,1-.765.208h-2.009a1.133,1.133,0,0,1-.768-.208.7.7,0,0,1-.229-.542.688.688,0,0,1,.229-.535,1.139,1.139,0,0,1,.768-.207h.364Zm-.618-1.493-1.2-2.955-1.209,2.955Z" fill="#ed008f"/>
        <path id="Trazado_1008" data-name="Trazado 1008" d="M-402.691,131.692v-5.839a1.027,1.027,0,0,1-.7-.214.7.7,0,0,1-.226-.535.7.7,0,0,1,.23-.543,1.137,1.137,0,0,1,.768-.207l3.123.007a3.922,3.922,0,0,1,1.423.269,3.241,3.241,0,0,1,1.117.685,4.725,4.725,0,0,1,.666.859,4.808,4.808,0,0,1,.521,1.084,4.336,4.336,0,0,1,.174,1.318v.713a4.138,4.138,0,0,1-.32,1.678,3.383,3.383,0,0,1-.841,1.194,4.32,4.32,0,0,1-.979.681,4.455,4.455,0,0,1-1.885.342h-3a1.131,1.131,0,0,1-.768-.208.7.7,0,0,1-.23-.542.7.7,0,0,1,.23-.539A.975.975,0,0,1-402.691,131.692Zm1.492,0h1.587a2.79,2.79,0,0,0,1.34-.255,2.31,2.31,0,0,0,.888-.852,2.655,2.655,0,0,0,.3-1.339v-.706a2.71,2.71,0,0,0-.269-1.238,2.676,2.676,0,0,0-.95-1.139,2.583,2.583,0,0,0-1.321-.31H-401.2Z" fill="#ed008f"/>
        <path id="Trazado_1009" data-name="Trazado 1009" d="M-379.809,130.782h-3.625l-.364.91h.364a1.139,1.139,0,0,1,.768.207.7.7,0,0,1,.229.542.686.686,0,0,1-.229.535,1.133,1.133,0,0,1-.768.208h-2.009a1.133,1.133,0,0,1-.768-.208.7.7,0,0,1-.229-.542.694.694,0,0,1,.24-.546,1.144,1.144,0,0,1,.793-.2l2.344-5.839h-.975a1.139,1.139,0,0,1-.768-.207.7.7,0,0,1-.229-.542.7.7,0,0,1,.229-.543,1.139,1.139,0,0,1,.768-.207l3.225.007,2.97,7.331a1.363,1.363,0,0,1,.691.116.744.744,0,0,1,.335.633.693.693,0,0,1-.225.535,1.12,1.12,0,0,1-.765.208h-2.009a1.133,1.133,0,0,1-.768-.208.7.7,0,0,1-.229-.542.688.688,0,0,1,.229-.535,1.139,1.139,0,0,1,.768-.207h.364Zm-.618-1.493-1.2-2.955-1.208,2.955Z" fill="#ed008f"/>
        <path id="Trazado_1010" data-name="Trazado 1010" d="M-368.755,130.454v2a8.8,8.8,0,0,1-1.721.746,5.6,5.6,0,0,1-1.533.2,6.357,6.357,0,0,1-2.118-.342,3.436,3.436,0,0,1-1.2-.662,3.765,3.765,0,0,1-.811-1.183,4.027,4.027,0,0,1-.372-1.751v-1.077a4.236,4.236,0,0,1,.91-2.665,3.98,3.98,0,0,1,3.327-1.587,5.3,5.3,0,0,1,1.161.124,4.638,4.638,0,0,1,1.045.371.888.888,0,0,1,.582-.269.681.681,0,0,1,.532.226,1.139,1.139,0,0,1,.2.764v.968a1.137,1.137,0,0,1-.207.768.689.689,0,0,1-.535.23.674.674,0,0,1-.451-.161.88.88,0,0,1-.244-.484,1.252,1.252,0,0,0-.222-.506,1.677,1.677,0,0,0-.7-.374,3.544,3.544,0,0,0-1.117-.164,3.124,3.124,0,0,0-1.543.364,2.505,2.505,0,0,0-.859.939,2.826,2.826,0,0,0-.393,1.456v1.077a2.32,2.32,0,0,0,.7,1.824,3.254,3.254,0,0,0,2.209.622,4.454,4.454,0,0,0,1.871-.386v-1.07h-1.521a1.137,1.137,0,0,1-.768-.207.7.7,0,0,1-.23-.543.7.7,0,0,1,.23-.542,1.137,1.137,0,0,1,.768-.207l2.649.007a1.151,1.151,0,0,1,.768.2.685.685,0,0,1,.23.538.717.717,0,0,1-.157.459A.918.918,0,0,1-368.755,130.454Z" fill="#ed008f"/>
        <path id="Trazado_1011" data-name="Trazado 1011" d="M-365.451,129.813v1.879h.539a1.139,1.139,0,0,1,.768.207.7.7,0,0,1,.229.542.686.686,0,0,1-.229.535,1.133,1.133,0,0,1-.768.208h-2.264a1.133,1.133,0,0,1-.768-.208.7.7,0,0,1-.229-.542.685.685,0,0,1,.233-.535,1.139,1.139,0,0,1,.764-.207h.233v-5.839h-.233a1.139,1.139,0,0,1-.768-.207.7.7,0,0,1-.229-.542.7.7,0,0,1,.229-.543,1.139,1.139,0,0,1,.768-.207l3.378.007a3.533,3.533,0,0,1,2.449.783,2.465,2.465,0,0,1,.87,1.9,2.144,2.144,0,0,1-.407,1.271,3.535,3.535,0,0,1-1.231,1.015,9.444,9.444,0,0,1,1.012,1.063q.335.414.9,1.3a1.593,1.593,0,0,1,.75.116.727.727,0,0,1,.327.633.693.693,0,0,1-.225.535,1.12,1.12,0,0,1-.765.208h-.851q-1.813-2.8-3.007-3.371Zm0-1.492h1.165a3.2,3.2,0,0,0,1.158-.2,2.211,2.211,0,0,0,.92-.554.914.914,0,0,0,.237-.575,1.011,1.011,0,0,0-.451-.782,2.076,2.076,0,0,0-1.318-.361h-1.711Z" fill="#ed008f"/>
        <path id="Trazado_1012" data-name="Trazado 1012" d="M-351.118,128.773a4.6,4.6,0,0,1-1.263,3.308A3.929,3.929,0,0,1-355.3,133.4,3.889,3.889,0,0,1-358,132.3a4.567,4.567,0,0,1-1.485-3.53A4.59,4.59,0,0,1-358,125.235a3.89,3.89,0,0,1,2.693-1.1,3.93,3.93,0,0,1,2.923,1.322A4.608,4.608,0,0,1-351.118,128.773Zm-1.492,0a3.19,3.19,0,0,0-.823-2.253,2.487,2.487,0,0,0-1.871-.892,2.476,2.476,0,0,0-1.863.9,3.2,3.2,0,0,0-.823,2.25,3.18,3.18,0,0,0,.823,2.245,2.479,2.479,0,0,0,1.863.892,2.493,2.493,0,0,0,1.871-.888A3.178,3.178,0,0,0-352.61,128.773Z" fill="#ed008f"/>
        <path id="Trazado_1013" data-name="Trazado 1013" d="M-347.566,130.156v1.536h1.507a1.139,1.139,0,0,1,.768.207.7.7,0,0,1,.229.542.69.69,0,0,1-.229.535,1.133,1.133,0,0,1-.768.208h-3.233a1.133,1.133,0,0,1-.768-.208.7.7,0,0,1-.229-.542.685.685,0,0,1,.233-.535,1.139,1.139,0,0,1,.764-.207h.233v-5.839h-.233a1.139,1.139,0,0,1-.768-.207.7.7,0,0,1-.229-.542.7.7,0,0,1,.229-.543,1.139,1.139,0,0,1,.768-.207l3.436.007a3.378,3.378,0,0,1,2.4.826,2.65,2.65,0,0,1,.884,2.013,2.679,2.679,0,0,1-.3,1.238,2.824,2.824,0,0,1-.753.862,4.088,4.088,0,0,1-1.078.641,4.065,4.065,0,0,1-1.452.215Zm0-1.493h1.383a2.471,2.471,0,0,0,1.547-.44,1.3,1.3,0,0,0,.571-1.059,1.174,1.174,0,0,0-.462-.917,1.979,1.979,0,0,0-1.321-.394h-1.718Z" fill="#ed008f"/>
        <path id="Trazado_1014" data-name="Trazado 1014" d="M-339.632,129.5v2.192h3.807v-.808a1.135,1.135,0,0,1,.207-.768.7.7,0,0,1,.543-.23.69.69,0,0,1,.535.23,1.135,1.135,0,0,1,.207.768v2.3h-7.025a1.133,1.133,0,0,1-.768-.208.7.7,0,0,1-.229-.542.685.685,0,0,1,.233-.535,1.139,1.139,0,0,1,.764-.207h.233v-5.839h-.233a1.139,1.139,0,0,1-.768-.207.7.7,0,0,1-.229-.542.7.7,0,0,1,.229-.543,1.139,1.139,0,0,1,.768-.207l6.7.007v2.271a1.142,1.142,0,0,1-.2.761.686.686,0,0,1-.539.229.7.7,0,0,1-.542-.225,1.119,1.119,0,0,1-.208-.765v-.779h-3.479v2.155h1.31a1.619,1.619,0,0,1,.109-.75.717.717,0,0,1,.641-.356.689.689,0,0,1,.535.229,1.139,1.139,0,0,1,.207.768v1.718a1.262,1.262,0,0,1-.116.655.723.723,0,0,1-.626.342.717.717,0,0,1-.641-.356,1.643,1.643,0,0,1-.109-.758Z" fill="#ed008f"/>
        <path id="Trazado_1015" data-name="Trazado 1015" d="M-326.642,124.74a1,1,0,0,1,.3-.284.7.7,0,0,1,.353-.1.692.692,0,0,1,.535.226,1.121,1.121,0,0,1,.208.764v1.267a1.138,1.138,0,0,1-.208.768.688.688,0,0,1-.535.229.683.683,0,0,1-.48-.167,1.148,1.148,0,0,1-.27-.626.91.91,0,0,0-.2-.474,2.067,2.067,0,0,0-.833-.524,3.1,3.1,0,0,0-1.074-.2,2.631,2.631,0,0,0-1.23.291,2.687,2.687,0,0,0-.99.946,2.78,2.78,0,0,0-.429,1.558v.968a2.34,2.34,0,0,0,.782,1.8,3.085,3.085,0,0,0,2.173.721,3.849,3.849,0,0,0,1.4-.226,2.129,2.129,0,0,0,.713-.517,1.845,1.845,0,0,1,.364-.3.634.634,0,0,1,.3-.069.722.722,0,0,1,.524.226.727.727,0,0,1,.226.531,1.029,1.029,0,0,1-.306.655,3.029,3.029,0,0,1-1.143.8,5.325,5.325,0,0,1-2.075.393,5.145,5.145,0,0,1-2.387-.546,3.788,3.788,0,0,1-1.464-1.379,3.745,3.745,0,0,1-.6-2.057v-1.011a4.51,4.51,0,0,1,.543-2.173,3.831,3.831,0,0,1,1.5-1.555,4.061,4.061,0,0,1,2.038-.546,4.7,4.7,0,0,1,1.212.15A3.777,3.777,0,0,1-326.642,124.74Z" fill="#ed008f"/>
        <path id="Trazado_1016" data-name="Trazado 1016" d="M-316.968,125.853v4.23a3.161,3.161,0,0,1-.994,2.351,3.3,3.3,0,0,1-2.391.968,3.451,3.451,0,0,1-1.3-.244,3.306,3.306,0,0,1-1.092-.717,3.964,3.964,0,0,1-.753-.986,2.958,2.958,0,0,1-.269-1.372v-4.23a.992.992,0,0,1-.7-.211.7.7,0,0,1-.226-.538.69.69,0,0,1,.226-.539,1.145,1.145,0,0,1,.771-.2l1.959-.007a1.139,1.139,0,0,1,.768.207.7.7,0,0,1,.229.543.7.7,0,0,1-.229.542,1.139,1.139,0,0,1-.768.207h-.539v4.361a1.566,1.566,0,0,0,.557,1.183,1.912,1.912,0,0,0,1.343.513,2.03,2.03,0,0,0,.983-.248,1.971,1.971,0,0,0,.749-.72,1.368,1.368,0,0,0,.182-.728v-4.361H-319a1.137,1.137,0,0,1-.768-.207.7.7,0,0,1-.23-.542.7.7,0,0,1,.23-.543,1.137,1.137,0,0,1,.768-.207l1.958.007a1.151,1.151,0,0,1,.768.2.686.686,0,0,1,.229.539.7.7,0,0,1-.226.538A.991.991,0,0,1-316.968,125.853Z" fill="#ed008f"/>
        <path id="Trazado_1017" data-name="Trazado 1017" d="M-309.952,130.782h-3.625l-.364.91h.364a1.139,1.139,0,0,1,.768.207.7.7,0,0,1,.229.542.687.687,0,0,1-.229.535,1.133,1.133,0,0,1-.768.208h-2.009a1.133,1.133,0,0,1-.768-.208.7.7,0,0,1-.229-.542.694.694,0,0,1,.24-.546,1.143,1.143,0,0,1,.793-.2l2.344-5.839h-.975a1.139,1.139,0,0,1-.768-.207.7.7,0,0,1-.23-.542.7.7,0,0,1,.23-.543,1.139,1.139,0,0,1,.768-.207l3.225.007,2.97,7.331a1.365,1.365,0,0,1,.691.116.744.744,0,0,1,.335.633.691.691,0,0,1-.226.535,1.116,1.116,0,0,1-.764.208h-2.009a1.133,1.133,0,0,1-.768-.208.7.7,0,0,1-.229-.542.688.688,0,0,1,.229-.535,1.139,1.139,0,0,1,.768-.207h.364Zm-.619-1.493-1.2-2.955-1.208,2.955Z" fill="#ed008f"/>
        <path id="Trazado_1018" data-name="Trazado 1018" d="M-304.711,129.813v1.879h.538a1.139,1.139,0,0,1,.768.207.7.7,0,0,1,.23.542.687.687,0,0,1-.23.535,1.133,1.133,0,0,1-.768.208h-2.264a1.133,1.133,0,0,1-.768-.208.7.7,0,0,1-.229-.542.685.685,0,0,1,.233-.535,1.139,1.139,0,0,1,.764-.207h.233v-5.839h-.233a1.139,1.139,0,0,1-.768-.207.7.7,0,0,1-.229-.542.7.7,0,0,1,.229-.543,1.139,1.139,0,0,1,.768-.207l3.378.007a3.536,3.536,0,0,1,2.45.783,2.468,2.468,0,0,1,.87,1.9,2.138,2.138,0,0,1-.408,1.271,3.54,3.54,0,0,1-1.23,1.015,9.538,9.538,0,0,1,1.011,1.063,15.574,15.574,0,0,1,.9,1.3,1.59,1.59,0,0,1,.75.116.728.728,0,0,1,.328.633.694.694,0,0,1-.226.535,1.117,1.117,0,0,1-.764.208h-.852q-1.814-2.8-3.007-3.371Zm0-1.492h1.164a3.2,3.2,0,0,0,1.158-.2,2.223,2.223,0,0,0,.921-.554.918.918,0,0,0,.236-.575,1.011,1.011,0,0,0-.451-.782,2.076,2.076,0,0,0-1.318-.361h-1.71Z" fill="#ed008f"/>
        <path id="Trazado_1019" data-name="Trazado 1019" d="M-293.308,125.853v5.839h1.507a1.139,1.139,0,0,1,.768.207.7.7,0,0,1,.229.542.687.687,0,0,1-.229.535,1.133,1.133,0,0,1-.768.208h-4.506a1.133,1.133,0,0,1-.768-.208.7.7,0,0,1-.229-.542.688.688,0,0,1,.229-.535,1.139,1.139,0,0,1,.768-.207h1.507v-5.839h-1.507a1.139,1.139,0,0,1-.768-.207.7.7,0,0,1-.229-.542.7.7,0,0,1,.229-.543,1.139,1.139,0,0,1,.768-.207l4.506.007a1.151,1.151,0,0,1,.768.2.686.686,0,0,1,.229.539.7.7,0,0,1-.229.542,1.139,1.139,0,0,1-.768.207Z" fill="#ed008f"/>
        <path id="Trazado_1020" data-name="Trazado 1020" d="M-283.627,130.782h-3.625l-.364.91h.364a1.139,1.139,0,0,1,.768.207.7.7,0,0,1,.229.542.686.686,0,0,1-.229.535,1.133,1.133,0,0,1-.768.208h-2.009a1.133,1.133,0,0,1-.768-.208.7.7,0,0,1-.23-.542.7.7,0,0,1,.241-.546,1.143,1.143,0,0,1,.793-.2l2.344-5.839h-.975a1.137,1.137,0,0,1-.768-.207.7.7,0,0,1-.23-.542.7.7,0,0,1,.23-.543,1.137,1.137,0,0,1,.768-.207l3.224.007,2.971,7.331a1.366,1.366,0,0,1,.691.116.744.744,0,0,1,.335.633.691.691,0,0,1-.226.535,1.116,1.116,0,0,1-.764.208h-2.009a1.133,1.133,0,0,1-.768-.208.7.7,0,0,1-.23-.542.689.689,0,0,1,.23-.535,1.139,1.139,0,0,1,.768-.207h.364Zm-.619-1.493-1.2-2.955-1.208,2.955Z" fill="#ed008f"/>
      </g>
    </g>
  </g>
</svg>
